<svg width="56" height="56" viewBox="0 0 56 56" fill="none" xmlns="http://www.w3.org/2000/svg">
<circle cx="28" cy="28" r="27" fill="#458D81"/>
<path d="M0 28C0 12.536 12.536 0 28 0C43.464 0 56 12.536 56 28C56 43.464 43.464 56 28 56C12.536 56 0 43.464 0 28Z" fill="#458D81"/>
<circle cx="27.5" cy="27.5" r="23.5" stroke="#F3F3F3" stroke-width="2"/>
<path fill-rule="evenodd" clip-rule="evenodd" d="M21.9998 34V38H23.9998V34H21.9998Z" fill="white"/>
<path fill-rule="evenodd" clip-rule="evenodd" d="M21.9998 26.2246V32H24.9998C25.265 32 25.5193 32.1054 25.7068 32.2929C25.8944 32.4805 25.9997 32.7348 25.9998 33V39C25.9997 39.2652 25.8944 39.5195 25.7068 39.7071C25.5193 39.8946 25.265 40 24.9998 40H21.9998V42C21.9998 42.2652 22.1051 42.5195 22.2927 42.7071C22.4802 42.8946 22.7345 43 22.9998 43H32.9998C33.265 43 33.5193 42.8946 33.7068 42.7071C33.8944 42.5195 33.9997 42.2652 33.9998 42V38.2246L21.9998 26.2246Z" fill="white"/>
<path fill-rule="evenodd" clip-rule="evenodd" d="M25.9998 13C25.7346 13 25.4803 13.1054 25.2928 13.2929C25.1052 13.4805 24.9999 13.7348 24.9998 14V23C24.8176 23 24.6403 23.021 24.4666 23.0527L15.7069 14.293C15.5828 14.1692 15.4283 14.0802 15.2589 14.035C15.0896 13.9897 14.9113 13.9898 14.742 14.0352C14.5723 14.0801 14.4173 14.1691 14.2928 14.293C14.1053 14.4805 14 14.7348 14 15C14 15.2652 14.1053 15.5195 14.2928 15.707L40.2928 41.707C40.4803 41.8945 40.7347 41.9998 40.9998 41.9998C41.265 41.9998 41.5193 41.8945 41.7069 41.707C41.8944 41.5195 41.9997 41.2652 41.9997 41C41.9997 40.7348 41.8944 40.4805 41.7069 40.293L33.9998 32.5859V26C33.9998 24.355 32.6448 23 30.9998 23V14C30.9998 13.7348 30.8945 13.4805 30.7069 13.2929C30.5194 13.1054 30.2651 13 29.9998 13H25.9998ZM26.9998 15H28.9998V23H26.9998V15Z" fill="white"/>
</svg>
