<svg width="34" height="42" viewBox="0 0 34 42" fill="none" xmlns="http://www.w3.org/2000/svg">
<path d="M30.6076 29.7619V18.7433C30.6076 14.976 29.101 11.5858 26.6048 9.13748C24.1103 6.68723 20.7663 5.18066 16.9989 5.18066C9.51222 5.18066 3.39025 11.2546 3.39025 18.7893V29.8079L0 33.9046V36.6363H34V33.9046C34 33.8586 30.6076 29.7619 30.6076 29.7619ZM16.9989 29.6203C15.8695 29.6203 14.9736 28.7263 14.9736 27.5949C14.9736 26.4655 15.8676 25.5696 16.9989 25.5696C18.1284 25.5696 19.0243 26.4636 19.0243 27.5949C19.0243 28.7263 18.1284 29.6203 16.9989 29.6203ZM19.0243 22.321C19.0243 23.4505 18.1303 24.3463 16.9989 24.3463C15.8695 24.3463 14.9736 23.4523 14.9736 22.321V14.1279C14.9736 12.9985 15.8676 12.1026 16.9989 12.1026C17.5636 12.1026 18.0824 12.3381 18.4595 12.7152C18.8366 13.0923 19.0721 13.6092 19.0721 14.1758L19.0243 22.321Z" fill="#458D81"/>
<path d="M20.5309 37.9092C20.5309 39.8407 18.9764 41.4411 16.9989 41.4411C15.0674 41.4411 13.467 39.8867 13.467 37.9092H20.5309Z" fill="#458D81"/>
<path d="M13.467 3.53191C13.467 1.55441 15.0674 0 16.9989 0C18.9305 0 20.5309 1.55441 20.5309 3.53191H13.467Z" fill="#458D81"/>
</svg>
