<svg width="30" height="30" viewBox="0 0 30 30" fill="none" xmlns="http://www.w3.org/2000/svg">
<path d="M21.9276 5.9683H23.8594C24.3615 5.9683 24.7685 5.56747 24.7685 5.07304V0.895263C24.7685 0.40083 24.3615 0 23.8594 0H21.9276C21.4255 0 21.0186 0.40083 21.0186 0.895263V5.07304C21.0186 5.56747 21.4255 5.9683 21.9276 5.9683Z" fill="#448C81"/>
<path d="M6.13565 5.9683H8.06742C8.56949 5.9683 8.97651 5.56747 8.97651 5.07304V0.895263C8.97651 0.40083 8.56949 0 8.06742 0H6.13565C5.63358 0 5.22656 0.40083 5.22656 0.895263V5.07304C5.22656 5.56747 5.63358 5.9683 6.13565 5.9683Z" fill="#448C81"/>
<path d="M30 4.77551C30 4.03246 29.3864 3.43262 28.6364 3.43262H25.6773V5.07096C25.6773 6.06021 24.8636 6.86149 23.8591 6.86149H21.9273C20.9273 6.86149 20.1091 6.06021 20.1091 5.07096V3.43262H9.88636V5.07096C9.88636 6.06021 9.06819 6.86149 8.06818 6.86149H6.13636C5.13181 6.86149 4.31818 6.06021 4.31818 5.07096V3.43262H1.36364C0.609103 3.43262 0 4.03246 0 4.77551V9.33688H30V4.77551Z" fill="#448C81"/>
<path d="M1.36364 29.9998H28.6318C29.3818 29.9998 29.9955 29.3955 29.9955 28.657V10.2324H0V28.657C0 29.3955 0.613625 29.9998 1.36364 29.9998ZM21.6091 12.6944C21.6091 12.1975 22.0136 11.7991 22.5182 11.7991H25.0364C25.5364 11.7991 25.9455 12.1975 25.9455 12.6944V15.1743C25.9455 15.6667 25.5364 16.0696 25.0364 16.0696H22.5182C22.0136 16.0696 21.6091 15.6667 21.6091 15.1743V12.6944ZM21.6091 18.3972C21.6091 17.9048 22.0136 17.502 22.5182 17.502H25.0364C25.5364 17.502 25.9455 17.9048 25.9455 18.3972V20.8816C25.9455 21.374 25.5364 21.7769 25.0364 21.7769H22.5182C22.0136 21.7769 21.6091 21.374 21.6091 20.8816V18.3972ZM15.7545 12.6944C15.7545 12.1975 16.1636 11.7991 16.6636 11.7991H19.1818C19.6864 11.7991 20.0909 12.1975 20.0909 12.6944V15.1743C20.0909 15.6667 19.6864 16.0696 19.1818 16.0696H16.6636C16.1636 16.0696 15.7545 15.6667 15.7545 15.1743V12.6944ZM15.7545 18.3972C15.7545 17.9048 16.1636 17.502 16.6636 17.502H19.1818C19.6864 17.502 20.0909 17.9048 20.0909 18.3972V20.8816C20.0909 21.374 19.6864 21.7769 19.1818 21.7769H16.6636C16.1636 21.7769 15.7545 21.374 15.7545 20.8816V18.3972ZM9.90454 12.6944C9.90454 12.1975 10.3091 11.7991 10.8136 11.7991H13.3318C13.8318 11.7991 14.2409 12.1975 14.2409 12.6944V15.1743C14.2409 15.6667 13.8318 16.0696 13.3318 16.0696H10.8136C10.3091 16.0696 9.90454 15.6667 9.90454 15.1743V12.6944ZM9.90454 18.3972C9.90454 17.9048 10.3091 17.502 10.8136 17.502H13.3318C13.8318 17.502 14.2409 17.9048 14.2409 18.3972V20.8816C14.2409 21.374 13.8318 21.7769 13.3318 21.7769H10.8136C10.3091 21.7769 9.90454 21.374 9.90454 20.8816V18.3972ZM9.90454 24.1045C9.90454 23.6121 10.3091 23.2093 10.8136 23.2093H13.3318C13.8318 23.2093 14.2409 23.6121 14.2409 24.1045V26.5844C14.2409 27.0813 13.8318 27.4797 13.3318 27.4797H10.8136C10.3091 27.4797 9.90454 27.0813 9.90454 26.5844V24.1045ZM4.10908 12.6362C4.10908 12.1438 4.51818 11.7409 5.01817 11.7409H7.53637C8.03636 11.7409 8.44546 12.1438 8.44546 12.6362V15.1161C8.44546 15.6085 8.03636 16.0114 7.53637 16.0114H5.01817C4.51818 16.0114 4.10908 15.6085 4.10908 15.1161V12.6362ZM4.04999 18.3972C4.04999 17.9048 4.45909 17.502 4.95908 17.502H7.47728C7.98182 17.502 8.38637 17.9048 8.38637 18.3972V20.8816C8.38637 21.374 7.98182 21.7769 7.47728 21.7769H4.95908C4.45909 21.7769 4.04999 21.374 4.04999 20.8816V18.3972ZM4.04999 24.1045C4.04999 23.6121 4.45909 23.2093 4.95908 23.2093H7.47728C7.98182 23.2093 8.38637 23.6121 8.38637 24.1045V26.5844C8.38637 27.0813 7.98182 27.4797 7.47728 27.4797H4.95908C4.45909 27.4797 4.04999 27.0813 4.04999 26.5844V24.1045Z" fill="#448C81"/>
</svg>
