<svg width="55" height="55" viewBox="0 0 55 55" fill="none" xmlns="http://www.w3.org/2000/svg">
<path fill-rule="evenodd" clip-rule="evenodd" d="M18.5557 39.3911C17.7439 40.2029 16.4267 40.2029 15.6089 39.3911C14.797 38.5793 14.797 37.2561 15.6089 36.4443L24.5531 27.5L15.6089 18.5557C14.797 17.7439 14.797 16.4267 15.6089 15.6089C16.4267 14.797 17.7439 14.797 18.5557 15.6089L27.5 24.5531L36.4443 15.6089C37.2561 14.797 38.5793 14.797 39.3911 15.6089C40.203 16.4267 40.203 17.7439 39.3911 18.5557L30.4469 27.5L39.3911 36.4443C40.203 37.2561 40.203 38.5793 39.3911 39.3911C38.5793 40.2029 37.2561 40.2029 36.4443 39.3911L27.5 30.4469L18.5557 39.3911Z" fill="#478C83"/>
<circle cx="27.5" cy="27.5" r="26" stroke="#478C83" stroke-width="3"/>
</svg>
