<svg width="20" height="20" viewBox="0 0 20 20" fill="none" xmlns="http://www.w3.org/2000/svg">
<path fill-rule="evenodd" clip-rule="evenodd" d="M4.08877 1.85344C5.3734 0.905445 6.89228 0.255757 8.54211 0.00768913C8.72957 -0.0205718 8.90197 0.0293558 9.04547 0.152762C9.18898 0.276482 9.26371 0.439454 9.26371 0.628802V2.65731C9.26371 2.96127 9.05301 3.21625 8.75438 3.27403C7.84029 3.45019 6.9912 3.80973 6.2473 4.31277C5.99577 4.48297 5.66637 4.45157 5.45159 4.23678L4.01749 2.8027C3.8834 2.66893 3.82123 2.50062 3.83536 2.3119C3.84949 2.12286 3.93647 1.96586 4.08877 1.85344ZM5.42866 12.2767H7.30866C7.49205 12.2767 7.64215 12.4265 7.64215 12.6099V15.1056C7.64215 15.219 7.58719 15.316 7.49016 15.3744C7.39345 15.4328 7.28166 15.436 7.18149 15.3832C6.42409 14.9832 5.76026 14.4289 5.23146 13.7632C5.13946 13.6477 5.09518 13.5205 5.09518 13.3729V12.6099C5.09518 12.4265 5.24528 12.2767 5.42866 12.2767ZM14.8657 13.7635C14.3369 14.4292 13.6731 14.9832 12.9154 15.3832C12.8155 15.436 12.7037 15.4328 12.6067 15.3744C12.51 15.316 12.455 15.219 12.455 15.1056V7.04623C12.455 6.86254 12.6048 6.71275 12.7885 6.71275H14.6685C14.8519 6.71275 15.0017 6.86254 15.0017 7.04623V13.3729C15.0017 13.5208 14.9574 13.6477 14.8657 13.7635ZM10.7669 16.0499C10.5311 16.0772 10.2915 16.0916 10.0484 16.0916C9.8057 16.0916 9.56579 16.0772 9.33028 16.0499C9.01219 16.0128 8.77511 15.7465 8.77511 15.4262V9.90153C8.77511 9.71815 8.9252 9.56805 9.10859 9.56805H10.9886C11.172 9.56805 11.3221 9.71815 11.3221 9.90153V15.4262C11.3221 15.7465 11.085 16.0128 10.7669 16.0499ZM11.5551 0.00768913C15.917 0.663657 19.3611 4.12311 19.9929 8.49319C20.0199 8.68003 19.9694 8.85117 19.846 8.99404C19.7222 9.1366 19.5599 9.21102 19.3712 9.21102H17.3452C17.0396 9.21102 16.7834 8.99781 16.7278 8.69762C16.2204 5.96101 14.0725 3.80031 11.3425 3.27403C11.0442 3.21656 10.8335 2.96127 10.8335 2.65762V0.628802C10.8335 0.439454 10.9082 0.276482 11.0517 0.152762C11.1952 0.0293558 11.3676 -0.0205718 11.5551 0.00768913ZM19.9757 11.5058C19.2252 16.3133 15.0667 19.9919 10.0484 19.9919C4.49887 19.9919 0 15.4931 0 9.94361C0 7.71225 0.727569 5.65109 1.95819 3.98369C2.0706 3.83139 2.22761 3.74473 2.41665 3.7306C2.60537 3.71647 2.77368 3.77864 2.90745 3.91272L4.34155 5.34681C4.55634 5.56159 4.58805 5.89068 4.41754 6.14251C3.68369 7.22742 3.25506 8.53559 3.25506 9.94361C3.25506 13.6957 6.2966 16.7372 10.0484 16.7372C13.3412 16.7372 16.0863 14.3947 16.7093 11.2857C16.7686 10.9893 17.0227 10.7811 17.3248 10.7811H19.3552C19.5451 10.7811 19.7087 10.8564 19.8321 11.0006C19.9559 11.145 20.0049 11.318 19.9757 11.5058Z" fill="#488A7E"/>
</svg>
