<svg width="8" height="8" viewBox="0 0 8 8" fill="none" xmlns="http://www.w3.org/2000/svg">
<g clip-path="url(#clip0_3_22)">
<path fill-rule="evenodd" clip-rule="evenodd" d="M4.98776 4.68951L3.0301 2.73201C2.84996 2.55125 2.84996 2.2592 3.0301 2.07908L4.00925 1.10001C4.10189 1.00802 4.22284 0.962347 4.34314 0.964919H5.39049L5.73145 0.623981C5.91995 0.4355 6.22553 0.4355 6.41339 0.623981L6.5131 0.724333L7.2375 0L7.72 0.48246L6.9956 1.20679L7.09596 1.3065C7.28446 1.49434 7.28446 1.7999 7.09596 1.98838L6.755 2.32932V3.37658C6.75757 3.49687 6.71189 3.61781 6.6199 3.71044L5.64074 4.68951C5.46061 4.86963 5.16854 4.86963 4.98776 4.68951Z" fill="#478C83"/>
<path fill-rule="evenodd" clip-rule="evenodd" d="M0.4825 7.72L0 7.23754L0.724393 6.51321L0.624033 6.41286C0.435537 6.22502 0.435537 5.91946 0.624033 5.73098L0.965 5.39004V4.34278C0.962427 4.22249 1.0081 4.10155 1.1001 4.00892L2.07925 3.02985C2.25939 2.84973 2.55146 2.84973 2.73224 3.02985L2.81651 3.11412L3.93784 1.99288C4.02148 1.9099 4.15658 1.9099 4.24021 1.99288L4.27945 2.03276C4.36309 2.11575 4.36309 2.25148 4.27945 2.33446L3.15812 3.4557L4.26401 4.5615L5.38534 3.44026C5.46898 3.35728 5.60408 3.35728 5.68771 3.44026L5.72695 3.48014C5.81059 3.56313 5.81059 3.69886 5.72695 3.78184L4.60562 4.90308L4.6899 4.98735C4.87003 5.16811 4.87003 5.46016 4.6899 5.64028L3.71075 6.61935C3.61811 6.71134 3.49716 6.75701 3.37686 6.75444H2.32951L1.98854 7.09538C1.80005 7.28386 1.49446 7.28386 1.30661 7.09538L1.20689 6.99567L0.4825 7.72Z" fill="#478C83"/>
</g>
<defs>
<clipPath id="clip0_3_22">
<rect width="7.72" height="7.72" fill="white"/>
</clipPath>
</defs>
</svg>
