<svg width="72" height="81" viewBox="0 0 72 81" fill="none" xmlns="http://www.w3.org/2000/svg">
<path d="M54.3125 46C52.2759 46 50.625 44.3368 50.625 42.285V20.6526C50.625 13.3617 44.7372 7.42992 37.5 7.42992C30.263 7.42992 24.375 13.3616 24.375 20.6526V33.2345C24.375 35.2862 22.7241 36.9494 20.6875 36.9494C18.651 36.9494 17 35.2862 17 33.2345V20.6526C17 9.26466 26.1962 0 37.5 0C48.8038 0 58 9.26466 58 20.6526V42.285C58 44.3368 56.349 46 54.3125 46Z" fill="#B1B4B5"/>
<path d="M58.4199 81H13.5801C9.39376 81 6 77.6132 6 73.4354V47.5646C6 43.3868 9.39376 40 13.5801 40H58.4199C62.6062 40 66 43.3868 66 47.5646V73.4353C66 77.6132 62.6062 81 58.4199 81Z" fill="#FFB636"/>
<path d="M67 48C69.7614 48 72 50.2386 72 53V66C72 68.7614 69.7614 71 67 71H5C2.23858 71 9.66415e-08 68.7614 0 66V53C9.66416e-08 50.2386 2.23858 48 5 48H67Z" fill="#FFB636"/>
<path d="M13.7015 75H13.2985C12.0291 75 11 74.0259 11 72.8242V48.1758C11 46.9741 12.0291 46 13.2985 46H13.7015C14.9709 46 16 46.9741 16 48.1758V72.8242C16 74.0259 14.9709 75 13.7015 75Z" fill="#FFD469"/>
<path d="M3.29622 63.725H4.20963C5.09344 63.725 5.77427 63.4058 6.25212 62.7672C6.72151 62.1329 6.9562 61.2977 6.9562 60.2617C6.9562 58.2868 6.32401 57.1239 5.05961 56.773C4.80165 56.7011 4.51833 56.6651 4.20963 56.6651H3.29622V63.725ZM1.78021 65V55.3901H4.04471C6.36206 55.3901 7.76178 56.3226 8.24386 58.1875C8.3961 58.7837 8.47221 59.4117 8.47221 60.0714C8.47221 60.7311 8.4257 61.2872 8.33266 61.7396C8.24386 62.1921 8.08951 62.6213 7.86962 63.0273C7.64972 63.4332 7.37485 63.78 7.04501 64.0676C6.32189 64.6892 5.32179 65 4.04471 65H1.78021ZM9.47443 65V58.308H10.8319V65H9.47443ZM9.37928 57.7244V56.183H10.9207V57.7244H9.37928ZM12.2527 65V58.308H13.6102V59.2277C13.6271 59.2066 13.6651 59.1516 13.7243 59.0628L13.8766 58.8345C14.1895 58.4074 14.7054 58.1938 15.4243 58.1938C15.5004 58.1938 15.5765 58.2002 15.6526 58.2128V59.3483C14.883 59.361 14.329 59.5745 13.9907 59.9889C13.8385 60.175 13.7116 60.4139 13.6102 60.7057V65H12.2527ZM17.3082 60.8643H19.6552C19.6552 60.5344 19.5981 60.249 19.4839 60.008C19.264 59.5639 18.9595 59.3419 18.5705 59.3419C18.3379 59.3419 18.1328 59.3948 17.9552 59.5005C17.7818 59.602 17.6507 59.7352 17.5619 59.9001C17.3928 60.2088 17.3082 60.5302 17.3082 60.8643ZM16.2426 63.706C16.1115 63.4142 16.0184 63.1161 15.9635 62.8116C15.9127 62.5029 15.8873 62.116 15.8873 61.6508C15.8873 61.1814 15.9423 60.7268 16.0523 60.2871C16.1622 59.8473 16.3039 59.4984 16.4773 59.2404C16.6506 58.9782 16.86 58.7668 17.1052 58.6061C17.5239 58.3313 18.0165 58.1938 18.5832 58.1938C19.116 58.1938 19.5812 58.3524 19.9787 58.6696C20.7229 59.27 21.0781 60.3843 21.0443 62.0124H17.2448C17.2448 62.8666 17.471 63.4417 17.9235 63.7377C18.1561 63.89 18.3992 63.9661 18.6529 63.9661C18.9109 63.9661 19.1245 63.9344 19.2936 63.8709C19.4628 63.8075 19.5981 63.7356 19.6996 63.6553C19.8011 63.5749 19.8941 63.4819 19.9787 63.3762C20.0928 63.2282 20.1711 63.1013 20.2134 62.9956L21.076 63.5538C20.7631 64.0993 20.429 64.4883 20.0738 64.7209C19.6805 64.9831 19.2471 65.1142 18.7735 65.1142C18.3041 65.1142 17.9023 65.0529 17.5683 64.9302C17.2384 64.8076 16.9678 64.6448 16.7563 64.4418C16.5491 64.2388 16.3779 63.9936 16.2426 63.706ZM21.8245 61.7016C21.8245 60.3737 22.1142 59.4286 22.6935 58.8662C23.1502 58.4179 23.7888 58.1938 24.6092 58.1938C25.4338 58.1938 26.0786 58.5406 26.5438 59.2341C26.696 59.4582 26.8018 59.6675 26.861 59.8621L25.7129 60.3695C25.679 60.0228 25.5374 59.7479 25.2879 59.5449C25.1187 59.4096 24.9094 59.3419 24.6599 59.3419C23.6746 59.3419 23.1819 60.1094 23.1819 61.6445C23.1819 62.4014 23.3109 62.9787 23.5689 63.3762C23.8268 63.7694 24.2032 63.9661 24.698 63.9661C25.0447 63.9661 25.3259 63.8392 25.5416 63.5855C25.7277 63.3656 25.863 63.1309 25.9476 62.8814L26.9878 63.3381C26.8906 63.7145 26.6834 64.0718 26.3662 64.4101C25.9222 64.8795 25.3534 65.1142 24.6599 65.1142C22.7696 65.1142 21.8245 63.9766 21.8245 61.7016ZM27.508 59.4561V58.308H28.5038V55.8659H29.8613V58.308H31.2631V59.4561H29.8613V63.0463C29.8613 63.4058 29.9247 63.6531 30.0516 63.7885C30.1827 63.9196 30.4004 63.9851 30.7049 63.9851C30.8275 63.9851 30.9502 63.9766 31.0728 63.9597C31.1997 63.9428 31.2631 63.9322 31.2631 63.928V64.8858C31.0347 64.9915 30.8571 65.0592 30.7303 65.0888C30.6076 65.1184 30.4554 65.1332 30.2736 65.1332C30.096 65.1332 29.9628 65.1311 29.874 65.1269C29.7894 65.1226 29.6837 65.1078 29.5568 65.0825C29.4342 65.0571 29.3263 65.0233 29.2333 64.981C29.1445 64.9345 29.0515 64.8689 28.9542 64.7843C28.8569 64.6998 28.7766 64.5983 28.7132 64.4799C28.5736 64.2092 28.5038 63.8582 28.5038 63.4269V59.4561H27.508ZM35.3227 62.1583V55.3901H36.8387V61.7967C36.8387 62.8666 37.1834 63.5305 37.8726 63.7885C38.0503 63.8561 38.249 63.89 38.4689 63.89C38.6888 63.89 38.8875 63.8603 39.0652 63.8011C39.2428 63.7419 39.3865 63.6679 39.4965 63.5791C39.6064 63.4903 39.7016 63.3783 39.7819 63.243C39.8623 63.1034 39.9215 62.9765 39.9595 62.8624C39.9976 62.7482 40.0293 62.6129 40.0547 62.4564C40.0801 62.2534 40.0927 62.0335 40.0927 61.7967V55.3901H41.6405V62.1583C41.6405 63.1267 41.3212 63.8942 40.6827 64.4608C40.1541 64.9302 39.4183 65.1649 38.4752 65.1649C37.0417 65.1649 36.0902 64.6215 35.6208 63.5347C35.4221 63.0865 35.3227 62.6277 35.3227 62.1583ZM47.9519 59.9826V65H46.5945V60.3378C46.5945 60.0333 46.5014 59.7923 46.3154 59.6147C46.1335 59.4328 45.9157 59.3419 45.662 59.3419C45.4083 59.3419 45.1567 59.418 44.9072 59.5703C44.6577 59.7183 44.4716 59.8663 44.349 60.0143V65H42.9916V58.308H44.349V59.0184C44.5943 58.7732 44.8501 58.5744 45.1165 58.4222C45.3871 58.2699 45.7022 58.1938 46.0616 58.1938C46.6114 58.1938 47.0638 58.3439 47.4191 58.6442C47.7743 58.9402 47.9519 59.3863 47.9519 59.9826ZM49.3474 65.019V55.3901H50.7048V65.019H49.3474ZM53.1977 60.8833C53.1723 61.1074 53.1596 61.3485 53.1596 61.6064C53.1596 61.8644 53.1723 62.097 53.1977 62.3042C53.223 62.5114 53.2674 62.7186 53.3309 62.9258C53.3985 63.133 53.4831 63.3127 53.5846 63.465C53.8129 63.8033 54.1343 63.9724 54.5488 63.9724C55.4664 63.9724 55.9252 63.2007 55.9252 61.6572C55.9252 60.7522 55.7899 60.1242 55.5193 59.7733C55.2994 59.4857 54.9759 59.3419 54.5488 59.3419C53.7664 59.3419 53.3161 59.8557 53.1977 60.8833ZM51.8022 61.6508C51.8022 60.5936 52.0453 59.7542 52.5316 59.1326C53.0222 58.5067 53.6945 58.1938 54.5488 58.1938C55.1154 58.1938 55.6059 58.3376 56.0204 58.6251C56.8619 59.2129 57.2826 60.2236 57.2826 61.6572C57.2826 63.4459 56.7244 64.5433 55.6081 64.9493C55.2994 65.0634 54.9463 65.1205 54.5488 65.1205C54.1555 65.1205 53.8024 65.0634 53.4894 64.9493C53.1765 64.8351 52.9165 64.6765 52.7092 64.4735C52.502 64.2705 52.3287 64.021 52.1891 63.725C51.9312 63.1753 51.8022 62.4839 51.8022 61.6508ZM58.0311 61.7016C58.0311 60.3737 58.3208 59.4286 58.9001 58.8662C59.3568 58.4179 59.9954 58.1938 60.8158 58.1938C61.6404 58.1938 62.2853 58.5406 62.7504 59.2341C62.9027 59.4582 63.0084 59.6675 63.0676 59.8621L61.9195 60.3695C61.8856 60.0228 61.744 59.7479 61.4945 59.5449C61.3253 59.4096 61.116 59.3419 60.8665 59.3419C59.8812 59.3419 59.3886 60.1094 59.3886 61.6445C59.3886 62.4014 59.5175 62.9787 59.7755 63.3762C60.0334 63.7694 60.4098 63.9661 60.9046 63.9661C61.2513 63.9661 61.5325 63.8392 61.7482 63.5855C61.9343 63.3656 62.0696 63.1309 62.1542 62.8814L63.1944 63.3381C63.0972 63.7145 62.89 64.0718 62.5728 64.4101C62.1288 64.8795 61.56 65.1142 60.8665 65.1142C58.9763 65.1142 58.0311 63.9766 58.0311 61.7016ZM64.3933 65V55.3901H65.7507V60.8008L67.679 58.308H69.3283L67.3873 60.7818L69.4424 65H67.9074L66.4485 61.9807L65.7507 62.8624V65H64.3933Z" fill="#4B4B4C"/>
</svg>
