<svg width="8" height="8" viewBox="0 0 8 8" fill="none" xmlns="http://www.w3.org/2000/svg">
<path d="M4.18855 4.21051L3.6327 4.76638L2.9536 4.08726L3.50945 3.53143C3.63262 3.40827 3.63262 3.20783 3.50945 3.08467C3.38629 2.96149 3.18586 2.96149 3.06269 3.08467L2.50682 3.64052L2.22764 3.36136C2.15362 3.28731 2.03359 3.28732 1.95957 3.36136L1.55631 3.76459C1.48229 3.83861 1.48229 3.95864 1.55631 4.03266L1.61649 4.09287L0.705257 5.00407C0.662839 5.0465 0.643004 5.10651 0.65179 5.16585L0.792212 6.11469L0.055515 6.85139C-0.018505 6.92539 -0.018505 7.04542 0.055515 7.11944L0.600551 7.66446C0.674571 7.7385 0.794584 7.7385 0.868604 7.66446L1.60532 6.92775L2.55416 7.06819C2.6135 7.07695 2.67353 7.05716 2.71593 7.0147L3.62714 6.10348L3.68733 6.16367C3.76135 6.23767 3.88138 6.23767 3.9554 6.16367L4.35865 5.76039C4.43269 5.68642 4.43269 5.56633 4.35865 5.49233L4.07948 5.21316L4.63533 4.65731C4.75848 4.53413 4.75848 4.3337 4.63533 4.21053C4.51213 4.08735 4.31174 4.08735 4.18855 4.21051Z" fill="#E74C3C"/>
<path d="M7.66447 0.60056L7.11945 0.0554881C7.04545 -0.018496 6.9254 -0.018496 6.8514 0.0554881L6.11468 0.792221L5.16582 0.651781C5.10648 0.643013 5.04648 0.66283 5.00406 0.705284L4.09284 1.6165L4.03265 1.5563C3.95865 1.4823 3.83862 1.48226 3.76458 1.5563L3.36132 1.95956C3.2873 2.03358 3.2873 2.1536 3.36132 2.22764L5.49232 4.35864C5.56632 4.43264 5.68637 4.43264 5.76041 4.35864L6.16366 3.95536C6.23766 3.88134 6.23766 3.76131 6.16366 3.6873L6.10347 3.62712L7.01469 2.71588C7.05711 2.67348 7.07694 2.61349 7.06818 2.55411L6.92775 1.60529L7.66447 0.868577C7.73851 0.794575 7.73851 0.674526 7.66447 0.60056Z" fill="#E74C3C"/>
</svg>
