<svg width="8" height="8" viewBox="0 0 8 8" fill="none" xmlns="http://www.w3.org/2000/svg">
<g clip-path="url(#clip0_1_5)">
<path d="M5.8691 7.595H1.9709L1.21697 7.84H6.62302L5.8691 7.595ZM5.8691 0.245122L6.62302 0.00012207H1.21697L1.9709 0.245122H5.8691ZM2.45 3.61381C2.41751 3.61381 2.38635 3.62672 2.36338 3.64969C2.3404 3.67266 2.3275 3.70382 2.3275 3.73631V4.10381C2.3275 4.1363 2.3404 4.16746 2.36338 4.19043C2.38635 4.21341 2.41751 4.22631 2.45 4.22631C2.48249 4.22631 2.51365 4.21341 2.53662 4.19043C2.55959 4.16746 2.5725 4.1363 2.5725 4.10381V3.73631C2.5725 3.70382 2.55959 3.67266 2.53662 3.64969C2.51365 3.62672 2.48249 3.61381 2.45 3.61381ZM0.857498 3.08945L2.57244 2.66076L2.5725 1.62141L0.857498 1.08553V3.08945Z" fill="#E74C3C"/>
<path d="M7.68626 0.0699466C7.64005 0.0359205 7.58637 0.0134549 7.5297 0.00442913C7.47303 -0.00459661 7.41502 8.00587e-05 7.36053 0.0180679L4.66553 0.893882C4.59077 0.918469 4.52575 0.966152 4.47983 1.03006C4.43391 1.09397 4.40946 1.1708 4.41 1.2495V6.59062C4.40946 6.66932 4.43391 6.74615 4.47983 6.81006C4.52575 6.87397 4.59077 6.92165 4.66553 6.94624C4.66553 6.94624 7.35894 7.8215 7.36053 7.82205C7.41512 7.83923 7.47296 7.84348 7.52948 7.83448C7.58599 7.82547 7.63965 7.80346 7.6862 7.77017C7.73393 7.7352 7.77273 7.68947 7.79945 7.63668C7.82618 7.58389 7.84007 7.52554 7.84 7.46637V0.373808C7.84007 0.314646 7.82619 0.256301 7.79948 0.203513C7.77277 0.150725 7.73398 0.104985 7.68626 0.0700079V0.0699466ZM5.7575 4.10387C5.7575 4.20134 5.71878 4.29481 5.64986 4.36373C5.58094 4.43265 5.48746 4.47137 5.39 4.47137C5.29253 4.47137 5.19906 4.43265 5.13014 4.36373C5.06122 4.29481 5.0225 4.20134 5.0225 4.10387V3.73637C5.0225 3.6389 5.06122 3.54543 5.13014 3.47651C5.19906 3.40759 5.29253 3.36887 5.39 3.36887C5.48746 3.36887 5.58094 3.40759 5.64986 3.47651C5.71878 3.54543 5.7575 3.6389 5.7575 3.73637V4.10387ZM7.2275 3.08945C7.22748 3.15434 7.20174 3.21657 7.15592 3.26252C7.1101 3.30847 7.04794 3.33438 6.98305 3.33457C6.96283 3.33456 6.94269 3.33207 6.92308 3.32716L5.20808 2.89841C5.15504 2.88522 5.10794 2.85464 5.0743 2.81155C5.04067 2.76847 5.02243 2.71536 5.0225 2.6607V1.62135C5.02233 1.56909 5.03895 1.51815 5.06991 1.47605C5.10088 1.43395 5.14455 1.4029 5.19449 1.3875L6.90943 0.851558C6.94611 0.840095 6.98498 0.837423 7.02289 0.84376C7.0608 0.850096 7.09668 0.865263 7.12765 0.888034C7.15861 0.910805 7.18378 0.940541 7.20113 0.97484C7.21847 1.00914 7.22751 1.04704 7.2275 1.08547V3.08945Z" fill="#E74C3C"/>
<path d="M3.17447 0.893905L0.479465 0.018091C0.424982 0.000118585 0.366988 -0.00455002 0.310331 0.00447541C0.253674 0.0135009 0.200001 0.0359581 0.153799 0.0699697C0.106072 0.10494 0.0672703 0.150678 0.0405464 0.203466C0.0138224 0.256254 -6.92974e-05 0.314603 3.15794e-07 0.37377V7.4664C-7.63464e-05 7.52556 0.0138059 7.58391 0.040519 7.63669C0.0672322 7.68948 0.106022 7.73522 0.153738 7.7702C0.200385 7.80331 0.254045 7.82522 0.310541 7.8342C0.367037 7.84319 0.424845 7.83902 0.479465 7.82202L3.17447 6.9462C3.24921 6.92162 3.31423 6.87394 3.36015 6.81005C3.40607 6.74615 3.43053 6.66933 3.43 6.59065V1.24952C3.43054 1.17083 3.40609 1.09399 3.36017 1.03008C3.31425 0.966175 3.24922 0.918492 3.17447 0.893905ZM2.8175 4.10377C2.8175 4.20124 2.77878 4.29471 2.70986 4.36363C2.64094 4.43255 2.54747 4.47127 2.45 4.47127C2.35253 4.47127 2.25906 4.43255 2.19014 4.36363C2.12122 4.29471 2.0825 4.20124 2.0825 4.10377V3.73627C2.0825 3.63881 2.12122 3.54533 2.19014 3.47641C2.25906 3.40749 2.35253 3.36877 2.45 3.36877C2.54747 3.36877 2.64094 3.40749 2.70986 3.47641C2.77878 3.54533 2.8175 3.63881 2.8175 3.73627V4.10377ZM2.8175 2.66072C2.81756 2.71537 2.79931 2.76847 2.76567 2.81154C2.73204 2.85461 2.68495 2.88518 2.63191 2.89837L0.916913 3.32712C0.897299 3.33201 0.877162 3.33447 0.856949 3.33447C0.792082 3.33428 0.729934 3.30839 0.684118 3.26247C0.638301 3.21655 0.612549 3.15434 0.6125 3.08947V1.08549C0.6125 1.04706 0.62154 1.00917 0.638889 0.974883C0.656239 0.940593 0.681412 0.910864 0.712374 0.8881C0.743336 0.865336 0.779219 0.850175 0.817124 0.843842C0.855028 0.837508 0.893891 0.840181 0.930572 0.851642L2.64557 1.38758C2.6955 1.403 2.73916 1.43405 2.77011 1.47615C2.80106 1.51825 2.81767 1.56918 2.8175 1.62143V2.66072ZM5.2675 2.66072L6.9825 3.08947V1.08549L5.2675 1.62149V2.66072ZM5.39 3.61383C5.35751 3.61383 5.32635 3.62674 5.30338 3.64971C5.28041 3.67269 5.2675 3.70384 5.2675 3.73633V4.10383C5.2675 4.13632 5.28041 4.16748 5.30338 4.19045C5.32635 4.21343 5.35751 4.22633 5.39 4.22633C5.42249 4.22633 5.45365 4.21343 5.47662 4.19045C5.49959 4.16748 5.5125 4.13632 5.5125 4.10383V3.73633C5.5125 3.70384 5.49959 3.67269 5.47662 3.64971C5.45365 3.62674 5.42249 3.61383 5.39 3.61383Z" fill="#E74C3C"/>
</g>
<defs>
<clipPath id="clip0_1_5">
<rect width="7.84" height="7.84" fill="white"/>
</clipPath>
</defs>
</svg>
