<svg width="8" height="8" viewBox="0 0 8 8" fill="none" xmlns="http://www.w3.org/2000/svg">
<path d="M7.16625 0H0.11025C0.0496125 0 0 0.0496125 0 0.11025V7.16625C0 7.22689 0.0496125 7.2765 0.11025 7.2765H7.16625C7.22689 7.2765 7.2765 7.22689 7.2765 7.16625V0.11025C7.2765 0.0496125 7.22689 0 7.16625 0ZM7.056 7.056H0.2205V0.2205H7.056V7.056Z" fill="#27AE60"/>
<path d="M0.55126 6.8355H6.72526C6.7859 6.8355 6.83551 6.78589 6.83551 6.72525V0.55125C6.83551 0.490612 6.7859 0.441 6.72526 0.441H0.55126C0.490622 0.441 0.44101 0.490612 0.44101 0.55125V6.72525C0.44101 6.78589 0.490622 6.8355 0.55126 6.8355ZM3.52801 0.6615V6.615V3.58312V0.6615Z" fill="#27AE60"/>
<path d="M4.18951 4.1895C4.25015 4.1895 4.29976 4.13989 4.29976 4.07925V2.97675C4.29976 2.91611 4.25015 2.8665 4.18951 2.8665C4.12887 2.8665 4.07926 2.91611 4.07926 2.97675V4.07925C4.07926 4.13989 4.12887 4.1895 4.18951 4.1895ZM3.08701 2.8665C3.02637 2.8665 2.97676 2.91611 2.97676 2.97675V4.07925C2.97676 4.13989 3.02637 4.1895 3.08701 4.1895C3.14765 4.1895 3.19726 4.13989 3.19726 4.07925V2.97675C3.19726 2.91611 3.14765 2.8665 3.08701 2.8665Z" fill="white"/>
<rect x="3.528" y="0.441" width="0.2205" height="6.3945" fill="white"/>
</svg>
