<svg width="24" height="20" viewBox="0 0 24 20" fill="none" xmlns="http://www.w3.org/2000/svg">
<path d="M13.0018 4.59253C13.0018 7.1289 10.9502 9.18507 8.41938 9.18507C5.88856 9.18507 3.83691 7.1289 3.83691 4.59253C3.83691 2.05615 5.88856 0 8.41938 0C10.9502 0 13.0018 2.05615 13.0018 4.59253Z" fill="#428B79"/>
<path fill-rule="evenodd" clip-rule="evenodd" d="M23.9999 12.8587C23.9999 15.9024 21.5379 18.3697 18.5009 18.3697C15.4639 18.3697 13.002 15.9024 13.002 12.8587C13.002 9.81504 15.4639 7.34766 18.5009 7.34766C21.5379 7.34766 23.9999 9.81504 23.9999 12.8587ZM20.2006 13.5476H22.1025C21.823 15.0243 20.6617 16.1881 19.1883 16.4682V14.5622C19.6478 14.3758 20.0147 14.008 20.2006 13.5476ZM20.2006 12.1698H22.1025C21.7808 10.47 20.2906 9.18467 18.5009 9.18467C16.7112 9.18467 15.2211 10.47 14.8993 12.1698H16.8012C17.0731 11.4966 17.7317 11.0217 18.5009 11.0217C19.2701 11.0217 19.9287 11.4966 20.2006 12.1698ZM16.8012 13.5476H14.8993C15.1788 15.0243 16.3401 16.1881 17.8135 16.4682V14.5622C17.354 14.3758 16.9871 14.008 16.8012 13.5476Z" fill="#428B79"/>
<path d="M0 15.3889C0 12.897 2.02008 10.877 4.51196 10.877H11.9245V19.9009H4.51196C2.02008 19.9009 0 17.8808 0 15.3889V15.3889Z" fill="#428B79"/>
</svg>
