<svg width="110" height="135" viewBox="0 0 110 135" fill="none" xmlns="http://www.w3.org/2000/svg">
<path d="M95.16 81.586L62.945 30.137C61.2184 27.3831 58.2497 25.7386 54.9997 25.7386C51.7497 25.7386 48.7809 27.3831 47.0544 30.137L14.8394 81.586C13.0035 84.5157 12.9097 88.0743 14.5816 91.1016C16.2574 94.1289 19.3238 95.9375 22.7847 95.9375H87.2147C90.6756 95.9375 93.742 94.1289 95.4178 91.1016C97.0936 88.0743 96.9959 84.5157 95.16 81.586ZM55 86.5626C52.4102 86.5626 50.3125 84.4649 50.3125 81.8751C50.3125 79.2853 52.4102 77.1876 55 77.1876C57.5898 77.1876 59.6875 79.2853 59.6875 81.8751C59.6875 84.4649 57.5898 86.5626 55 86.5626ZM58.6641 69.0316C58.5547 70.9769 56.9453 72.5005 55 72.5005C53.0547 72.5005 51.4453 70.977 51.3359 69.0316L50.082 46.4496C49.9258 43.6254 52.1718 41.2504 55 41.2504C57.8282 41.2504 60.0781 43.6254 59.918 46.4496L58.6641 69.0316Z" fill="#F87171"/>
</svg>
