<svg width="20" height="20" viewBox="0 0 20 20" fill="none" xmlns="http://www.w3.org/2000/svg">
<path d="M8.39826 20C7.2394 20 6.15034 19.7783 5.1311 19.335C4.11187 18.8917 3.22192 18.2869 2.46125 17.5207C1.70059 16.7544 1.10022 15.8579 0.660132 14.8312C0.220044 13.8045 0 12.7145 0 11.5612C0 10.3938 0.220044 9.29677 0.660132 8.27004C1.10022 7.24332 1.70059 6.34684 2.46125 5.58059C3.22192 4.81435 4.11187 4.20956 5.1311 3.76624C6.15034 3.32293 7.2394 3.10127 8.39826 3.10127C8.53788 3.10127 8.67415 3.10492 8.80707 3.11224C8.93999 3.11955 9.07598 3.12996 9.21505 3.14346V4.83122C9.07542 4.81716 8.93915 4.80647 8.80623 4.79916C8.67331 4.79184 8.53732 4.78847 8.39826 4.78903C6.52732 4.78903 4.93926 5.44669 3.63408 6.76202C2.32889 8.07736 1.67602 9.67707 1.67546 11.5612C1.67546 13.4318 2.32833 15.0248 3.63408 16.3401C4.93982 17.6554 6.52788 18.3128 8.39826 18.3122C10.2552 18.3122 11.8366 17.6549 13.1423 16.3401C14.4481 15.0253 15.1007 13.4323 15.1001 11.5612H16.7756C16.7756 12.7145 16.5558 13.8045 16.1163 14.8312C15.6767 15.8579 15.0764 16.7547 14.3152 17.5215C13.5539 18.2883 12.6673 18.8931 11.6554 19.3359C10.6434 19.7786 9.55768 20 8.39826 20ZM11.1418 15.5274L7.53958 11.8987V7.34177H9.21505V11.2236L12.3147 14.346L11.1418 15.5274ZM18.3044 9.87342C17.9833 7.87623 17.1456 6.14262 15.7912 4.67257C14.4369 3.20253 12.8033 2.22166 10.8905 1.72996V0C13.278 0.520394 15.3062 1.68073 16.975 3.48101C18.6437 5.28129 19.6521 7.4121 20 9.87342H18.3044ZM14.8907 9.87342C14.6254 8.81857 14.1403 7.89029 13.4355 7.08861C12.7307 6.28692 11.8824 5.68214 10.8905 5.27426V3.48101C12.3286 3.93108 13.5643 4.7294 14.5975 5.87595C15.6307 7.0225 16.3009 8.35499 16.608 9.87342H14.8907Z" fill="#676767"/>
</svg>
