<svg width="31" height="30" viewBox="0 0 31 30" fill="none" xmlns="http://www.w3.org/2000/svg">
<rect width="31" height="30" rx="5" fill="#302F2F"/>
<path d="M22.6666 17.7083C22.8324 17.7083 22.9914 17.7742 23.1086 17.8914C23.2258 18.0086 23.2916 18.1676 23.2916 18.3333V19.1667C23.2916 19.9955 22.9624 20.7903 22.3764 21.3764C21.7903 21.9624 20.9954 22.2917 20.1666 22.2917H11.8333C11.0045 22.2917 10.2097 21.9624 9.6236 21.3764C9.03755 20.7903 8.70831 19.9955 8.70831 19.1667V18.3367C8.70831 18.1709 8.77416 18.0119 8.89137 17.8947C9.00858 17.7775 9.16755 17.7117 9.33331 17.7117C9.49907 17.7117 9.65804 17.7775 9.77525 17.8947C9.89246 18.0119 9.95831 18.1709 9.95831 18.3367V19.1667C9.95831 19.6639 10.1559 20.1409 10.5075 20.4925C10.8591 20.8441 11.336 21.0417 11.8333 21.0417H20.1666C20.6639 21.0417 21.1408 20.8441 21.4925 20.4925C21.8441 20.1409 22.0416 19.6639 22.0416 19.1667V18.3333C22.0416 18.1676 22.1075 18.0086 22.2247 17.8914C22.3419 17.7742 22.5009 17.7083 22.6666 17.7083Z" fill="white"/>
<path d="M16.625 8.75C16.625 8.58424 16.5591 8.42527 16.4419 8.30806C16.3247 8.19085 16.1657 8.125 16 8.125C15.8342 8.125 15.6752 8.19085 15.558 8.30806C15.4408 8.42527 15.375 8.58424 15.375 8.75V14.5583H12.6416C12.5246 14.6755 12.4589 14.8344 12.4589 15C12.4589 15.1656 12.5246 15.3245 12.6416 15.4417L15.5583 18.3583C15.6755 18.4754 15.8344 18.5411 16 18.5411C16.1656 18.5411 16.3245 18.4754 16.4416 18.3583L19.3583 15.4417C19.4754 15.3245 19.5411 15.1656 19.5411 15C19.5411 14.8344 19.4754 14.6755 19.3583 14.5583H16.625V8.75Z" fill="white"/>
</svg>
