<svg width="16" height="12" viewBox="0 0 16 12" fill="none" xmlns="http://www.w3.org/2000/svg">
<path d="M8 0C7.86188 0 7.75031 0.113846 7.75031 0.254807V2.72342C7.75031 2.86438 7.86187 2.97823 8 2.97823C8.0664 2.97823 8.13015 2.95113 8.17664 2.90369C8.22379 2.85558 8.24969 2.7912 8.24969 2.72343V0.254809C8.24969 0.187044 8.22379 0.122666 8.17664 0.0745461C8.13016 0.0264332 8.06641 0 8 0ZM12.3363 0.865369C12.248 0.866725 12.1676 0.914839 12.1238 0.99277L10.9132 3.13073V3.13006C10.88 3.18901 10.8714 3.25813 10.8886 3.32387C10.9052 3.38892 10.9477 3.44449 11.0049 3.47837C11.1244 3.54885 11.2771 3.50751 11.3462 3.38553L12.5567 1.24757C12.5899 1.18929 12.5986 1.11949 12.5813 1.05443C12.564 0.9887 12.5222 0.933133 12.4651 0.89925C12.4365 0.882309 12.4053 0.871466 12.3728 0.867401C12.3608 0.865368 12.3482 0.864692 12.3363 0.865369ZM3.66441 0.865369H3.66374C3.65179 0.864692 3.63917 0.865369 3.62722 0.866725C3.59468 0.871468 3.56347 0.882311 3.53492 0.899252C3.47715 0.933134 3.43531 0.988702 3.41871 1.05376C3.40144 1.11949 3.41008 1.18861 3.44328 1.24757L4.65384 3.38553V3.38486C4.7229 3.50683 4.87564 3.54885 4.99516 3.47837C5.05227 3.44449 5.0941 3.38892 5.11137 3.32319C5.12863 3.25813 5.11934 3.18834 5.0868 3.13005L3.87624 0.992089C3.83241 0.914836 3.75139 0.866045 3.66374 0.86469L3.66441 0.865369ZM15.7501 2.83055C15.6837 2.83055 15.62 2.85698 15.5735 2.90509L13.8623 4.65064H13.8617C13.764 4.75026 13.764 4.91154 13.8617 5.01115C13.9593 5.11077 14.1173 5.11077 14.2149 5.01115L15.9268 3.2656C16.0244 3.16598 16.0244 3.0047 15.9268 2.90509C15.8796 2.85698 15.8166 2.83055 15.7501 2.83055ZM0.249855 2.83055C0.183451 2.83055 0.120365 2.85698 0.0732116 2.90509C-0.0244039 3.00471 -0.0244039 3.16599 0.0732116 3.2656L1.7844 5.01115H1.78506C1.88268 5.11077 2.04072 5.11077 2.13833 5.01115C2.23594 4.91154 2.23595 4.75026 2.13833 4.65064L0.427146 2.90509H0.426482C0.379998 2.85698 0.316266 2.83055 0.249855 2.83055ZM8 3.82332C7.98805 3.82332 7.9761 3.824 7.96481 3.824C7.94156 3.824 7.91899 3.82468 7.89508 3.82468C3.74614 3.88905 0.489008 7.74428 0.489008 7.74428C0.406665 7.84051 0.406665 7.98349 0.489008 8.07972C0.489008 8.07972 3.7441 11.9322 7.89049 11.9993C7.92635 12 7.96287 12 7.99939 12C8.03525 12 8.07177 11.9993 8.1083 11.9993C12.2554 11.9322 15.5098 8.07972 15.5098 8.07972H15.5104C15.5921 7.98349 15.5921 7.84051 15.5104 7.74428C15.5104 7.74428 12.2533 3.88904 8.10437 3.82468C8.08113 3.824 8.05855 3.824 8.03531 3.824C8.02336 3.824 8.01129 3.82332 8 3.82332ZM8 4.33359C8.93034 4.33359 9.82219 4.71038 10.4796 5.38193C11.137 6.05349 11.5069 6.96358 11.5069 7.91231C11.5069 8.86171 11.1376 9.77184 10.4796 10.4427C9.84341 11.0919 8.98746 11.4659 8.09027 11.4897C8.06039 11.4903 8.0305 11.4903 7.99996 11.4903C7.97008 11.4903 7.94019 11.4897 7.90965 11.4897C7.01252 11.466 6.15664 11.0919 5.52035 10.4427C4.86293 9.77113 4.49306 8.86104 4.49306 7.91231C4.49306 6.96291 4.86227 6.05278 5.52035 5.38193C6.17776 4.71105 7.06966 4.33359 8 4.33359ZM5.29195 4.89943C5.24945 4.93874 5.20762 4.9794 5.16711 5.02141C4.41607 5.78784 3.99375 6.82803 3.99375 7.91297C3.99375 8.99722 4.41609 10.0374 5.16711 10.8045C5.20829 10.8459 5.24945 10.8865 5.29195 10.9258C3.14915 10.0557 1.51157 8.43484 1.01943 7.91301C1.51082 7.39122 3.14898 5.77019 5.29195 4.90019V4.89943ZM10.7086 4.89943C12.8514 5.76954 14.4889 7.39043 14.9811 7.91226C14.4897 8.43405 12.8515 10.0551 10.7086 10.9251C10.7511 10.8858 10.7922 10.8451 10.8334 10.8038C11.5844 10.0373 12.0068 8.99716 12.0068 7.91222C12.0068 6.82797 11.5844 5.78779 10.8334 5.02066C10.7922 4.97932 10.7511 4.93866 10.7086 4.89868V4.89943ZM8.00051 5.95251C6.94267 5.95251 6.08006 6.83278 6.08006 7.91231C6.08006 8.99182 6.94266 9.87211 8.00051 9.87211C9.05836 9.87211 9.92096 8.99184 9.92096 7.91231C9.92096 6.8328 9.05836 5.95251 8.00051 5.95251ZM8.00051 6.46278C8.78807 6.46278 9.42092 7.10859 9.42092 7.91229C9.42092 8.71599 8.78807 9.3618 8.00051 9.3618C7.21295 9.3618 6.5801 8.71599 6.5801 7.91229C6.5801 7.10859 7.21295 6.46278 8.00051 6.46278Z" fill="#478C83"/>
</svg>
