<svg width="27" height="34" viewBox="0 0 27 34" fill="none" xmlns="http://www.w3.org/2000/svg">
<path fill-rule="evenodd" clip-rule="evenodd" d="M1.99985 9.453C4.42175 10.9178 5.54285 12.8788 5.37095 15.328C10.2186 12.5233 4.03505 3.933 13.5975 0C10.7069 7.7852 21.3123 9.9492 20.9647 18.238C22.4569 17.0349 22.8905 14.5232 22.2655 10.7028C25.4139 14.3161 27.0975 18.6012 26.1014 23.3978C24.9491 28.929 21.1405 32.1986 16.7889 33.4058C23.0155 23.5816 12.0389 22.4018 13.7967 15.6718C9.61315 17.789 8.01945 21.6132 9.01945 27.1448C7.74215 26.7386 6.93355 25.6917 6.59755 24.0042C5.19135 27.0433 5.78114 30.1331 8.36705 33.2737C5.58585 32.3948 3.15225 30.676 1.67175 28.1682C-2.92985 20.3557 3.60143 15.426 1.99985 9.453Z" fill="#3F3F3F"/>
</svg>
