<svg width="24" height="24" viewBox="0 0 24 24" fill="none" xmlns="http://www.w3.org/2000/svg">
<path fill-rule="evenodd" clip-rule="evenodd" d="M23.207 3.70697L21 5.91397V11H18.5V13H19C20.0609 13 21.0783 13.4214 21.8284 14.1715C22.5786 14.9217 23 15.9391 23 17C23 18.0608 22.5786 19.0783 21.8284 19.8284C21.0783 20.5785 20.0609 21 19 21H15V23H1V3.49997H15V19H19C19.5304 19 20.0391 18.7893 20.4142 18.4142C20.7893 18.0391 21 17.5304 21 17C21 16.4695 20.7893 15.9608 20.4142 15.5858C20.0391 15.2107 19.5304 15 19 15H16.5V7.58597L16.793 7.29297L21.793 2.29297L23.207 3.70697ZM3 7.49997H13V12H3V7.49997ZM9.5 16V19H11.5V16H9.5Z" fill="#478B7C"/>
</svg>
