<svg width="27" height="34" viewBox="0 0 27 34" fill="none" xmlns="http://www.w3.org/2000/svg">
<path fill-rule="evenodd" clip-rule="evenodd" d="M2.56333 9.453C4.98523 10.9178 6.10632 12.8788 5.93442 15.328C10.7821 12.5233 4.59853 3.933 14.161 0C11.2704 7.7852 21.8758 9.9492 21.5282 18.238C23.0204 17.0349 23.454 14.5232 22.829 10.7028C25.9774 14.3161 27.661 18.6012 26.6649 23.3978C25.5126 28.929 21.704 32.1986 17.3524 33.4058C23.579 23.5816 12.6024 22.4018 14.3602 15.6718C10.1766 17.789 8.58293 21.6132 9.58293 27.1448C8.30563 26.7386 7.49703 25.6917 7.16103 24.0042C5.75482 27.0433 6.34462 30.1331 8.93053 33.2737C6.14933 32.3948 3.71572 30.676 2.23522 28.1682C-2.36638 20.3557 4.16491 15.426 2.56333 9.453Z" fill="#fff"/>
</svg>
