<svg width="21" height="21" viewBox="0 0 21 21" fill="none" xmlns="http://www.w3.org/2000/svg">
<g clip-path="url(#clip0_45_8)">
<path d="M3.92859 3.2739C3.92859 3.10025 3.99757 2.93371 4.12036 2.81092C4.24316 2.68812 4.4097 2.61914 4.58335 2.61914H11.131C11.3046 2.61914 11.4712 2.68812 11.594 2.81092C11.7167 2.93371 11.7857 3.10025 11.7857 3.2739V9.82152C11.7857 9.99518 11.7167 10.1617 11.594 10.2845C11.4712 10.4073 11.3046 10.4763 11.131 10.4763H4.58335C4.4097 10.4763 4.24316 10.4073 4.12036 10.2845C3.99757 10.1617 3.92859 9.99518 3.92859 9.82152V3.2739Z" fill="#2D2828"/>
<path d="M1.30952 2.61905C1.30952 1.92443 1.58546 1.25827 2.07663 0.767101C2.56779 0.275935 3.23396 0 3.92857 0L11.7857 0C12.4803 0 13.1465 0.275935 13.6377 0.767101C14.1288 1.25827 14.4048 1.92443 14.4048 2.61905V13.0952C15.0994 13.0952 15.7655 13.3712 16.2567 13.8623C16.7479 14.3535 17.0238 15.0197 17.0238 15.7143V16.369C17.0238 16.5427 17.0928 16.7092 17.2156 16.832C17.3384 16.9548 17.5049 17.0238 17.6786 17.0238C17.8522 17.0238 18.0188 16.9548 18.1416 16.832C18.2644 16.7092 18.3333 16.5427 18.3333 16.369V10.4762H17.6786C17.5049 10.4762 17.3384 10.4072 17.2156 10.2844C17.0928 10.1616 17.0238 9.99508 17.0238 9.82143V5.72917C17.0238 5.55551 17.0928 5.38897 17.2156 5.26618C17.3384 5.14339 17.5049 5.0744 17.6786 5.0744H19.6363C19.6219 4.45107 19.5669 3.90369 19.3731 3.47417C19.2693 3.22442 19.0886 3.0143 18.8571 2.8744C18.6162 2.73036 18.2495 2.61905 17.6786 2.61905C17.5049 2.61905 17.3384 2.55006 17.2156 2.42727C17.0928 2.30448 17.0238 2.13794 17.0238 1.96429C17.0238 1.79063 17.0928 1.62409 17.2156 1.5013C17.3384 1.37851 17.5049 1.30952 17.6786 1.30952C18.4171 1.30778 19.0335 1.45444 19.5276 1.74952C20.0292 2.0481 20.3579 2.47107 20.5674 2.93726C20.9537 3.795 20.9524 4.85571 20.9524 5.66238V9.82012C20.9526 9.90621 20.9357 9.9915 20.9029 10.0711C20.8701 10.1507 20.8219 10.223 20.7611 10.284C20.7003 10.3449 20.628 10.3932 20.5485 10.4262C20.469 10.4592 20.3837 10.4762 20.2976 10.4762H19.6429V16.369C19.6429 16.89 19.4359 17.3896 19.0675 17.758C18.6992 18.1264 18.1995 18.3333 17.6786 18.3333C17.1576 18.3333 16.658 18.1264 16.2896 17.758C15.9212 17.3896 15.7143 16.89 15.7143 16.369V15.7143C15.7143 15.367 15.5763 15.0339 15.3307 14.7883C15.0852 14.5427 14.7521 14.4048 14.4048 14.4048V19.6429H15.0595C15.2332 19.6429 15.3997 19.7118 15.5225 19.8346C15.6453 19.9574 15.7143 20.124 15.7143 20.2976C15.7143 20.4713 15.6453 20.6378 15.5225 20.7606C15.3997 20.8834 15.2332 20.9524 15.0595 20.9524H0.654762C0.481108 20.9524 0.314567 20.8834 0.191775 20.7606C0.0689837 20.6378 0 20.4713 0 20.2976C0 20.124 0.0689837 19.9574 0.191775 19.8346C0.314567 19.7118 0.481108 19.6429 0.654762 19.6429H1.30952V2.61905ZM13.0952 2.61905C13.0952 2.27174 12.9573 1.93866 12.7117 1.69307C12.4661 1.44749 12.133 1.30952 11.7857 1.30952H3.92857C3.58126 1.30952 3.24818 1.44749 3.0026 1.69307C2.75702 1.93866 2.61905 2.27174 2.61905 2.61905V19.6429H13.0952V2.61905Z" fill="#2D2828"/>
</g>
<defs>
<clipPath id="clip0_45_8">
<rect width="20.9524" height="20.9524" fill="white"/>
</clipPath>
</defs>
</svg>
