<svg width="100" height="125" viewBox="0 0 100 125" fill="none" xmlns="http://www.w3.org/2000/svg">
<path d="M49.5 81.1L48.1 79.4C47.1 78.2 23.4 48.6999 23.4 34.7999C23.4 20.4 35.1 8.69995 49.5 8.69995C63.9 8.69995 75.6 20.4 75.6 34.7999C75.6 48.6999 51.9 78.1 50.9 79.4L49.5 81.1ZM49.5 13.2C37.1 13.2 27 23 27 34.9C27 45.4 44.4 67.7 49.5 73.9C54.5 67.7 72 45.4 72 34.9C72 23 61.9 13.2 49.5 13.2Z" fill="#F472B6"/>
<path d="M49.5 47.8999C42.3 47.8999 36.5 42.0999 36.5 34.8999C36.5 27.6999 42.4 21.8999 49.5 21.8999C56.6 21.8999 62.5 27.6999 62.5 34.8999C62.5 41.9999 56.7 47.8999 49.5 47.8999ZM49.5 26.6999C44.5 26.6999 40.5 30.6999 40.5 35.6999C40.5 40.6999 44.5 44.6999 49.5 44.6999C54.5 44.6999 58.5 40.6999 58.5 35.6999C58.5 30.6999 54.5 26.6999 49.5 26.6999Z" fill="#F472B6"/>
<path d="M62.2 71.6L60.8 73.4C67.7 74.8 71.9 77.4 71.9 79.9C71.9 83.5 62.7 87.5 49.4 87.5C36.1 87.5 26.9 83.5 26.9 79.9C26.9 77.5 31.2 74.9 38 73.4L36.6 71.6C28.6 73 22.4 75.9 22.4 80.1C22.4 86.3 36.3 89.7 49.4 89.7C62.5 89.7 76.4 86.3 76.4 80.1C76.5 75.9 70.3 73 62.2 71.6Z" fill="#F472B6"/>
</svg>
