<svg width="20" height="20" viewBox="0 0 20 20" fill="none" xmlns="http://www.w3.org/2000/svg">
<path d="M4.68187 4.02331C6.09602 2.76393 7.95891 2 10 2C14.4183 2 18 5.58172 18 10C18 14.4183 14.4183 18 10 18C5.58172 18 2 14.4183 2 10C2 9.4477 1.55228 9 1 9C0.44772 9 0 9.4477 0 10C0 15.5228 4.47715 20 10 20C15.5228 20 20 15.5228 20 10C20 4.47715 15.5228 0 10 0C7.51583 0 5.24354 0.90624 3.49549 2.40445C3.44739 1.89699 3.02006 1.5 2.5 1.5C1.94772 1.5 1.5 1.94772 1.5 2.5V5.02331C1.5 5.57559 1.94772 6.02331 2.5 6.02331H5C5.55228 6.02331 6 5.57559 6 5.02331C6 4.47102 5.55228 4.02331 5 4.02331H4.68187Z" fill="#478C83"/>
<path d="M9 9.99999C9 10.3344 9.1671 10.6466 9.4453 10.8321L12.4453 12.8321C12.9048 13.1384 13.5257 13.0142 13.8321 12.5547C14.1384 12.0952 14.0142 11.4743 13.5547 11.1679L11 9.46479V6C11 5.44771 10.5523 5 10 5C9.4477 5 9 5.44771 9 6V9.99999Z" fill="#478C83"/>
</svg>
