<svg width="90" height="90" viewBox="0 0 90 90" fill="none" xmlns="http://www.w3.org/2000/svg">
<path d="M45 0C20.2 0 0 20.2 0 45C0 69.8 20.2 90 45 90C69.8 90 90 69.8 90 45C90 20.2 69.8 0 45 0ZM45 81C25.1 81 9 64.9 9 45C9 25.1 25.1 9 45 9C64.9 9 81 25.1 81 45C81 64.9 64.9 81 45 81Z" fill="#478C83"/>
<path d="M45 72C47.4853 72 49.5 69.9853 49.5 67.5C49.5 65.0147 47.4853 63 45 63C42.5147 63 40.5 65.0147 40.5 67.5C40.5 69.9853 42.5147 72 45 72Z" fill="#478C83"/>
<path d="M44.4 19.7C40.7 20 37.9 23.3 38.2 27L40.5 54C40.7 56.2 42.4 57.9 44.6 58.1C47.1 58.3 49.3 56.5 49.5 54L51.8 27C51.8 26.6 51.8 26.2 51.8 25.9C51.4 22.1 48.2 19.4 44.4 19.7Z" fill="#478C83"/>
</svg>
