<svg width="98" height="72" viewBox="0 0 98 72" fill="none" xmlns="http://www.w3.org/2000/svg">
<path d="M49 22.332C52.7734 22.332 56.1914 23.8632 58.668 26.3359C61.1446 28.8086 62.6719 32.2265 62.6719 36.0039C62.6719 39.7773 61.1407 43.1953 58.668 45.6719C56.1953 48.1485 52.7774 49.6758 49 49.6758C45.2266 49.6758 41.8086 48.1446 39.332 45.6719C36.8554 43.1992 35.3281 39.7813 35.3281 36.0039C35.3281 32.2305 36.8593 28.8125 39.332 26.3359C41.8047 23.8593 45.2226 22.332 49 22.332ZM14.363 1.36301C15.2614 0.464568 16.7107 0.464568 17.6091 1.36301C18.5075 2.26145 18.5075 3.71071 17.6091 4.60911C13.5036 8.71461 10.2068 13.5974 7.9646 19.0151C5.8005 24.2339 4.6091 29.9721 4.6091 35.9991C4.6091 42.0261 5.8044 47.7651 7.9646 52.9831C10.2068 58.4011 13.5076 63.2881 17.6091 67.3891C18.5075 68.2875 18.5075 69.7368 17.6091 70.6352C16.7107 71.5336 15.2614 71.5336 14.363 70.6352C9.8552 66.1274 6.2185 60.729 3.73 54.7212C1.3355 48.9439 0.0151978 42.6162 0.0151978 35.9942C0.0151978 29.3722 1.3355 23.0492 3.73 17.2672C6.2183 11.2594 9.855 5.86121 14.363 1.35321V1.36301ZM80.398 4.60911C79.4996 3.71067 79.4996 2.26141 80.398 1.36301C81.2964 0.464568 82.7457 0.464568 83.6441 1.36301C88.1519 5.87081 91.7886 11.2692 94.2771 17.277C96.6716 23.0543 97.9919 29.382 97.9919 36.004C97.9919 42.626 96.6716 48.949 94.2771 54.731C91.7888 60.7388 88.1521 66.137 83.6441 70.645C82.7457 71.5434 81.2964 71.5434 80.398 70.645C79.4996 69.7466 79.4996 68.2973 80.398 67.3989C84.5035 63.2934 87.8003 58.4106 90.0425 52.9929C92.2066 47.7741 93.398 42.0359 93.398 36.0089C93.398 29.9816 92.2027 24.2429 90.0425 19.0249C87.8003 13.6069 84.4995 8.71991 80.398 4.61891V4.60911ZM25.46 12.4568C26.3584 11.5584 27.8077 11.5584 28.7061 12.4568C29.6045 13.3552 29.6045 14.8045 28.7061 15.7029C26.0499 18.3591 23.9131 21.5154 22.4678 25.0154C21.0694 28.3865 20.2998 32.0974 20.2998 35.9994C20.2998 39.9014 21.0693 43.6088 22.4678 46.9834C23.917 50.4795 26.0498 53.6396 28.7061 56.2959C29.6045 57.1943 29.6045 58.6436 28.7061 59.542C27.8077 60.4404 26.3584 60.4404 25.46 59.542C22.4014 56.4834 19.9288 52.8115 18.2334 48.726C16.6045 44.7963 15.7061 40.4955 15.7061 35.999C15.7061 31.5068 16.6045 27.206 18.2334 23.272C19.9287 19.1822 22.4014 15.515 25.46 12.4568ZM69.304 15.7029C68.4056 14.8045 68.4056 13.3552 69.304 12.4568C70.2024 11.5584 71.6517 11.5584 72.5501 12.4568C75.6087 15.5154 78.0813 19.1873 79.7767 23.2728C81.4056 27.2025 82.304 31.5033 82.304 35.9998C82.304 40.492 81.4056 44.7928 79.7767 48.7268C78.0814 52.8166 75.6087 56.4846 72.5501 59.5428C71.6517 60.4412 70.2024 60.4412 69.304 59.5428C68.4056 58.6444 68.4056 57.1951 69.304 56.2967C71.9602 53.6405 74.097 50.4842 75.5423 46.9842C76.9407 43.6131 77.7103 39.9022 77.7103 36.0002C77.7103 32.0982 76.9408 28.3908 75.5423 25.0162C74.0931 21.5201 71.9603 18.3592 69.304 15.7029Z" fill="#478C83"/>
</svg>
