<svg width="72" height="34" viewBox="0 0 72 34" fill="none" xmlns="http://www.w3.org/2000/svg">
<rect width="72" height="34" rx="17" fill="#D9D9D9"/>
<path d="M27.9684 22V12.1818H29.747V20.5091H34.0712V22H27.9684ZM35.5382 22V14.6364H37.2736V22H35.5382ZM36.4107 13.5913C36.1358 13.5913 35.8993 13.5002 35.7012 13.318C35.503 13.1326 35.4039 12.9105 35.4039 12.6516C35.4039 12.3896 35.503 12.1674 35.7012 11.9853C35.8993 11.7999 36.1358 11.7072 36.4107 11.7072C36.6887 11.7072 36.9252 11.7999 37.1202 11.9853C37.3184 12.1674 37.4174 12.3896 37.4174 12.6516C37.4174 12.9105 37.3184 13.1326 37.1202 13.318C36.9252 13.5002 36.6887 13.5913 36.4107 13.5913ZM45.6356 14.6364L43.0133 22H41.0957L38.4733 14.6364H40.3238L42.0161 20.1064H42.0928L43.7899 14.6364H45.6356ZM49.846 22.1438C49.1077 22.1438 48.4701 21.9904 47.9331 21.6836C47.3994 21.3736 46.9887 20.9357 46.7011 20.37C46.4134 19.8011 46.2696 19.1316 46.2696 18.3613C46.2696 17.6039 46.4134 16.9391 46.7011 16.367C46.9919 15.7917 47.3978 15.3443 47.9188 15.0247C48.4397 14.7019 49.0518 14.5405 49.7549 14.5405C50.2087 14.5405 50.637 14.614 51.0397 14.761C51.4456 14.9048 51.8035 15.1286 52.1135 15.4322C52.4268 15.7358 52.6729 16.1225 52.8518 16.5923C53.0308 17.0589 53.1203 17.6151 53.1203 18.2607V18.7928H47.0846V17.623H51.4568C51.4536 17.2907 51.3817 16.995 51.241 16.7362C51.1004 16.4741 50.9039 16.2679 50.6514 16.1177C50.4021 15.9675 50.1112 15.8924 49.7789 15.8924C49.4241 15.8924 49.1125 15.9787 48.844 16.1513C48.5756 16.3207 48.3662 16.5444 48.216 16.8224C48.069 17.0973 47.9939 17.3993 47.9907 17.7285V18.7496C47.9907 19.1779 48.069 19.5455 48.2256 19.8523C48.3822 20.1559 48.6011 20.3892 48.8824 20.5522C49.1636 20.712 49.4928 20.7919 49.8699 20.7919C50.1224 20.7919 50.3509 20.7567 50.5555 20.6864C50.76 20.6129 50.9374 20.5059 51.0876 20.3652C51.2378 20.2246 51.3513 20.0504 51.428 19.8427L53.0484 20.0249C52.9461 20.4531 52.7512 20.8271 52.4635 21.1467C52.1791 21.4631 51.8147 21.7092 51.3705 21.8849C50.9262 22.0575 50.4181 22.1438 49.846 22.1438Z" fill="#312929"/>
<circle cx="15" cy="17" r="6" fill="white"/>
<path fill-rule="evenodd" clip-rule="evenodd" d="M16.6467 16.4503C16.7555 16.5111 16.8446 16.593 16.9062 16.6889C16.9678 16.7847 17 16.8915 17 17C17 17.1085 16.9678 17.2153 16.9062 17.3111C16.8446 17.407 16.7555 17.4889 16.6467 17.5497L14.2547 18.8861C14.1337 18.9536 13.9927 18.9927 13.8469 18.9991C13.701 19.0055 13.5558 18.9789 13.4269 18.9224C13.2979 18.8658 13.19 18.7813 13.1148 18.678C13.0396 18.5746 12.9999 18.4563 13 18.3358V15.6642C12.9999 15.5437 13.0396 15.4254 13.1148 15.322C13.19 15.2187 13.2979 15.1342 13.4269 15.0776C13.5558 15.0211 13.701 14.9945 13.8469 15.0009C13.9927 15.0073 14.1337 15.0464 14.2547 15.1139L16.6467 16.4503Z" fill="#312929"/>
</svg>
