<svg width="24" height="33" viewBox="0 0 24 33" fill="none" xmlns="http://www.w3.org/2000/svg">
<g clip-path="url(#clip0_1397_115)">
<path fill-rule="evenodd" clip-rule="evenodd" d="M3.42857 8.68421C3.42857 3.88705 7.26514 0 12 0C16.7349 0 20.5714 3.88705 20.5714 8.68421V13.8947H21.2571C22.7657 13.8947 24 15.1453 24 16.6737V28.8316C24 31.1242 22.1486 33 19.8857 33H4.11429C1.85143 33 0 31.1242 0 28.8316V16.6737C0 15.1453 1.23429 13.8947 2.74286 13.8947H3.42857V8.68421ZM17.1429 8.68421V13.8947H6.85714V8.68421C6.85714 5.80453 9.15771 3.47368 12 3.47368C14.8423 3.47368 17.1429 5.80453 17.1429 8.68421ZM12 17.8026C11.3183 17.8019 10.6567 18.0364 10.1241 18.4676C9.59155 18.8988 9.21981 19.5008 9.07011 20.1746C8.92041 20.8485 9.00168 21.5538 9.30054 22.1746C9.5994 22.7954 10.098 23.2945 10.7143 23.5898V27.7895C10.7143 28.135 10.8497 28.4663 11.0909 28.7106C11.332 28.9549 11.659 29.0921 12 29.0921C12.341 29.0921 12.668 28.9549 12.9091 28.7106C13.1503 28.4663 13.2857 28.135 13.2857 27.7895V23.5898C13.902 23.2945 14.4006 22.7954 14.6995 22.1746C14.9983 21.5538 15.0796 20.8485 14.9299 20.1746C14.7802 19.5008 14.4084 18.8988 13.8759 18.4676C13.3433 18.0364 12.6817 17.8019 12 17.8026Z" fill="#4B4C4C"/>
</g>
<defs>
<clipPath id="clip0_1397_115">
<rect width="24" height="33" fill="white"/>
</clipPath>
</defs>
</svg>
