<svg width="7" height="9" viewBox="0 0 7 9" fill="none" xmlns="http://www.w3.org/2000/svg">
<path d="M6.01 3.4612V5.00388C6.01 6.56714 4.72185 7.83214 3.13 7.83214C1.53815 7.83214 0.25 6.56714 0.25 5.00388V3.4612C0.25 3.31721 0.367818 3.20408 0.511818 3.20408H1.82091H4.43909H5.74818C5.90265 3.20408 6.01 3.32493 6.01 3.4612Z" fill="#27AE60"/>
<path d="M3.13 5.39667V5.91133M3.13 5.39667C2.98521 5.39667 2.86818 5.28164 2.86818 5.13933C2.86818 4.99703 2.98521 4.882 3.13 4.882C3.27479 4.882 3.39182 4.99703 3.39182 5.13933C3.39182 5.28164 3.27479 5.39667 3.13 5.39667ZM3.65364 3.338H1.82091V1.53667C1.82091 0.825912 2.40686 0.25 3.13 0.25C3.85314 0.25 4.43909 0.825912 4.43909 1.53667V3.338H5.74818C5.9037 3.338 6.01 3.45869 6.01 3.59533V5.13933C6.01 6.70263 4.72055 7.97 3.13 7.97C1.53945 7.97 0.25 6.70263 0.25 5.13933V3.59533C0.25 3.45045 0.368604 3.338 0.511818 3.338H1.03545" stroke="black" stroke-width="0.5" stroke-linecap="round" stroke-linejoin="round"/>
</svg>
