<svg width="28" height="28" viewBox="0 0 28 28" fill="none" xmlns="http://www.w3.org/2000/svg">
<path d="M13.7678 0C-4.58661 0.72632 -4.59186 26.9525 13.7676 27.6816C15.5852 27.6816 17.385 27.3236 19.0643 26.628C20.7435 25.9325 22.2693 24.913 23.5546 23.6277C24.8398 22.3425 25.8593 20.8167 26.5549 19.1375C27.2505 17.4582 27.6085 15.6584 27.6085 13.8409C27.6085 12.0233 27.2505 10.2234 26.5549 8.5442C25.8594 6.86496 24.8399 5.33916 23.5547 4.05392C22.2694 2.76867 20.7436 1.74916 19.0644 1.05359C17.3852 0.358018 15.5854 7.87931e-06 13.7678 0ZM8.33209 20.6899C8.23926 20.7828 8.12904 20.8565 8.00773 20.9068C7.88641 20.957 7.75638 20.9829 7.62506 20.9829C7.49374 20.9829 7.36371 20.957 7.2424 20.9068C7.12108 20.8565 7.01086 20.7828 6.91803 20.6899C5.10433 18.872 4.08575 16.4088 4.08575 13.8408C4.08575 11.2728 5.10433 8.80968 6.91803 6.9917C7.01088 6.89885 7.12111 6.8252 7.24242 6.77495C7.36373 6.7247 7.49375 6.69884 7.62506 6.69884C7.75637 6.69884 7.88639 6.7247 8.0077 6.77495C8.12902 6.8252 8.23924 6.89885 8.33209 6.9917C8.42494 7.08455 8.49859 7.19478 8.54884 7.31609C8.59909 7.4374 8.62495 7.56742 8.62495 7.69873C8.62495 7.83004 8.59909 7.96006 8.54884 8.08137C8.49859 8.20268 8.42494 8.31291 8.33209 8.40576C6.89312 9.84855 6.08503 11.8031 6.08503 13.8408C6.08503 15.8785 6.89312 17.8331 8.33209 19.2759C8.42497 19.3687 8.49865 19.4789 8.54892 19.6002C8.59919 19.7216 8.62507 19.8516 8.62507 19.9829C8.62507 20.1142 8.59919 20.2443 8.54892 20.3656C8.49865 20.4869 8.42497 20.5971 8.33209 20.6899ZM11.4591 16.1494C11.64 16.3383 11.7398 16.5905 11.737 16.852C11.7342 17.1135 11.629 17.3635 11.4441 17.5485C11.2591 17.7334 11.0091 17.8385 10.7476 17.8413C10.4861 17.8441 10.2338 17.7443 10.045 17.5634C9.05957 16.5751 8.5062 15.2364 8.5062 13.8408C8.5062 12.4451 9.05957 11.1064 10.045 10.1182C10.2326 9.93117 10.4868 9.82629 10.7517 9.82652C11.0166 9.82675 11.2705 9.93208 11.4578 10.1194C11.6451 10.3067 11.7505 10.5607 11.7507 10.8255C11.7509 11.0904 11.6461 11.3446 11.4591 11.5322C10.8479 12.1451 10.5047 12.9753 10.5047 13.8408C10.5047 14.7063 10.8479 15.5365 11.4591 16.1494ZM13.7676 14.8408C13.5084 14.8318 13.2628 14.7225 13.0826 14.536C12.9024 14.3494 12.8017 14.1002 12.8017 13.8408C12.8017 13.5814 12.9024 13.3322 13.0826 13.1456C13.2628 12.9591 13.5084 12.8498 13.7676 12.8408C14.0269 12.8498 14.2725 12.9591 14.4527 13.1456C14.6329 13.3322 14.7336 13.5814 14.7336 13.8408C14.7336 14.1002 14.6329 14.3494 14.4527 14.536C14.2725 14.7225 14.0269 14.8318 13.7676 14.8408ZM16.7833 17.8564C16.5869 17.8534 16.3957 17.7929 16.2333 17.6825C16.0708 17.5721 15.9443 17.4166 15.8691 17.2352C15.794 17.0537 15.7735 16.8542 15.8103 16.6613C15.8471 16.4684 15.9396 16.2905 16.0763 16.1494C16.6874 15.5366 17.0306 14.7064 17.0306 13.8408C17.0306 12.9753 16.6874 12.1451 16.0762 11.5323C15.8949 11.3435 15.7948 11.0911 15.7974 10.8294C15.8001 10.5677 15.9052 10.3174 16.0903 10.1323C16.2754 9.94721 16.5257 9.84207 16.7875 9.83945C17.0492 9.83683 17.3016 9.93693 17.4903 10.1183C18.4757 11.1066 19.0291 12.4453 19.0291 13.8409C19.0291 15.2365 18.4757 16.5752 17.4903 17.5635C17.3976 17.6565 17.2874 17.7303 17.166 17.7806C17.0447 17.8308 16.9146 17.8566 16.7833 17.8564ZM20.6173 20.6899C20.4285 20.8714 20.1761 20.9715 19.9143 20.9689C19.6525 20.9663 19.4022 20.8612 19.2171 20.676C19.0319 20.4909 18.9268 20.2406 18.9242 19.9788C18.9216 19.717 19.0218 19.4646 19.2033 19.2758C20.6422 17.8331 21.4503 15.8785 21.4503 13.8408C21.4503 11.8031 20.6422 9.84855 19.2033 8.40576C19.1104 8.31291 19.0368 8.20268 18.9865 8.08137C18.9363 7.96006 18.9104 7.83004 18.9104 7.69873C18.9104 7.56742 18.9363 7.4374 18.9865 7.31609C19.0368 7.19478 19.1104 7.08455 19.2033 6.9917C19.3908 6.80418 19.6451 6.69884 19.9103 6.69884C20.0416 6.69884 20.1716 6.7247 20.2929 6.77495C20.4142 6.8252 20.5245 6.89885 20.6173 6.9917C22.431 8.80969 23.4496 11.2728 23.4496 13.8408C23.4495 16.4088 22.431 18.872 20.6173 20.6899Z" fill="#439080"/>
</svg>
