<svg width="38" height="38" viewBox="0 0 38 38" fill="none" xmlns="http://www.w3.org/2000/svg">
<circle cx="19" cy="19" r="18.5" stroke="#4DAF8E"/>
<path d="M25.0976 16.9739C24.874 16.9739 24.6915 17.1552 24.6915 17.38V20.4625C24.6915 21.1958 24.5479 21.9091 24.2631 22.58C23.9888 23.2285 23.5969 23.81 23.0978 24.309C22.5987 24.8081 22.0173 25.2001 21.3687 25.4743C20.6966 25.758 19.9845 25.9028 19.2513 25.9028C18.518 25.9028 17.8047 25.7592 17.1338 25.4743C16.4853 25.2001 15.9038 24.8081 15.4047 24.309C14.9056 23.81 14.5137 23.2285 14.2395 22.58C13.9558 21.9079 13.811 21.1958 13.811 20.4625L13.8122 17.38C13.8122 17.1564 13.6309 16.9739 13.4061 16.9739C13.1825 16.9739 13 17.1552 13 17.38V20.4625C13 21.3053 13.166 22.1245 13.492 22.8966C13.8074 23.6417 14.2571 24.309 14.8303 24.8835C15.4035 25.4567 16.0721 25.9075 16.8171 26.2217C17.4645 26.496 18.146 26.6561 18.8452 26.7008V30.6873C18.8463 30.9109 19.0288 31.0922 19.2524 31.0922C19.4761 31.0922 19.6585 30.9109 19.6585 30.6861V26.6996C20.3589 26.6549 21.0392 26.4948 21.6866 26.2206C22.4316 25.9051 23.099 25.4555 23.6734 24.8823C24.2466 24.3091 24.6974 23.6405 25.0117 22.8954C25.3377 22.1233 25.5037 21.3041 25.5037 20.4613V17.3797C25.5037 17.1549 25.3224 16.9739 25.0976 16.9739Z" fill="#4DAF8E"/>
<path d="M19.2535 24.759C21.6229 24.759 23.5509 22.831 23.5509 20.4616V14.2974C23.5509 11.9281 21.623 10 19.2535 10C16.884 10 14.9561 11.928 14.9561 14.2974V20.4628C14.9561 22.8321 16.884 24.759 19.2535 24.759ZM17.083 14.1175H21.464C21.6876 14.1175 21.87 14.2988 21.87 14.5236C21.87 14.7473 21.6888 14.9297 21.464 14.9297L17.083 14.9286C16.8594 14.9286 16.677 14.7473 16.677 14.5225C16.6781 14.2988 16.8594 14.1175 17.083 14.1175ZM17.083 15.7195H21.464C21.6876 15.7195 21.87 15.9008 21.87 16.1256C21.87 16.3492 21.6888 16.5317 21.464 16.5317L17.083 16.5305C16.8594 16.5305 16.677 16.3492 16.677 16.1244C16.6781 15.9008 16.8594 15.7195 17.083 15.7195ZM17.083 17.3214H21.464C21.6876 17.3214 21.87 17.5027 21.87 17.7275C21.87 17.9512 21.6888 18.1336 21.464 18.1336H17.083C16.8594 18.1336 16.677 17.9524 16.677 17.7275C16.6781 17.5039 16.8594 17.3214 17.083 17.3214ZM17.083 18.9246H21.464C21.6876 18.9246 21.87 19.1058 21.87 19.3306C21.87 19.5543 21.6888 19.7367 21.464 19.7367L17.083 19.7356C16.8594 19.7356 16.677 19.5543 16.677 19.3295C16.6781 19.1058 16.8594 18.9246 17.083 18.9246ZM17.083 20.5265H21.464C21.6876 20.5265 21.87 20.7078 21.87 20.9326C21.87 21.1562 21.6876 21.3375 21.464 21.3375H17.083C16.8594 21.3375 16.677 21.1562 16.677 20.9314C16.6781 20.7078 16.8594 20.5265 17.083 20.5265Z" fill="#4DAF8E"/>
</svg>
