<svg width="94" height="89" viewBox="0 0 94 89" fill="none" xmlns="http://www.w3.org/2000/svg">
<path fill-rule="evenodd" clip-rule="evenodd" d="M16.099 40.567C15.8043 40.567 15.5218 40.4499 15.3134 40.2416C15.1051 40.0332 14.988 39.7507 14.988 39.456C14.988 39.1613 15.1051 38.8788 15.3134 38.6704C15.5218 38.4621 15.8043 38.345 16.099 38.345H53.499C53.7937 38.345 54.0762 38.4621 54.2846 38.6704C54.4929 38.8788 54.61 39.1613 54.61 39.456C54.61 39.7507 54.4929 40.0332 54.2846 40.2416C54.0762 40.4499 53.7937 40.567 53.499 40.567H16.099ZM16.099 29.829C15.8043 29.829 15.5218 29.712 15.3134 29.5036C15.1051 29.2952 14.988 29.0127 14.988 28.718C14.988 28.4233 15.1051 28.1408 15.3134 27.9324C15.5218 27.7241 15.8043 27.607 16.099 27.607H53.499C53.7937 27.607 54.0762 27.7241 54.2846 27.9324C54.4929 28.1408 54.61 28.4233 54.61 28.718C54.61 29.0127 54.4929 29.2952 54.2846 29.5036C54.0762 29.712 53.7937 29.829 53.499 29.829H16.099ZM16.679 1.571L1.57 16.679H16.679V1.571ZM71.096 65.332C71.0066 65.2425 70.8889 65.1867 70.7629 65.1742C70.637 65.1618 70.5106 65.1933 70.4054 65.2636C70.3001 65.3338 70.2225 65.4384 70.1857 65.5595C70.1489 65.6805 70.1551 65.8106 70.2035 65.9276C70.2518 66.0445 70.3393 66.1411 70.4508 66.2008C70.5624 66.2605 70.6912 66.2797 70.8153 66.2551C70.9395 66.2305 71.0512 66.1637 71.1316 66.0659C71.2119 65.9681 71.2559 65.8455 71.256 65.719C71.2561 65.6471 71.242 65.576 71.2146 65.5096C71.1871 65.4431 71.1468 65.3828 71.096 65.332ZM71.82 63.182C72.4745 63.4697 72.9926 63.9991 73.2661 64.6596C73.5396 65.3202 73.5475 66.0608 73.288 66.727L79.511 72.949C79.6222 73.05 79.7118 73.1725 79.7743 73.3092C79.8368 73.4458 79.8709 73.5936 79.8746 73.7438C79.8784 73.894 79.8516 74.0434 79.7959 74.183C79.7403 74.3225 79.6569 74.4493 79.5508 74.5557C79.4448 74.6621 79.3182 74.7459 79.1789 74.802C79.0395 74.8581 78.8902 74.8853 78.74 74.8821C78.5898 74.8789 78.4418 74.8452 78.305 74.7831C78.1682 74.7211 78.0454 74.6319 77.944 74.521L71.721 68.298C71.0448 68.5672 70.2899 68.5594 69.6195 68.2762C68.949 67.9931 68.417 67.4574 68.1385 66.785C67.86 66.1126 67.8574 65.3576 68.1313 64.6833C68.4052 64.0091 68.9335 63.4697 69.602 63.182V52.598C69.602 52.4521 69.6307 52.3076 69.6866 52.1728C69.7424 52.038 69.8242 51.9156 69.9274 51.8124C70.0306 51.7092 70.153 51.6274 70.2878 51.5716C70.4226 51.5157 70.5671 51.487 70.713 51.487C70.8589 51.487 71.0034 51.5157 71.1382 51.5716C71.273 51.6274 71.3954 51.7092 71.4986 51.8124C71.6018 51.9156 71.6836 52.038 71.7394 52.1728C71.7953 52.3076 71.824 52.4521 71.824 52.598V63.182H71.82ZM83.313 51.543L82.304 52.549C82.101 52.7584 81.9885 53.0393 81.9908 53.3309C81.9931 53.6226 82.1099 53.9016 82.3162 54.1078C82.5224 54.3141 82.8014 54.4309 83.0931 54.4332C83.3847 54.4355 83.6656 54.323 83.875 54.12L84.884 53.11C87.7237 56.2951 89.4015 60.3477 89.644 64.608H88.217C87.9223 64.608 87.6398 64.7251 87.4314 64.9334C87.2231 65.1418 87.106 65.4243 87.106 65.719C87.106 66.0137 87.2231 66.2962 87.4314 66.5046C87.6398 66.7129 87.9223 66.83 88.217 66.83H89.644C89.4004 71.0885 87.7227 75.1393 84.884 78.323L83.875 77.314C83.7731 77.2058 83.6505 77.1191 83.5144 77.0591C83.3784 76.9991 83.2317 76.9671 83.083 76.9648C82.9344 76.9626 82.7868 76.9902 82.649 77.046C82.5112 77.1018 82.386 77.1848 82.2809 77.2898C82.1757 77.3949 82.0927 77.5201 82.0368 77.6578C81.9809 77.7956 81.9532 77.9432 81.9553 78.0918C81.9575 78.2405 81.9895 78.3872 82.0493 78.5233C82.1092 78.6593 82.1958 78.782 82.304 78.884L83.313 79.894C80.1293 82.7329 76.0786 84.4109 71.82 84.655V83.227C71.82 82.9323 71.703 82.6498 71.4946 82.4414C71.2862 82.2331 71.0037 82.116 70.709 82.116C70.4143 82.116 70.1318 82.2331 69.9234 82.4414C69.7151 82.6498 69.598 82.9323 69.598 83.227V84.655C65.3395 84.4104 61.289 82.7324 58.105 79.894L59.114 78.884C59.2222 78.782 59.3088 78.6593 59.3687 78.5233C59.4285 78.3872 59.4605 78.2405 59.4627 78.0918C59.4648 77.9432 59.4371 77.7956 59.3812 77.6578C59.3253 77.5201 59.2423 77.3949 59.1371 77.2898C59.032 77.1848 58.9068 77.1018 58.769 77.046C58.6312 76.9902 58.4836 76.9626 58.335 76.9648C58.1863 76.9671 58.0396 76.9991 57.9036 77.0591C57.7675 77.1191 57.6449 77.2058 57.543 77.314L56.534 78.323C53.6947 75.1391 52.0167 71.088 51.773 66.829H53.2C53.3486 66.8335 53.4967 66.808 53.6353 66.7542C53.7739 66.7004 53.9003 66.6194 54.007 66.5158C54.1138 66.4122 54.1986 66.2883 54.2565 66.1514C54.3145 66.0144 54.3443 65.8672 54.3443 65.7185C54.3443 65.5698 54.3145 65.4226 54.2565 65.2857C54.1986 65.1487 54.1138 65.0248 54.007 64.9212C53.9003 64.8177 53.7739 64.7366 53.6353 64.6828C53.4967 64.629 53.3486 64.6035 53.2 64.608H51.773C52.0167 60.349 53.6947 56.2979 56.534 53.114L57.543 54.124C57.7519 54.3323 58.0349 54.4492 58.3299 54.4488C58.6249 54.4484 58.9077 54.3309 59.116 54.122C59.3243 53.9131 59.4412 53.6301 59.4408 53.3351C59.4404 53.0401 59.3229 52.7573 59.114 52.549L58.105 51.549C61.2884 48.7096 65.3393 47.0315 69.598 46.788V48.215C69.598 48.5097 69.7151 48.7922 69.9234 49.0006C70.1318 49.2089 70.4143 49.326 70.709 49.326C71.0037 49.326 71.2862 49.2089 71.4946 49.0006C71.703 48.7922 71.82 48.5097 71.82 48.215V46.783C76.0785 47.0268 80.1292 48.7044 83.313 51.543ZM70.713 44.529C75.6151 44.5293 80.3655 46.2293 84.1548 49.3394C87.944 52.4495 90.5377 56.7772 91.4938 61.5852C92.45 66.3932 91.7094 71.3839 89.3984 75.7072C87.0874 80.0304 83.3489 83.4185 78.8198 85.2943C74.2908 87.1702 69.2514 87.4176 64.5604 85.9944C59.8694 84.5713 55.8169 81.5657 53.0935 77.4896C50.3701 73.4136 49.1443 68.5194 49.6248 63.6408C50.1054 58.7623 52.2626 54.2013 55.729 50.735C57.694 48.7647 60.0289 47.2022 62.5997 46.1371C65.1705 45.0721 67.9264 44.5256 70.709 44.529H70.713ZM86.82 49.611C90.5463 53.3374 92.8653 58.2406 93.3819 63.485C93.8985 68.7295 92.5807 73.9909 89.6531 78.3727C86.7254 82.7546 82.369 85.9858 77.3262 87.5158C72.2833 89.0458 66.8659 88.78 61.997 86.7637C57.1282 84.7474 53.109 81.1052 50.6244 76.4579C48.1397 71.8105 47.3433 66.4454 48.3708 61.2766C49.3983 56.1079 52.1861 51.4553 56.2594 48.1116C60.3326 44.7679 65.4391 42.9398 70.709 42.939C73.701 42.9347 76.6643 43.522 79.4286 44.667C82.1928 45.8121 84.7034 47.4923 86.816 49.611H86.82ZM60.391 88.498C55.2685 86.182 51.0762 82.2071 48.4908 77.2151C45.9055 72.2231 45.0782 66.5055 46.1424 60.9855C47.2067 55.4654 50.1003 50.4652 54.3562 46.7921C58.612 43.1191 63.9817 40.9876 69.598 40.742V0H18.898V17.79C18.898 18.0845 18.7811 18.3669 18.5729 18.5752C18.3648 18.7836 18.0825 18.9007 17.788 18.901H0V88.501L60.391 88.498ZM16.099 51.305C15.9504 51.3095 15.8023 51.284 15.6637 51.2302C15.5251 51.1764 15.3987 51.0954 15.2919 50.9918C15.1852 50.8882 15.1004 50.7643 15.0425 50.6273C14.9845 50.4904 14.9547 50.3432 14.9547 50.1945C14.9547 50.0458 14.9845 49.8986 15.0425 49.7617C15.1004 49.6247 15.1852 49.5008 15.2919 49.3972C15.3987 49.2936 15.5251 49.2126 15.6637 49.1588C15.8023 49.105 15.9504 49.0795 16.099 49.084H45.017C45.1656 49.0795 45.3137 49.105 45.4523 49.1588C45.5909 49.2126 45.7173 49.2936 45.8241 49.3972C45.9308 49.5008 46.0156 49.6247 46.0735 49.7617C46.1315 49.8986 46.1613 50.0458 46.1613 50.1945C46.1613 50.3432 46.1315 50.4904 46.0735 50.6273C46.0156 50.7643 45.9308 50.8882 45.8241 50.9918C45.7173 51.0954 45.5909 51.1764 45.4523 51.2302C45.3137 51.284 45.1656 51.3095 45.017 51.305H16.099Z" fill="#439080"/>
</svg>
