<svg width="20" height="29" viewBox="0 0 20 29" fill="none" xmlns="http://www.w3.org/2000/svg">
<path d="M10.8291 0C14.9233 0 18.2539 3.29058 18.2539 7.33496V9.4707C18.5072 9.6238 18.6768 9.8982 18.6768 10.2119V11.501H18.8457L18.8447 11.5029C19.3309 11.5031 19.7266 11.8936 19.7266 12.374V28.1045C19.7266 28.5849 19.3309 28.9764 18.8447 28.9766H14.3838C14.1533 28.9766 13.9456 28.8852 13.7881 28.7422H2.8125C2.32619 28.7422 1.93078 28.3515 1.93066 27.8711V19.4805H0.881836C0.3956 19.4803 7.53693e-05 19.0897 0 18.6094V13.9258C0.000238087 13.4455 0.3957 13.0548 0.881836 13.0547H1.93066V12.6064C1.93079 12.1261 2.3262 11.7354 2.8125 11.7354H2.98145V11H7.10547V11.7354H13.7881C13.9443 11.591 14.1533 11.5011 14.3838 11.501H14.5547V10.2119C14.5547 9.8982 14.7252 9.6238 14.9785 9.4707V7.33496C14.9785 5.07567 13.117 3.2373 10.8301 3.2373C9.0162 3.23748 7.47098 4.39406 6.90918 6H3.53027C4.16742 2.59072 7.19642 7.43446e-05 10.8291 0ZM14.3848 12.248C14.3156 12.2482 14.2588 12.3047 14.2588 12.373V28.1035C14.2588 28.1718 14.3156 28.2283 14.3848 28.2285H18.8457C18.915 28.2285 18.9717 28.172 18.9717 28.1035V12.373C18.9717 12.3046 18.915 12.248 18.8457 12.248H14.3848ZM2.8125 12.4824C2.74338 12.4825 2.68672 12.5382 2.68652 12.6064V27.8711C2.68657 27.9395 2.74329 27.996 2.8125 27.9961H13.502V12.4824H2.8125ZM11.5322 23.1191C11.7413 23.1192 11.9102 23.2866 11.9102 23.4932V25.7568C11.9102 25.9634 11.7413 26.1308 11.5322 26.1309H4.6582C4.44901 26.1309 4.28027 25.9635 4.28027 25.7568V23.4932C4.28027 23.2865 4.44901 23.1191 4.6582 23.1191H11.5322ZM5.03516 23.8662V25.3838H6.56934V23.8662H5.03516ZM7.32715 23.8662V25.3838H8.8623V23.8662H7.32715ZM9.61914 23.8652V25.3828H11.1543V23.8652H9.61914ZM11.5322 18.7324C11.7414 18.7324 11.9102 18.8998 11.9102 19.1064V21.3701C11.9102 21.5768 11.7414 21.7441 11.5322 21.7441H4.6582C4.44909 21.744 4.28027 21.5767 4.28027 21.3701V19.1064C4.28027 18.8998 4.44909 18.7325 4.6582 18.7324H11.5322ZM5.03516 19.4795V20.9971H6.57031V19.4795H5.03516ZM7.32715 19.4795V20.9971H8.8623V19.4795H7.32715ZM9.61914 19.4795V20.9971H11.1543V19.4795H9.61914ZM0.881836 13.8008C0.81276 13.801 0.755969 13.8565 0.755859 13.9248V18.6084C0.756063 18.6766 0.812818 18.7322 0.881836 18.7324H1.93066V13.8008H0.881836ZM11.5322 14.3467C11.7414 14.3467 11.9102 14.514 11.9102 14.7207V16.9844C11.9102 17.191 11.7414 17.3584 11.5322 17.3584H4.6582C4.44918 17.3582 4.28027 17.1909 4.28027 16.9844V14.7207C4.28027 14.5142 4.44918 14.3469 4.6582 14.3467H11.5322ZM5.03516 15.0938V16.6113H6.57031V15.0938H5.03516ZM7.32715 15.0938V16.6113H8.8623V15.0938H7.32715ZM9.61914 15.0938V16.6113H11.1543V15.0938H9.61914ZM15.4346 10.0869C15.3655 10.0871 15.3086 10.1436 15.3086 10.2119V11.501H17.9199V10.2119C17.9199 10.1435 17.8632 10.087 17.7939 10.0869H15.4346ZM10.8291 0.74707C7.9843 0.747162 5.55182 2.517 4.5957 5H6.5332C7.36908 3.50488 8.9814 2.49034 10.8291 2.49023C13.5332 2.49023 15.7334 4.66352 15.7334 7.33496V9.33984H17.498V7.33496C17.498 3.70244 14.5061 0.74707 10.8291 0.74707Z" fill="#BF2E39"/>
</svg>
