<svg width="10" height="10" viewBox="0 0 10 14" fill="none" xmlns="http://www.w3.org/2000/svg">
<g clip-path="url(#clip0_356_62)">
<path d="M9.42302 5.55234H9.33858V4.92974C9.33858 4.77829 9.25353 4.64608 9.12689 4.57217V3.54092C9.12689 1.58846 7.46173 0 5.41463 0C3.36753 0 1.70237 1.58831 1.70237 3.54092V4.57217C1.57574 4.64609 1.49068 4.77829 1.49068 4.92974V5.66531H1.40626C1.16306 5.66531 0.965226 5.85402 0.965226 6.08598V6.30232H0.441032C0.197839 6.30232 0 6.49103 0 6.723V8.98377C0 9.21574 0.197839 9.40445 0.441032 9.40445H0.965226V13.4549C0.965226 13.6869 1.16306 13.8756 1.40626 13.8756H6.89384C6.9726 13.9447 7.07655 13.9886 7.19185 13.9886H9.42218C9.66537 13.9886 9.86321 13.7999 9.86321 13.5679V5.97358C9.86321 5.74162 9.66537 5.55291 9.42218 5.55291L9.42302 5.55234ZM7.19205 5.55234C7.07674 5.55234 6.97216 5.5956 6.89403 5.66532H3.5529V4.92975C3.5529 4.77831 3.46784 4.64609 3.34121 4.57218V3.54094C3.34121 2.4502 4.27177 1.56263 5.41524 1.56263C6.55871 1.56263 7.48927 2.45025 7.48927 3.54094V4.57218C7.36263 4.64609 7.27758 4.77831 7.27758 4.92975V5.55235L7.19205 5.55234ZM7.6545 4.92974C7.6545 4.89669 7.68285 4.86965 7.7175 4.86965H8.89694C8.93158 4.86965 8.95994 4.89669 8.95994 4.92974V5.55234H7.65448L7.6545 4.92974ZM2.08047 3.54092C2.08047 1.78738 3.57618 0.360615 5.41466 0.360615C7.25314 0.360615 8.74885 1.78729 8.74885 3.54092V4.50908H7.86679V3.54092C7.86679 2.25126 6.76674 1.202 5.41469 1.202C4.06264 1.202 2.9626 2.25128 2.9626 3.54092L2.82258 4.57217L2.08053 4.50908L2.08047 3.54092ZM0.441094 9.04328C0.406442 9.04328 0.37809 9.01623 0.37809 8.98319V6.72242C0.37809 6.68935 0.406442 6.66232 0.441094 6.66232H0.965287V9.0434L0.441094 9.04328ZM1.34332 13.455V6.08605C1.34332 6.053 1.37167 6.02595 1.40632 6.02595H6.751V13.5152H1.40632C1.37167 13.5152 1.34332 13.488 1.34332 13.455ZM9.4859 13.5674C9.4859 13.6004 9.45755 13.6274 9.4229 13.6274H7.19256C7.15792 13.6274 7.12956 13.6004 7.12956 13.5674V5.97305C7.12956 5.93998 7.15792 5.91295 7.19256 5.91295H9.4229C9.45755 5.91295 9.4859 5.93998 9.4859 5.97305V13.5674ZM5.76623 6.92612H2.32929C2.22469 6.92612 2.14027 7.00665 2.14027 7.10642V8.19957C2.14027 8.29932 2.22469 8.37986 2.32929 8.37986H5.76623C5.87081 8.37986 5.95524 8.29932 5.95524 8.19957V7.10642C5.95524 7.00665 5.87081 6.92612 5.76623 6.92612ZM2.51768 7.28671H3.28506V8.01928H2.51768V7.28671ZM3.66373 7.28671H4.43111V8.01928H3.66373V7.28671ZM5.57711 8.01928H4.80973V7.28671H5.57711V8.01928ZM5.76613 9.04331H2.32919C2.2246 9.04331 2.14018 9.12383 2.14018 9.2236V10.3168C2.14018 10.4165 2.2246 10.497 2.32919 10.497H5.76613C5.87071 10.497 5.95515 10.4165 5.95515 10.3168V9.2236C5.95515 9.12383 5.87071 9.04331 5.76613 9.04331ZM2.51758 9.40389H3.28497V10.1365H2.51758V9.40389ZM3.66363 9.40389H4.43102V10.1365H3.66363V9.40389ZM5.57702 10.1365H4.80963V9.40389H5.57702V10.1365ZM5.76603 11.1611H2.3291C2.2245 11.1611 2.14008 11.2416 2.14008 11.3414V12.4346C2.14008 12.5343 2.2245 12.6148 2.3291 12.6148H5.76603C5.87061 12.6148 5.95505 12.5343 5.95505 12.4346V11.3414C5.95505 11.2416 5.87061 11.1611 5.76603 11.1611ZM2.51748 11.5217H3.28487V12.2543H2.51748V11.5217ZM3.66353 11.5217H4.43092V12.2543H3.66353V11.5217ZM5.57692 12.2537H4.80953V11.5211H5.57692V12.2537Z" fill="#478C83"/>
</g>
<defs>
<clipPath id="clip0_356_62">
<rect width="10" height="14" fill="white"/>
</clipPath>
</defs>
</svg>
