<svg width="27" height="30" viewBox="0 0 27 30" fill="none" xmlns="http://www.w3.org/2000/svg">
<path d="M13.9961 14.665C15.4403 14.665 16.7991 15.0475 17.9854 15.7207C16.8956 16.2945 15.9227 17.0741 15.1201 18.0186C14.8504 17.9554 14.573 17.9143 14.29 17.8975H14.2891L13.9961 17.8896H8.39746C5.63622 17.8897 3.34611 20.1875 3.19141 23.1221V23.123L3.18359 23.4385V26.0586H12.916C13.1047 27.1936 13.4898 28.2854 14.0537 29.2832H0.015625V23.4395C0.015625 18.7143 3.58356 14.8627 8.05176 14.6729L8.39844 14.665H13.9961ZM11.1973 0.015625C14.2801 0.0158332 16.7793 2.55941 16.7793 5.69727C16.7791 8.63564 14.5875 11.0523 11.7773 11.3477L11.5029 11.3701L11.1963 11.377C8.11365 11.3766 5.61442 8.83498 5.61426 5.69727C5.61426 2.66423 7.94947 0.185627 10.8896 0.0234375L11.1973 0.015625ZM11.1973 3.24023C9.86328 3.24023 8.78223 4.34046 8.78223 5.69727C8.78239 7.05393 9.86338 8.1543 11.1973 8.1543C12.531 8.15409 13.6121 7.0538 13.6123 5.69727C13.6123 4.34059 12.5311 3.24044 11.1973 3.24023Z" fill="#FFB752" stroke="#FFB752" stroke-width="0.03125"/>
<path d="M20 28V18ZM15 23H25Z" fill="#FFB752"/>
<path d="M20 28V18M15 23H25" stroke="#FFB752" stroke-width="2.5" stroke-linecap="round"/>
</svg>
