<svg width="24" height="24" viewBox="0 0 24 24" fill="none" xmlns="http://www.w3.org/2000/svg">
<path d="M4.57224 13.9081V23.4291C4.57224 23.7446 4.31628 24.0005 4.00079 24.0005H1.715C1.3995 24.0005 1.14355 23.7446 1.14355 23.4291V14.1854C1.14355 13.7997 1.45189 13.4878 1.83761 13.4723C2.55907 13.4462 3.26267 13.4009 3.9484 13.3402C4.28414 13.3104 4.57224 13.5712 4.57224 13.9081Z" fill="#428B79"/>
<path d="M10.2861 13.008V23.429C10.2861 23.7445 10.0301 24.0004 9.71466 24.0004H7.42887C7.11337 24.0004 6.85742 23.7445 6.85742 23.429V13.584C6.85742 13.234 7.11338 12.94 7.45865 12.8817C8.19199 12.7579 8.90037 12.6126 9.58132 12.4531C9.94205 12.3686 10.2861 12.6378 10.2861 13.008Z" fill="#428B79"/>
<path d="M16.001 11.2281V23.4288C16.001 23.7443 15.745 24.0002 15.4295 24.0002H13.1437C12.8282 24.0002 12.5723 23.7443 12.5723 23.4288V12.2624C12.5723 11.8922 12.8151 11.566 13.1675 11.4494C13.8842 11.2113 14.5664 10.9589 15.2104 10.7006C15.589 10.5494 16.001 10.821 16.001 11.2281Z" fill="#428B79"/>
<path d="M21.7148 8.09091V23.4284C21.7148 23.7439 21.4589 23.9998 21.1434 23.9998H18.8576C18.5421 23.9998 18.2861 23.7439 18.2861 23.4284V9.80757C18.2861 9.4909 18.4647 9.20044 18.7445 9.05045C19.6088 8.58619 20.3648 8.13025 21.0088 7.70884C21.3136 7.50885 21.7148 7.72664 21.7148 8.09091Z" fill="#428B79"/>
<path d="M23.9997 0.618095L23.6687 4.84651C23.6283 5.34411 23.0282 5.55482 22.6854 5.20009L21.8163 4.28583C20.1531 5.70244 13.0397 11.0629 0.582176 11.2226C0.261921 11.2285 0 10.9654 0 10.6512V8.65124C0 8.33698 0.257152 8.08577 0.565505 8.07983C11.6623 7.92507 18.0731 3.29067 19.64 2.01102L18.7709 1.10271C18.428 0.749138 18.6733 0.153929 19.165 0.137259L23.4104 0.000359068C23.7474 -0.0115451 24.0224 0.27416 23.9986 0.616992L23.9997 0.618095Z" fill="#428B79"/>
</svg>
