<svg width="25" height="30" viewBox="0 0 25 30" fill="none" xmlns="http://www.w3.org/2000/svg">
<path d="M21.2135 3.63941C16.3608 -1.21325 8.49285 -1.21325 3.6402 3.64007C-1.21312 8.49306 -1.21345 16.3607 3.63953 21.2137C3.64286 21.217 3.64586 21.2197 3.64886 21.222L12.4265 30L21.2135 21.2137C26.0665 16.3607 26.0665 8.49239 21.2135 3.63941ZM12.4265 21.435C7.45052 21.435 3.41787 17.4024 3.4182 12.426C3.4182 7.45006 7.45052 3.41674 12.4265 3.41674C17.4025 3.41607 21.4368 7.45006 21.4368 12.4257C21.4365 17.4024 17.4025 21.435 12.4265 21.435Z" fill="#458D81"/>
<path d="M12.4265 4.83301C8.23282 4.83301 4.8335 8.232 4.8335 12.426C4.8335 16.6193 8.23282 20.019 12.4265 20.019C16.6198 20.019 20.0195 16.6193 20.0195 12.426C20.0195 8.232 16.6198 4.83301 12.4265 4.83301ZM12.1735 19.506C8.46715 19.375 5.47716 16.3856 5.34616 12.6793H7.37082C7.49849 15.273 9.57915 17.3536 12.1735 17.4813V19.506ZM12.1735 16.974C9.86248 16.847 8.00549 14.9896 7.87815 12.6793H9.90815C10.0268 13.8746 10.9775 14.8256 12.1731 14.9443L12.1735 16.974ZM12.1735 14.433C11.2595 14.3183 10.5345 13.593 10.4195 12.679H12.1735V14.433ZM12.1735 12.1727H10.4195C10.5345 11.2587 11.2595 10.5333 12.1735 10.4187V12.1727ZM12.1735 9.90766C10.9778 10.026 10.0271 10.9767 9.90848 12.1727H7.87849C8.00582 9.86199 9.86282 8.00467 12.1738 7.87767L12.1735 9.90766ZM12.1735 7.37067C9.57915 7.49833 7.49849 9.57899 7.37082 12.1727H5.34616C5.47716 8.46633 8.46682 5.47667 12.1735 5.34534V7.37067ZM12.6795 5.34534C16.3861 5.47701 19.3758 8.46633 19.5065 12.1727H17.4818C17.3541 9.57899 15.2741 7.49833 12.6795 7.37067V5.34534ZM12.6795 7.87767C14.9905 8.00467 16.8478 9.86199 16.9748 12.1727H14.9448C14.8265 10.9767 13.8755 10.0263 12.6795 9.90766V7.87767ZM12.6795 10.4187C13.5938 10.5333 14.3191 11.2587 14.4338 12.1727H12.6795V10.4187ZM12.6795 12.6793H14.4338C14.3191 13.5933 13.5938 14.3186 12.6795 14.4333V12.6793ZM12.6795 14.9443C13.8755 14.826 14.8261 13.8746 14.9448 12.6793H16.9748C16.8478 14.99 14.9905 16.847 12.6795 16.974V14.9443ZM12.6795 19.506V17.4813C15.2741 17.3536 17.3541 15.273 17.4818 12.6793H19.5065C19.3758 16.3853 16.3861 19.375 12.6795 19.506Z" fill="#458D81"/>
</svg>
