<svg width="30" height="30" viewBox="0 0 30 30" fill="none" xmlns="http://www.w3.org/2000/svg">
<path d="M12.4199 15.9967H14.2869L13.3534 12.2363L12.4199 15.9967Z" fill="#448C81"/>
<path d="M28.5005 0H1.49946C0.671323 0 0 1.12299 0 2.50854V27.4916C0 28.8768 0.671331 30 1.49946 30H28.5005C29.3287 30 30 28.8768 30 27.4916V2.50854C30 1.123 29.3287 0 28.5005 0ZM9.51163 16.7636C9.67786 17.5047 9.76206 18.2433 9.76206 18.9586V19.6506C9.76206 19.9212 9.70275 20.165 9.59073 20.3537L9.58924 20.3561C9.47649 20.5422 9.33151 20.6415 9.1697 20.6415C8.99474 20.6415 8.84463 20.5447 8.73557 20.3622C8.62574 20.181 8.56788 19.9347 8.56788 19.6506V19.1998C8.56788 18.7184 8.54226 18.2714 8.49174 17.8721C8.4449 17.5047 8.33506 17.1812 8.15568 16.886C7.9895 16.6118 7.72223 16.4733 7.36128 16.4733H5.68607V19.6506C5.68607 19.9248 5.62458 20.1699 5.50742 20.3586C5.27756 20.7296 4.88876 20.7283 4.66472 20.3549C4.55051 20.1638 4.49266 19.9273 4.49266 19.6506V10.4397C4.49266 10.1691 4.55125 9.92403 4.66253 9.7329C4.77382 9.53827 4.92025 9.4341 5.08498 9.4341H7.18117C8.03853 9.4341 8.69602 9.74158 9.13604 10.3479C9.58707 10.9701 9.81552 11.7955 9.81552 12.8025C9.81552 13.4651 9.7035 14.0787 9.48239 14.6263C9.33595 14.9876 9.14561 15.2839 8.91347 15.5142C9.18655 15.7923 9.38719 16.21 9.51163 16.7636ZM16.282 20.3501C16.1707 20.541 16.0235 20.6415 15.8544 20.6415C15.7321 20.6415 15.6201 20.5864 15.5213 20.4774C15.4231 20.3708 15.347 20.2226 15.2965 20.0376L14.7569 17.8721H11.949L11.4116 20.0266C11.3589 20.2226 11.2827 20.3708 11.1832 20.4786C10.9511 20.737 10.6121 20.6783 10.4246 20.3513C10.3148 20.1576 10.2592 19.9224 10.2592 19.6506C10.2592 19.528 10.279 19.3909 10.3192 19.2292L12.6131 10.1667C12.6761 9.93397 12.7624 9.74528 12.8723 9.59953C12.9931 9.44023 13.1395 9.35952 13.3079 9.35952H13.398C13.5664 9.35952 13.7128 9.44023 13.8336 9.59953C13.9434 9.74527 14.0298 9.93396 14.0914 10.1606L16.3867 19.228C16.427 19.3909 16.4467 19.528 16.4467 19.6506C16.4467 19.9224 16.3911 20.1576 16.282 20.3501ZM25.4729 10.675L23.7069 19.7473C23.6439 20.0376 23.5509 20.2556 23.4287 20.4076C23.3035 20.5631 23.1585 20.6415 22.9981 20.6415C22.8364 20.6415 22.6877 20.5569 22.5567 20.3904C22.4256 20.225 22.3355 20.0071 22.2879 19.74L21.0184 13.0168L19.7488 19.7449C19.7027 20.0059 19.6119 20.225 19.4801 20.3904C19.218 20.7235 18.8585 20.7174 18.6081 20.4064C18.4858 20.2556 18.3921 20.0363 18.332 19.757L16.5668 10.6872C16.5412 10.5279 16.5302 10.4213 16.5302 10.3345C16.5222 10.0722 16.577 9.82613 16.6891 9.63881C16.8904 9.30316 17.2485 9.25412 17.4849 9.58109C17.5853 9.71952 17.6563 9.90075 17.6973 10.1213L19.0313 17.4507L20.3711 10.1519C20.4128 9.91794 20.4949 9.72316 20.6164 9.57742C20.8522 9.2896 21.1824 9.28838 21.4211 9.57742C21.5411 9.72438 21.6246 9.91917 21.6663 10.1557L23.0062 17.4507L24.3387 10.1225C24.3797 9.90317 24.4515 9.72195 24.5511 9.58245C24.7883 9.25289 25.1448 9.30072 25.3477 9.63743C25.4604 9.82856 25.5146 10.0734 25.5066 10.3503C25.5066 10.4249 25.4955 10.5364 25.4729 10.675Z" fill="#448C81"/>
<path d="M7.08178 11.3555H5.68555V14.5511H7.12648C7.60236 14.5511 7.98015 14.3969 8.25033 14.0931C8.49999 13.8113 8.62152 13.4231 8.62152 12.9075C8.62152 12.4064 8.51829 12.0365 8.30673 11.7756C8.07973 11.4976 7.66754 11.3555 7.08178 11.3555Z" fill="#448C81"/>
</svg>
