<svg width="110" height="135" viewBox="0 0 110 135" fill="none" xmlns="http://www.w3.org/2000/svg">
<path fill-rule="evenodd" clip-rule="evenodd" d="M87.812 38.125V22.5C87.812 18.1875 84.312 14.6875 79.9995 14.6875H17.4995C13.187 14.6875 9.68701 18.1875 9.68701 22.5V97.5C9.68701 101.816 13.187 105.312 17.4995 105.312H79.9995C82.0698 105.312 84.0581 104.492 85.5229 103.027C86.9877 101.562 87.812 99.5742 87.812 97.5V75.625C87.812 74.7656 87.1128 74.0625 86.2495 74.0625C85.3862 74.0625 84.687 74.7656 84.687 75.625V97.5C84.687 98.7461 84.1948 99.9375 83.312 100.816C82.437 101.695 81.2417 102.188 79.9995 102.188H17.4995C14.9097 102.188 12.812 100.09 12.812 97.5V22.5C12.812 19.9141 14.9097 17.8125 17.4995 17.8125H79.9995C82.5893 17.8125 84.687 19.9141 84.687 22.5V38.125C84.687 38.9883 85.3862 39.6875 86.2495 39.6875C87.1128 39.6875 87.812 38.9883 87.812 38.125Z" fill="black"/>
<path fill-rule="evenodd" clip-rule="evenodd" d="M33.125 24.062C25.3633 24.062 19.063 30.3667 19.063 38.124C19.063 45.8857 25.3638 52.186 33.125 52.186C40.8862 52.186 47.187 45.8852 47.187 38.124C47.187 30.3662 40.8862 24.062 33.125 24.062ZM43.953 39.687C43.1913 44.9878 38.6327 49.062 33.125 49.062C30.6719 49.062 28.4023 48.2534 26.5781 46.8823L33.7734 39.687H43.953ZM31.562 27.3V37.48L24.3667 44.6753C22.9995 42.8472 22.187 40.5815 22.187 38.1245C22.187 32.6206 26.2651 28.058 31.562 27.3ZM34.687 27.3C39.4722 27.9836 43.2651 31.7766 43.9526 36.5617H34.687V27.3Z" fill="black"/>
<path fill-rule="evenodd" clip-rule="evenodd" d="M51.875 39.688H76.875C77.7383 39.688 78.4375 38.9888 78.4375 38.1255C78.4375 37.2661 77.7383 36.563 76.875 36.563H51.875C51.0117 36.563 50.3125 37.2661 50.3125 38.1255C50.3125 38.9888 51.0117 39.688 51.875 39.688Z" fill="black"/>
<path fill-rule="evenodd" clip-rule="evenodd" d="M51.875 30.312H61.25C62.1133 30.312 62.8125 29.6128 62.8125 28.7495C62.8125 27.8901 62.1133 27.187 61.25 27.187H51.875C51.0117 27.187 50.3125 27.8901 50.3125 28.7495C50.3125 29.6128 51.0117 30.312 51.875 30.312Z" fill="black"/>
<path fill-rule="evenodd" clip-rule="evenodd" d="M67.5 30.312H76.875C77.7383 30.312 78.4375 29.6128 78.4375 28.7495C78.4375 27.8901 77.7383 27.187 76.875 27.187H67.5C66.6367 27.187 65.9375 27.8901 65.9375 28.7495C65.9375 29.6128 66.6367 30.312 67.5 30.312Z" fill="black"/>
<path fill-rule="evenodd" clip-rule="evenodd" d="M51.875 49.062H76.875C77.7383 49.062 78.4375 48.3628 78.4375 47.4995C78.4375 46.6401 77.7383 45.937 76.875 45.937H51.875C51.0117 45.937 50.3125 46.6401 50.3125 47.4995C50.3125 48.3628 51.0117 49.062 51.875 49.062Z" fill="black"/>
<path fill-rule="evenodd" clip-rule="evenodd" d="M20.625 58.438H67.5C68.3633 58.438 69.0625 57.7388 69.0625 56.8755C69.0625 56.0161 68.3633 55.313 67.5 55.313H20.625C19.7617 55.313 19.0625 56.0161 19.0625 56.8755C19.0625 57.7388 19.7617 58.438 20.625 58.438Z" fill="black"/>
<path fill-rule="evenodd" clip-rule="evenodd" d="M39.375 67.812H58.125C58.9883 67.812 59.6875 67.1128 59.6875 66.2495C59.6875 65.3901 58.9883 64.687 58.125 64.687H39.375C38.5117 64.687 37.8125 65.3901 37.8125 66.2495C37.8125 67.1128 38.5117 67.812 39.375 67.812Z" fill="black"/>
<path fill-rule="evenodd" clip-rule="evenodd" d="M20.625 77.188H48.75C49.6133 77.188 50.3125 76.4888 50.3125 75.6255C50.3125 74.7661 49.6133 74.063 48.75 74.063H20.625C19.7617 74.063 19.0625 74.7661 19.0625 75.6255C19.0625 76.4888 19.7617 77.188 20.625 77.188Z" fill="black"/>
<path fill-rule="evenodd" clip-rule="evenodd" d="M20.625 86.562H42.5C43.3633 86.562 44.0625 85.8628 44.0625 84.9995C44.0625 84.1401 43.3633 83.437 42.5 83.437H20.625C19.7617 83.437 19.0625 84.1401 19.0625 84.9995C19.0625 85.8628 19.7617 86.562 20.625 86.562Z" fill="black"/>
<path fill-rule="evenodd" clip-rule="evenodd" d="M20.625 95.938H42.5C43.3633 95.938 44.0625 95.2388 44.0625 94.3755C44.0625 93.5161 43.3633 92.813 42.5 92.813H20.625C19.7617 92.813 19.0625 93.5161 19.0625 94.3755C19.0625 95.2388 19.7617 95.938 20.625 95.938Z" fill="black"/>
<path fill-rule="evenodd" clip-rule="evenodd" d="M20.625 67.812H33.125C33.9883 67.812 34.6875 67.1128 34.6875 66.2495C34.6875 65.3901 33.9883 64.687 33.125 64.687H20.625C19.7617 64.687 19.0625 65.3901 19.0625 66.2495C19.0625 67.1128 19.7617 67.812 20.625 67.812Z" fill="black"/>
<path fill-rule="evenodd" clip-rule="evenodd" d="M50.172 82.383C50.1642 82.4142 50.1564 82.4416 50.1486 82.4728C49.4494 85.2736 47.2345 94.1328 47.2345 94.1328C47.1017 94.6641 47.2579 95.2266 47.6447 95.6172C48.0314 96.0039 48.5978 96.1602 49.1291 96.0274C49.1291 96.0274 57.9846 93.8126 60.7891 93.1094C60.8203 93.1016 60.8476 93.0977 60.8789 93.086L50.172 82.383ZM87.879 66.965L83.1251 62.2111L58.7731 86.5631L63.527 91.317L87.879 66.965ZM76.297 55.379L51.942 79.734L56.5631 84.3512L80.9151 59.9992L76.297 55.379ZM92.567 62.2774L90.0904 64.7579L78.5044 53.1719L80.9849 50.6914L92.567 62.2774ZM83.192 48.4844L94.778 60.0664L99.2077 55.6367C100.087 54.7578 100.583 53.5664 100.583 52.3242C100.583 51.0781 100.087 49.8867 99.2077 49.0078L94.2507 44.0547C93.3757 43.1719 92.1804 42.6797 90.9382 42.6797C89.696 42.6797 88.5007 43.1719 87.6257 44.0547L83.192 48.4844Z" fill="black"/>
</svg>
