<svg width="36" height="32" viewBox="0 0 36 32" fill="none" xmlns="http://www.w3.org/2000/svg">
<path d="M9.6 14.8V31.2C9.6 31.64 9.24 32 8.8 32H0.8C0.36 32 0 31.64 0 31.2V14.8C0 14.36 0.36 14 0.8 14H8.8C9.24 14 9.6 14.36 9.6 14.8ZM35.2 0H27.2C26.76 0 26.4 0.36 26.4 0.8V31.2C26.4 31.64 26.76 32 27.2 32H35.2C35.64 32 36 31.64 36 31.2V0.8C36 0.36 35.64 0 35.2 0ZM22 6.8H14C13.56 6.8 13.2 7.16 13.2 7.6V31.2C13.2 31.64 13.56 32 14 32H22C22.44 32 22.8 31.64 22.8 31.2V7.6C22.8 7.16 22.44 6.8 22 6.8Z" fill="#458D81"/>
</svg>
