<svg xmlns="http://www.w3.org/2000/svg" version="1.1" viewBox="-5.0 -10.0 110.0 135.0">
 <path fill="#478c83" d="m23.438 91.406h46.875c0.042969 1.2578-0.4375 2.4727-1.3242 3.3633-0.89062 0.88672-2.1055 1.3672-3.3633 1.3242h-51.562c-1.2578 0.042969-2.4727-0.4375-3.3633-1.3242-0.88672-0.89062-1.3672-2.1055-1.3242-3.3633v-64.062c-0.042969-1.2578 0.4375-2.4727 1.3242-3.3633 0.89062-0.88672 2.1055-1.3672 3.3633-1.3242h1.5625v60.938c0 2.0703 0.82422 4.0586 2.2891 5.5234 1.4648 1.4648 3.4531 2.2891 5.5234 2.2891zm3.125-18.75v-57.812h-3.125c-1.2578-0.042969-2.4727 0.4375-3.3633 1.3242-0.88672 0.89062-1.3672 2.1055-1.3242 3.3633v64.062c-0.042969 1.2578 0.4375 2.4727 1.3242 3.3633 0.89062 0.88672 2.1055 1.3672 3.3633 1.3242h51.562c1.2578 0.042969 2.4727-0.4375 3.3633-1.3242 0.88672-0.89062 1.3672-2.1055 1.3242-3.3633v-3.125h-45.312c-4.3164 0-7.8125-3.4961-7.8125-7.8125zm64.062-64.062v64.062c0.042969 1.2578-0.4375 2.4727-1.3242 3.3633-0.89062 0.88672-2.1055 1.3672-3.3633 1.3242h-51.562l-1.875-0.3125c-1.6602-0.84375-2.7344-2.5156-2.8125-4.375v-64.062c-0.042969-1.2578 0.4375-2.4727 1.3242-3.3633 0.89062-0.88672 2.1055-1.3672 3.3633-1.3242h51.562c1.2578-0.042969 2.4727 0.4375 3.3633 1.3242 0.88672 0.89062 1.3672 2.1055 1.3242 3.3633zm-53.125 10.156c-0.050781 0.42969 0.097656 0.85547 0.40234 1.1602 0.30469 0.30469 0.73047 0.45312 1.1602 0.40234h21.875c0.86328 0 1.5625-0.69922 1.5625-1.5625s-0.69922-1.5625-1.5625-1.5625h-21.875c-0.42969-0.050781-0.85547 0.097656-1.1602 0.40234-0.30469 0.30469-0.45312 0.73047-0.40234 1.1602zm43.75 46.875c0.050781-0.42969-0.097656-0.85547-0.40234-1.1602-0.30469-0.30469-0.73047-0.45312-1.1602-0.40234h-40.625c-0.86328 0-1.5625 0.69922-1.5625 1.5625s0.69922 1.5625 1.5625 1.5625h40.625c0.42969 0.050781 0.85547-0.097656 1.1602-0.40234 0.30469-0.30469 0.45312-0.73047 0.40234-1.1602zm0-7.8125c0.050781-0.42969-0.097656-0.85547-0.40234-1.1602-0.30469-0.30469-0.73047-0.45312-1.1602-0.40234h-40.625c-0.86328 0-1.5625 0.69922-1.5625 1.5625s0.69922 1.5625 1.5625 1.5625h40.625c0.42969 0.050781 0.85547-0.097656 1.1602-0.40234 0.30469-0.30469 0.45312-0.73047 0.40234-1.1602zm0-7.8125c0.050781-0.42969-0.097656-0.85547-0.40234-1.1602-0.30469-0.30469-0.73047-0.45312-1.1602-0.40234h-40.625c-0.86328 0-1.5625 0.69922-1.5625 1.5625s0.69922 1.5625 1.5625 1.5625h40.625c0.42969 0.050781 0.85547-0.097656 1.1602-0.40234 0.30469-0.30469 0.45312-0.73047 0.40234-1.1602zm0-7.8125c0.050781-0.42969-0.097656-0.85547-0.40234-1.1602-0.30469-0.30469-0.73047-0.45312-1.1602-0.40234h-40.625c-0.86328 0-1.5625 0.69922-1.5625 1.5625s0.69922 1.5625 1.5625 1.5625h40.625c0.42969 0.050781 0.85547-0.097656 1.1602-0.40234 0.30469-0.30469 0.45312-0.73047 0.40234-1.1602zm0-7.8125c0.050781-0.42969-0.097656-0.85547-0.40234-1.1602-0.30469-0.30469-0.73047-0.45312-1.1602-0.40234h-40.625c-0.86328 0-1.5625 0.69922-1.5625 1.5625s0.69922 1.5625 1.5625 1.5625h40.625c0.42969 0.050781 0.85547-0.097656 1.1602-0.40234 0.30469-0.30469 0.45312-0.73047 0.40234-1.1602zm0-7.8125c0.050781-0.42969-0.097656-0.85547-0.40234-1.1602-0.30469-0.30469-0.73047-0.45312-1.1602-0.40234h-40.625c-0.86328 0-1.5625 0.69922-1.5625 1.5625s0.69922 1.5625 1.5625 1.5625h40.625c0.42969 0.050781 0.85547-0.097656 1.1602-0.40234 0.30469-0.30469 0.45312-0.73047 0.40234-1.1602z"/>
</svg>