<svg width="110" height="135" viewBox="0 0 110 135" fill="none" xmlns="http://www.w3.org/2000/svg">
<path d="M51 25C33.914 25 20 38.914 20 56C20 73.086 33.914 87 51 87C58.4648 87 65.324 84.3438 70.684 79.9258L84.879 94.1208C86.0509 95.2927 87.9493 95.2927 89.1212 94.1208C90.2931 92.9489 90.2931 91.0466 89.1212 89.8786L74.9262 75.6836C79.3442 70.3242 82.0004 63.4646 82.0004 55.9996C82.0004 38.9136 68.086 25 51 25ZM51 31C64.844 31 76 42.156 76 56C76 69.844 64.844 81 51 81C37.156 81 26 69.844 26 56C26 42.156 37.156 31 51 31Z" fill="white"/>
</svg>
