<svg width="354" height="216" viewBox="0 0 354 216" fill="none" xmlns="http://www.w3.org/2000/svg">
<g opacity="0.3" clip-path="url(#clip0_271_96)">
<path d="M181.603 174.672L57.8494 206.521C53.6515 207.596 49.1983 206.964 45.4667 204.762C41.7351 202.56 39.0298 198.968 37.9444 194.775L0.520207 49.524C-0.555688 45.3287 0.0774747 40.8781 2.28079 37.1488C4.4841 33.4194 8.07764 30.7157 12.273 29.6309L127.405 0.000976562L156.872 13.1846L193.356 154.779C194.432 158.974 193.799 163.425 191.595 167.154C189.392 170.884 185.798 173.588 181.603 174.672Z" fill="#F2F2F2"/>
<path d="M13.4454 34.1848C10.4578 34.9572 7.89871 36.8825 6.32964 39.5383C4.76058 42.194 4.30966 45.3634 5.07579 48.351L42.5023 193.603C43.2752 196.589 45.2017 199.146 47.859 200.714C50.5164 202.282 53.6876 202.733 56.677 201.967L180.431 170.119C183.418 169.347 185.977 167.421 187.546 164.766C189.115 162.11 189.566 158.941 188.8 155.953L152.881 16.5514L126.984 4.96484L13.4454 34.1848Z" fill="white"/>
<path d="M156.556 13.9355L137.404 18.8646C136.006 19.2244 134.522 19.0143 133.278 18.2807C132.035 17.547 131.134 16.3498 130.774 14.9525L127.132 0.815115C127.116 0.753255 127.118 0.688184 127.137 0.627348C127.157 0.566512 127.193 0.512367 127.242 0.471114C127.29 0.429861 127.35 0.40317 127.413 0.394085C127.476 0.385001 127.541 0.39389 127.599 0.419745L156.61 13.2954C156.674 13.3241 156.728 13.3722 156.764 13.4329C156.8 13.4937 156.816 13.5641 156.811 13.6344C156.805 13.7048 156.777 13.7715 156.731 13.8255C156.686 13.8794 156.625 13.9179 156.556 13.9355Z" fill="#F2F2F2"/>
<path d="M146.483 137.976L90.1397 152.477C89.4422 152.653 88.7036 152.545 88.0853 152.178C87.467 151.81 87.0192 151.214 86.8399 150.517C86.6605 149.821 86.7642 149.083 87.1281 148.463C87.4921 147.843 88.0868 147.392 88.7823 147.209L145.126 132.707C145.472 132.616 145.834 132.594 146.189 132.642C146.545 132.691 146.887 132.81 147.197 132.991C147.506 133.173 147.776 133.413 147.992 133.7C148.208 133.986 148.366 134.312 148.455 134.659C148.545 135.006 148.564 135.368 148.514 135.723C148.463 136.078 148.342 136.419 148.159 136.727C147.976 137.036 147.733 137.304 147.446 137.519C147.158 137.733 146.831 137.888 146.483 137.976Z" fill="#CCCCCC"/>
<path d="M159.644 144.068L92.4273 161.367C92.0804 161.458 91.7188 161.48 91.3634 161.431C91.008 161.382 90.6657 161.264 90.3563 161.082C90.0469 160.901 89.7764 160.66 89.5604 160.374C89.3444 160.088 89.1872 159.762 89.0977 159.414C89.0082 159.067 88.9883 158.706 89.0392 158.351C89.09 157.996 89.2105 157.654 89.3937 157.346C89.577 157.038 89.8194 156.769 90.1071 156.555C90.3947 156.341 90.7219 156.185 91.0698 156.098L158.286 138.799C158.984 138.624 159.722 138.731 160.341 139.099C160.959 139.466 161.407 140.063 161.586 140.759C161.766 141.455 161.662 142.194 161.298 142.814C160.934 143.434 160.339 143.885 159.644 144.068Z" fill="#CCCCCC"/>
<path d="M67.1403 169.94C72.4536 169.94 76.761 165.635 76.761 160.325C76.761 155.015 72.4536 150.71 67.1403 150.71C61.8269 150.71 57.5195 155.015 57.5195 160.325C57.5195 165.635 61.8269 169.94 67.1403 169.94Z" fill="#409280"/>
<path d="M140.489 112.813L65.6589 132.063C63.4963 132.617 61.2022 132.291 59.2799 131.157C57.3576 130.022 55.9642 128.172 55.4053 126.012L39.7243 65.1291C39.1707 62.968 39.4974 60.6758 40.6326 58.7551C41.7678 56.8344 43.6189 55.4421 45.7799 54.8835L120.609 35.6328C122.772 35.079 125.066 35.4052 126.988 36.5397C128.911 37.6743 130.304 39.5246 130.863 41.6847L146.544 102.567C147.098 104.728 146.771 107.02 145.636 108.941C144.501 110.862 142.65 112.254 140.489 112.813Z" fill="white"/>
<path d="M140.489 112.813L65.6589 132.063C63.4963 132.617 61.2022 132.291 59.2799 131.157C57.3576 130.022 55.9642 128.172 55.4053 126.012L39.7243 65.1291C39.1707 62.968 39.4974 60.6758 40.6326 58.7551C41.7678 56.8344 43.6189 55.4421 45.7799 54.8835L120.609 35.6328C122.772 35.079 125.066 35.4052 126.988 36.5397C128.911 37.6743 130.304 39.5246 130.863 41.6847L146.544 102.567C147.098 104.728 146.771 107.02 145.636 108.941C144.501 110.862 142.65 112.254 140.489 112.813ZM46.0266 55.8405C44.1199 56.3339 42.4868 57.5629 41.4856 59.2579C40.4843 60.953 40.1967 62.9757 40.6857 64.8825L56.3671 125.765C56.8608 127.671 58.0905 129.303 59.7866 130.303C61.4827 131.304 63.5067 131.591 65.4145 131.103L140.243 111.854C142.149 111.361 143.782 110.132 144.784 108.436C145.785 106.741 146.072 104.719 145.583 102.812L129.903 41.9294C129.41 40.0239 128.18 38.3918 126.484 37.3911C124.788 36.3905 122.764 36.103 120.856 36.5917L46.0266 55.8405Z" fill="#E6E6E6"/>
<path d="M116.815 56.1026L79.0507 65.8182C78.7206 65.9103 78.3678 65.8738 78.0636 65.7159C77.7595 65.5581 77.5266 65.2908 77.412 64.968C77.3587 64.7992 77.3404 64.6214 77.3581 64.4454C77.3759 64.2693 77.4293 64.0988 77.5152 63.944C77.6011 63.7893 77.7176 63.6537 77.8577 63.5455C77.9978 63.4373 78.1584 63.3588 78.3299 63.3147L116.773 53.4248C118.326 54.2113 117.917 55.8197 116.816 56.1031L116.815 56.1026Z" fill="#F2F2F2"/>
<path d="M118.518 62.7208L80.7538 72.4364C80.4237 72.5285 80.0709 72.4919 79.7668 72.3341C79.4626 72.1763 79.2297 71.9089 79.1151 71.5861C79.0618 71.4174 79.0435 71.2396 79.0612 71.0635C79.079 70.8875 79.1324 70.7169 79.2183 70.5622C79.3042 70.4075 79.4208 70.2719 79.5608 70.1637C79.7009 70.0555 79.8616 69.9769 80.033 69.9328L118.476 60.043C120.029 60.8295 119.62 62.4379 118.519 62.7213L118.518 62.7208Z" fill="#F2F2F2"/>
<path d="M73.561 78.3077L62.0356 81.2717C61.8492 81.3198 61.6551 81.3306 61.4646 81.3036C61.274 81.2767 61.0906 81.2124 60.9248 81.1146C60.7591 81.0168 60.6143 80.8873 60.4986 80.7335C60.383 80.5797 60.2988 80.4047 60.2508 80.2184L56.7495 66.6285C56.7014 66.4422 56.6906 66.2483 56.7176 66.0578C56.7446 65.8673 56.8088 65.6841 56.9067 65.5184C57.0046 65.3528 57.1342 65.208 57.288 65.0924C57.4419 64.9769 57.6171 64.8927 57.8035 64.8448L69.329 61.8798C69.7054 61.7835 70.1046 61.8403 70.4392 62.0378C70.7738 62.2353 71.0163 62.5573 71.1137 62.9332L74.6151 76.5264C74.6631 76.7127 74.6739 76.9066 74.6469 77.0971C74.62 77.2875 74.5557 77.4708 74.4578 77.6364C74.36 77.8021 74.2304 77.9468 74.0765 78.0624C73.9226 78.178 73.7475 78.2621 73.561 78.31V78.3077Z" fill="#409280"/>
<path d="M121.902 76.3062L64.2655 91.1337C63.9354 91.2258 63.5826 91.1893 63.2785 91.0314C62.9743 90.8736 62.7414 90.6063 62.6269 90.2835C62.5736 90.1147 62.5552 89.9369 62.573 89.7609C62.5907 89.5849 62.6442 89.4143 62.7301 89.2596C62.816 89.1048 62.9325 88.9693 63.0726 88.861C63.2126 88.7528 63.3733 88.6743 63.5447 88.6302L121.86 73.6279C123.413 74.4144 123.004 76.0228 121.902 76.3062Z" fill="#F2F2F2"/>
<path d="M123.606 82.9278L65.9687 97.7558C65.6385 97.8479 65.2858 97.8113 64.9816 97.6535C64.6774 97.4957 64.4445 97.2283 64.33 96.9055C64.2767 96.7368 64.2583 96.559 64.2761 96.383C64.2938 96.2069 64.3473 96.0363 64.4332 95.8816C64.5191 95.7269 64.6356 95.5913 64.7757 95.4831C64.9158 95.3749 65.0764 95.2963 65.2479 95.2523L123.563 80.25C125.116 81.0365 124.707 82.6449 123.606 82.9283L123.606 82.9278Z" fill="#F2F2F2"/>
<path d="M125.313 89.5465L67.6757 104.374C67.3456 104.466 66.9928 104.43 66.6886 104.272C66.3845 104.114 66.1516 103.847 66.037 103.524C65.9837 103.355 65.9654 103.177 65.9831 103.001C66.0009 102.825 66.0543 102.655 66.1402 102.5C66.2261 102.345 66.3426 102.209 66.4827 102.101C66.6228 101.993 66.7834 101.915 66.9549 101.87L125.27 86.8682C126.823 87.6546 126.414 89.263 125.313 89.5465Z" fill="#F2F2F2"/>
<path d="M127.016 96.1685L69.3788 110.996C69.0487 111.088 68.6959 111.052 68.3918 110.894C68.0876 110.736 67.8547 110.469 67.7401 110.146C67.6868 109.977 67.6685 109.799 67.6862 109.623C67.704 109.447 67.7574 109.277 67.8433 109.122C67.9292 108.967 68.0458 108.832 68.1858 108.723C68.3259 108.615 68.4866 108.537 68.658 108.493L126.973 93.4902C128.526 94.2767 128.117 95.8851 127.016 96.1685Z" fill="#F2F2F2"/>
<path d="M128.723 102.787L71.0858 117.614C70.7557 117.706 70.4029 117.67 70.0988 117.512C69.7946 117.354 69.5617 117.087 69.4472 116.764C69.3939 116.595 69.3755 116.417 69.3933 116.241C69.411 116.065 69.4645 115.895 69.5504 115.74C69.6363 115.585 69.7528 115.45 69.8929 115.342C70.0329 115.233 70.1936 115.155 70.365 115.111L128.68 100.108C130.233 100.895 129.824 102.503 128.723 102.787Z" fill="#F2F2F2"/>
<path d="M67.8523 163.696C67.6428 163.75 67.4214 163.735 67.2213 163.653L67.209 163.647L64.5882 162.537C64.4668 162.485 64.3567 162.41 64.2643 162.316C64.1718 162.222 64.0988 162.111 64.0495 161.988C64.0001 161.866 63.9754 161.735 63.9766 161.603C63.9778 161.471 64.0051 161.341 64.0567 161.22C64.1083 161.098 64.1834 160.988 64.2776 160.896C64.3718 160.804 64.4832 160.731 64.6056 160.681C64.728 160.632 64.8589 160.607 64.9909 160.608C65.1228 160.61 65.2532 160.637 65.3747 160.688L67.0729 161.41L69.2981 156.178C69.4024 155.933 69.5997 155.74 69.8467 155.64C70.0938 155.541 70.3703 155.543 70.6154 155.647L70.6022 155.681L70.6159 155.647C70.8609 155.751 71.0545 155.949 71.1541 156.196C71.2538 156.442 71.2512 156.719 71.1471 156.964L68.5291 163.115C68.4684 163.257 68.3758 163.383 68.2585 163.483C68.1412 163.584 68.0024 163.656 67.8528 163.694L67.8523 163.696Z" fill="white"/>
<path d="M303.076 212.885L177.637 188.52C173.384 187.689 169.635 185.206 167.212 181.615C164.788 178.024 163.89 173.619 164.712 169.366L193.353 22.1279C194.185 17.8772 196.67 14.1298 200.263 11.7078C203.855 9.28571 208.263 8.38682 212.517 9.2083L329.218 31.876L350.16 56.4327L322.24 199.964C321.409 204.215 318.924 207.963 315.331 210.385C311.738 212.808 307.331 213.707 303.076 212.885Z" fill="#E6E6E6"/>
<path d="M211.621 13.8257C208.591 13.2408 205.453 13.8809 202.894 15.6057C200.336 17.3305 198.566 19.999 197.974 23.0259L169.333 170.264C168.747 173.293 169.388 176.429 171.113 178.986C172.839 181.543 175.509 183.311 178.537 183.903L303.976 208.268C307.006 208.853 310.144 208.213 312.703 206.488C315.261 204.763 317.03 202.095 317.623 199.068L345.11 57.7608L326.706 36.1797L211.621 13.8257Z" fill="white"/>
<path d="M304.335 76.2662L247.223 65.172C246.514 65.0343 245.889 64.6209 245.486 64.0227C245.082 63.4245 244.933 62.6906 245.07 61.9822C245.208 61.2739 245.622 60.6493 246.22 60.2458C246.819 59.8423 247.553 59.6929 248.262 59.8306L305.375 70.9251C306.084 71.0627 306.709 71.4761 307.113 72.0743C307.516 72.6725 307.666 73.4065 307.528 74.1148C307.39 74.8231 306.976 75.4478 306.378 75.8513C305.779 76.2548 305.045 76.4041 304.336 76.2665L304.335 76.2662Z" fill="#409280"/>
<path d="M313.603 87.4201L245.469 74.1847C244.76 74.0471 244.135 73.6337 243.732 73.0355C243.328 72.4373 243.179 71.7033 243.316 70.9949C243.454 70.2866 243.868 69.662 244.466 69.2585C245.065 68.855 245.799 68.7056 246.508 68.8433L314.642 82.0786C315.351 82.2163 315.976 82.6297 316.379 83.2279C316.783 83.8261 316.932 84.5601 316.795 85.2684C316.657 85.9767 316.243 86.6013 315.645 87.0048C315.046 87.4084 314.312 87.5577 313.603 87.4201Z" fill="#409280"/>
<path d="M297.517 111.312L240.406 100.218C239.698 100.081 238.963 100.23 238.365 100.633C237.766 101.037 237.353 101.661 237.215 102.37C237.077 103.078 237.227 103.812 237.63 104.41C238.034 105.008 238.659 105.422 239.367 105.559L296.478 116.653C297.182 116.78 297.908 116.625 298.499 116.221C299.09 115.817 299.498 115.197 299.634 114.495C299.771 113.793 299.625 113.065 299.229 112.469C298.833 111.874 298.218 111.458 297.517 111.312Z" fill="#CCCCCC"/>
<path d="M306.786 122.467L238.652 109.232C238.3 109.159 237.936 109.156 237.582 109.225C237.228 109.293 236.891 109.431 236.591 109.63C236.29 109.83 236.033 110.087 235.833 110.387C235.633 110.687 235.495 111.023 235.426 111.377C235.357 111.73 235.359 112.094 235.432 112.447C235.505 112.8 235.648 113.135 235.851 113.432C236.055 113.729 236.315 113.983 236.618 114.179C236.92 114.375 237.259 114.509 237.614 114.573L305.746 127.808C306.099 127.882 306.463 127.884 306.817 127.816C307.171 127.748 307.508 127.61 307.808 127.41C308.108 127.211 308.366 126.953 308.566 126.654C308.766 126.354 308.904 126.017 308.973 125.664C309.042 125.31 309.04 124.946 308.967 124.593C308.893 124.24 308.751 123.906 308.548 123.608C308.344 123.311 308.083 123.057 307.781 122.861C307.478 122.665 307.14 122.531 306.786 122.467Z" fill="#CCCCCC"/>
<path d="M288.624 157.045L231.512 145.95C230.803 145.813 230.178 145.399 229.775 144.801C229.371 144.203 229.222 143.469 229.359 142.761C229.497 142.052 229.911 141.428 230.509 141.024C231.108 140.621 231.842 140.471 232.551 140.609L289.664 151.703C290.373 151.841 290.998 152.254 291.402 152.853C291.805 153.451 291.955 154.185 291.817 154.893C291.679 155.601 291.266 156.226 290.667 156.63C290.069 157.033 289.334 157.182 288.626 157.045L288.624 157.045Z" fill="#CCCCCC"/>
<path d="M297.892 168.197L229.758 154.962C229.049 154.824 228.424 154.411 228.021 153.813C227.617 153.215 227.468 152.481 227.606 151.772C227.743 151.064 228.157 150.439 228.755 150.036C229.354 149.632 230.088 149.483 230.797 149.621L298.931 162.856C299.64 162.994 300.265 163.407 300.668 164.005C301.072 164.603 301.221 165.337 301.084 166.046C300.946 166.754 300.532 167.379 299.934 167.782C299.335 168.186 298.601 168.335 297.892 168.197Z" fill="#CCCCCC"/>
<path d="M221.244 71.8258C226.46 72.8388 231.51 69.4343 232.524 64.2215C233.538 59.0087 230.132 53.9617 224.916 52.9486C219.701 51.9355 214.651 55.3401 213.637 60.5529C212.623 65.7656 216.029 70.8127 221.244 71.8258Z" fill="#409280"/>
<path d="M221.444 65.8061C221.231 65.7652 221.038 65.6564 220.892 65.496L220.883 65.486L218.994 63.3578C218.821 63.1578 218.735 62.8979 218.752 62.6344C218.77 62.3709 218.891 62.125 219.089 61.95C219.287 61.7749 219.546 61.6848 219.809 61.6991C220.073 61.7134 220.321 61.8309 220.499 62.0264L221.722 63.4075L225.98 59.6379C226.079 59.5505 226.194 59.4834 226.319 59.4404C226.443 59.3974 226.575 59.3794 226.707 59.3874C226.839 59.3954 226.968 59.4293 227.086 59.4871C227.205 59.5449 227.311 59.6254 227.398 59.7242L227.372 59.7484L227.399 59.7234C227.576 59.9229 227.666 60.1842 227.649 60.4499C227.633 60.7157 227.512 60.9641 227.313 61.1407L222.303 65.5727C222.187 65.6748 222.05 65.7488 221.901 65.789C221.752 65.8292 221.595 65.8346 221.444 65.8047L221.444 65.8061Z" fill="white"/>
<path d="M225.639 104.798C225.398 106.038 224.916 107.218 224.219 108.271C223.522 109.324 222.624 110.23 221.576 110.937C220.529 111.643 219.353 112.137 218.115 112.389C216.877 112.641 215.601 112.646 214.361 112.406C214.279 112.392 214.199 112.373 214.119 112.349C212.272 111.941 210.586 110.997 209.272 109.636C207.959 108.274 207.076 106.556 206.735 104.696C206.394 102.836 206.609 100.917 207.354 99.1781C208.098 97.4396 209.339 95.9591 210.922 94.9219C212.504 93.8848 214.357 93.337 216.249 93.3472C218.141 93.3574 219.988 93.925 221.559 94.9791C223.13 96.0333 224.355 97.527 225.081 99.2735C225.806 101.02 226.001 102.942 225.639 104.798Z" fill="#409280"/>
<path d="M205.533 152.603C210.749 153.616 215.799 150.212 216.813 144.999C217.827 139.786 214.421 134.739 209.205 133.726C203.99 132.713 198.94 136.117 197.926 141.33C196.912 146.543 200.318 151.59 205.533 152.603Z" fill="#409280"/>
<path d="M349.557 56.9792L330.144 53.2083C328.726 52.933 327.477 52.1063 326.669 50.91C325.862 49.7138 325.563 48.2459 325.839 46.8294L328.627 32.4987C328.639 32.436 328.668 32.378 328.712 32.3313C328.756 32.2847 328.812 32.2513 328.874 32.235C328.935 32.2186 329.001 32.2201 329.062 32.239C329.123 32.258 329.177 32.2938 329.219 32.3423L349.881 56.4227C349.927 56.4763 349.955 56.5428 349.961 56.6131C349.968 56.6834 349.952 56.7539 349.916 56.8149C349.881 56.8759 349.827 56.9244 349.763 56.9535C349.699 56.9827 349.627 56.9912 349.558 56.9778L349.557 56.9792Z" fill="#CCCCCC"/>
<path d="M234.481 200.261C233.883 201.24 232.92 201.942 231.805 202.212C230.689 202.483 229.511 202.299 228.531 201.701L178.028 170.915C177.048 170.317 176.345 169.355 176.075 168.24C175.805 167.125 175.989 165.948 176.586 164.969C177.184 163.989 178.147 163.287 179.263 163.017C180.378 162.747 181.556 162.931 182.536 163.528L233.039 194.315C234.019 194.913 234.721 195.875 234.992 196.99C235.262 198.105 235.078 199.281 234.481 200.261Z" fill="#3F3D56"/>
<path d="M183.977 169.476C180.411 175.32 175.191 179.975 168.977 182.854C162.763 185.732 155.835 186.705 149.068 185.648C142.301 184.592 136 181.553 130.961 176.918C125.922 172.282 122.372 166.257 120.759 159.605C119.146 152.953 119.543 145.972 121.9 139.545C124.257 133.119 128.468 127.535 134 123.5C139.533 119.465 146.138 117.16 152.981 116.877C159.824 116.594 166.597 118.345 172.444 121.909C176.327 124.276 179.705 127.383 182.386 131.054C185.066 134.726 186.997 138.889 188.068 143.306C189.139 147.723 189.329 152.307 188.627 156.798C187.925 161.288 186.345 165.596 183.977 169.476ZM132.242 137.937C129.567 142.319 128.253 147.396 128.466 152.525C128.678 157.655 130.408 162.606 133.436 166.752C136.464 170.899 140.654 174.056 145.477 175.822C150.3 177.589 155.539 177.887 160.531 176.678C165.523 175.469 170.044 172.808 173.523 169.031C177.002 165.253 179.282 160.53 180.075 155.458C180.868 150.386 180.138 145.193 177.978 140.535C175.817 135.878 172.324 131.965 167.938 129.292C162.058 125.708 154.993 124.605 148.299 126.226C141.604 127.847 135.829 132.059 132.242 137.937Z" fill="#3F3D56"/>
</g>
<defs>
<clipPath id="clip0_271_96">
<rect width="354" height="216" fill="white"/>
</clipPath>
</defs>
</svg>
