<svg width="90" height="89" viewBox="0 0 90 89" fill="none" xmlns="http://www.w3.org/2000/svg">
<path d="M74.5505 78.4292C66.82 85.0972 56.9455 88.7572 46.7385 88.7412H43.4573C32.1953 87.9326 21.7273 82.6435 14.3953 74.0532H12.9891C11.618 74.104 10.2938 73.5298 9.39529 72.4907C8.57107 71.5454 8.17649 70.2993 8.30149 69.0532C8.36008 67.7954 8.92258 66.6118 9.86399 65.772C10.8484 65.0181 12.0632 64.6314 13.3015 64.6782C14.5476 64.7602 15.6882 65.3891 16.4265 66.397C17.7937 67.9087 17.9851 70.1431 16.8952 71.8658C23.6335 79.7525 33.2622 84.5958 43.6142 85.3038C54.1182 86.21 64.5442 82.8272 72.5202 75.9288C79.489 69.9249 84.1532 61.6868 85.7232 52.6238C87.2896 43.5613 85.6607 34.2368 81.1138 26.2408C80.7584 25.5025 81.0318 24.6197 81.7388 24.2096C82.4849 23.8033 83.4107 24.0026 83.9263 24.6783C88.8286 33.3385 90.5747 43.4283 88.8638 53.2333C87.1568 63.0341 82.0943 71.9403 74.5518 78.4283L74.5505 78.4292ZM7.98849 62.0232C3.59009 54.0193 2.07439 44.7462 3.69549 35.7572C5.31659 26.7689 9.97669 18.6092 16.8945 12.6482C24.75 5.9763 34.8825 2.6092 45.1645 3.2498C55.4495 3.89043 65.0865 8.492 72.0515 16.0858C71.0867 17.7811 71.2742 19.8983 72.5202 21.3983C73.4148 22.4608 74.7233 23.0858 76.114 23.1171C77.239 23.0663 78.3249 22.6835 79.239 22.0233C81.1804 20.2772 81.3874 17.3045 79.7078 15.3045C78.8914 14.3318 77.6961 13.7615 76.4266 13.742C75.7352 13.6131 75.0164 13.7225 74.3954 14.0545C67.0907 5.8904 56.8874 0.902497 45.9574 0.148497C34.6454 -0.804623 23.4304 2.8594 14.8634 10.3045C7.41809 16.7186 2.40639 25.5035 0.67239 35.1755C-1.06201 44.8513 0.582546 54.8235 5.33259 63.4295C5.5904 63.9568 6.1529 64.2693 6.73879 64.2107H7.52004C7.87551 63.9881 8.12551 63.6287 8.21535 63.2147C8.30519 62.8045 8.22286 62.3748 7.98849 62.0232ZM51.1135 38.1172L50.801 44.0547C50.6721 44.668 50.2697 45.1875 49.7072 45.4609L45.176 46.8671C44.8869 47.0351 44.5276 47.0351 44.2385 46.8671L39.7073 45.3046C39.1448 45.0585 38.7815 44.5116 38.7698 43.8984L38.301 38.1172C37.1838 39.6055 36.5822 41.4141 36.5822 43.2734C36.6252 46.2851 38.301 49.039 40.9572 50.4609C41.4338 50.7695 41.7268 51.2968 41.7385 51.8671V60.7733H47.8323V51.8671C47.844 51.2968 48.137 50.7694 48.6135 50.4609C51.2697 49.039 52.9455 46.2851 52.9885 43.2734C53.0081 41.3828 52.3401 39.5546 51.1135 38.1172ZM45.176 27.4922C39.9885 27.5469 35.114 29.9883 31.957 34.1055C28.8008 38.2266 27.7187 43.5703 29.0195 48.5935C30.3164 53.6169 33.8554 57.7615 38.6133 59.8355V52.8043C35.375 50.7184 33.4297 47.1246 33.4571 43.2731C33.4141 39.2965 35.5001 35.6012 38.9259 33.5856C39.3985 33.2692 40.0157 33.2692 40.4884 33.5856C40.9923 33.7887 41.3087 34.2926 41.2696 34.8356L41.7384 42.6481L44.7072 43.7419L47.676 42.8044L48.301 34.8356C48.2619 34.2926 48.5783 33.7887 49.0822 33.5856C49.5549 33.2692 50.172 33.2692 50.6447 33.5856C54.0705 35.6012 56.1564 39.2965 56.1135 43.2731C56.1409 47.1247 54.1955 50.7184 50.9573 52.8043V60.1481C55.8987 58.277 59.68 54.1989 61.1723 49.1281C62.6645 44.0578 61.6958 38.5811 58.5551 34.3351C55.4106 30.0851 50.4612 27.5508 45.176 27.4922ZM68.457 56.0862C68.1367 56.7932 68.3281 57.6214 68.9257 58.1174C70.7929 60.1486 70.7929 63.2736 68.9257 65.3049L66.1132 68.1174C64.082 69.9846 60.957 69.9846 58.9257 68.1174C58.4297 67.5197 57.6015 67.3283 56.8945 67.6486C55.7539 68.2502 54.5468 68.7228 53.3007 69.0548C52.6289 69.4416 52.2148 70.1564 52.2069 70.9298C52.2069 72.2853 51.6601 73.5782 50.6874 74.5236C49.7148 75.4651 48.4022 75.9728 47.0507 75.9298H43.1445C40.3828 75.9298 38.1445 73.6915 38.1445 70.9298C38.0742 70.133 37.6055 69.4259 36.8945 69.0548C35.6875 68.7502 34.5312 68.2775 33.457 67.6486C32.7031 67.3049 31.8164 67.4963 31.2695 68.1174C29.2383 69.9846 26.1133 69.9846 24.082 68.1174L21.2695 65.3049C19.4023 63.2737 19.4023 60.1487 21.2695 58.1174C21.8672 57.6213 22.0586 56.7932 21.7383 56.0862C21.1367 54.9456 20.6641 53.7385 20.3321 52.4924C19.9454 51.8205 19.2305 51.4065 18.4571 51.3986C17.1016 51.3986 15.8087 50.8517 14.8633 49.8791C13.9219 48.9064 13.4141 47.5939 13.4571 46.2424V42.3362C13.4571 39.5745 15.6954 37.3362 18.4571 37.3362C19.254 37.2659 19.961 36.7971 20.3321 36.0862C20.6368 34.8792 21.1094 33.7229 21.7383 32.6487C22.082 31.8948 21.8906 31.0081 21.2695 30.4612C19.4023 28.43 19.4023 25.305 21.2695 23.2737L24.082 20.4612C26.1132 18.594 29.2382 18.594 31.2695 20.4612C31.8164 21.0823 32.7031 21.2737 33.457 20.9299C34.5312 20.301 35.6875 19.8283 36.8945 19.5237C37.6055 19.1527 38.0742 18.4456 38.1445 17.6487C38.1445 16.3245 38.6719 15.051 39.6093 14.1135C40.5468 13.176 41.8202 12.6487 43.1445 12.6487H47.0507C48.4023 12.6058 49.7148 13.1136 50.6874 14.0549C51.6601 15.0003 52.2069 16.2932 52.2069 17.6487C52.2148 18.4222 52.6288 19.137 53.3007 19.5237C54.5468 19.8558 55.7538 20.3284 56.8945 20.9299C57.6016 21.2503 58.4297 21.0589 58.9257 20.4612C60.9569 18.594 64.0819 18.594 66.1132 20.4612L68.9257 23.2737C70.7929 25.3049 70.7929 28.4299 68.9257 30.4612C68.3047 31.0081 68.1132 31.8948 68.457 32.6487C69.0703 33.7503 69.5937 34.8987 70.0195 36.0862C70.2773 36.8206 70.9609 37.3167 71.7383 37.3362C73.0625 37.3362 74.336 37.8635 75.2735 38.801C76.211 39.7385 76.7383 41.0119 76.7383 42.3362V46.2424C76.7813 47.594 76.2735 48.9065 75.3321 49.8791C74.3868 50.8518 73.0938 51.3986 71.7383 51.3986C70.9883 51.3478 70.293 51.7892 70.0195 52.4924C69.5664 53.719 69.0429 54.9182 68.457 56.0862ZM65.0195 44.3672C65.0351 39.3711 63.1797 34.5469 59.8164 30.8472C56.4531 27.1519 51.8281 24.8472 46.8514 24.3863C41.8748 23.9293 36.9061 25.3511 32.9254 28.3746C28.9449 31.398 26.2379 35.8004 25.3434 40.7186C24.4489 45.6366 25.4254 50.7108 28.0817 54.9416C30.7419 59.176 34.8864 62.258 39.7067 63.5861C41.4958 64.0353 43.3317 64.2463 45.1755 64.2111C46.6989 64.2189 48.2185 64.0588 49.7067 63.7424H49.8629C54.1988 62.6877 58.0543 60.2032 60.8039 56.6876C63.5539 53.172 65.0391 48.8317 65.0195 44.3672Z" fill="#FAB905"/>
</svg>
