<svg width="44" height="44" viewBox="0 0 44 44" fill="none" xmlns="http://www.w3.org/2000/svg">
<path d="M36.6491 38.887C32.8488 42.1932 27.9944 44.0079 22.9767 44H21.3636C15.8272 43.5991 10.6812 40.9766 7.07674 36.7173H6.38545C5.71141 36.7425 5.06044 36.4578 4.61873 35.9426C4.21354 35.4739 4.01957 34.856 4.08102 34.2382C4.10982 33.6146 4.38635 33.0277 4.84915 32.6113C5.33307 32.2375 5.93027 32.0458 6.53902 32.069C7.15161 32.1096 7.71233 32.4215 8.07527 32.9212C8.74739 33.6707 8.84148 34.7786 8.30571 35.6328C11.6183 39.5432 16.3517 41.9446 21.4408 42.2956C26.6046 42.745 31.73 41.0677 35.651 37.6473C39.0769 34.6704 41.3698 30.5858 42.1416 26.0921C42.9117 21.5987 42.1109 16.9754 39.8756 13.0108C39.7009 12.6447 39.8353 12.207 40.1829 12.0037C40.5497 11.8023 41.0048 11.901 41.2583 12.2361C43.6682 16.53 44.5266 21.5328 43.6855 26.3943C42.8464 31.2538 40.3576 35.6697 36.6497 38.8866L36.6491 38.887ZM3.92715 30.7526C1.76489 26.784 1.01977 22.1862 1.81671 17.7293C2.61364 13.2726 4.90455 9.22688 8.30534 6.27127C12.1671 2.96319 17.1483 1.2937 22.2029 1.61133C27.259 1.92897 31.9966 4.21053 35.4206 7.97572C34.9463 8.81629 35.0384 9.86604 35.651 10.6098C36.0908 11.1366 36.734 11.4465 37.4177 11.462C37.9708 11.4368 38.5046 11.247 38.954 10.9197C39.9084 10.0539 40.0101 8.57998 39.1844 7.58833C38.7831 7.10606 38.1955 6.82327 37.5714 6.81361C37.2315 6.74969 36.8781 6.80392 36.5728 6.96855C32.9818 2.9206 27.9659 0.447479 22.5927 0.0736285C17.0317 -0.398951 11.5184 1.41776 7.30685 5.10921C3.64674 8.28947 1.18298 12.6452 0.330548 17.4408C-0.522085 22.2383 0.28638 27.1828 2.62151 31.4498C2.74824 31.7113 3.02477 31.8662 3.31279 31.8372H3.69686C3.87161 31.7268 3.99451 31.5486 4.03867 31.3433C4.08284 31.1399 4.04237 30.9269 3.92715 30.7526ZM25.1274 18.8994L24.9738 21.8434C24.9104 22.1474 24.7126 22.405 24.4361 22.5406L22.2086 23.2378C22.0664 23.3211 21.8898 23.3211 21.7477 23.2378L19.5201 22.4631C19.2436 22.3411 19.065 22.0699 19.0593 21.7659L18.8288 18.8994C18.2796 19.6373 17.9839 20.5341 17.9839 21.456C18.005 22.9492 18.8288 24.3147 20.1346 25.0197C20.3689 25.1727 20.5129 25.4342 20.5187 25.7169V30.1328H23.5144V25.7169C23.5202 25.4342 23.6642 25.1727 23.8985 25.0197C25.2042 24.3147 26.0281 22.9492 26.0492 21.456C26.0588 20.5186 25.7304 19.6121 25.1274 18.8994ZM22.2086 13.6313C19.6584 13.6584 17.2621 14.8689 15.7101 16.9103C14.1585 18.9536 13.6265 21.6032 14.266 24.0938C14.9036 26.5845 16.6433 28.6395 18.9823 29.6678V26.1816C17.3904 25.1474 16.4341 23.3655 16.4475 21.4558C16.4264 19.4841 17.4519 17.6519 19.136 16.6525C19.3684 16.4956 19.6717 16.4956 19.9041 16.6525C20.1518 16.7532 20.3074 17.0031 20.2882 17.2723L20.5186 21.1459L21.9781 21.6883L23.4376 21.2234L23.7448 17.2723C23.7256 17.0031 23.8811 16.7532 24.1289 16.6525C24.3612 16.4956 24.6646 16.4956 24.897 16.6525C26.5811 17.6519 27.6065 19.4841 27.5855 21.4558C27.5989 23.3655 26.6426 25.1474 25.0507 26.1816V29.8228C27.4799 28.8951 29.3388 26.8731 30.0724 24.3589C30.8059 21.8449 30.3297 19.1294 28.7858 17.0241C27.2399 14.9169 24.8068 13.6603 22.2086 13.6313ZM33.6535 27.8089C33.496 28.1594 33.5901 28.57 33.8839 28.816C34.8019 29.8231 34.8019 31.3725 33.8839 32.3797L32.5013 33.7742C31.5028 34.7 29.9665 34.7 28.9679 33.7742C28.7241 33.4779 28.317 33.383 27.9694 33.5418C27.4087 33.8401 26.8153 34.0744 26.2027 34.239C25.8724 34.4308 25.6689 34.7852 25.665 35.1687C25.665 35.8408 25.3961 36.4818 24.918 36.9506C24.4398 37.4173 23.7946 37.6691 23.1302 37.6478H21.2099C19.8522 37.6478 18.7519 36.538 18.7519 35.1687C18.7173 34.7736 18.4869 34.423 18.1374 34.239C17.544 34.0879 16.9756 33.8536 16.4475 33.5418C16.0769 33.3714 15.641 33.4663 15.3721 33.7742C14.3736 34.7 12.8373 34.7 11.8387 33.7742L10.4561 32.3797C9.5382 31.3726 9.5382 29.8231 10.4561 28.816C10.7499 28.57 10.844 28.1594 10.6866 27.8089C10.3908 27.2433 10.1585 26.6448 9.99527 26.027C9.80516 25.6938 9.45372 25.4886 9.07352 25.4846C8.40715 25.4846 7.77156 25.2135 7.3068 24.7312C6.84401 24.249 6.59438 23.5982 6.61552 22.9281V20.9913C6.61552 19.622 7.71587 18.5122 9.07352 18.5122C9.46527 18.4773 9.81284 18.2449 9.99527 17.8924C10.1451 17.2939 10.3774 16.7206 10.6866 16.188C10.8555 15.8142 10.7614 15.3745 10.4561 15.1034C9.5382 14.0963 9.5382 12.5468 10.4561 11.5396L11.8387 10.1451C12.8373 9.21934 14.3735 9.21934 15.3721 10.1451C15.641 10.4531 16.0769 10.548 16.4475 10.3776C16.9756 10.0657 17.544 9.83136 18.1374 9.68033C18.4869 9.49634 18.7173 9.14579 18.7519 8.75066C18.7519 8.09409 19.0111 7.46266 19.472 6.99783C19.9328 6.53299 20.5589 6.27155 21.2099 6.27155H23.1302C23.7946 6.25024 24.4399 6.50202 24.918 6.96877C25.3961 7.43748 25.665 8.07858 25.665 8.75066C25.6688 9.13415 25.8724 9.4886 26.2027 9.68033C26.8153 9.84496 27.4086 10.0793 27.9694 10.3776C28.317 10.5364 28.7241 10.4415 28.9679 10.1451C29.9665 9.21934 31.5027 9.21934 32.5013 10.1451L33.8839 11.5396C34.8019 12.5468 34.8019 14.0962 33.8839 15.1034C33.5786 15.3745 33.4845 15.8142 33.6535 16.188C33.955 16.7342 34.2123 17.3036 34.4216 17.8924C34.5484 18.2565 34.8844 18.5025 35.2666 18.5122C35.9176 18.5122 36.5436 18.7736 37.0045 19.2384C37.4654 19.7033 37.7246 20.3347 37.7246 20.9913V22.9281C37.7457 23.5982 37.4961 24.249 37.0333 24.7312C36.5686 25.2135 35.933 25.4846 35.2666 25.4846C34.8979 25.4595 34.5561 25.6783 34.4216 26.027C34.1989 26.6351 33.9416 27.2297 33.6535 27.8089ZM31.9636 21.9983C31.9713 19.5211 31.0592 17.1292 29.4058 15.2948C27.7524 13.4625 25.4787 12.3198 23.0322 12.0913C20.5857 11.8647 18.1431 12.5697 16.1861 14.0688C14.2293 15.5679 12.8986 17.7507 12.4588 20.1892C12.0191 22.6277 12.4992 25.1436 13.805 27.2413C15.1127 29.3409 17.1502 30.869 19.5198 31.5275C20.3994 31.7502 21.3019 31.8548 22.2083 31.8374C22.9572 31.8412 23.7042 31.7618 24.4358 31.605H24.5127C26.6442 31.082 28.5396 29.8502 29.8913 28.1071C31.2432 26.364 31.9733 24.2119 31.9636 21.9983Z" fill="#4B4C4C"/>
</svg>
