<svg width="76" height="96" viewBox="0 0 76 96" fill="none" xmlns="http://www.w3.org/2000/svg">
<path d="M65.91 62.84C62.5662 61.2541 58.4022 59.9728 53.765 59.0822C55.1752 58.2853 56.2259 56.9845 56.6127 55.3986C57.5619 51.5119 58.1166 48.4611 58.4643 45.1916C59.2651 37.59 59.1752 27.2896 50.3979 21.7386C51.6713 19.5902 52.4096 17.0863 52.4096 14.4105C52.4096 6.4652 45.9448 0.00050354 38.0036 0.00050354C30.0583 0.00050354 23.5936 6.4653 23.5936 14.4105C23.5936 17.0863 24.328 19.5902 25.6053 21.7386C16.8319 27.2894 16.742 37.5906 17.5428 45.1876C17.8826 48.4493 18.4178 51.4064 19.3866 55.3946C19.7733 56.9805 20.8241 58.2813 22.2343 59.0782C17.5976 59.9688 13.4335 61.2501 10.0933 62.836C2.3433 66.5196 0.714401 70.8672 0.714401 73.867C0.714401 78.7068 4.9488 83.0115 12.6404 85.988C17.6795 87.9411 23.9174 89.2458 30.6754 89.7927L29.4059 90.9177C28.2067 91.9802 28.0934 93.8161 29.1598 95.0154C29.734 95.6638 30.5309 95.992 31.3356 95.992C32.0192 95.992 32.7067 95.7537 33.2614 95.2615L39.9333 89.3513C40.5544 88.8005 40.9099 88.0075 40.9099 87.1794C40.9099 86.3474 40.5544 85.5583 39.9333 85.0075L33.2614 79.0934C32.0622 78.0309 30.2262 78.1403 29.1637 79.3395C28.1012 80.5387 28.2106 82.3747 29.4098 83.4372L29.9293 83.8981C24.2066 83.3473 18.9843 82.2145 14.7453 80.5739C9.67893 78.6091 6.52653 76.0427 6.52653 73.8669C6.52653 72.0466 8.79213 69.8825 12.589 68.0778C16.5968 66.1755 22.0421 64.7614 28.144 64.027C29.0503 67.8747 30.2104 71.6403 31.269 74.757C31.6675 75.9328 32.7729 76.7258 34.019 76.7258H41.9956C43.2378 76.7258 44.3433 75.9368 44.7417 74.761C45.8042 71.6477 46.9644 67.8821 47.8706 64.031C53.9722 64.7654 59.4176 66.1794 63.4256 68.0818C67.2225 69.8865 69.492 72.0506 69.492 73.8709C69.492 77.3045 61.7264 81.8787 48.73 83.5936C47.1402 83.8046 46.023 85.2616 46.2339 86.8514C46.4253 88.3123 47.6753 89.3748 49.1089 89.3748C49.2378 89.3748 49.3628 89.367 49.4917 89.3514C56.5659 88.4178 62.6867 86.6561 67.1947 84.2576C73.8939 80.6951 75.3002 76.6443 75.3002 73.8706C75.3002 70.8706 73.6713 66.519 65.9174 62.8396L65.91 62.84ZM37.996 5.805C42.7382 5.805 46.5976 9.6644 46.5976 14.4066C46.5976 19.1488 42.7382 23.0082 37.996 23.0082C33.2538 23.0082 29.3944 19.1488 29.3944 14.4066C29.3944 9.6644 33.2538 5.805 37.996 5.805ZM39.8905 70.922H36.1014C34.2576 65.2228 32.3436 57.981 32.3436 52.492V41.332C32.3436 39.7304 31.0428 38.4297 29.4413 38.4297C27.8397 38.4297 26.539 39.7305 26.539 41.332V53.977C26.4648 54.0356 26.2929 54.1254 26.0234 54.1254H25.5468C25.2382 54.1254 25.0624 54.0161 25.0117 53.9692C24.1132 50.2739 23.6211 47.5512 23.3125 44.5747C22.2656 34.6645 24.164 29.0237 29.6211 26.1097C31.9844 27.805 34.875 28.8089 38 28.8089C41.125 28.8089 44.0156 27.805 46.3789 26.1097C51.8398 29.0199 53.7383 34.6644 52.6914 44.5707C52.3711 47.5941 51.8789 50.3168 50.9883 53.9613C50.9375 54.0082 50.7578 54.1175 50.4492 54.1175H49.9765C49.707 54.1175 49.5312 54.0238 49.457 53.9652V41.3202C49.457 39.7186 48.1562 38.4179 46.5547 38.4179C44.9531 38.4179 43.6524 39.7187 43.6524 41.3202V52.4802C43.6524 57.988 41.7383 65.2222 39.8946 70.9102L39.8905 70.922Z" fill="#478C83"/>
</svg>
