<svg width="74" height="90" viewBox="0 0 74 90" fill="none" xmlns="http://www.w3.org/2000/svg">
<path d="M0.999682 80.4938C3.21068 88.3898 28.6787 89.9998 35.3807 89.9998C35.8977 89.9998 37.4357 89.9998 37.9557 89.9998C44.6587 89.9998 70.1257 88.3898 72.3377 80.4938C76.5497 63.5968 66.6317 59.5458 57.8827 55.9638C56.5697 55.4278 54.0817 54.4648 54.0817 54.4648C53.0547 54.0698 51.5897 53.1008 50.8227 52.3118L48.5787 50.3328C47.8037 49.5548 46.9687 49.7938 46.7247 50.8648L37.2307 81.7398C36.9197 82.7948 26.5057 50.8628 26.5057 50.8628C26.2567 49.7918 25.4047 49.5408 24.6097 50.2998L22.3427 52.3748C21.5787 53.1638 20.1117 54.1328 19.0857 54.5298C19.0857 54.5298 16.7527 55.4308 15.4527 55.9628C6.70568 59.5458 -3.21232 63.5968 0.999682 80.4938Z" fill="#458D81"/>
<path d="M18.9457 24.162C18.9557 24.308 19.2937 27.722 19.9257 29.309C20.3767 30.407 21.1887 31.283 22.2527 31.789C22.4087 32.767 22.6467 34.064 22.9807 35.278C23.9677 38.878 29.0417 47.013 35.6427 47.233C35.8207 47.24 36.1887 47.243 36.5767 47.243L37.4347 47.239C44.0727 47.173 49.3767 38.869 50.3517 35.278C50.6857 34.061 50.9297 32.764 51.0807 31.789C52.1417 31.282 52.9617 30.406 53.4087 29.309C54.0407 27.721 54.3807 24.308 54.3877 24.163C54.6547 21.46 53.7067 19.907 53.6177 19.818C54.7287 8.86 51.2197 6.698 48.8887 6.31C48.0577 6.171 46.8077 5.86 46.2427 5.238C44.9347 3.795 44.3577 2.19 42.0997 2.319C41.2587 2.367 40.1327 2.104 39.4907 1.566C38.6317 0.842 37.4407 0 36.5547 0C35.6927 0 34.5997 0.81 33.7997 1.524C33.1757 2.084 32.0707 2.367 31.2327 2.319C28.9777 2.19 28.3967 3.795 27.0927 5.238C26.5287 5.86 25.2737 6.172 24.4447 6.31C22.1117 6.698 18.6067 8.863 19.7147 19.825C19.6157 19.919 18.6827 21.485 18.9457 24.162Z" fill="#458D81"/>
</svg>
