<svg width="30" height="30" viewBox="0 0 30 30" fill="none" xmlns="http://www.w3.org/2000/svg">
<path d="M0.55957 7.97935H7.54912C8.25255 7.97935 9.0427 7.51449 9.0427 6.70194V0.623047H29.5009V29.4992H0.55957V7.97935Z" stroke="#448C81"/>
<path d="M8.50761 0.093831L9.54412 0.966642L0.943022 8.5041L0.0641862 7.48162L8.50761 0.093831Z" fill="#448C81"/>
<path d="M19.5617 16.2635V7.95242C19.5617 6.32121 18.1681 5 16.4474 5C14.7267 5 13.3331 6.32121 13.3331 7.95242V8.69053H15.6688C16.097 8.69053 16.4474 9.02267 16.4474 9.42863C16.4474 9.83459 16.097 10.1667 15.6688 10.1667H13.3331V11.6429H15.6688C16.097 11.6429 16.4474 11.9751 16.4474 12.3811C16.4474 12.787 16.097 13.1192 15.6688 13.1192H13.3331V16.2635C11.6202 17.3928 10.7404 19.334 11.0674 21.3269C11.4333 23.556 13.4187 25.3643 15.7934 25.63C16.0036 25.6522 16.2216 25.6669 16.4318 25.6669C17.771 25.6669 19.0712 25.2093 20.0678 24.3605C21.2279 23.3788 21.8975 21.9764 21.8975 20.5002C21.8975 18.8099 21.0099 17.223 19.5617 16.2635ZM16.4474 22.7145C15.1627 22.7145 14.1117 21.7181 14.1117 20.5002C14.1117 19.2823 15.1627 18.2859 16.4474 18.2859C17.7321 18.2859 18.7831 19.2823 18.7831 20.5002C18.7831 21.7181 17.7321 22.7145 16.4474 22.7145Z" fill="#448C81"/>
</svg>
