<svg width="24" height="24" viewBox="0 0 24 24" fill="none" xmlns="http://www.w3.org/2000/svg">
<path d="M11.9991 8.59101C14.3098 8.59101 16.183 10.4075 16.183 12.6482V15.6117C16.183 15.7196 16.1388 15.8231 16.0601 15.8995C15.9814 15.9758 15.8746 16.0187 15.7633 16.0187H8.23484C8.12353 16.0187 8.01677 15.9758 7.93806 15.8995C7.85935 15.8231 7.81513 15.7196 7.81513 15.6117V12.6482C7.81513 10.4075 9.68833 8.59101 11.9991 8.59101ZM11.6318 6.35254H12.3663C12.3942 6.35254 12.4208 6.36326 12.4405 6.38234C12.4602 6.40142 12.4713 6.4273 12.4713 6.45429V7.67527C12.4713 7.70226 12.4602 7.72814 12.4405 7.74722C12.4208 7.7663 12.3942 7.77702 12.3663 7.77702H11.6318C11.604 7.77702 11.5773 7.7663 11.5576 7.74722C11.538 7.72814 11.5269 7.70226 11.5269 7.67527V6.45429C11.5269 6.4273 11.538 6.40142 11.5576 6.38234C11.5773 6.36326 11.604 6.35254 11.6318 6.35254ZM7.60856 7.92532C7.6183 7.91586 7.62987 7.90836 7.64261 7.90324C7.65535 7.89812 7.669 7.89548 7.68279 7.89548C7.69658 7.89548 7.71024 7.89812 7.72297 7.90324C7.73571 7.90836 7.74728 7.91586 7.75703 7.92532L8.64733 8.78866C8.66699 8.80774 8.67804 8.83361 8.67804 8.86058C8.67804 8.88756 8.66699 8.91343 8.64733 8.93251L8.12794 9.43616C8.10827 9.45523 8.08159 9.46594 8.05377 9.46594C8.02596 9.46594 7.99928 9.45523 7.9796 9.43616L7.0893 8.57283C7.06964 8.55375 7.05859 8.52788 7.05859 8.5009C7.05859 8.47393 7.06964 8.44806 7.0893 8.42898L7.60869 7.92532H7.60856ZM16.3909 7.92532L16.9103 8.42898C16.9299 8.44805 16.9409 8.4739 16.9409 8.50084C16.9409 8.52778 16.9299 8.55362 16.9103 8.5727L16.02 9.43629C16.0103 9.44575 15.9987 9.45326 15.9859 9.45838C15.9732 9.4635 15.9596 9.46613 15.9458 9.46613C15.932 9.46613 15.9183 9.4635 15.9056 9.45838C15.8928 9.45326 15.8813 9.44575 15.8715 9.43629L15.3521 8.93263C15.3424 8.92318 15.3346 8.91196 15.3294 8.89961C15.3241 8.88726 15.3214 8.87402 15.3214 8.86065C15.3214 8.84728 15.3241 8.83404 15.3294 8.82168C15.3346 8.80933 15.3424 8.79811 15.3521 8.78866L16.2426 7.92532C16.2623 7.90625 16.2889 7.89554 16.3167 7.89554C16.3446 7.89554 16.3712 7.90625 16.3909 7.92532ZM7.80202 16.8327H16.1961C16.3075 16.8327 16.4142 16.8755 16.4929 16.9519C16.5716 17.0282 16.6159 17.1317 16.6159 17.2397V17.5449C16.6159 17.5719 16.6048 17.5978 16.5851 17.6169C16.5654 17.6359 16.5388 17.6467 16.5109 17.6467H7.48724C7.45941 17.6467 7.43272 17.6359 7.41304 17.6169C7.39336 17.5978 7.38231 17.5719 7.38231 17.5449V17.2397C7.38231 17.1317 7.42653 17.0282 7.50524 16.9519C7.58395 16.8755 7.6907 16.8327 7.80202 16.8327ZM9.74316 12.8009V16.0187H10.5826V12.8009H9.74316Z" fill="#D20606"/>
<circle cx="12" cy="12" r="11.5" stroke="#D20606"/>
</svg>
