<svg width="34" height="34" viewBox="0 0 34 34" fill="none" xmlns="http://www.w3.org/2000/svg">
<circle cx="17" cy="17" r="16.5" fill="white" stroke="#C5C5C5"/>
<path d="M17.4992 12.5766C20.0713 12.5766 22.1564 14.6674 22.1564 17.2466V20.6577C22.1564 20.7819 22.1071 20.9011 22.0195 20.9889C21.9319 21.0768 21.8131 21.1261 21.6892 21.1261H13.3093C13.1854 21.1261 13.0665 21.0768 12.9789 20.9889C12.8913 20.9011 12.8421 20.7819 12.8421 20.6577V17.2466C12.8421 14.6674 14.9272 12.5766 17.4992 12.5766ZM17.0905 10H17.908C17.939 10 17.9687 10.0123 17.9906 10.0343C18.0125 10.0563 18.0248 10.0861 18.0248 10.1171V11.5225C18.0248 11.5536 18.0125 11.5834 17.9906 11.6053C17.9687 11.6273 17.939 11.6396 17.908 11.6396H17.0905C17.0595 11.6396 17.0298 11.6273 17.0079 11.6053C16.986 11.5834 16.9737 11.5536 16.9737 11.5225V10.1171C16.9737 10.0861 16.986 10.0563 17.0079 10.0343C17.0298 10.0123 17.0595 10 17.0905 10ZM12.6122 11.8103C12.623 11.7994 12.6359 11.7908 12.6501 11.7849C12.6642 11.779 12.6794 11.776 12.6948 11.776C12.7101 11.776 12.7253 11.779 12.7395 11.7849C12.7537 11.7908 12.7666 11.7994 12.7774 11.8103L13.7684 12.8041C13.7903 12.826 13.8026 12.8558 13.8026 12.8869C13.8026 12.9179 13.7903 12.9477 13.7684 12.9697L13.1903 13.5494C13.1684 13.5713 13.1387 13.5837 13.1077 13.5837C13.0768 13.5837 13.0471 13.5713 13.0252 13.5494L12.0342 12.5556C12.0123 12.5337 12 12.5039 12 12.4729C12 12.4418 12.0123 12.412 12.0342 12.3901L12.6123 11.8103H12.6122ZM22.3878 11.8103L22.9659 12.3901C22.9877 12.412 23 12.4418 23 12.4728C23 12.5038 22.9877 12.5335 22.9659 12.5555L21.9749 13.5495C21.9641 13.5604 21.9512 13.5691 21.937 13.5749C21.9228 13.5808 21.9076 13.5839 21.8923 13.5839C21.8769 13.5839 21.8617 13.5808 21.8475 13.5749C21.8334 13.5691 21.8205 13.5604 21.8096 13.5495L21.2315 12.9698C21.2207 12.9589 21.212 12.946 21.2062 12.9318C21.2003 12.9176 21.1973 12.9023 21.1973 12.8869C21.1973 12.8715 21.2003 12.8563 21.2062 12.8421C21.212 12.8279 21.2207 12.815 21.2315 12.8041L22.2226 11.8103C22.2445 11.7884 22.2742 11.7761 22.3052 11.7761C22.3362 11.7761 22.3659 11.7884 22.3878 11.8103ZM12.8275 22.0631H22.171C22.2949 22.0631 22.4137 22.1124 22.5013 22.2003C22.5889 22.2881 22.6381 22.4073 22.6381 22.5315V22.8829C22.6381 22.9139 22.6258 22.9437 22.6039 22.9657C22.582 22.9877 22.5523 23 22.5213 23H12.4771C12.4461 23 12.4164 22.9877 12.3945 22.9657C12.3726 22.9437 12.3603 22.9139 12.3603 22.8829V22.5315C12.3603 22.4073 12.4095 22.2881 12.4972 22.2003C12.5848 22.1124 12.7036 22.0631 12.8275 22.0631ZM14.9882 17.4223V21.1261H15.9225V17.4223H14.9882Z" fill="#636162"/>
<line x1="29.1807" y1="6.00553" x2="6.1807" y2="29.0055" stroke="#636162"/>
</svg>
