<svg width="56" height="56" viewBox="0 0 56 56" fill="none" xmlns="http://www.w3.org/2000/svg">
<circle cx="28" cy="28" r="27" fill="#458D81"/>
<path d="M0 28C0 12.536 12.536 0 28 0C43.464 0 56 12.536 56 28C56 43.464 43.464 56 28 56C12.536 56 0 43.464 0 28Z" fill="#458D81"/>
<circle cx="27.5" cy="27.5" r="23.5" stroke="#F3F3F3" stroke-width="2"/>
<path d="M27.9996 33.499C21.9247 33.499 17 28.6856 17 22.7491C17 16.8126 21.9247 12 27.9996 12C34.0744 12 39 16.8126 39 22.7491C39 28.6856 34.0744 33.499 27.9996 33.499Z" fill="white"/>
<path d="M31.4941 17.6321C29.7685 16.4103 27.9045 16.1448 28.8382 14.8857C29.7719 13.6258 31.9278 13.5959 33.6543 14.8177C35.3799 16.0395 36.0233 18.051 35.0896 19.3101C34.1559 20.5692 33.2205 18.8539 31.4941 17.6321Z" fill="#458D81"/>
<path d="M26.0261 32.38C26.9759 38.4525 27.9996 44 27.9996 44C27.9996 44 29.0232 38.4525 29.973 32.38H26.0261Z" fill="white"/>
</svg>
