<svg width="110" height="135" viewBox="0 0 110 135" fill="none" xmlns="http://www.w3.org/2000/svg">
<mask id="path-1-inside-1_24_2" fill="white">
<path d="M79.062 47.07H78.4214V46.2809C78.4214 46.1169 78.3901 45.9567 78.3276 45.8122C78.2339 45.5934 78.0854 45.4137 77.8901 45.2848C77.7925 45.2184 77.687 45.1676 77.5737 45.1325C77.4604 45.0973 77.3393 45.0778 77.2182 45.0778H73.9604V42.1598H73.9565L73.1128 29.4328C73.1128 29.0148 72.7729 28.675 72.355 28.675H37.597C37.179 28.675 36.8392 29.0148 36.8392 29.4328L36.0384 42.1598V45.0778H32.7845C32.6204 45.0778 32.4603 45.113 32.3157 45.1715C32.1009 45.2653 31.9173 45.4137 31.7884 45.609C31.722 45.7067 31.6712 45.8122 31.636 45.9255C31.6009 46.0387 31.5814 46.1598 31.5814 46.2848V47.0739H30.9407C30.4212 47.07 29.9993 47.488 29.9993 48.0075V58.3315C29.9993 58.851 30.4212 59.269 30.9368 59.269H31.5774V60.058C31.5774 60.2221 31.6087 60.3823 31.6712 60.5268C31.7649 60.7455 31.9134 60.9252 32.1087 61.0541C32.2064 61.1205 32.3118 61.1713 32.4251 61.2065C32.5384 61.2416 32.6595 61.2612 32.7845 61.2612H36.0384V62.2534C35.4876 62.5737 35.1165 63.1674 35.1165 63.8511V66.937C34.6985 67.0268 34.3821 67.3979 34.3821 67.8432V83.4482C34.3821 83.8935 34.6946 84.2646 35.1165 84.3545V86.7022C35.1165 87.4834 35.6048 88.1553 36.2962 88.4249V90.5811C36.2962 90.9873 36.6282 91.3193 37.0345 91.3193H47.1205C47.5307 91.3193 47.8588 90.9873 47.8588 90.5811V88.5499H62.1438V90.5811C62.1438 90.9873 62.4719 91.3193 62.8821 91.3193H72.9681C73.3743 91.3193 73.7063 90.9873 73.7063 90.5811V88.4249C74.3938 88.1553 74.886 87.4874 74.886 86.7022V84.3545C75.3079 84.2646 75.6204 83.8935 75.6204 83.4482L75.6165 67.8462C75.6165 67.4009 75.304 67.0298 74.8821 66.94V63.8541C74.8821 63.1705 74.511 62.5768 73.9603 62.2564V61.2642H77.2181C77.3821 61.2642 77.5423 61.2329 77.6868 61.1704C77.9056 61.0767 78.0853 60.9282 78.2142 60.7329C78.2767 60.6353 78.3274 60.5337 78.3665 60.4204C78.4016 60.3071 78.4212 60.186 78.4212 60.061V59.272H79.0618C79.5813 59.272 79.9993 58.8501 79.9993 58.3345V48.0065C79.9993 47.4869 79.5774 47.069 79.0618 47.069L79.062 47.07ZM72.1011 42.7731C72.1011 43.2848 71.687 43.6989 71.1753 43.6989C70.6636 43.6989 70.2495 43.2848 70.2495 42.7731C70.2495 42.2614 70.6636 41.8473 71.1753 41.8473C71.687 41.8512 72.1011 42.2653 72.1011 42.7731ZM70.7222 29.7301C71.2339 29.7301 71.648 30.1441 71.648 30.6559C71.648 31.1676 71.2339 31.5816 70.7222 31.5816C70.2105 31.5816 69.7964 31.1676 69.7964 30.6559C69.7964 30.1441 70.2105 29.7301 70.7222 29.7301ZM59.1602 41.8511C59.6719 41.8511 60.086 42.2651 60.086 42.7769C60.086 43.2886 59.6719 43.7026 59.1602 43.7026C58.6485 43.7026 58.2344 43.2886 58.2344 42.7769C58.2344 42.2651 58.6485 41.8511 59.1602 41.8511ZM55 41.8511C55.5117 41.8511 55.9258 42.2651 55.9258 42.7769C55.9258 43.2886 55.5117 43.7026 55 43.7026C54.4883 43.7026 54.0742 43.2886 54.0742 42.7769C54.0742 42.2651 54.4883 41.8511 55 41.8511ZM50.8398 41.8511C51.3515 41.8511 51.7656 42.2651 51.7656 42.7769C51.7656 43.2886 51.3515 43.7026 50.8398 43.7026C50.3281 43.7026 49.914 43.2886 49.914 42.7769C49.914 42.2651 50.3281 41.8511 50.8398 41.8511ZM39.2778 29.7301C39.7895 29.7301 40.2036 30.1441 40.2036 30.6559C40.2036 31.1676 39.7895 31.5816 39.2778 31.5816C38.7661 31.5816 38.352 31.1676 38.352 30.6559C38.3559 30.1441 38.77 29.7301 39.2778 29.7301ZM38.8247 41.8511C39.3364 41.8511 39.7504 42.2651 39.7504 42.7769C39.7504 43.2886 39.3364 43.7026 38.8247 43.7026C38.3129 43.7026 37.8989 43.2886 37.8989 42.7769C37.8989 42.2651 38.3129 41.8511 38.8247 41.8511ZM32.7856 60.3351C32.7465 60.3351 32.7113 60.3273 32.6801 60.3155C32.6293 60.296 32.5863 60.2609 32.559 60.214C32.5434 60.1945 32.5317 60.1671 32.5238 60.1437C32.516 60.1202 32.5121 60.0929 32.5121 60.0616V59.2726H33.2895C33.809 59.2726 34.227 58.8507 34.227 58.3351L34.2231 48.0071C34.2231 47.4875 33.8012 47.0696 33.2856 47.0696H32.5082V46.2805C32.5082 46.2415 32.516 46.2063 32.5278 46.1751C32.5473 46.1243 32.5824 46.0813 32.6293 46.054C32.6528 46.0383 32.6762 46.0266 32.6996 46.0188C32.727 46.011 32.7504 46.0071 32.7817 46.0071H36.0356V60.3351L32.7856 60.3351ZM35.9184 80.3271V77.2607C35.9184 76.7724 36.3129 76.3779 36.8012 76.3779H44.6528C45.1411 76.3779 45.5356 76.7724 45.5356 77.2607V80.3271C45.5356 80.8154 45.1411 81.2099 44.6528 81.2099H36.8012C36.3168 81.2099 35.9184 80.8154 35.9184 80.3271ZM40.059 60.3741C39.6488 60.3741 39.266 60.2374 38.9574 60.0108C38.5003 59.671 38.2035 59.128 38.2035 58.5186V48.3896C38.2035 47.7802 38.5003 47.2373 38.9574 46.8974C39.266 46.6669 39.6488 46.5302 40.059 46.5302H69.938C70.3481 46.5302 70.7348 46.6669 71.0435 46.8974C71.5005 47.2372 71.7974 47.7802 71.7974 48.3896V58.5186C71.7974 59.128 71.5005 59.6709 71.0435 60.0108C70.7349 60.2413 70.3521 60.3741 69.938 60.3741H40.059ZM74.079 77.2611V80.3275C74.079 80.8158 73.6844 81.2103 73.1962 81.2103H65.3446C64.8563 81.2103 64.4617 80.8158 64.4617 80.3275L64.4657 77.2611C64.4657 76.7728 64.8602 76.3783 65.3485 76.3783H73.2001C73.6883 76.3783 74.079 76.7728 74.079 77.2611ZM77.4931 60.0581C77.4931 60.0971 77.4853 60.1323 77.4735 60.1635C77.454 60.2143 77.4149 60.2573 77.372 60.2846C77.3524 60.3003 77.3251 60.312 77.3017 60.3198C77.2782 60.3276 77.247 60.3315 77.2196 60.3315H73.9618V46.0075H77.2196C77.2587 46.0075 77.2938 46.0153 77.3251 46.027C77.3759 46.0466 77.4188 46.0817 77.4462 46.1286C77.4618 46.1481 77.4696 46.1755 77.4774 46.1989C77.4853 46.2224 77.4892 46.2536 77.4931 46.2809V47.07H76.7157C76.1962 47.07 75.7782 47.4919 75.7782 48.0075V58.3315C75.7782 58.851 76.2001 59.269 76.7157 59.269H77.4931V60.0581Z"/>
</mask>
<path d="M79.062 47.07H78.4214V46.2809C78.4214 46.1169 78.3901 45.9567 78.3276 45.8122C78.2339 45.5934 78.0854 45.4137 77.8901 45.2848C77.7925 45.2184 77.687 45.1676 77.5737 45.1325C77.4604 45.0973 77.3393 45.0778 77.2182 45.0778H73.9604V42.1598H73.9565L73.1128 29.4328C73.1128 29.0148 72.7729 28.675 72.355 28.675H37.597C37.179 28.675 36.8392 29.0148 36.8392 29.4328L36.0384 42.1598V45.0778H32.7845C32.6204 45.0778 32.4603 45.113 32.3157 45.1715C32.1009 45.2653 31.9173 45.4137 31.7884 45.609C31.722 45.7067 31.6712 45.8122 31.636 45.9255C31.6009 46.0387 31.5814 46.1598 31.5814 46.2848V47.0739H30.9407C30.4212 47.07 29.9993 47.488 29.9993 48.0075V58.3315C29.9993 58.851 30.4212 59.269 30.9368 59.269H31.5774V60.058C31.5774 60.2221 31.6087 60.3823 31.6712 60.5268C31.7649 60.7455 31.9134 60.9252 32.1087 61.0541C32.2064 61.1205 32.3118 61.1713 32.4251 61.2065C32.5384 61.2416 32.6595 61.2612 32.7845 61.2612H36.0384V62.2534C35.4876 62.5737 35.1165 63.1674 35.1165 63.8511V66.937C34.6985 67.0268 34.3821 67.3979 34.3821 67.8432V83.4482C34.3821 83.8935 34.6946 84.2646 35.1165 84.3545V86.7022C35.1165 87.4834 35.6048 88.1553 36.2962 88.4249V90.5811C36.2962 90.9873 36.6282 91.3193 37.0345 91.3193H47.1205C47.5307 91.3193 47.8588 90.9873 47.8588 90.5811V88.5499H62.1438V90.5811C62.1438 90.9873 62.4719 91.3193 62.8821 91.3193H72.9681C73.3743 91.3193 73.7063 90.9873 73.7063 90.5811V88.4249C74.3938 88.1553 74.886 87.4874 74.886 86.7022V84.3545C75.3079 84.2646 75.6204 83.8935 75.6204 83.4482L75.6165 67.8462C75.6165 67.4009 75.304 67.0298 74.8821 66.94V63.8541C74.8821 63.1705 74.511 62.5768 73.9603 62.2564V61.2642H77.2181C77.3821 61.2642 77.5423 61.2329 77.6868 61.1704C77.9056 61.0767 78.0853 60.9282 78.2142 60.7329C78.2767 60.6353 78.3274 60.5337 78.3665 60.4204C78.4016 60.3071 78.4212 60.186 78.4212 60.061V59.272H79.0618C79.5813 59.272 79.9993 58.8501 79.9993 58.3345V48.0065C79.9993 47.4869 79.5774 47.069 79.0618 47.069L79.062 47.07ZM72.1011 42.7731C72.1011 43.2848 71.687 43.6989 71.1753 43.6989C70.6636 43.6989 70.2495 43.2848 70.2495 42.7731C70.2495 42.2614 70.6636 41.8473 71.1753 41.8473C71.687 41.8512 72.1011 42.2653 72.1011 42.7731ZM70.7222 29.7301C71.2339 29.7301 71.648 30.1441 71.648 30.6559C71.648 31.1676 71.2339 31.5816 70.7222 31.5816C70.2105 31.5816 69.7964 31.1676 69.7964 30.6559C69.7964 30.1441 70.2105 29.7301 70.7222 29.7301ZM59.1602 41.8511C59.6719 41.8511 60.086 42.2651 60.086 42.7769C60.086 43.2886 59.6719 43.7026 59.1602 43.7026C58.6485 43.7026 58.2344 43.2886 58.2344 42.7769C58.2344 42.2651 58.6485 41.8511 59.1602 41.8511ZM55 41.8511C55.5117 41.8511 55.9258 42.2651 55.9258 42.7769C55.9258 43.2886 55.5117 43.7026 55 43.7026C54.4883 43.7026 54.0742 43.2886 54.0742 42.7769C54.0742 42.2651 54.4883 41.8511 55 41.8511ZM50.8398 41.8511C51.3515 41.8511 51.7656 42.2651 51.7656 42.7769C51.7656 43.2886 51.3515 43.7026 50.8398 43.7026C50.3281 43.7026 49.914 43.2886 49.914 42.7769C49.914 42.2651 50.3281 41.8511 50.8398 41.8511ZM39.2778 29.7301C39.7895 29.7301 40.2036 30.1441 40.2036 30.6559C40.2036 31.1676 39.7895 31.5816 39.2778 31.5816C38.7661 31.5816 38.352 31.1676 38.352 30.6559C38.3559 30.1441 38.77 29.7301 39.2778 29.7301ZM38.8247 41.8511C39.3364 41.8511 39.7504 42.2651 39.7504 42.7769C39.7504 43.2886 39.3364 43.7026 38.8247 43.7026C38.3129 43.7026 37.8989 43.2886 37.8989 42.7769C37.8989 42.2651 38.3129 41.8511 38.8247 41.8511ZM32.7856 60.3351C32.7465 60.3351 32.7113 60.3273 32.6801 60.3155C32.6293 60.296 32.5863 60.2609 32.559 60.214C32.5434 60.1945 32.5317 60.1671 32.5238 60.1437C32.516 60.1202 32.5121 60.0929 32.5121 60.0616V59.2726H33.2895C33.809 59.2726 34.227 58.8507 34.227 58.3351L34.2231 48.0071C34.2231 47.4875 33.8012 47.0696 33.2856 47.0696H32.5082V46.2805C32.5082 46.2415 32.516 46.2063 32.5278 46.1751C32.5473 46.1243 32.5824 46.0813 32.6293 46.054C32.6528 46.0383 32.6762 46.0266 32.6996 46.0188C32.727 46.011 32.7504 46.0071 32.7817 46.0071H36.0356V60.3351L32.7856 60.3351ZM35.9184 80.3271V77.2607C35.9184 76.7724 36.3129 76.3779 36.8012 76.3779H44.6528C45.1411 76.3779 45.5356 76.7724 45.5356 77.2607V80.3271C45.5356 80.8154 45.1411 81.2099 44.6528 81.2099H36.8012C36.3168 81.2099 35.9184 80.8154 35.9184 80.3271ZM40.059 60.3741C39.6488 60.3741 39.266 60.2374 38.9574 60.0108C38.5003 59.671 38.2035 59.128 38.2035 58.5186V48.3896C38.2035 47.7802 38.5003 47.2373 38.9574 46.8974C39.266 46.6669 39.6488 46.5302 40.059 46.5302H69.938C70.3481 46.5302 70.7348 46.6669 71.0435 46.8974C71.5005 47.2372 71.7974 47.7802 71.7974 48.3896V58.5186C71.7974 59.128 71.5005 59.6709 71.0435 60.0108C70.7349 60.2413 70.3521 60.3741 69.938 60.3741H40.059ZM74.079 77.2611V80.3275C74.079 80.8158 73.6844 81.2103 73.1962 81.2103H65.3446C64.8563 81.2103 64.4617 80.8158 64.4617 80.3275L64.4657 77.2611C64.4657 76.7728 64.8602 76.3783 65.3485 76.3783H73.2001C73.6883 76.3783 74.079 76.7728 74.079 77.2611ZM77.4931 60.0581C77.4931 60.0971 77.4853 60.1323 77.4735 60.1635C77.454 60.2143 77.4149 60.2573 77.372 60.2846C77.3524 60.3003 77.3251 60.312 77.3017 60.3198C77.2782 60.3276 77.247 60.3315 77.2196 60.3315H73.9618V46.0075H77.2196C77.2587 46.0075 77.2938 46.0153 77.3251 46.027C77.3759 46.0466 77.4188 46.0817 77.4462 46.1286C77.4618 46.1481 77.4696 46.1755 77.4774 46.1989C77.4853 46.2224 77.4892 46.2536 77.4931 46.2809V47.07H76.7157C76.1962 47.07 75.7782 47.4919 75.7782 48.0075V58.3315C75.7782 58.851 76.2001 59.269 76.7157 59.269H77.4931V60.0581Z" fill="#478C83" stroke="#E2E2E2" stroke-opacity="0.06" stroke-width="2" mask="url(#path-1-inside-1_24_2)"/>
</svg>
