<svg width="37" height="37" viewBox="0 0 37 37" fill="none" xmlns="http://www.w3.org/2000/svg">
<rect x="0.820312" y="0.5" width="35.2497" height="35.2497" rx="17.6248" fill="#D9D9D9" stroke="#D30000"/>
<path d="M23 13V22.51C22.88 22.66 22.7833 22.8233 22.71 23H15.29C15.0951 22.5549 14.7747 22.1763 14.368 21.9104C13.9613 21.6445 13.4859 21.5029 13 21.5029C12.5141 21.5029 12.0387 21.6445 11.632 21.9104C11.2253 22.1763 10.9049 22.5549 10.71 23H10C9.73478 23 9.48043 22.8946 9.29289 22.7071C9.10536 22.5196 9 22.2652 9 22V13C9 12.4696 9.21071 11.9609 9.58579 11.5858C9.96086 11.2107 10.4696 11 11 11H21C21.5304 11 22.0391 11.2107 22.4142 11.5858C22.7893 11.9609 23 12.4696 23 13ZM29 20.11V23H27.29C27.1163 22.598 26.8396 22.2489 26.4879 21.9879C26.1362 21.7269 25.7219 21.5634 25.2868 21.5137C24.8517 21.464 24.4111 21.5299 24.0096 21.7048C23.6081 21.8798 23.2599 22.1575 23 22.51V14H25.43C25.6035 14 25.7741 14.0452 25.9249 14.1311C26.0757 14.217 26.2015 14.3407 26.29 14.49L27.2 16L28.43 18.05C28.8033 18.6723 29.0004 19.3843 29 20.11Z" fill="white"/>
<path d="M23 22.51V13C23 12.4696 22.7893 11.9609 22.4142 11.5858C22.0391 11.2107 21.5304 11 21 11H11C10.4696 11 9.96086 11.2107 9.58579 11.5858C9.21071 11.9609 9 12.4696 9 13V22C9 22.2652 9.10536 22.5196 9.29289 22.7071C9.48043 22.8946 9.73478 23 10 23H10.71C10.9049 22.5549 11.2253 22.1763 11.632 21.9104C12.0387 21.6445 12.5141 21.5029 13 21.5029C13.4859 21.5029 13.9613 21.6445 14.368 21.9104C14.7747 22.1763 15.0951 22.5549 15.29 23H22.71C22.7833 22.8233 22.88 22.66 23 22.51ZM23 22.51C23.2599 22.1575 23.6081 21.8798 24.0096 21.7048C24.4111 21.5299 24.8517 21.464 25.2868 21.5137C25.7219 21.5634 26.1362 21.7269 26.4879 21.9879C26.8396 22.2489 27.1163 22.598 27.29 23H29V20.11C29.0004 19.3843 28.8033 18.6723 28.43 18.05L27.2 16L26.29 14.49C26.2015 14.3407 26.0757 14.217 25.9249 14.1311C25.7741 14.0452 25.6035 14 25.43 14H23V22.51Z" stroke="#616161" stroke-linecap="round" stroke-linejoin="round"/>
<path d="M15.5 24C15.5004 24.3719 15.4179 24.7392 15.2584 25.0752C15.0989 25.4111 14.8664 25.7073 14.578 25.942C14.2895 26.1768 13.9523 26.3442 13.5909 26.4321C13.2296 26.52 12.8531 26.5262 12.4891 26.4502C12.125 26.3742 11.7825 26.2179 11.4865 25.9928C11.1905 25.7676 10.9485 25.4793 10.778 25.1487C10.6076 24.8182 10.513 24.4538 10.5013 24.082C10.4895 23.7103 10.5608 23.3407 10.71 23C10.9402 22.4744 11.3442 22.0439 11.8542 21.781C12.3642 21.518 12.9492 21.4384 13.5109 21.5557C14.0726 21.673 14.5769 21.9799 14.9391 22.425C15.3013 22.8701 15.4993 23.4262 15.5 24ZM27.5 24C27.5004 24.3719 27.4179 24.7392 27.2584 25.0752C27.0989 25.4111 26.8664 25.7073 26.578 25.942C26.2895 26.1768 25.9523 26.3442 25.5909 26.4321C25.2296 26.52 24.8531 26.5262 24.4891 26.4502C24.125 26.3742 23.7825 26.2179 23.4865 25.9928C23.1905 25.7676 22.9485 25.4793 22.778 25.1487C22.6076 24.8182 22.513 24.4538 22.5013 24.082C22.4895 23.7103 22.5608 23.3407 22.71 23C22.7833 22.8233 22.88 22.66 23 22.51C23.2599 22.1575 23.6081 21.8798 24.0096 21.7048C24.4111 21.5299 24.8517 21.464 25.2868 21.5137C25.7219 21.5634 26.1362 21.7269 26.4879 21.9879C26.8396 22.2489 27.1163 22.598 27.29 23C27.43 23.315 27.502 23.656 27.5 24ZM18 18H13ZM18 15H13Z" fill="white"/>
<path d="M18 18H13M18 15H13M15.5 24C15.5004 24.3719 15.4179 24.7392 15.2584 25.0752C15.0989 25.4111 14.8664 25.7073 14.578 25.942C14.2895 26.1768 13.9523 26.3442 13.5909 26.4321C13.2296 26.52 12.8531 26.5262 12.4891 26.4502C12.125 26.3742 11.7825 26.2179 11.4865 25.9928C11.1905 25.7676 10.9485 25.4793 10.778 25.1487C10.6076 24.8182 10.513 24.4538 10.5013 24.082C10.4895 23.7103 10.5608 23.3407 10.71 23C10.9402 22.4744 11.3442 22.0439 11.8542 21.781C12.3642 21.518 12.9492 21.4384 13.5109 21.5557C14.0726 21.673 14.5769 21.9799 14.9391 22.425C15.3013 22.8701 15.4993 23.4262 15.5 24ZM27.5 24C27.5004 24.3719 27.4179 24.7392 27.2584 25.0752C27.0989 25.4111 26.8664 25.7073 26.578 25.942C26.2895 26.1768 25.9523 26.3442 25.5909 26.4321C25.2296 26.52 24.8531 26.5262 24.4891 26.4502C24.125 26.3742 23.7825 26.2179 23.4865 25.9928C23.1905 25.7676 22.9485 25.4793 22.778 25.1487C22.6076 24.8182 22.513 24.4538 22.5013 24.082C22.4895 23.7103 22.5608 23.3407 22.71 23C22.7833 22.8233 22.88 22.66 23 22.51C23.2599 22.1575 23.6081 21.8798 24.0096 21.7048C24.4111 21.5299 24.8517 21.464 25.2868 21.5137C25.7219 21.5634 26.1362 21.7269 26.4879 21.9879C26.8396 22.2489 27.1163 22.598 27.29 23C27.43 23.315 27.502 23.656 27.5 24Z" stroke="#616161" stroke-linecap="round" stroke-linejoin="round"/>
<line x1="27.4263" y1="2.26128" x2="8.4263" y2="33.2613" stroke="#D30000"/>
</svg>
