<svg width="28" height="20" viewBox="0 0 28 20" fill="none" xmlns="http://www.w3.org/2000/svg">
<path d="M21.6364 18.125C21.13 18.125 20.6445 17.9275 20.2864 17.5758C19.9284 17.2242 19.7273 16.7473 19.7273 16.25C19.7273 15.7527 19.9284 15.2758 20.2864 14.9242C20.6445 14.5725 21.13 14.375 21.6364 14.375C22.1427 14.375 22.6283 14.5725 22.9863 14.9242C23.3443 15.2758 23.5455 15.7527 23.5455 16.25C23.5455 16.7473 23.3443 17.2242 22.9863 17.5758C22.6283 17.9275 22.1427 18.125 21.6364 18.125ZM23.5455 6.875L26.04 10H20.3636V6.875M6.36364 18.125C5.85731 18.125 5.37173 17.9275 5.0137 17.5758C4.65568 17.2242 4.45455 16.7473 4.45455 16.25C4.45455 15.7527 4.65568 15.2758 5.0137 14.9242C5.37173 14.5725 5.85731 14.375 6.36364 14.375C6.86996 14.375 7.35554 14.5725 7.71357 14.9242C8.07159 15.2758 8.27273 15.7527 8.27273 16.25C8.27273 16.7473 8.07159 17.2242 7.71357 17.5758C7.35554 17.9275 6.86996 18.125 6.36364 18.125ZM24.1818 5H20.3636V0H2.54545C1.13273 0 0 1.1125 0 2.5V16.25H2.54545C2.54545 17.2446 2.94773 18.1984 3.66377 18.9017C4.37982 19.6049 5.35099 20 6.36364 20C7.37628 20 8.34745 19.6049 9.0635 18.9017C9.77955 18.1984 10.1818 17.2446 10.1818 16.25H17.8182C17.8182 17.2446 18.2205 18.1984 18.9365 18.9017C19.6525 19.6049 20.6237 20 21.6364 20C22.649 20 23.6202 19.6049 24.3362 18.9017C25.0523 18.1984 25.4545 17.2446 25.4545 16.25H28V10L24.1818 5Z" fill="#878787"/>
</svg>
