<svg width="30" height="30" viewBox="0 0 30 30" fill="none" xmlns="http://www.w3.org/2000/svg">
<path d="M29.4376 8.80919H29.0532V8.43132C29.0532 8.35275 29.0345 8.27605 28.997 8.20684C28.9407 8.10208 28.8517 8.01603 28.7345 7.9543C28.6759 7.9225 28.6126 7.89818 28.5446 7.88134C28.4767 7.86451 28.404 7.85515 28.3314 7.85515H26.3767V6.45775H26.3743L25.8681 0.362908C25.8681 0.162746 25.6642 0 25.4134 0H4.55859C4.3078 0 4.1039 0.162746 4.1039 0.362908L3.62343 6.45775V7.85515H1.67109C1.57265 7.85515 1.47656 7.87199 1.38984 7.90005C1.26093 7.94495 1.15077 8.01603 1.07343 8.10956C1.03359 8.15633 1.00312 8.20684 0.982031 8.26109C0.960937 8.31534 0.949218 8.37333 0.949218 8.43319V8.81107H0.564846C0.253128 8.80919 0 9.00936 0 9.25815V14.2022C0 14.451 0.253128 14.6512 0.5625 14.6512H0.946872V15.0291C0.946872 15.1076 0.965622 15.1843 1.00312 15.2535C1.05937 15.3583 1.14844 15.4443 1.26562 15.5061C1.32422 15.5379 1.38749 15.5622 1.45547 15.579C1.52344 15.5959 1.5961 15.6052 1.6711 15.6052H3.62344V16.0804C3.29297 16.2338 3.07032 16.5181 3.07032 16.8455V18.3233C2.81953 18.3663 2.62969 18.544 2.62969 18.7573V26.2304C2.62969 26.4436 2.81719 26.6214 3.07032 26.6644V27.7887C3.07032 28.1628 3.36328 28.4845 3.77814 28.6137V29.6462C3.77814 29.8408 3.97735 29.9998 4.2211 29.9998H10.2727C10.5188 29.9998 10.7157 29.8408 10.7157 29.6462V28.6735H19.2867V29.6462C19.2867 29.8408 19.4836 29.9998 19.7296 29.9998H25.7813C26.025 29.9998 26.2242 29.8408 26.2242 29.6462V28.6137C26.6367 28.4846 26.932 28.1647 26.932 27.7887V26.6644C27.1852 26.6214 27.3727 26.4436 27.3727 26.2304L27.3703 18.7587C27.3703 18.5455 27.1828 18.3678 26.9297 18.3247V16.8469C26.9297 16.5196 26.707 16.2352 26.3766 16.0818V15.6067H28.3313C28.4297 15.6067 28.5258 15.5917 28.6125 15.5618C28.7438 15.5169 28.8516 15.4458 28.9289 15.3522C28.9664 15.3055 28.9969 15.2568 29.0203 15.2026C29.0414 15.1483 29.0531 15.0903 29.0531 15.0305V14.6526H29.4375C29.7492 14.6526 30 14.4506 30 14.2037V9.25767C30 9.00887 29.7469 8.80871 29.4375 8.80871L29.4376 8.80919ZM25.2611 6.75144C25.2611 6.9965 25.0126 7.19479 24.7056 7.19479C24.3986 7.19479 24.1501 6.9965 24.1501 6.75144C24.1501 6.50639 24.3986 6.3081 24.7056 6.3081C25.0126 6.30997 25.2611 6.50826 25.2611 6.75144ZM24.4337 0.505272C24.7408 0.505272 24.9892 0.703561 24.9892 0.948619C24.9892 1.19368 24.7408 1.39197 24.4337 1.39197C24.1267 1.39197 23.8783 1.19368 23.8783 0.948619C23.8783 0.703561 24.1267 0.505272 24.4337 0.505272ZM17.4965 6.30991C17.8036 6.30991 18.052 6.50819 18.052 6.75325C18.052 6.99831 17.8036 7.1966 17.4965 7.1966C17.1895 7.1966 16.9411 6.99831 16.9411 6.75325C16.9411 6.50819 17.1895 6.30991 17.4965 6.30991ZM15.0004 6.30991C15.3074 6.30991 15.5559 6.50819 15.5559 6.75325C15.5559 6.99831 15.3074 7.1966 15.0004 7.1966C14.6934 7.1966 14.4449 6.99831 14.4449 6.75325C14.4449 6.50819 14.6934 6.30991 15.0004 6.30991ZM12.5043 6.30991C12.8113 6.30991 13.0597 6.50819 13.0597 6.75325C13.0597 6.99831 12.8113 7.1966 12.5043 7.1966C12.1972 7.1966 11.9488 6.99831 11.9488 6.75325C11.9488 6.50819 12.1972 6.30991 12.5043 6.30991ZM5.56708 0.505272C5.87411 0.505272 6.12254 0.703561 6.12254 0.948619C6.12254 1.19368 5.87411 1.39197 5.56708 1.39197C5.26004 1.39197 5.01161 1.19368 5.01161 0.948619C5.01395 0.703561 5.26239 0.505272 5.56708 0.505272ZM5.2952 6.30991C5.60224 6.30991 5.85067 6.50819 5.85067 6.75325C5.85067 6.99831 5.60224 7.1966 5.2952 7.1966C4.98817 7.1966 4.73973 6.99831 4.73973 6.75325C4.73973 6.50819 4.98817 6.30991 5.2952 6.30991ZM1.67174 15.1617C1.6483 15.1617 1.62721 15.158 1.60846 15.1524C1.57799 15.143 1.55221 15.1262 1.5358 15.1037C1.52643 15.0944 1.5194 15.0813 1.51471 15.0701C1.51002 15.0588 1.50768 15.0457 1.50768 15.0308V14.6529H1.97409C2.2858 14.6529 2.53659 14.4509 2.53659 14.2039L2.53424 9.25796C2.53424 9.00916 2.28111 8.809 1.97174 8.809H1.50534V8.43113C1.50534 8.41242 1.51002 8.39558 1.51706 8.38062C1.52877 8.3563 1.54987 8.33572 1.57799 8.32263C1.59206 8.31515 1.60612 8.30953 1.62018 8.30579C1.63659 8.30205 1.65065 8.30018 1.6694 8.30018H3.62174V15.1617L1.67174 15.1617ZM3.55142 24.7357V23.2672C3.55142 23.0334 3.78814 22.8445 4.08111 22.8445H8.79207C9.08504 22.8445 9.32176 23.0334 9.32176 23.2672V24.7357C9.32176 24.9695 9.08504 25.1585 8.79207 25.1585H4.08111C3.79048 25.1585 3.55142 24.9695 3.55142 24.7357ZM6.03578 15.1804C5.78969 15.1804 5.56 15.1149 5.37482 15.0064C5.1006 14.8437 4.92248 14.5837 4.92248 14.2918V9.44114C4.92248 9.14932 5.1006 8.88932 5.37482 8.72654C5.55998 8.61617 5.78967 8.5507 6.03578 8.5507H23.9632C24.2093 8.5507 24.4413 8.61617 24.6265 8.72654C24.9007 8.88929 25.0788 9.14931 25.0788 9.44114V14.2918C25.0788 14.5837 24.9007 14.8437 24.6265 15.0064C24.4413 15.1168 24.2117 15.1804 23.9632 15.1804H6.03578ZM26.4478 23.2674V24.7359C26.4478 24.9697 26.2111 25.1587 25.9181 25.1587H21.2071C20.9142 25.1587 20.6775 24.9697 20.6775 24.7359L20.6798 23.2674C20.6798 23.0336 20.9165 22.8447 21.2095 22.8447H25.9205C26.2134 22.8447 26.4478 23.0336 26.4478 23.2674ZM28.4963 15.0291C28.4963 15.0478 28.4916 15.0646 28.4845 15.0796C28.4728 15.1039 28.4494 15.1245 28.4236 15.1376C28.4119 15.145 28.3955 15.1507 28.3814 15.1544C28.3674 15.1581 28.3486 15.16 28.3322 15.16H26.3775V8.30038H28.3322C28.3556 8.30038 28.3767 8.30412 28.3955 8.30974C28.4259 8.31909 28.4517 8.33593 28.4681 8.35837C28.4775 8.36773 28.4822 8.38082 28.4869 8.39205C28.4916 8.40327 28.4939 8.41823 28.4963 8.43133V8.8092H28.0299C27.7181 8.8092 27.4674 9.01124 27.4674 9.25816V14.2022C27.4674 14.451 27.7205 14.6512 28.0299 14.6512H28.4963V15.0291Z" fill="#448C81"/>
</svg>
