<svg width="8" height="9" viewBox="0 0 8 9" fill="none" xmlns="http://www.w3.org/2000/svg">
<path d="M6.91 3.50778V5.05444C6.91 6.62173 5.64422 7.89 4.08 7.89C2.51578 7.89 1.25 6.62173 1.25 5.05444V3.50778C1.25 3.36342 1.36577 3.25 1.50727 3.25H2.79364H5.36636H6.65273C6.80452 3.25 6.91 3.37116 6.91 3.50778Z" fill="#E74C3C"/>
<path d="M4.11538 5.39667V5.91133M4.11538 5.39667C3.97288 5.39667 3.85769 5.28164 3.85769 5.13933C3.85769 4.99703 3.97288 4.882 4.11538 4.882C4.25789 4.882 4.37308 4.99703 4.37308 5.13933C4.37308 5.28164 4.25789 5.39667 4.11538 5.39667ZM0.25 2.30867V1.53667C0.25 0.825912 0.826715 0.25 1.53846 0.25C2.25021 0.25 2.82692 0.825912 2.82692 1.53667V3.338H6.69231C6.84538 3.338 6.95 3.45869 6.95 3.59533V5.13933C6.95 6.70263 5.68087 7.97 4.11538 7.97C2.5499 7.97 1.28077 6.70263 1.28077 5.13933V3.59533C1.28077 3.45045 1.3975 3.338 1.53846 3.338H2.05385" stroke="black" stroke-width="0.5" stroke-linecap="round" stroke-linejoin="round"/>
</svg>
