<svg width="90" height="90" viewBox="0 0 90 90" fill="none" xmlns="http://www.w3.org/2000/svg">
<path fill-rule="evenodd" clip-rule="evenodd" d="M49.9612 16.9448C53.5706 17.7221 56.9378 19.1362 59.9495 21.0854L63.8714 19.3588C64.5785 19.0267 65.4886 19.2455 66.1292 19.89L70.0511 23.8119C70.6957 24.4565 70.9144 25.3392 70.5824 26.0697L68.8558 29.9916C70.7816 33.0033 72.2191 36.3705 72.973 39.9564L76.9847 41.5072C77.7152 41.7963 78.2035 42.5697 78.2035 43.4994V49.0346C78.2035 49.9409 77.7152 50.7182 76.9847 51.0073L72.973 52.5581C72.2191 56.1675 70.7816 59.5347 68.8558 62.5229L70.5824 66.4448C70.9144 67.1753 70.6957 68.062 70.0511 68.726L66.1292 72.6244C65.4847 73.2885 64.5784 73.4877 63.8714 73.1791L59.9495 71.433C56.9378 73.3822 53.5706 74.7963 49.9612 75.5736L48.4339 79.5814C48.1449 80.3119 47.3714 80.8002 46.4417 80.8002L40.9026 80.7885C39.9964 80.7885 39.1995 80.3002 38.9104 79.5697L37.3831 75.5619C33.7737 74.7846 30.4065 73.3705 27.4183 71.4213L23.4769 73.1674C22.766 73.4799 21.8597 73.2807 21.2152 72.6127L17.3168 68.7143C16.6528 68.0502 16.4301 67.1635 16.7622 66.4331L18.4888 62.5112C16.563 59.5229 15.145 56.1557 14.3716 52.5464L10.3638 50.9956C9.63329 50.7065 9.14496 49.9331 9.14496 49.0229V43.4877C9.14496 42.558 9.63324 41.7846 10.3638 41.4955L14.3716 39.9447C15.145 36.3588 16.563 32.9916 18.4888 29.9799L16.7622 26.058C16.4301 25.3275 16.6528 24.4447 17.3168 23.8002L21.2152 19.8783C21.8598 19.2338 22.766 19.015 23.4769 19.3471L27.4183 21.0737C30.4066 19.1245 33.7738 17.7065 37.3831 16.9331L38.9104 12.9487C39.1956 12.1947 39.9963 11.7299 40.9026 11.7299H46.4378C47.3675 11.7299 48.1409 12.1947 48.43 12.9487L49.9612 16.9448ZM79.5232 56.8278C79.1248 56.1403 79.3436 55.2575 80.035 54.8356C80.7225 54.4371 81.6053 54.6598 82.0272 55.3434L83.0467 57.0934C84.3748 52.2653 84.7967 47.2809 84.3553 42.3904C83.7811 36.4763 81.9412 30.6524 78.8201 25.4064C75.6482 20.047 71.3318 15.5705 66.2811 12.2264C61.2108 8.85919 55.4101 6.62479 49.2501 5.78109C48.4532 5.67172 47.8985 4.96078 48.0118 4.16389C48.1211 3.36701 48.8555 2.81229 49.6251 2.92559C56.2462 3.83184 62.4491 6.20289 67.8751 9.79279C73.3009 13.4022 77.9061 18.2069 81.3161 23.9408C84.6364 29.5463 86.6286 35.7688 87.2302 42.1248C87.7145 47.3514 87.2497 52.6868 85.8357 57.8278L87.8709 56.8551C88.6013 56.4997 89.4647 56.8122 89.8162 57.5192C90.1521 58.2497 89.863 59.113 89.1287 59.4684L84.1248 61.8825C83.4373 62.238 82.5975 62.0153 82.1951 61.3512L79.5232 56.8278ZM13.8592 74.0348C17.5154 77.9762 21.8983 81.1207 26.7262 83.316C32.1285 85.7965 38.0852 87.1012 44.1992 87.0152C50.3984 86.9488 56.4452 85.4644 61.8942 82.7613V82.7378C67.32 80.0386 72.1482 76.1401 75.9562 71.2218C76.4406 70.5773 77.3507 70.4679 77.9914 70.9562C78.6321 71.4406 78.7454 72.3507 78.2571 72.9914C74.1594 78.2609 68.9798 82.4484 63.1751 85.3504C57.3509 88.2293 50.8861 89.8231 44.2181 89.9129C37.6869 89.9793 31.3081 88.6043 25.5031 85.9481C20.3 83.5575 15.5383 80.1434 11.5731 75.8271L11.3973 78.3505C11.3309 79.1474 10.6434 79.745 9.84649 79.6786C9.04961 79.6317 8.45199 78.9247 8.49489 78.1278L8.91677 72.5262C8.95974 71.7723 9.58083 71.1981 10.3309 71.1746L15.5809 71.1082C16.3777 71.1082 17.0418 71.7527 17.0418 72.5496C17.0613 73.3465 16.4207 74.0105 15.6238 74.0105L13.8592 74.0348ZM37.0272 3.34678C37.3827 3.56944 37.6679 3.921 37.7382 4.36628C37.8046 4.72175 37.7382 5.07331 37.5585 5.36237L35.0116 9.90147C34.6132 10.589 33.7264 10.8546 33.0389 10.4562C32.328 10.0577 32.0858 9.17096 32.4842 8.48346L33.4569 6.71006C28.6288 7.97176 24.0897 10.0968 20.0819 12.9328C15.2303 16.3859 11.1327 20.882 8.14387 26.2218C5.08527 31.6476 3.35867 37.6048 2.98367 43.6708C2.60476 49.7177 3.58133 55.8738 5.92897 61.6318C6.24147 62.3857 5.88209 63.2256 5.13209 63.5146C4.37818 63.8231 3.53829 63.4716 3.24929 62.7177C0.725887 56.5615 -0.313212 49.9837 0.0812877 43.4947C0.503168 37.0064 2.33909 30.6037 5.61649 24.8037C8.80399 19.1123 13.2103 14.2607 18.4175 10.5847C22.6909 7.52998 27.5425 5.26828 32.7025 3.92058L30.8431 2.63538C30.179 2.19397 29.9993 1.30728 30.4642 0.643176C30.9095 -0.0208843 31.7923 -0.200575 32.4564 0.244735L37.0272 3.34678ZM43.6678 30.9638C52.1287 30.9638 58.9728 37.8271 58.9728 46.2688C58.9728 54.7063 52.129 61.5498 43.6678 61.5498C35.2303 61.5498 28.3868 54.706 28.3868 46.2688C28.3868 37.8274 35.2345 30.9638 43.6678 30.9638ZM52.9256 54.6588C50.6248 57.1627 47.3475 58.733 43.6678 58.733C40.0155 58.733 36.7147 57.1627 34.4334 54.6588C35.6522 53.6197 37.6443 52.6197 40.4139 51.69C40.9452 51.4478 41.2108 50.8697 41.2108 49.94C39.5506 48.3228 38.8397 45.9088 39.2186 41.6119C39.5936 36.2955 47.742 36.2955 48.1444 41.6119C48.4999 45.9088 47.8124 48.3228 46.1288 49.94C46.1484 50.8697 46.4179 51.4439 46.9491 51.69C49.6952 52.6197 51.6834 53.6158 52.9256 54.6588ZM43.6678 26.0648C54.8278 26.0648 63.8628 35.1 63.8628 46.2638C63.8628 57.4048 54.8276 66.4628 43.6678 66.4628C32.5268 66.4628 23.4918 57.4042 23.4918 46.2638C23.4958 35.1038 32.5309 26.0648 43.6678 26.0648Z" fill="#478C83"/>
</svg>
