<svg width="56" height="56" viewBox="0 0 56 56" fill="none" xmlns="http://www.w3.org/2000/svg">
<circle cx="28" cy="28" r="27" fill="#458D81"/>
<path d="M0 28C0 12.536 12.536 0 28 0C43.464 0 56 12.536 56 28C56 43.464 43.464 56 28 56C12.536 56 0 43.464 0 28Z" fill="#458D81"/>
<path d="M39.1439 32.5494C39.1439 31.1972 38.0999 30.0978 36.8132 30.0978C35.5214 30.0978 34.4784 31.1969 34.4784 32.5494C34.4784 33.9027 35.5214 35 36.8132 35C38.1003 35 39.1439 33.9027 39.1439 32.5494Z" fill="white"/>
<path d="M33.8087 32.5494C33.8087 31.1972 32.7627 30.0978 31.4749 30.0978C30.1851 30.0978 29.1411 31.1969 29.1411 32.5494C29.1411 33.9027 30.1851 35 31.4749 35C32.763 35 33.8087 33.9027 33.8087 32.5494Z" fill="white"/>
<path d="M18.8771 32.5494C18.8771 31.1972 17.8331 30.0978 16.5453 30.0978C15.2535 30.0978 14.2105 31.1969 14.2105 32.5494C14.2105 33.9027 15.2535 35 16.5453 35C17.8334 35 18.8771 33.9027 18.8771 32.5494Z" fill="white"/>
<path d="M28.7255 32.1466H19.2932C19.0808 30.5537 17.6795 29.4409 16.1615 29.6617C14.752 29.8681 13.7191 31.1601 13.7693 32.6535H11V31.3052H11.479V27.3273L13.0958 22.3607H18.3065L18.6264 25.1117V28.5715H19.2308V20.7295C19.2308 20.326 19.542 20 19.9243 20H42.3066C42.6909 20 43 20.326 43 20.7295V31.4185C43 31.821 42.6909 32.1466 42.3066 32.1466H39.5608C39.3704 30.7074 38.1969 29.6338 36.8134 29.6338H31.4749C30.0884 29.6338 28.9173 30.707 28.7255 32.1466ZM17.2921 26.4618V23.3705H13.7822L12.7786 26.4618H17.2921Z" fill="white"/>
<circle cx="27.5" cy="27.5" r="23.5" stroke="#F3F3F3" stroke-width="2"/>
</svg>
