<svg width="94" height="65" viewBox="0 0 94 65" fill="none" xmlns="http://www.w3.org/2000/svg">
<path d="M13.102 64.5H57.5C64.3008 64.5 69.801 59 69.801 52.199V12.801C69.801 6.0002 64.301 0.5 57.5 0.5H13.102C6.30119 0.5 0.800995 6 0.800995 12.801V52.102C0.800995 58.9028 6.30099 64.403 13.102 64.403M52 12.2C55.3984 12.2 58.1992 15.0008 58.1992 18.3992C58.1992 21.7976 55.3984 24.5984 52 24.5984C48.6016 24.5984 45.8008 21.7976 45.8008 18.3992C45.8008 15.0008 48.6016 12.2 52 12.2ZM91.801 4.0008C90.9026 3.39924 89.6994 3.39924 88.801 4.0008L74.403 11.5008V53.6998L88.801 61.1998C89.1994 61.399 89.6994 61.5982 90.1994 61.5982C91.8986 61.5982 93.301 60.1998 93.301 58.4966V6.69964C93.301 5.59804 92.6994 4.59804 91.801 4.09804" fill="#fff"/>
</svg>
