<svg width="14" height="9" viewBox="0 0 14 9" fill="none" xmlns="http://www.w3.org/2000/svg">
<path d="M12.4835 0.758256L10.1502 1.92489C9.80022 2.09988 9.56689 2.44987 9.56689 2.85819V5.94977C9.56689 6.35809 9.80022 6.70808 10.1502 6.88307L12.4835 8.0497C13.1835 8.39969 14.0001 7.87471 14.0001 7.1164V1.69156C14.0001 0.933251 13.1835 0.408266 12.4835 0.758256Z" fill="#4B4C4C"/>
<path d="M7.05812 0H1.80828C0.816642 0 0 0.816642 0 1.80828V7.11645C0 8.10809 0.816642 8.92473 1.80828 8.92473H7.11645C8.10809 8.92473 8.92473 8.10809 8.92473 7.11645V1.80828C8.8664 0.816642 8.04976 0 7.05812 0ZM2.97491 2.39159C2.97491 2.68325 2.74158 2.97491 2.39159 2.97491H2.0416C1.74995 2.97491 1.45829 2.74158 1.45829 2.39159V2.0416C1.45829 1.74995 1.69162 1.45829 2.0416 1.45829H2.39159C2.68325 1.45829 2.97491 1.69162 2.97491 2.0416V2.39159Z" fill="#4B4C4C"/>
</svg>
