<svg width="24" height="21" viewBox="0 0 24 21" fill="none" xmlns="http://www.w3.org/2000/svg">
<path d="M13 12L17.553 9.724C17.7054 9.64784 17.8748 9.61188 18.045 9.61955C18.2152 9.62721 18.3806 9.67825 18.5256 9.76781C18.6706 9.85736 18.7902 9.98248 18.8733 10.1313C18.9563 10.2801 18.9999 10.4476 19 10.618V17.382C18.9999 17.5524 18.9563 17.7199 18.8733 17.8687C18.7902 18.0175 18.6706 18.1426 18.5256 18.2322C18.3806 18.3218 18.2152 18.3728 18.045 18.3805C17.8748 18.3881 17.7054 18.3522 17.553 18.276L13 16V12ZM1 10C1 9.46957 1.21071 8.96086 1.58579 8.58579C1.96086 8.21071 2.46957 8 3 8H11C11.5304 8 12.0391 8.21071 12.4142 8.58579C12.7893 8.96086 13 9.46957 13 10V18C13 18.5304 12.7893 19.0391 12.4142 19.4142C12.0391 19.7893 11.5304 20 11 20H3C2.46957 20 1.96086 19.7893 1.58579 19.4142C1.21071 19.0391 1 18.5304 1 18V10Z" stroke="#478C83" stroke-width="2" stroke-linecap="round" stroke-linejoin="round"/>
<circle cx="20" cy="4" r="4" fill="#FF0000" fill-opacity="0.2"/>
<circle cx="20" cy="4" r="2" fill="#C30000"/>
</svg>
