<svg width="40" height="39" viewBox="0 0 40 39" fill="none" xmlns="http://www.w3.org/2000/svg">
<path d="M20 0C14.6527 0 9.63425 2.00513 5.85767 5.64386C2.08109 9.2826 0 14.1233 0 19.27C0 24.4167 2.08109 29.2574 5.85767 32.8961C9.63425 36.5349 14.6584 38.54 20 38.54C25.3417 38.54 30.3601 36.5349 34.1367 32.8961C37.9189 29.2574 40 24.4167 40 19.27C40 14.1233 37.9189 9.2826 34.1423 5.64386C30.3658 2.00513 25.3417 0 20 0ZM33.0082 31.8034C29.5322 35.1526 24.9164 36.9938 20.0057 36.9938C15.095 36.9938 10.4735 35.1526 7.00312 31.8034C3.52708 28.4543 1.6161 24.0069 1.6161 19.27C1.6161 14.5331 3.52708 10.0857 7.00312 6.73658C10.4792 3.38741 15.095 1.54619 20.0057 1.54619C24.9164 1.54619 29.5379 3.38741 33.0082 6.73658C36.4843 10.0857 38.3952 14.5331 38.3952 19.27C38.3952 24.0014 36.4786 28.4543 33.0082 31.8034Z" fill="black"/>
<path d="M5.15446 13.6589L13.6319 16.0683C13.7056 16.0902 13.785 16.1011 13.8587 16.1011C14.1253 16.1011 14.3804 15.9754 14.5279 15.7514C15.3501 14.5494 16.5806 13.6425 18.0039 13.2109C18.3385 13.1071 18.5653 12.812 18.5653 12.4733V3.93919C18.5653 3.71518 18.4632 3.5021 18.2874 3.35459C18.1117 3.20707 17.8792 3.14151 17.6467 3.17429C11.8911 3.95011 7.03141 7.47411 4.64412 12.6044C4.54772 12.8066 4.54772 13.0415 4.64979 13.2436C4.75186 13.4458 4.93331 13.5988 5.15446 13.6589ZM16.9605 4.85707V11.9324C15.6109 12.4569 14.4258 13.3201 13.5412 14.4347L6.52106 12.4405C8.64752 8.4958 12.4581 5.73124 16.9605 4.85707Z" fill="black"/>
<path d="M26.5438 19.4669C26.4133 22.8762 23.5384 25.5479 20 25.5479C16.4502 25.5479 13.5752 22.8707 13.4505 19.4505C13.4391 19.1173 13.2066 18.8277 12.8778 18.7348L4.35493 16.3144C4.12811 16.2489 3.88995 16.2817 3.69715 16.4019C3.49868 16.5221 3.36826 16.7188 3.33423 16.9428C3.22082 17.6967 3.15845 18.4671 3.15845 19.232C3.15845 28.1759 10.7116 35.4533 19.9943 35.4533C29.277 35.4533 36.8358 28.1758 36.8358 19.2265C36.8358 18.4835 36.7791 17.7186 36.6657 16.9591C36.6317 16.7351 36.5012 16.5385 36.3028 16.4183C36.1043 16.2981 35.8661 16.2653 35.6393 16.3254L27.1165 18.7512C26.7876 18.8441 26.5608 19.1336 26.5438 19.4669ZM35.18 18.0737C35.214 18.4616 35.231 18.8495 35.231 19.232C35.231 27.3235 28.398 33.9071 20 33.9071C11.6019 33.9071 4.76888 27.3235 4.76888 19.232C4.76888 18.8441 4.78589 18.4507 4.81992 18.0573L11.8911 20.0679C12.322 24.0509 15.7811 27.0995 20 27.0995C24.2075 27.0995 27.6665 24.0618 28.1088 20.0898L35.18 18.0737Z" fill="black"/>
<path d="M22.3476 3.17429C22.1208 3.14151 21.8826 3.20707 21.7068 3.35459C21.531 3.5021 21.429 3.71518 21.429 3.93919V12.4733C21.429 12.812 21.6558 13.1071 21.9903 13.2109C23.4136 13.6479 24.6498 14.5549 25.4777 15.7678C25.6308 15.9918 25.886 16.1175 26.1468 16.1175C26.2206 16.1175 26.3 16.1065 26.3737 16.0847L34.8455 13.6753C35.0666 13.6152 35.2481 13.4622 35.3445 13.2546C35.4409 13.0524 35.4409 12.8175 35.3501 12.6153C32.9685 7.47958 28.1089 3.95011 22.3476 3.17429ZM26.4701 14.4456C25.5798 13.3256 24.389 12.4569 23.0394 11.9324V4.85707C27.5475 5.73124 31.3581 8.50127 33.4902 12.4514L26.4701 14.4456Z" fill="black"/>
<path d="M15.4181 18.8609C15.4181 21.2921 17.4708 23.2754 19.9999 23.2754C22.529 23.2754 24.5817 21.2976 24.5817 18.8609C24.5817 16.4296 22.529 14.4463 19.9999 14.4463C18.7751 14.4463 17.6296 14.9052 16.762 15.7412C15.8944 16.5716 15.4181 17.6807 15.4181 18.8609ZM17.8961 16.8339C18.4575 16.293 19.2003 15.9925 19.9999 15.9925C21.6387 15.9925 22.9769 17.2764 22.9769 18.8609C22.9769 20.4398 21.6443 21.7292 19.9999 21.7292C18.3611 21.7292 17.0229 20.4453 17.0229 18.8609C17.0229 18.096 17.3347 17.3748 17.8961 16.8339Z" fill="black"/>
<path d="M22.1662 32.0937C22.2739 32.4215 22.5914 32.6345 22.9317 32.6345C23.0111 32.6345 23.0904 32.6236 23.1755 32.5963C23.4987 32.498 31.1653 30.0831 33.3428 22.7127C33.4619 22.3029 33.218 21.8768 32.7927 21.7566C32.3618 21.6364 31.9252 21.8768 31.8004 22.2866C29.8667 28.8428 22.7672 31.0993 22.6935 31.1211C22.2626 31.2523 22.0301 31.6893 22.1662 32.0937Z" fill="black"/>
</svg>
