<svg width="24" height="24" viewBox="0 0 24 24" fill="none" xmlns="http://www.w3.org/2000/svg">
<g clip-path="url(#clip0_959_301)">
<path d="M23.2928 2.12131L16.7941 8.61905H13.6552C13.5455 8.61905 13.4402 8.66263 13.3626 8.74021C13.285 8.81778 13.2414 8.923 13.2414 9.03271V12.1707L12.8078 12.6042C12.1929 11.8522 10.7588 10.9231 10.7588 8.63312V4.06881C10.7588 3.9591 10.7152 3.85389 10.6376 3.77631C10.56 3.69874 10.4548 3.65515 10.345 3.65515H7.03485C6.92511 3.65515 6.81987 3.69874 6.74227 3.77631C6.66467 3.85389 6.62108 3.9591 6.62108 4.06881V8.63146C6.62108 12.1972 3.31091 12.0657 3.31091 16.0525V22.0985L0.121561 25.2862C0.0830279 25.3246 0.0524561 25.3702 0.0315967 25.4205C0.0107372 25.4707 0 25.5246 0 25.579C0 25.6334 0.0107372 25.6873 0.0315967 25.7376C0.0524561 25.7878 0.0830279 25.8335 0.121561 25.8719C0.776147 26.5255 0.669395 25.4938 23.8787 2.70705C23.9564 2.62938 24 2.52403 24 2.41418C24 2.30433 23.9564 2.19898 23.8787 2.12131C23.801 2.04364 23.6956 2 23.5857 2C23.4758 2 23.3705 2.04364 23.2928 2.12131ZM14.069 9.44637H15.9665L14.069 11.3434V9.44637Z" fill="#C13037"/>
<path d="M20.2755 8.61902H18.7917L17.9642 9.44633H19.8617V11.5146C19.8617 12.6034 16.5516 10.9843 16.5516 13.1693C16.5516 13.851 15.5312 13.4886 14.4827 13.5829C14.3986 13.5822 14.3167 13.5558 14.2479 13.5073C14.1792 13.4588 14.1268 13.3905 14.0979 13.3116L3.33984 24.0667C3.36878 24.1456 3.42112 24.2139 3.48987 24.2624C3.55862 24.3109 3.64052 24.3373 3.72465 24.338H20.2755C20.3852 24.338 20.4905 24.2944 20.5681 24.2169C20.6457 24.1393 20.6893 24.0341 20.6893 23.9244C20.6893 23.8147 20.6457 23.7094 20.5681 23.6319C20.4905 23.5543 20.3852 23.5107 20.2755 23.5107H17.3791V17.6773C18.2869 17.5777 19.1262 17.1473 19.7367 16.4684C20.3473 15.7895 20.6864 14.9095 20.6893 13.9966V9.03268C20.6893 8.92297 20.6457 8.81775 20.5681 8.74018C20.4905 8.6626 20.3852 8.61902 20.2755 8.61902ZM16.5516 23.5107H14.0689V16.3081C14.3722 16.6885 14.7477 17.0052 15.1737 17.2402C15.5997 17.4751 16.068 17.6237 16.5516 17.6773V23.5107Z" fill="#C13037"/>
</g>
<rect x="0.3" y="0.3" width="23.4" height="23.4" rx="11.7" stroke="#C13037" stroke-width="0.6"/>
<defs>
<clipPath id="clip0_959_301">
<rect width="24" height="24" rx="12" fill="white"/>
</clipPath>
</defs>
</svg>
