<svg id="Layer_1" data-name="Layer 1" xmlns="http://www.w3.org/2000/svg" viewBox="0 0 21.6 25"><defs><style>.cls-1{fill-rule:evenodd;}</style></defs><path class="cls-1" d="M22.4,17.6a2,2,0,0,0-1.1-1.7l-4.3-2h0a3.5,3.5,0,0,1-1.8-3.1h0a7.3,7.3,0,0,0,.9-2.4,2.5,2.5,0,0,0,.8-1.7,2.7,2.7,0,0,0-.7-1.7V4.5A4.6,4.6,0,0,0,11.6,0,4.5,4.5,0,0,0,7,4.5v.4a2.4,2.4,0,0,0-.8,1.7A3,3,0,0,0,7,8.3a9.6,9.6,0,0,0,1,2.5,3.4,3.4,0,0,1-1.9,3.1l-4.2,2A1.8,1.8,0,0,0,.8,17.6v4.8a.7.7,0,0,0,.6.7.7.7,0,0,0,.7-.7V17.6a.7.7,0,0,1,.3-.6h0l3.4-1.5V21a2.1,2.1,0,0,0-1.4,1.9A2.1,2.1,0,0,0,6.5,25a2.1,2.1,0,0,0,2.1-2.1A2,2,0,0,0,7,21V14.9l.5-.4,3,2a2,2,0,0,0,2.1,0l3-2.1.5.5v3.6a2.9,2.9,0,0,0-1.4.8,2.7,2.7,0,0,0-.9,2.1v2.3A1.3,1.3,0,0,0,15.1,25h.3c.2,0,.3-.6.2-1a.5.5,0,0,0-.5-.3H15V21.4a1.7,1.7,0,0,1,.5-1.2,2.1,2.1,0,0,1,1.3-.5h0a1.8,1.8,0,0,1,1.2.5,1.7,1.7,0,0,1,.5,1.2v2.3h0a.5.5,0,0,0-.5.5c0,.3,0,.8.4.8h.1a1.2,1.2,0,0,0,.9-.4,1.3,1.3,0,0,0,.4-.9V21.4a2.7,2.7,0,0,0-.9-2.1,2.8,2.8,0,0,0-1.5-.8v-3L20.7,17h0a.6.6,0,0,1,.4.6v4.8a.7.7,0,0,0,.6.7.7.7,0,0,0,.7-.7ZM7.3,22.9a.8.8,0,0,1-.8.8.7.7,0,0,1-.8-.8.8.8,0,0,1,.8-.8A.9.9,0,0,1,7.3,22.9Zm4.6-7.4h-.7L8.3,13.6a5.3,5.3,0,0,0,.8-1.5,3.6,3.6,0,0,0,2.3.9h.2a3.7,3.7,0,0,0,2.5-.9,5.9,5.9,0,0,0,.6,1.4Zm3-7.6a5.9,5.9,0,0,1-1.1,2.6,2.7,2.7,0,0,1-2.2,1.3,2.7,2.7,0,0,1-2.3-1.3A7.6,7.6,0,0,1,8.2,7.9c0-.1-.1-.2-.1-.3a1.4,1.4,0,0,1-.6-1,1.2,1.2,0,0,1,.4-.9h0A1.9,1.9,0,0,1,8.1,5c0-.2.1-.4.1-.6h0a3.5,3.5,0,0,1,3.4-3.2,4.2,4.2,0,0,1,1.5.4h0a3.9,3.9,0,0,1,1,.8h0a4.1,4.1,0,0,1,.8,1.9h0a3.4,3.4,0,0,1,.1,1v.4h0a1.1,1.1,0,0,1,.5,1,1.6,1.6,0,0,1-.5,1C15,7.7,14.9,7.8,14.9,7.9Z" transform="translate(-0.8)"/></svg>