<svg xmlns="http://www.w3.org/2000/svg" xmlns:xlink="http://www.w3.org/1999/xlink" version="1.1" x="0px" y="0px" viewBox="0 0 800 1000" style="enable-background:new 0 0 800 800;" xml:space="preserve"><rect x="229.5" y="356.4" width="293" height="64.5"/><rect x="229" y="232" width="146" height="64"/><rect x="229.5" y="481.3" width="293" height="64"/><rect x="228.5" y="606" width="293" height="64"/><path d="M610.6,709.2c0,8.1-6.6,14.7-14.7,14.7H156.4c-8.1,0-14.7-6.6-14.7-14.7V152.4c0-8.1,6.6-14.7,14.7-14.7h214.5  c3.3-10.2,7.5-20,12.4-29.3H156.4c-24.3,0-44,19.7-44,44v556.8c0,24.3,19.7,44,44,44H596c24.3,0,44-19.7,44-44v-344  c-9.3,4.9-19.1,9.1-29.3,12.4v331.6L610.6,709.2L610.6,709.2z"/><path d="M550.9,51.2c-80.9,0-146.5,65.6-146.5,146.5S470,344.2,550.9,344.2s146.5-65.6,146.5-146.5S631.9,51.2,550.9,51.2z   M558.8,277.9l-7.9,7.7l-7.9-7.7l-61.7-61.7l15.7-15.8l42.7,43V109.8h22v133.6l43-43l15.8,15.8L558.8,277.9z"/></svg>