<svg width="58" height="58" viewBox="0 0 58 58" fill="none" xmlns="http://www.w3.org/2000/svg">
<path d="M56.9999 0H39.3899C39.1247 0 38.8703 0.105357 38.6828 0.292893C38.4952 0.48043 38.3899 0.734784 38.3899 1V5C38.3899 5.26522 38.4952 5.51957 38.6828 5.70711C38.8703 5.89464 39.1247 6 39.3899 6H51.9999V18.43C51.9999 18.6952 52.1052 18.9496 52.2928 19.1371C52.4803 19.3246 52.7347 19.43 52.9999 19.43H56.9999C57.2651 19.43 57.5195 19.3246 57.707 19.1371C57.8945 18.9496 57.9999 18.6952 57.9999 18.43V1C57.9999 0.734784 57.8945 0.48043 57.707 0.292893C57.5195 0.105357 57.2651 0 56.9999 0Z" fill="black"/>
<path d="M1 19.43H5C5.26522 19.43 5.51957 19.3246 5.70711 19.1371C5.89464 18.9496 6 18.6952 6 18.43V6H18.61C18.8752 6 19.1296 5.89464 19.3171 5.70711C19.5046 5.51957 19.61 5.26522 19.61 5V1C19.61 0.734784 19.5046 0.48043 19.3171 0.292893C19.1296 0.105357 18.8752 0 18.61 0H1C0.734784 0 0.48043 0.105357 0.292893 0.292893C0.105357 0.48043 0 0.734784 0 1V18.43C0 18.6952 0.105357 18.9496 0.292893 19.1371C0.48043 19.3246 0.734784 19.43 1 19.43Z" fill="black"/>
<path d="M56.9999 38.21H52.9999C52.7347 38.21 52.4803 38.3153 52.2928 38.5029C52.1052 38.6904 51.9999 38.9447 51.9999 39.21V52H39.3899C39.1247 52 38.8703 52.1053 38.6828 52.2929C38.4952 52.4804 38.3899 52.7347 38.3899 53V57C38.3899 57.2652 38.4952 57.5195 38.6828 57.7071C38.8703 57.8946 39.1247 58 39.3899 58H56.9999C57.2651 58 57.5195 57.8946 57.707 57.7071C57.8945 57.5195 57.9999 57.2652 57.9999 57V39.21C57.9999 38.9447 57.8945 38.6904 57.707 38.5029C57.5195 38.3153 57.2651 38.21 56.9999 38.21Z" fill="black"/>
<path d="M18.61 52H6V39.21C6 38.9447 5.89464 38.6904 5.70711 38.5029C5.51957 38.3153 5.26522 38.21 5 38.21H1C0.734784 38.21 0.48043 38.3153 0.292893 38.5029C0.105357 38.6904 0 38.9447 0 39.21V57C0 57.2652 0.105357 57.5195 0.292893 57.7071C0.48043 57.8946 0.734784 58 1 58H18.61C18.8752 58 19.1296 57.8946 19.3171 57.7071C19.5046 57.5195 19.61 57.2652 19.61 57V53C19.61 52.7347 19.5046 52.4804 19.3171 52.2929C19.1296 52.1053 18.8752 52 18.61 52Z" fill="black"/>
<path d="M24.93 44H15.41L44 15.41V24.93C44 25.1952 44.1054 25.4496 44.2929 25.6371C44.4804 25.8246 44.7348 25.93 45 25.93C45.2652 25.93 45.5196 25.8246 45.7071 25.6371C45.8946 25.4496 46 25.1952 46 24.93V13C46 12.7617 45.9149 12.5311 45.76 12.35C45.7149 12.2983 45.6647 12.2514 45.61 12.21C45.4547 12.0882 45.2668 12.0152 45.07 12H33.07C32.8048 12 32.5504 12.1054 32.3629 12.2929C32.1754 12.4804 32.07 12.7348 32.07 13C32.07 13.2652 32.1754 13.5196 32.3629 13.7071C32.5504 13.8946 32.8048 14 33.07 14H42.59L14 42.59V33.07C14 32.8048 13.8946 32.5504 13.7071 32.3629C13.5196 32.1754 13.2652 32.07 13 32.07C12.7348 32.07 12.4804 32.1754 12.2929 32.3629C12.1054 32.5504 12 32.8048 12 33.07V45C12 45.2383 12.0851 45.4689 12.24 45.65C12.2851 45.7017 12.3353 45.7486 12.39 45.79C12.5453 45.9118 12.7332 45.9848 12.93 46H24.93C25.1952 46 25.4496 45.8946 25.6371 45.7071C25.8246 45.5196 25.93 45.2652 25.93 45C25.93 44.7348 25.8246 44.4804 25.6371 44.2929C25.4496 44.1054 25.1952 44 24.93 44Z" fill="black"/>
</svg>
