<svg width="33" height="33" viewBox="0 0 33 33" fill="none" xmlns="http://www.w3.org/2000/svg">
<path d="M21.4346 3.51236H0.984237H0.98264C0.450603 3.51236 0.0192233 3.94799 0.0192233 4.48328C0.0192233 5.02019 0.450603 5.45581 0.984235 5.45581L21.4346 5.45421C21.9682 5.45421 22.4012 5.02018 22.3996 4.48328C22.3996 3.94638 21.9682 3.51236 21.4346 3.51236ZM28.0233 0H28.0217C25.5613 0 23.5672 2.00774 23.5672 4.48345C23.5672 6.96056 25.5627 8.96813 28.0233 8.96813C30.4853 8.96813 32.4807 6.96039 32.4807 4.48345C32.4807 2.00794 30.4851 0 28.0233 0ZM0.984237 15.2775H0.98264C0.450603 15.2775 0.0192233 15.7131 0.0192233 16.2484C0.0192233 16.7853 0.450603 17.2209 0.984235 17.2209H2.52758C3.06121 17.2209 3.49419 16.7853 3.49419 16.2484C3.49419 15.7131 3.06121 15.2775 2.52758 15.2775H0.984237ZM31.5146 15.2775H15.7903C15.2583 15.2775 14.8253 15.7131 14.8253 16.25C14.8253 16.7853 15.2583 17.2209 15.7903 17.2209H31.5146C32.0482 17.2209 32.4812 16.7853 32.4812 16.2484C32.4812 15.7115 32.0482 15.2775 31.5146 15.2775ZM8.96315 11.7651V11.7667C6.50272 11.7667 4.50702 13.7729 4.50702 16.2502C4.50702 18.7257 6.50252 20.7336 8.96315 20.7336C11.4252 20.7336 13.4205 18.7259 13.4205 16.2502C13.4205 13.7731 11.425 11.7651 8.96315 11.7651ZM0.965014 27.0442H0.963416C0.43138 27.0442 0 27.4782 0 28.0152C0 28.5521 0.43138 28.9861 0.965011 28.9861L17.0488 28.9877C17.5808 28.9877 18.0138 28.5521 18.0138 28.0152C18.0138 27.4783 17.5808 27.0442 17.0488 27.0442L0.965014 27.0442ZM31.5334 27.0442H30.5364C30.0044 27.0442 29.5714 27.4782 29.5714 28.0152C29.5714 28.5521 30.0044 28.9877 30.5364 28.9877H31.5334C32.067 28.9861 32.5 28.5521 32.5 28.0152C32.5 27.4782 32.067 27.0442 31.5334 27.0442ZM23.6535 23.5319H23.6519C21.1914 23.5319 19.1957 25.5396 19.1957 28.0153C19.1957 30.4924 21.1912 32.5 23.6531 32.5C26.1135 32.5 28.1092 30.4923 28.1092 28.0153C28.1092 25.5382 26.1141 23.5319 23.6535 23.5319Z" fill="#555"/>
</svg>
