<svg width="15" height="18" viewBox="0 0 15 18" fill="none" xmlns="http://www.w3.org/2000/svg">
<path fill-rule="evenodd" clip-rule="evenodd" d="M8.807 0C9.216 0 9.5945 0.3915 9.5945 0.7995V7.9995H10.133C11.0455 7.9995 11.728 8.688 11.728 9.5995V14.3995C11.728 15.191 12.1405 15.6265 12.88 15.6265C13.6195 15.6265 14.0265 15.191 14.0265 14.3995C14.0265 14.0035 13.8145 13.686 13.5695 13.318C13.2835 12.889 12.96 12.4035 12.96 11.733L12.9596 5.71742C12.956 5.28189 12.92 4.94705 12.5595 4.5875L10.774 2.802L11.415 2.161L13.2 3.9455C13.866 4.6115 13.861 5.307 13.861 5.8665V11.733C13.861 12.1285 14.0785 12.4475 14.3235 12.815C14.6095 13.2435 14.933 13.7285 14.933 14.3995C14.933 15.6755 14.108 16.5275 12.88 16.5275C11.6325 16.5275 10.827 15.695 10.827 14.3995V9.5995C10.827 9.1915 10.5415 8.907 10.133 8.907L9.5945 8.906V15.733L10.128 16.159V17.066H0V16.159L0.5335 15.733V0.7995C0.5335 0.389 0.9245 0 1.3345 0H8.807ZM8.693 0.906H1.44V6.559H8.693V0.906Z" fill="#921010"/>
</svg>
