<svg width="63" height="57" viewBox="0 0 63 57" fill="none" xmlns="http://www.w3.org/2000/svg">
<path d="M2.11021 0.446486H12.1276C13.1333 0.446486 13.9483 1.28875 13.9483 2.32808V13.1618C13.9483 14.2011 13.1333 15.0408 12.1276 15.0408H2.11021C1.10454 15.0408 0.289551 14.1986 0.289551 13.1618V2.32808C0.289551 1.28875 1.10454 0.446486 2.11021 0.446486ZM2.11021 41.8519H12.1276C13.1333 41.8519 13.9483 42.6942 13.9483 43.731V54.5647C13.9483 55.604 13.1333 56.4463 12.1276 56.4463H2.11021C1.10454 56.4463 0.289551 55.604 0.289551 54.5647V43.731C0.289551 42.6917 1.10454 41.8519 2.11021 41.8519ZM10.307 45.6126H3.93081V52.6832H10.307V45.6126ZM21.677 41.8519H60.5843C61.59 41.8519 62.405 42.6942 62.405 43.731V54.5647C62.405 55.604 61.59 56.4463 60.5843 56.4463H21.677C20.6714 56.4463 19.8564 55.604 19.8564 54.5647V43.731C19.8564 42.6917 20.6714 41.8519 21.677 41.8519ZM2.11085 21.1492H12.1283C13.1339 21.1492 13.9489 21.9915 13.9489 23.0308V33.8619C13.9489 34.9012 13.1339 35.7435 12.1283 35.7435H2.11085C1.10517 35.7435 0.290185 34.9012 0.290185 33.8619V23.0308C0.290185 21.9915 1.10517 21.1492 2.11085 21.1492ZM10.3077 24.9098H3.93144V31.9831H10.3077V24.9098ZM21.6777 21.1492H60.5849C61.5906 21.1492 62.4056 21.9915 62.4056 23.0308V33.8619C62.4056 34.9012 61.5906 35.7435 60.5849 35.7435H21.6777C20.672 35.7435 19.857 34.9012 19.857 33.8619V23.0308C19.857 21.9915 20.672 21.1492 21.6777 21.1492ZM10.3077 4.20692H3.93144V11.2776H10.3077V4.20692ZM21.6777 0.446289H60.5849C61.5906 0.446289 62.4056 1.28855 62.4056 2.32789V13.1616C62.4056 14.2009 61.5906 15.0406 60.5849 15.0406H21.6777C20.672 15.0406 19.857 14.1984 19.857 13.1616V2.32789C19.857 1.28855 20.672 0.446289 21.6777 0.446289Z" fill="#444"/>
</svg>
