<svg width="46" height="46" viewBox="0 0 46 46" fill="none" xmlns="http://www.w3.org/2000/svg">
<path d="M43.0776 15.5214C42.2069 15.772 41.7017 16.6817 41.9502 17.5545C42.4574 19.3267 42.7141 21.1585 42.7141 23.0004C42.7141 26.8427 41.5928 30.4198 39.683 33.4553C37.9621 32.8721 35.9866 33.2479 34.6169 34.6176C33.2471 35.9874 32.8734 37.9629 33.4546 39.6838C30.4194 41.5937 26.8421 42.7149 22.9997 42.7149C12.1279 42.7149 3.28532 33.8723 3.28532 23.0005C3.28532 19.1582 4.40657 15.5811 6.31639 12.5456C6.82978 12.7181 7.36167 12.8248 7.89763 12.8248C9.16056 12.8248 10.4215 12.3443 11.3825 11.3832C12.7523 10.0135 13.126 8.03793 12.5449 6.31705C15.58 4.40722 19.1573 3.28597 22.9998 3.28597C24.8418 3.28597 26.6736 3.54267 28.4456 4.04989C30.0125 4.50168 31.5671 5.17524 33.0334 6.03363C33.9924 6.62301 34.8631 7.28836 35.6886 7.98657L32.2099 11.4653C31.6842 11.0444 31.1317 10.646 30.5321 10.2784C29.4211 9.62943 28.2609 9.12632 27.078 8.78545C25.7473 8.40759 24.3755 8.21457 22.9996 8.21457C14.8468 8.21457 8.21385 14.8475 8.21385 23.0004C8.21385 31.1532 14.8468 37.7862 22.9996 37.7862C31.1524 37.7862 37.7853 31.1532 37.7853 23.0004C37.7853 21.6245 37.5923 20.2527 37.2145 18.9199C36.966 18.0451 36.0501 17.5379 35.1855 17.7884C34.3127 18.0369 33.8055 18.9446 34.054 19.8174C34.3497 20.8585 34.4997 21.9284 34.4997 23.0004C34.4997 29.3416 29.3411 34.5005 22.9996 34.5005C16.6582 34.5005 11.4996 29.3419 11.4996 23.0004C11.4996 16.659 16.6582 11.5004 22.9996 11.5004C24.0716 11.5004 25.1415 11.6503 26.1745 11.9439C27.0883 12.2068 27.996 12.6011 28.8441 13.098C29.2035 13.3178 29.5403 13.5601 29.8688 13.8086L21.8375 21.84C21.1967 22.4807 21.1967 23.5219 21.8375 24.1626C22.1599 24.483 22.5788 24.6431 22.9998 24.6431C23.4207 24.6431 23.8397 24.483 24.1621 24.1626L39.2601 9.06452C39.9009 8.42378 39.9009 7.38265 39.2601 6.7419C37.8883 5.48512 36.4426 4.2427 34.7238 3.21797C32.9926 2.20144 31.1854 1.41902 29.3515 0.891248C27.2835 0.299816 25.1458 0 22.9998 0C18.3895 0 14.0994 1.37796 10.4956 3.72313C8.59403 2.54027 6.06402 2.76412 4.41312 4.41313C2.76411 6.06215 2.54026 8.59422 3.72312 10.4957C1.37795 14.0997 0 18.3899 0 22.9999C0 35.6828 10.3172 46 23.0001 46C27.6103 46 31.9004 44.622 35.5042 42.2769C36.2969 42.7697 37.1964 43.0264 38.102 43.0264C39.3649 43.0264 40.6258 42.5459 41.5869 41.5848C43.2359 39.9358 43.4597 37.4037 42.2769 35.5023C44.622 31.9003 46 27.6102 46 23.0002C46 20.8542 45.7002 18.7164 45.1088 16.6485C44.8603 15.7757 43.9421 15.2811 43.0776 15.5214ZM7.89774 6.25777C8.31872 6.25777 8.73767 6.4159 9.06004 6.73831C9.70079 7.37905 9.70079 8.42223 9.06004 9.06093C8.4193 9.70167 7.37818 9.70167 6.73743 9.06093C6.09669 8.42018 6.09669 7.377 6.73743 6.73831C7.05779 6.4159 7.47675 6.25777 7.89774 6.25777ZM36.9393 39.2649C36.2986 38.6242 36.2986 37.581 36.9393 36.9423C37.2597 36.6219 37.6807 36.4618 38.1016 36.4618C38.5226 36.4618 38.9416 36.6199 39.2639 36.9423C39.9047 37.5831 39.9047 38.6262 39.2639 39.2649C38.6211 39.9057 37.5821 39.9057 36.9393 39.2649Z" fill="black"/>
</svg>
