<svg width="22" height="22" viewBox="0 0 22 22" fill="none" xmlns="http://www.w3.org/2000/svg">
<path d="M2.52216 5.85369C2.16071 6.82009 1.96429 7.85724 1.96429 8.94938C1.96429 12.54 6.48214 18.1579 9.17714 21.1828C9.64073 21.7014 10.3007 22 11 22C11.6993 22 12.3593 21.7014 12.8229 21.1828C13.5064 20.4129 14.3157 19.4779 15.1171 18.4486L11.11 14.4415C11.0707 14.4493 11.0393 14.4493 11 14.4493C7.94356 14.4493 5.45286 11.9822 5.45286 8.94938C5.45286 8.89438 5.45286 8.83937 5.46072 8.79223L2.52216 5.85369Z" fill="#DC2625"/>
<path d="M17.0031 15.892C17.3069 15.4532 17.6158 15.0174 17.8986 14.567C19.1321 12.5635 20.0357 10.5599 20.0357 8.94924C20.0357 4.01496 15.9814 0 11 0C8.85502 0 6.88286 0.746433 5.32717 1.99568C4.91345 2.32035 4.54682 2.69498 4.20058 3.08951L1.34124 0.230188C1.03432 -0.0767294 0.537109 -0.0767294 0.23019 0.230188C-0.0767299 0.537106 -0.0767299 1.03431 0.23019 1.34123L20.6588 21.7697C20.8122 21.9231 21.0133 21.9999 21.2143 21.9999C21.4153 21.9999 21.6164 21.9231 21.7698 21.7697C22.0767 21.4628 22.0767 20.9655 21.7698 20.6586L17.0031 15.892ZM15.4943 12.1628C15.1867 12.5902 14.8122 12.9636 14.3939 13.2827L6.65613 5.54504C6.98559 5.13377 7.36847 4.76849 7.80214 4.47069C8.70573 3.8264 9.81356 3.44927 11 3.44927C14.0564 3.44927 16.5471 5.91636 16.5471 8.94924C16.5471 10.1513 16.1621 11.2592 15.4943 12.1628Z" fill="#DC2625"/>
</svg>
