<svg width="89" height="71" viewBox="0 0 89 71" fill="none" xmlns="http://www.w3.org/2000/svg">
<path d="M69.166 26.625V14.5C69.166 10.364 65.802 7 61.666 7H46.606L38.605 0H7.5C3.364 0 0 3.364 0 7.5V45.668C0 49.804 3.364 53.168 7.5 53.168H45.378C47.556 62.979 56.321 70.34 66.778 70.34C78.867 70.34 88.702 60.505 88.702 48.416C88.702 37.135 80.135 27.819 69.166 26.625ZM44.861 48.168H7.501C6.122 48.168 5.001 47.047 5.001 45.668V7.5C5.001 6.121 6.122 5 7.501 5H36.727L44.728 12H61.667C63.046 12 64.167 13.121 64.167 14.5V26.653C53.385 27.94 44.985 37.075 44.861 48.168ZM66.778 65.34C57.446 65.34 49.854 57.748 49.854 48.416C49.854 39.084 57.446 31.492 66.778 31.492C76.11 31.492 83.702 39.084 83.702 48.416C83.702 57.748 76.11 65.34 66.778 65.34ZM66.666 36.281C65.285 36.281 64.166 37.4 64.166 38.781V49.114C64.166 50.495 65.285 51.614 66.666 51.614C68.047 51.614 69.166 50.495 69.166 49.114V38.781C69.166 37.4 68.047 36.281 66.666 36.281ZM66.666 54.114C65.285 54.114 64.166 55.233 64.166 56.614V56.781C64.166 58.162 65.285 59.281 66.666 59.281C68.047 59.281 69.166 58.162 69.166 56.781V56.614C69.166 55.233 68.047 54.114 66.666 54.114Z" fill="#4FB090"/>
</svg>
