<svg width="31" height="40" viewBox="0 0 31 40" fill="none" xmlns="http://www.w3.org/2000/svg">
<path d="M1.82295 0H8.48968C9.49662 0 10.3126 1.00694 10.3126 1.82295V38.177C10.3126 39.184 9.49664 40 8.48968 40H1.82295C0.816008 40 0 38.9931 0 38.177V1.82295C0 0.816007 0.815981 0 1.82295 0Z" fill="#468B83"/>
<path d="M21.8444 0H28.5112C29.5181 0 30.3341 1.00694 30.3341 1.82295V38.177C30.3341 39.184 29.5181 40 28.5112 40H21.8444C20.8375 40 20.0215 38.9931 20.0215 38.177V1.82295C20.0215 0.816007 20.8375 0 21.8444 0Z" fill="#468B83"/>
</svg>
