<svg width="22" height="22" viewBox="0 0 22 22" fill="none" xmlns="http://www.w3.org/2000/svg">
<g clip-path="url(#clip0_231_13)">
<path d="M13.6889 27.9905C13.3093 28.3836 12.7227 28.3836 12.3776 27.9905L10.4798 25.9895C9.58265 25.0604 8.09888 25.0604 7.16722 25.9895L7.13271 26.0252C5.44191 27.7761 2.71592 27.7046 1.09413 25.918C-0.458644 24.1671 -0.32062 21.4871 1.26666 19.8077L2.64691 18.3784C1.43919 16.5203 1.64623 13.9475 3.23352 12.3038L4.88981 10.5887C5.13135 10.3385 5.51092 10.3385 5.75247 10.5887L6.58061 11.4462L8.68549 9.26655C9.03055 8.90922 9.65166 8.90922 9.99672 9.33801C10.2728 9.69534 10.2383 10.2313 9.92771 10.5887L7.85734 12.7326L9.47913 14.4121L11.584 12.2324C11.9291 11.875 12.5502 11.875 12.8952 12.3038C13.1713 12.6612 13.1368 13.1971 12.8262 13.5545L10.7559 15.6984L11.584 16.556C11.8256 16.8062 11.8256 17.1992 11.584 17.4493L9.92771 19.1645C8.34043 20.8082 5.85598 21.0226 4.06166 19.772L2.5779 21.3085C1.61173 22.309 1.68074 24.0242 2.78494 24.9175C3.7166 25.6679 5.06234 25.5249 5.925 24.6316C7.54679 22.9522 10.1693 22.9522 11.791 24.6316L13.7234 26.6327C14.0685 26.99 14.0685 27.5974 13.6889 27.9905ZM15.2417 10.5529L16.0698 11.4105C16.3114 11.6606 16.6909 11.6606 16.9325 11.4105L18.5888 9.69534C20.176 8.05163 20.3831 5.47887 19.1754 3.62077L20.5556 2.19146C22.1774 0.512023 22.2809 -2.16793 20.7281 -3.91884C19.1409 -5.77694 16.3804 -5.81267 14.7241 -4.06177L14.6896 -4.02604C13.7924 -3.09699 12.3086 -3.09699 11.377 -4.02604L9.47913 -5.99134C9.09956 -6.3844 8.51296 -6.3844 8.1679 -5.99134C7.78833 -5.59828 7.78833 -4.99082 8.1679 -4.63349L10.1002 -2.63246C11.722 -0.953021 14.3445 -0.953021 15.9663 -2.63246C16.8289 -3.49005 18.1747 -3.66871 19.1064 -2.91832C20.2451 -2.025 20.3141 -0.30983 19.3134 0.690687L17.8296 2.22719C16.0353 0.976549 13.5509 1.19094 11.9636 2.83465L10.3073 4.54982C10.0657 4.79995 10.0657 5.19301 10.3073 5.44314L11.1354 6.30073L15.2417 10.5529Z" fill="#DC2625"/>
</g>
<defs>
<clipPath id="clip0_231_13">
<rect width="22" height="22" fill="white"/>
</clipPath>
</defs>
</svg>
