<svg xmlns="http://www.w3.org/2000/svg" version="1.1" viewBox="-5.0 -10.0 110.0 135.0">
 <g>
  <path  d="m75.898 50c-1.6992 0-3.1016 1.3984-3.1016 3.1016v23.5c0 2.6016-2.1016 4.8008-4.8008 4.8008l-47.098-0.003906c-2.6016 0-4.8008-2.1016-4.8008-4.8008l0.003906-46.996c0-2.6016 2.1016-4.8008 4.8008-4.8008h23.5c1.6992 0 3.1016-1.3984 3.1016-3.1016 0-1.6992-1.3984-3.1016-3.1016-3.1016l-23.504 0.003906c-6 0-10.898 4.8984-10.898 10.898v47.102c0 6 4.8984 10.898 10.898 10.898h47.102c6 0 10.898-4.8984 10.898-10.898v-23.5c0.10156-1.7031-1.2969-3.1016-3-3.1016z" fill='#4B5563'/>
  <path d="m44.5 41.199c-3.8984 8.1992-4.3984 17.5-1.5 26.301 0.19922-5.1016 1.3984-10 3.6992-14.699 4.3008-9 11.801-15.699 21.301-19 0.69922-0.19922 1.3008 0.19922 1.5 0.69922l3.6992 10.5 16.801-24.102-28.102-8.5 3.3008 9.5c0.19922 0.69922 0 1.3984-0.69922 1.6016-8.8984 3.1016-15.898 9.3984-20 17.699z" fill='#4B5563'/>
 </g></svg>