<svg width="56" height="56" viewBox="0 0 56 56" fill="none" xmlns="http://www.w3.org/2000/svg">
<circle cx="28" cy="28" r="28" fill="#F28300"/>
<path d="M36.9697 13.5586C36.9302 13.2509 36.6844 13 36.375 13C36.0656 13 35.8182 13.2509 35.7803 13.5586C35.5277 15.5867 33.9206 17.1937 31.8926 17.4463C31.5849 17.4842 31.3323 17.7317 31.3323 18.041C31.3323 18.3504 31.5849 18.5979 31.8926 18.6357C33.9207 18.8884 35.5277 20.4954 35.7803 22.5235C35.8182 22.8312 36.0656 23.0821 36.375 23.0821C36.6844 23.0821 36.9302 22.8312 36.9697 22.5235C37.2224 20.4954 38.8294 18.8884 40.8575 18.6357C41.1634 18.5979 41.4161 18.3504 41.4161 18.041C41.4161 17.7317 41.1634 17.4842 40.8575 17.4463C38.8294 17.1937 37.2224 15.5867 36.9697 13.5586Z" fill="white"/>
<path d="M43.1793 22.5716C43.1433 22.3499 42.9645 22.166 42.7394 22.166C42.5142 22.166 42.3354 22.3499 42.3028 22.5716C42.1258 23.7661 41.1822 24.7098 39.9894 24.8868C39.7659 24.9194 39.582 25.0982 39.582 25.3233C39.582 25.5485 39.7659 25.7272 39.9877 25.7633C41.1839 25.9541 42.1275 26.9682 42.3028 28.1764C42.3354 28.3999 42.5142 28.5821 42.7394 28.5821C42.9645 28.5821 43.145 28.3999 43.1759 28.1764C43.3547 26.9269 44.3429 25.937 45.5925 25.7599C45.8159 25.7272 45.9998 25.5485 45.9998 25.3233C45.9998 25.0982 45.8159 24.9194 45.5925 24.8868C44.3842 24.7115 43.3701 23.7661 43.1793 22.5716Z" fill="white"/>
<path fill-rule="evenodd" clip-rule="evenodd" d="M13 16.6661C13 14.6414 14.6414 13 16.6661 13H27.666C28.6783 13 29.4999 13.8198 29.4999 14.8322C29.4999 15.8445 28.6783 16.6661 27.666 16.6661H17.5821C17.0768 16.6661 16.6661 17.0769 16.6661 17.5822V39.582C16.6661 40.089 17.0768 40.4998 17.5821 40.4998H34.9998C35.5051 40.4998 35.9159 40.089 35.9159 39.582V32.2499C35.9159 31.2376 36.7375 30.416 37.7498 30.416C38.7622 30.416 39.582 31.2376 39.582 32.2499V40.4999C39.582 42.5245 37.9406 44.1659 35.916 44.1659H16.6661C14.6414 44.1659 13 42.5245 13 40.4999L13 16.6661Z" fill="white"/>
<path fill-rule="evenodd" clip-rule="evenodd" d="M32.707 25.3739C32.707 26.3863 31.8872 27.2061 30.8749 27.2061H21.2499C20.2376 27.2061 19.416 26.3863 19.416 25.3739C19.416 24.3616 20.2376 23.54 21.2499 23.54H30.8749C31.8872 23.54 32.707 24.3616 32.707 25.3739Z" fill="white"/>
<path fill-rule="evenodd" clip-rule="evenodd" d="M29.4999 32.2499C29.4999 33.2623 28.6783 34.0821 27.666 34.0821H21.2499C20.2376 34.0821 19.416 33.2623 19.416 32.2499C19.416 31.2376 20.2376 30.416 21.2499 30.416H27.666C28.6783 30.416 29.4999 31.2376 29.4999 32.2499Z" fill="white"/>
</svg>
