<svg width="56" height="56" viewBox="0 0 56 56" fill="none" xmlns="http://www.w3.org/2000/svg">
<g filter="url(#filter0_i_135_43)">
<circle cx="28" cy="28" r="28" fill="#068AF2"/>
</g>
<path fill-rule="evenodd" clip-rule="evenodd" d="M40.7282 15.2726C36.7704 11.3164 31.1986 9.42422 25.6502 10.1538C20.1034 10.885 15.2094 14.1538 12.411 19.0005C9.61416 23.8457 9.22824 29.7176 11.3704 34.888C13.511 40.0583 17.936 43.9379 23.3408 45.3863C28.7472 46.8347 34.5172 45.6878 38.958 42.2801C43.3972 38.8738 46 33.5957 46 28.0006C46.0062 23.2254 44.1096 18.6441 40.7282 15.2726ZM39.6158 16.385C43.2282 19.9959 44.9549 25.0817 44.2877 30.1457C43.6221 35.2096 40.6377 39.6752 36.2141 42.2284C31.7922 44.783 26.433 45.1346 21.7142 43.1799C16.9954 41.2253 13.4534 37.188 12.1314 32.2536C10.8095 27.3209 11.8579 22.0521 14.9657 18.0006C18.0751 13.949 22.8921 11.5742 28.0001 11.5742C32.3581 11.568 36.5394 13.2993 39.6158 16.385ZM28.0002 10.7099C33.3754 10.7099 38.4453 13.2099 41.7173 17.4738C44.9908 21.7394 46.0925 27.2829 44.7017 32.4753C43.3095 37.6672 39.5829 41.9172 34.6173 43.9752C29.6501 46.0314 24.0093 45.6611 19.3549 42.9736C14.6985 40.2861 11.5581 35.5861 10.8565 30.2565C10.1549 24.927 11.9722 19.5754 15.7737 15.7739C19.0128 12.5255 23.413 10.7035 28.0002 10.7099ZM31.0002 31.2957V31.3035C31.0002 32.9597 29.6564 34.3035 28.0002 34.3035C26.3439 34.3035 25.0002 32.9597 25.0002 31.3035V31.2957L24.2767 17.8958C24.2705 17.8333 24.2658 17.7677 24.2611 17.6989C24.2564 17.6193 24.2548 17.5505 24.2548 17.4958C24.2548 15.4271 25.9314 13.7521 27.9986 13.7521C30.0674 13.7521 31.7439 15.4271 31.7439 17.4958C31.7439 17.5505 31.7408 17.6193 31.7377 17.6989C31.733 17.7677 31.7283 17.8333 31.722 17.8958L31.0002 31.2957ZM28.0002 34.6956C29.8017 34.6956 31.3517 35.9691 31.7033 37.7347C32.0548 39.5019 31.1095 41.2706 29.4455 41.9611C27.7814 42.6501 25.8627 42.0673 24.8611 40.5704C23.8595 39.072 24.0564 37.0767 25.3298 35.8017C26.0376 35.0923 26.9986 34.6956 28.0002 34.6956Z" fill="white"/>
<defs>
<filter id="filter0_i_135_43" x="0" y="0" width="56" height="60" filterUnits="userSpaceOnUse" color-interpolation-filters="sRGB">
<feFlood flood-opacity="0" result="BackgroundImageFix"/>
<feBlend mode="normal" in="SourceGraphic" in2="BackgroundImageFix" result="shape"/>
<feColorMatrix in="SourceAlpha" type="matrix" values="0 0 0 0 0 0 0 0 0 0 0 0 0 0 0 0 0 0 127 0" result="hardAlpha"/>
<feOffset dy="4"/>
<feGaussianBlur stdDeviation="15"/>
<feComposite in2="hardAlpha" operator="arithmetic" k2="-1" k3="1"/>
<feColorMatrix type="matrix" values="0 0 0 0 0 0 0 0 0 0 0 0 0 0 0 0 0 0 0.15 0"/>
<feBlend mode="normal" in2="shape" result="effect1_innerShadow_135_43"/>
</filter>
</defs>
</svg>
