<svg width="56" height="56" viewBox="0 0 56 56" fill="none" xmlns="http://www.w3.org/2000/svg">
<circle cx="28" cy="28" r="28" fill="#F28300"/>
<path d="M36.4472 15.8047H33.5489C33.2043 15.8047 32.9223 16.0867 32.9223 16.4313C32.9223 16.776 33.2043 17.058 33.5489 17.058H36.4472C36.7918 17.058 37.0738 16.776 37.0738 16.4313C37.0738 16.0867 36.7918 15.8047 36.4472 15.8047ZM36.4472 18.6481H33.5489C33.2043 18.6481 32.9223 18.9301 32.9223 19.2747C32.9223 19.6194 33.2043 19.9014 33.5489 19.9014H36.4472C36.7918 19.9014 37.0738 19.6194 37.0738 19.2747C37.0738 18.9301 36.7918 18.6481 36.4472 18.6481ZM36.4472 22.8858H20.6401C20.2954 22.8858 20.0134 23.1678 20.0134 23.5124C20.0134 23.8571 20.2954 24.1391 20.6401 24.1391H36.4393C36.784 24.1391 37.066 23.8571 37.066 23.5124C37.0738 23.1678 36.7918 22.8858 36.4472 22.8858ZM36.4472 22.8858H20.6401C20.2954 22.8858 20.0134 23.1678 20.0134 23.5124C20.0134 23.8571 20.2954 24.1391 20.6401 24.1391H36.4393C36.784 24.1391 37.066 23.8571 37.066 23.5124C37.0738 23.1678 36.7918 22.8858 36.4472 22.8858ZM36.4472 18.6481H33.5489C33.2043 18.6481 32.9223 18.9301 32.9223 19.2747C32.9223 19.6194 33.2043 19.9014 33.5489 19.9014H36.4472C36.7918 19.9014 37.0738 19.6194 37.0738 19.2747C37.0738 18.9301 36.7918 18.6481 36.4472 18.6481ZM36.4472 15.8047H33.5489C33.2043 15.8047 32.9223 16.0867 32.9223 16.4313C32.9223 16.776 33.2043 17.058 33.5489 17.058H36.4472C36.7918 17.058 37.0738 16.776 37.0738 16.4313C37.0738 16.0867 36.7918 15.8047 36.4472 15.8047ZM33.5489 17.058H36.4472C36.7918 17.058 37.0738 16.776 37.0738 16.4313C37.0738 16.0867 36.7918 15.8047 36.4472 15.8047H33.5489C33.2043 15.8047 32.9223 16.0867 32.9223 16.4313C32.9223 16.776 33.2043 17.058 33.5489 17.058ZM36.4472 18.6481H33.5489C33.2043 18.6481 32.9223 18.9301 32.9223 19.2747C32.9223 19.6194 33.2043 19.9014 33.5489 19.9014H36.4472C36.7918 19.9014 37.0738 19.6194 37.0738 19.2747C37.0738 18.9301 36.7918 18.6481 36.4472 18.6481ZM36.4472 22.8858H20.6401C20.2954 22.8858 20.0134 23.1678 20.0134 23.5124C20.0134 23.8571 20.2954 24.1391 20.6401 24.1391H36.4393C36.784 24.1391 37.066 23.8571 37.066 23.5124C37.0738 23.1678 36.7918 22.8858 36.4472 22.8858ZM33.5489 17.058H36.4472C36.7918 17.058 37.0738 16.776 37.0738 16.4313C37.0738 16.0867 36.7918 15.8047 36.4472 15.8047H33.5489C33.2043 15.8047 32.9223 16.0867 32.9223 16.4313C32.9223 16.776 33.2043 17.058 33.5489 17.058ZM36.4472 18.6481H33.5489C33.2043 18.6481 32.9223 18.9301 32.9223 19.2747C32.9223 19.6194 33.2043 19.9014 33.5489 19.9014H36.4472C36.7918 19.9014 37.0738 19.6194 37.0738 19.2747C37.0738 18.9301 36.7918 18.6481 36.4472 18.6481ZM36.4472 22.8858H20.6401C20.2954 22.8858 20.0134 23.1678 20.0134 23.5124C20.0134 23.8571 20.2954 24.1391 20.6401 24.1391H36.4393C36.784 24.1391 37.066 23.8571 37.066 23.5124C37.0738 23.1678 36.7918 22.8858 36.4472 22.8858ZM36.4472 22.8858H20.6401C20.2954 22.8858 20.0134 23.1678 20.0134 23.5124C20.0134 23.8571 20.2954 24.1391 20.6401 24.1391H36.4393C36.784 24.1391 37.066 23.8571 37.066 23.5124C37.0738 23.1678 36.7918 22.8858 36.4472 22.8858ZM36.4472 18.6481H33.5489C33.2043 18.6481 32.9223 18.9301 32.9223 19.2747C32.9223 19.6194 33.2043 19.9014 33.5489 19.9014H36.4472C36.7918 19.9014 37.0738 19.6194 37.0738 19.2747C37.0738 18.9301 36.7918 18.6481 36.4472 18.6481ZM36.4472 15.8047H33.5489C33.2043 15.8047 32.9223 16.0867 32.9223 16.4313C32.9223 16.776 33.2043 17.058 33.5489 17.058H36.4472C36.7918 17.058 37.0738 16.776 37.0738 16.4313C37.0738 16.0867 36.7918 15.8047 36.4472 15.8047ZM36.4472 15.8047H33.5489C33.2043 15.8047 32.9223 16.0867 32.9223 16.4313C32.9223 16.776 33.2043 17.058 33.5489 17.058H36.4472C36.7918 17.058 37.0738 16.776 37.0738 16.4313C37.0738 16.0867 36.7918 15.8047 36.4472 15.8047ZM36.4472 18.6481H33.5489C33.2043 18.6481 32.9223 18.9301 32.9223 19.2747C32.9223 19.6194 33.2043 19.9014 33.5489 19.9014H36.4472C36.7918 19.9014 37.0738 19.6194 37.0738 19.2747C37.0738 18.9301 36.7918 18.6481 36.4472 18.6481ZM36.4472 22.8858H20.6401C20.2954 22.8858 20.0134 23.1678 20.0134 23.5124C20.0134 23.8571 20.2954 24.1391 20.6401 24.1391H36.4393C36.784 24.1391 37.066 23.8571 37.066 23.5124C37.0738 23.1678 36.7918 22.8858 36.4472 22.8858ZM36.4472 15.8047H33.5489C33.2043 15.8047 32.9223 16.0867 32.9223 16.4313C32.9223 16.776 33.2043 17.058 33.5489 17.058H36.4472C36.7918 17.058 37.0738 16.776 37.0738 16.4313C37.0738 16.0867 36.7918 15.8047 36.4472 15.8047ZM36.4472 18.6481H33.5489C33.2043 18.6481 32.9223 18.9301 32.9223 19.2747C32.9223 19.6194 33.2043 19.9014 33.5489 19.9014H36.4472C36.7918 19.9014 37.0738 19.6194 37.0738 19.2747C37.0738 18.9301 36.7918 18.6481 36.4472 18.6481ZM36.4472 22.8858H20.6401C20.2954 22.8858 20.0134 23.1678 20.0134 23.5124C20.0134 23.8571 20.2954 24.1391 20.6401 24.1391H36.4393C36.784 24.1391 37.066 23.8571 37.066 23.5124C37.0738 23.1678 36.7918 22.8858 36.4472 22.8858Z" fill="white"/>
<path d="M47.7736 19.1725C47.617 18.5772 47.2331 18.0837 46.7083 17.7782L46.1287 17.4414C45.596 17.1359 44.9772 17.0576 44.3897 17.2142C43.7944 17.3709 43.3009 17.7547 42.9955 18.2795L41.2173 21.3579V14.786C41.2173 14.4492 41.092 14.1359 40.8492 13.9009L37.3165 10.3682C37.0737 10.1253 36.7682 10 36.4314 10H17.1307C16.4414 10 15.8774 10.564 15.8774 11.2533V25.4546C11.8826 26.7941 9 30.5696 9 35.0109C9 40.5724 13.5275 45.0999 19.089 45.0999C21.6974 45.0999 24.0786 44.1051 25.8724 42.4758H39.9641C40.6612 42.4758 41.2173 41.9119 41.2173 41.2225V31.8777L47.5465 20.9114C47.8519 20.3788 47.9303 19.76 47.7736 19.1725ZM17.1307 11.2455H36.0632V14.2063C36.0632 14.7233 36.4862 15.1463 37.0032 15.1463H39.9641V23.5198L36.964 28.721C36.8465 28.5565 36.6663 28.4547 36.447 28.4547H26.7497C26.264 27.8829 25.7157 27.3659 25.1126 26.9194H36.4549C36.7995 26.9194 37.0815 26.6374 37.0815 26.2927C37.0815 25.9481 36.7995 25.6661 36.4549 25.6661H22.9037C21.7287 25.1883 20.4441 24.922 19.0968 24.922C18.431 24.922 17.773 24.9846 17.1385 25.11L17.1307 11.2455ZM35.5071 31.2511H28.4416C28.2223 30.7184 27.9638 30.2014 27.6662 29.7158H36.3922L35.5071 31.2511ZM35.6794 34.3686L37.2695 35.2851L35.6794 36.2016V34.3686ZM19.089 43.8466C14.2168 43.8466 10.2533 39.8831 10.2533 35.0109C10.2533 30.1388 14.2168 26.1753 19.089 26.1753C23.9611 26.1753 27.9247 30.1388 27.9247 35.0109C27.9168 39.8831 23.9533 43.8466 19.089 43.8466ZM39.9562 41.2147H27.0317C28.3711 39.4993 29.1701 37.3452 29.1701 35.0109C29.1701 34.1493 29.0604 33.3033 28.8568 32.5044H34.7864L34.5201 32.9665C34.4653 33.0605 34.4339 33.1702 34.4339 33.2798V34.0396H30.4626C30.1179 34.0396 29.8359 34.3216 29.8359 34.6663C29.8359 35.0109 30.1179 35.2929 30.4626 35.2929H34.4261V36.8282H30.4626C30.1179 36.8282 29.8359 37.1102 29.8359 37.4548C29.8359 37.7995 30.1179 38.0815 30.4626 38.0815H36.4392C36.7838 38.0815 37.0658 37.7995 37.0658 37.4548C37.0658 37.2669 36.9797 37.0945 36.8465 36.977L38.8361 35.8334C38.9301 35.7786 39.0084 35.7002 39.0633 35.6062L39.9562 34.0553V41.2147ZM38.2956 34.4313L35.9144 33.0527L42.7918 21.1386L45.173 22.5172L38.2956 34.4313Z" fill="white"/>
<path d="M30.9244 14.6374V20.0109C30.9244 20.3555 30.6424 20.6375 30.2978 20.6375H20.53C20.1853 20.6375 19.9033 20.3555 19.9033 20.0109V14.6374C19.9033 14.2927 20.1853 14.0107 20.53 14.0107H30.2978C30.6503 14.0107 30.9244 14.2927 30.9244 14.6374Z" fill="white"/>
<path d="M25.1674 33.5781C24.3293 34.4162 23.1308 34.7296 22.0029 34.4319L18.5015 37.9255C18.7991 39.0456 18.4858 40.2519 17.6477 41.09C17.021 41.7167 16.1829 42.0535 15.3291 42.0535C14.9845 42.0535 14.6398 41.9986 14.2951 41.889C14.0915 41.8185 13.9348 41.654 13.88 41.4347C13.8252 41.2232 13.8957 41.0038 14.0445 40.8472L15.6894 39.2179L15.5171 38.5756L14.8748 38.4033L13.2377 40.0404C13.081 40.197 12.8617 40.2597 12.6502 40.2049C12.4387 40.15 12.2664 39.9934 12.1959 39.7897C11.8042 38.6069 12.1176 37.3223 12.9949 36.4372C13.833 35.599 15.0314 35.2857 16.1594 35.5834L19.6608 32.0898C19.3631 30.9697 19.6764 29.7634 20.5146 28.9253C21.3919 28.048 22.6765 27.7347 23.8671 28.1263C24.0786 28.1968 24.2353 28.3613 24.2823 28.5806C24.3371 28.7921 24.2666 29.0114 24.1178 29.1681L22.4807 30.8052L22.653 31.4475L23.2953 31.6198L24.9324 29.9827C25.0891 29.8261 25.3084 29.7634 25.5199 29.8182C25.7314 29.8652 25.9037 30.0219 25.9742 30.2334C26.358 31.4162 26.0526 32.7008 25.1674 33.5781Z" fill="white"/>
</svg>
