<svg width="56" height="56" viewBox="0 0 56 56" fill="none" xmlns="http://www.w3.org/2000/svg">
<g filter="url(#filter0_i_135_25)">
<circle cx="28" cy="28" r="28" fill="#961233"/>
</g>
<path d="M40.8355 34.8018C40.1827 34.8018 39.5447 34.9954 39.002 35.3581C38.4593 35.7208 38.0364 36.2364 37.7869 36.8395C37.5373 37.4427 37.4722 38.1063 37.5999 38.7464C37.7275 39.3865 38.0422 39.9744 38.5041 40.4356C38.9659 40.8969 39.5542 41.2108 40.1945 41.3376C40.8348 41.4644 41.4984 41.3984 42.1012 41.148C42.704 40.8976 43.2189 40.474 43.5809 39.9308C43.9429 39.3877 44.1357 38.7494 44.1348 38.0966C44.1348 37.6636 44.0494 37.2347 43.8836 36.8347C43.7177 36.4347 43.4746 36.0712 43.1682 35.7652C42.8617 35.4592 42.498 35.2166 42.0977 35.0513C41.6975 34.886 41.2685 34.8012 40.8355 34.8018ZM40.7773 39.5943C40.4696 39.5943 40.1688 39.503 39.913 39.3321C39.6571 39.1611 39.4577 38.9182 39.34 38.6339C39.2222 38.3496 39.1914 38.0368 39.2515 37.735C39.3115 37.4332 39.4597 37.156 39.6772 36.9384C39.8948 36.7208 40.172 36.5726 40.4738 36.5126C40.7756 36.4526 41.0884 36.4834 41.3727 36.6011C41.657 36.7189 41.9 36.9183 42.0709 37.1742C42.2419 37.43 42.3331 37.7308 42.3331 38.0385C42.3331 38.4511 42.1692 38.8468 41.8774 39.1386C41.5857 39.4304 41.19 39.5943 40.7773 39.5943Z" fill="#FCFCFC"/>
<path d="M21.0708 34.8018C20.4181 34.8018 19.78 34.9954 19.2373 35.3581C18.6947 35.7208 18.2718 36.2364 18.0222 36.8395C17.7726 37.4427 17.7075 38.1063 17.8352 38.7464C17.9629 39.3865 18.2776 39.9744 18.7394 40.4356C19.2013 40.8969 19.7896 41.2108 20.4299 41.3376C21.0702 41.4644 21.7337 41.3984 22.3365 41.148C22.9393 40.8976 23.4543 40.474 23.8163 39.9308C24.1783 39.3877 24.371 38.7494 24.3701 38.0966C24.3701 37.6636 24.2848 37.2347 24.1189 36.8347C23.953 36.4347 23.7099 36.0712 23.4035 35.7652C23.0971 35.4592 22.7333 35.2166 22.3331 35.0513C21.9328 34.886 21.5039 34.8012 21.0708 34.8018ZM21.0127 39.5943C20.705 39.5943 20.4042 39.503 20.1483 39.3321C19.8925 39.1611 19.6931 38.9182 19.5753 38.6339C19.4576 38.3496 19.4268 38.0368 19.4868 37.735C19.5468 37.4332 19.695 37.156 19.9126 36.9384C20.1302 36.7208 20.4074 36.5726 20.7092 36.5126C21.011 36.4526 21.3238 36.4834 21.6081 36.6011C21.8923 36.7189 22.1353 36.9183 22.3063 37.1742C22.4772 37.43 22.5685 37.7308 22.5685 38.0385C22.5685 38.2439 22.5278 38.4473 22.4488 38.637C22.3698 38.8266 22.254 38.9987 22.1081 39.1434C21.9622 39.288 21.7891 39.4023 21.5988 39.4797C21.4085 39.5571 21.2047 39.5961 20.9993 39.5943H21.0127Z" fill="#FCFCFC"/>
<path d="M44.792 27.0544C44.4825 26.4872 44.0263 26.0136 43.471 25.6833C42.9157 25.353 42.2818 25.178 41.6357 25.1768H37.6658V35.0122C38.2185 34.4492 38.9111 34.0436 39.6725 33.8369C40.4339 33.6302 41.2365 33.63 41.9981 33.8362C42.7596 34.0424 43.4524 34.4476 44.0055 35.0102C44.5586 35.5728 44.9519 36.2724 45.1451 37.0373H46.1913C46.2994 37.0374 46.4065 37.0157 46.5062 36.9737C46.6058 36.9316 46.6961 36.87 46.7715 36.7925C46.8469 36.715 46.9061 36.6231 46.9454 36.5223C46.9847 36.4216 47.0034 36.3139 47.0005 36.2058V31.7352C47.0032 31.3184 46.9001 30.9077 46.7009 30.5415L44.792 27.0544ZM38.9801 29.3166V26.1871H42.1096C42.3497 26.1873 42.5861 26.247 42.7975 26.3609C43.009 26.4748 43.1888 26.6394 43.3211 26.8398L44.9395 29.2987L38.9801 29.3166Z" fill="#FCFCFC"/>
<path d="M34.4111 20.2588H22.9618C22.9624 21.2705 22.7635 22.2724 22.3766 23.2073C21.9897 24.1421 21.4224 24.9915 20.707 25.7069C19.9916 26.4223 19.1422 26.9896 18.2073 27.3765C17.2725 27.7634 16.2706 27.9623 15.2589 27.9617H15.2186V34.5156H15.1158C14.8063 34.5156 14.5096 34.6386 14.2907 34.8574C14.0719 35.0762 13.949 35.373 13.949 35.6825C13.949 35.9919 14.0719 36.2887 14.2907 36.5076C14.5096 36.7264 14.8063 36.8493 15.1158 36.8493H16.9041C17.152 35.9322 17.6951 35.1222 18.4494 34.5447C19.2038 33.9672 20.1274 33.6542 21.0774 33.6542C22.0274 33.6542 22.951 33.9672 23.7054 34.5447C24.4597 35.1222 25.0028 35.9322 25.2507 36.8493H36.2708V22.1275C36.2714 21.8827 36.2238 21.6402 36.1306 21.4138C36.0375 21.1873 35.9007 20.9815 35.728 20.808C35.5553 20.6344 35.3501 20.4966 35.1241 20.4024C34.8982 20.3082 34.6559 20.2594 34.4111 20.2588Z" fill="#FCFCFC"/>
<path d="M15.2589 14C14.021 14 12.8109 14.3671 11.7816 15.0548C10.7524 15.7425 9.95015 16.7201 9.47643 17.8637C9.00271 19.0074 8.87877 20.2658 9.12027 21.4799C9.36177 22.694 9.95787 23.8093 10.8332 24.6846C11.7085 25.5599 12.8237 26.156 14.0378 26.3975C15.2519 26.639 16.5104 26.5151 17.6541 26.0413C18.7977 25.5676 19.7752 24.7654 20.463 23.7361C21.1507 22.7069 21.5178 21.4968 21.5178 20.2589C21.5178 18.5989 20.8584 17.007 19.6846 15.8332C18.5108 14.6594 16.9188 14 15.2589 14ZM15.2589 25.0156C14.3194 25.0148 13.4012 24.7354 12.6203 24.2129C11.8395 23.6903 11.2311 22.9481 10.872 22.0799C10.5128 21.2117 10.4191 20.2566 10.6026 19.3351C10.7861 18.4137 11.2386 17.5673 11.903 16.903C12.5673 16.2386 13.4137 15.7861 14.3351 15.6026C15.2566 15.4191 16.2117 15.5128 17.0799 15.872C17.9481 16.2311 18.6903 16.8395 19.2129 17.6203C19.7354 18.4012 20.0148 19.3194 20.0156 20.2589C20.0162 20.8837 19.8936 21.5025 19.6548 22.0799C19.4159 22.6573 19.0656 23.1819 18.6237 23.6237C18.1819 24.0656 17.6573 24.4159 17.0799 24.6548C16.5025 24.8936 15.8837 25.0162 15.2589 25.0156Z" fill="#FCFCFC"/>
<path d="M18.3302 19.5879L16.1038 19.6013V17.1514H14.4675L14.472 21.2465L18.3391 21.2286L18.3302 19.5879Z" fill="#FCFCFC"/>
<defs>
<filter id="filter0_i_135_25" x="0" y="0" width="56" height="60" filterUnits="userSpaceOnUse" color-interpolation-filters="sRGB">
<feFlood flood-opacity="0" result="BackgroundImageFix"/>
<feBlend mode="normal" in="SourceGraphic" in2="BackgroundImageFix" result="shape"/>
<feColorMatrix in="SourceAlpha" type="matrix" values="0 0 0 0 0 0 0 0 0 0 0 0 0 0 0 0 0 0 127 0" result="hardAlpha"/>
<feOffset dy="4"/>
<feGaussianBlur stdDeviation="15"/>
<feComposite in2="hardAlpha" operator="arithmetic" k2="-1" k3="1"/>
<feColorMatrix type="matrix" values="0 0 0 0 0 0 0 0 0 0 0 0 0 0 0 0 0 0 0.15 0"/>
<feBlend mode="normal" in2="shape" result="effect1_innerShadow_135_25"/>
</filter>
</defs>
</svg>
