<svg width="50" height="50" viewBox="0 0 50 50" fill="none" xmlns="http://www.w3.org/2000/svg">
<circle cx="25" cy="25" r="25" fill="#2768D0"/>
<path fill-rule="evenodd" clip-rule="evenodd" d="M35.3867 18.8344C35.2127 18.4651 35.0098 18.1863 34.7791 17.9911C34.3531 17.6267 33.7916 17.5911 33.3281 17.894C31.6916 18.9575 29.7839 19.7267 27.5992 20.1959C27.5896 20.2863 27.5742 20.3757 27.556 20.4651C27.43 21.119 27.1839 21.7603 26.8204 22.3911C26.7175 22.568 26.5021 22.6219 26.3358 22.5113C26.1714 22.4017 26.1223 22.1709 26.2252 21.994C26.5406 21.4498 26.7531 20.8988 26.8637 20.343C26.4329 20.4219 25.9896 20.4882 25.5377 20.545C25.5281 20.6094 25.5175 20.6709 25.505 20.7344C25.3791 21.3892 25.1358 22.0296 24.7685 22.6603C24.6666 22.8373 24.4512 22.8911 24.2867 22.7805C24.1223 22.6709 24.0714 22.4401 24.1742 22.2632C24.4867 21.7219 24.6992 21.1757 24.8098 20.6248C24.3819 20.6661 23.9454 20.6959 23.5021 20.72C23.4896 20.8142 23.4742 20.9094 23.4531 21.0046C23.33 21.6584 23.0839 22.2988 22.7175 22.9296C22.6146 23.1065 22.3993 23.1603 22.2358 23.0507C22.0714 22.9401 22.0204 22.7065 22.1223 22.5325C22.4435 21.9786 22.6589 21.42 22.7666 20.8526C22.7743 20.8171 22.781 20.7815 22.7867 20.7478C22.1406 20.7661 21.4762 20.7632 20.7944 20.743C20.5992 20.7373 20.43 20.8142 20.2992 20.968C20.1656 21.12 20.1069 21.3094 20.1271 21.5171C20.2098 22.3478 20.1944 23.0863 20.0819 23.7353C19.9483 24.5017 19.4867 25.0892 18.8098 25.3603C18.13 25.6353 17.4252 25.5171 16.856 25.0353C16.6992 24.9017 16.5435 24.7661 16.3867 24.6219C16.2435 24.4892 16.0531 24.4603 15.8791 24.5421C15.7069 24.6248 15.5992 24.794 15.5916 24.9959C15.5223 27.0834 15.9839 28.7094 16.981 29.8757C27.8021 26.7046 33.9377 23.0248 35.3867 18.8344ZM19.7175 34.2171H38.3406C38.7204 34.2171 39.0281 34.5478 39.0281 34.9555V35.1017C39.0281 35.5094 38.7204 35.8401 38.3406 35.8401H19.7175C19.3377 35.8401 19.03 35.5094 19.03 35.1017V34.9555C19.03 34.5478 19.3377 34.2171 19.7175 34.2171ZM34.3512 28.0142L37.9223 33.4219H35.4771L32.7406 29.2248L30.0204 31.2709L29.4069 30.3296C29.0685 29.8123 29.1868 29.0911 29.6685 28.7276L34.9666 24.745C35.4483 24.3834 36.1175 24.5094 36.456 25.0276L37.0694 25.968L34.3512 28.0142ZM10.5762 19.9065L16.73 14.4219L19.6454 18.0603C19.9406 18.4267 19.9531 18.9267 19.6069 19.2344L14.6223 23.6786C14.3252 23.9421 13.83 23.9478 13.5762 23.6325L10.5762 19.9065ZM19.5512 20.0248L20.0867 20.5296C20.0454 20.5632 20.0098 20.6017 19.9742 20.6421C19.7531 20.8988 19.6531 21.2219 19.6867 21.5651C19.7531 22.2526 19.7637 22.968 19.6454 23.6478C19.5406 24.2478 19.1867 24.7017 18.6531 24.9142C18.1194 25.1296 17.5762 25.0401 17.13 24.6603C16.9762 24.5296 16.8223 24.394 16.6733 24.2575C16.3992 24.0094 16.03 23.9498 15.7021 24.1065C15.5992 24.1526 15.5098 24.2171 15.4329 24.2959L15.1252 23.9709L19.5512 20.0248ZM17.256 30.3584C28.2329 27.1709 34.2002 23.5401 35.6608 19.3171C35.6608 19.3171 35.8127 19.5498 36.1204 20.0142C35.5204 24.4988 30.2531 28.6498 18.8916 33.1123C18.7358 33.1738 18.5791 33.1575 18.4358 33.068C18.2916 32.9786 18.2425 32.8248 18.1762 32.6632C17.5175 31.068 17.256 30.3584 17.256 30.3584Z" fill="white"/>
</svg>
