<svg width="50" height="50" viewBox="0 0 50 50" fill="none" xmlns="http://www.w3.org/2000/svg">
<circle cx="25" cy="25" r="25" fill="#DAAC07"/>
<path d="M30.7687 12.5007H27.8838C27.8838 11.9694 27.4535 11.5391 26.9222 11.5391H23.0757C22.5444 11.5391 22.1141 11.9694 22.1141 12.5007H19.2293C17.6393 12.5007 16.3457 13.7943 16.3457 15.3855V35.5781C16.3457 37.1693 17.6393 38.463 19.2305 38.463H30.7686C32.3598 38.463 33.6534 37.1693 33.6534 35.5781L33.6521 15.3855C33.6521 13.7943 32.3586 12.5007 30.7687 12.5007ZM31.7303 35.5768C31.7303 36.1067 31.2986 36.5384 30.7687 36.5384H19.2293C18.6993 36.5384 18.2677 36.1067 18.2677 35.5768V15.3854C18.2677 14.8555 18.6993 14.4238 19.2293 14.4238H30.7674C31.2973 14.4238 31.729 14.8555 31.729 15.3854L31.7303 35.5768Z" fill="white"/>
<path d="M23.7619 22.2258H24.3008L23.8794 23.9089C23.7874 24.2767 24.2382 24.5334 24.5077 24.2639L26.7655 22.0062C27.2367 21.5349 26.9034 20.7278 26.2368 20.7278L25.7974 20.7291L26.0043 20.3154C26.2533 19.8173 25.8907 19.2324 25.3352 19.2324H24.136C23.7925 19.2324 23.4937 19.4661 23.4094 19.7994L23.0352 21.2961C22.9177 21.7686 23.2753 22.2258 23.7619 22.2258Z" fill="white"/>
<path d="M28.8458 32.6934H21.153C20.6218 32.6934 20.1914 33.1237 20.1914 33.655C20.1914 34.1862 20.6218 34.6166 21.153 34.6166H28.8458C29.3771 34.6166 29.8074 34.1862 29.8074 33.655C29.8074 33.1224 29.3771 32.6934 28.8458 32.6934Z" fill="white"/>
<path d="M28.8458 28.8477H21.153C20.6218 28.8477 20.1914 29.278 20.1914 29.8093C20.1914 30.3405 20.6218 30.7709 21.153 30.7709H28.8458C29.3771 30.7709 29.8074 30.3405 29.8074 29.8093C29.8074 29.278 29.3771 28.8477 28.8458 28.8477Z" fill="white"/>
</svg>
