<svg width="50" height="50" viewBox="0 0 50 50" fill="none" xmlns="http://www.w3.org/2000/svg">
<circle cx="25" cy="25" r="25" fill="#D25F0D"/>
<path d="M33.1216 26.0441V25.0636C33.1216 20.2837 29.3179 16.3933 24.6418 16.3933H23.6828V12.7285C17.4459 13.2286 12.5371 18.5576 12.5371 25.0633C12.5371 31.8986 17.9565 37.4397 24.6418 37.4397C31.0045 37.4397 36.2167 32.4195 36.7056 26.0438L33.1216 26.0441ZM17.429 17.3384C17.6867 17.2697 17.948 17.4266 18.014 17.6889L18.3724 19.091C18.4395 19.3533 18.2861 19.6205 18.0295 19.6891C17.9888 19.7002 17.948 19.7051 17.9085 19.7051C17.6951 19.7051 17.5009 19.5592 17.4446 19.3386L17.0861 17.9364C17.019 17.6742 17.1725 17.407 17.429 17.3384ZM16.2507 26.0428C16.1619 26.1985 16.0013 26.2855 15.8359 26.2855C15.7532 26.2855 15.6705 26.2634 15.5937 26.2181L14.371 25.4852C14.1421 25.3479 14.0654 25.0476 14.1996 24.8148C14.3339 24.5794 14.6276 24.5034 14.8553 24.6395L16.078 25.3724C16.307 25.5097 16.3837 25.81 16.2494 26.0428L16.2507 26.0428ZM19.0437 32.4223L17.6723 32.7888C17.6316 32.7986 17.5908 32.8047 17.5513 32.8047C17.3379 32.8047 17.1437 32.6589 17.0874 32.4382C17.0202 32.1759 17.1737 31.9088 17.4302 31.8401L18.8016 31.4737C19.0605 31.4075 19.3194 31.5631 19.3865 31.8242C19.4537 32.0865 19.3002 32.3537 19.0437 32.4223ZM25.7722 34.3135L25.0554 35.5648C24.9667 35.7205 24.8061 35.8075 24.6406 35.8075C24.5591 35.8075 24.4752 35.7855 24.3985 35.7401C24.1695 35.6028 24.0928 35.3026 24.2271 35.0697L24.9439 33.8183C25.0781 33.5842 25.3718 33.5058 25.5996 33.643C25.8285 33.7803 25.9053 34.0806 25.771 34.3135L25.7722 34.3135ZM24.6418 32.0387C20.8731 32.0387 17.8188 28.9157 17.8188 25.0624C17.8188 21.2103 20.8731 18.0862 24.6418 18.0862C28.4093 18.0862 31.4649 21.2091 31.4649 25.0624C31.4649 28.9145 28.4105 32.0387 24.6418 32.0387ZM31.8558 32.7887C31.8151 32.7986 31.7743 32.8047 31.7347 32.8047C31.5214 32.8047 31.3272 32.6588 31.2708 32.4382L30.9124 31.0361C30.8453 30.7738 30.9987 30.5066 31.2552 30.438C31.513 30.3718 31.7731 30.5274 31.8402 30.7885L32.1986 32.1906C32.2658 32.4529 32.1123 32.7201 31.8558 32.7887Z" fill="white"/>
<path d="M24.6416 30.7768C24.3767 30.7768 24.1621 30.5574 24.1621 30.2865V30.0684C24.1621 29.7975 24.3767 29.5781 24.6416 29.5781C24.9065 29.5781 25.1211 29.7975 25.1211 30.0684V30.2865C25.1211 30.5574 24.9065 30.7768 24.6416 30.7768Z" fill="white"/>
<path d="M24.6406 20.5483C24.3757 20.5483 24.1611 20.3289 24.1611 20.058V19.8399C24.1611 19.569 24.3757 19.3496 24.6406 19.3496C24.9055 19.3496 25.1201 19.569 25.1201 19.8399V20.058C25.1201 20.3289 24.9055 20.5483 24.6406 20.5483Z" fill="white"/>
<path d="M19.7466 25.5547H19.5332C19.2683 25.5547 19.0537 25.3353 19.0537 25.0645C19.0537 24.7936 19.2683 24.5742 19.5332 24.5742H19.7466C20.0115 24.5742 20.2261 24.7936 20.2261 25.0645C20.2261 25.3353 20.0115 25.5547 19.7466 25.5547Z" fill="white"/>
<path d="M29.7505 25.5547H29.5371C29.2722 25.5547 29.0576 25.3353 29.0576 25.0645C29.0576 24.7936 29.2722 24.5742 29.5371 24.5742H29.7505C30.0154 24.5742 30.23 24.7936 30.23 25.0645C30.23 25.3353 30.0154 25.5547 29.7505 25.5547Z" fill="white"/>
<path d="M21.0293 29.2482C20.907 29.2482 20.7848 29.2004 20.6901 29.1048C20.5031 28.9136 20.5031 28.6035 20.6901 28.4111L20.8411 28.2567C21.0281 28.0655 21.3314 28.0655 21.5196 28.2567C21.7066 28.4479 21.7066 28.758 21.5196 28.9504L21.3685 29.1048C21.275 29.2004 21.1528 29.2482 21.0293 29.2482Z" fill="white"/>
<path d="M28.1025 22.0138C27.9803 22.0138 27.8568 21.966 27.7633 21.8704C27.5763 21.6792 27.5763 21.3691 27.7633 21.1767L27.9143 21.0223C28.1013 20.8311 28.4046 20.8311 28.5928 21.0223C28.7798 21.2135 28.7798 21.5236 28.5928 21.716L28.4418 21.8704C28.3483 21.966 28.226 22.0138 28.1025 22.0138Z" fill="white"/>
<path d="M21.1803 22.0138C21.0581 22.0138 20.9346 21.966 20.8411 21.8704L20.6901 21.716C20.5031 21.5248 20.5031 21.2147 20.6901 21.0223C20.8771 20.8311 21.1803 20.8311 21.3685 21.0223L21.5196 21.1767C21.7066 21.3679 21.7066 21.678 21.5196 21.8704C21.4261 21.966 21.3038 22.0138 21.1803 22.0138Z" fill="white"/>
<path d="M28.2536 29.2482C28.1313 29.2482 28.0078 29.2004 27.9143 29.1048L27.7633 28.9504C27.5763 28.758 27.5763 28.4479 27.7633 28.2567C27.9503 28.0655 28.2548 28.0655 28.4418 28.2567L28.5928 28.4111C28.7798 28.6035 28.7798 28.9136 28.5928 29.1048C28.4993 29.2004 28.3771 29.2482 28.2536 29.2482Z" fill="white"/>
<path d="M24.6406 21.875C22.918 21.875 21.5215 23.3029 21.5215 25.0641C21.5215 26.8254 22.918 28.2532 24.6406 28.2532C26.3631 28.2532 27.7596 26.8253 27.7596 25.0641C27.7596 23.3029 26.3631 21.875 24.6406 21.875ZM24.6406 26.1573C24.0496 26.1573 23.5713 25.667 23.5713 25.064C23.5713 24.4597 24.0508 23.9707 24.6406 23.9707C25.2315 23.9707 25.7098 24.461 25.7098 25.064C25.7098 25.6682 25.2303 26.1573 24.6406 26.1573Z" fill="white"/>
<path d="M25.2112 9.9965C24.8984 9.98425 24.6406 10.249 24.6406 10.5689V15.4128C29.8526 15.4128 34.0795 19.7333 34.0795 25.0636H38.8839C39.1596 25.0636 39.3873 24.8307 39.3778 24.5488C39.1188 16.6545 32.9239 10.297 25.2112 9.99795V9.9965ZM26.4591 14.5069H26.2457C25.9808 14.5069 25.7662 14.2875 25.7662 14.0166C25.7662 13.7458 25.9808 13.5264 26.2457 13.5264H26.4591C26.724 13.5264 26.9386 13.7458 26.9386 14.0166C26.9386 14.2875 26.724 14.5069 26.4591 14.5069ZM26.4591 12.0556H26.2457C25.9808 12.0556 25.7662 11.8362 25.7662 11.5653C25.7662 11.2945 25.9808 11.0751 26.2457 11.0751H26.4591C26.724 11.0751 26.9386 11.2945 26.9386 11.5653C26.9386 11.8362 26.724 12.0556 26.4591 12.0556ZM35.9409 23.4064C35.9409 23.6772 35.7263 23.8966 35.4614 23.8966C35.1965 23.8966 34.9819 23.6772 34.9819 23.4064V23.1882C34.9819 22.9173 35.1965 22.6979 35.4614 22.6979C35.7263 22.6979 35.9409 22.9173 35.9409 23.1882V23.4064ZM36.1315 21.1279C36.0751 21.1499 36.0176 21.1598 35.9613 21.1598C35.7683 21.1598 35.5861 21.0396 35.513 20.8435C34.3502 17.7132 31.9348 15.2165 28.8851 13.9934C28.6382 13.8941 28.5171 13.6098 28.6142 13.3585C28.7113 13.1061 28.9882 12.9823 29.2351 13.0816C32.5352 14.4053 35.1507 17.1078 36.4095 20.4968C36.503 20.7492 36.3795 21.0336 36.1314 21.1292L36.1315 21.1279ZM38.3383 23.4064C38.3383 23.6772 38.1238 23.8966 37.8588 23.8966C37.5939 23.8966 37.3794 23.6772 37.3794 23.4064V23.1882C37.3794 22.9173 37.5939 22.6979 37.8588 22.6979C38.1238 22.6979 38.3383 22.9173 38.3383 23.1882V23.4064Z" fill="white"/>
</svg>
