<svg width="50" height="50" viewBox="0 0 50 50" fill="none" xmlns="http://www.w3.org/2000/svg">
<circle cx="25" cy="25" r="25" fill="#03B680"/>
<path d="M13.5764 18.7176C13.7348 18.896 14.0102 18.9152 14.1927 18.7604L18.678 14.9275C18.7665 14.8538 18.82 14.748 18.8277 14.6348C18.8364 14.5215 18.7982 14.4094 18.7217 14.3239C18.6452 14.2374 18.5359 14.1861 18.4201 14.1787C18.3043 14.1712 18.1896 14.2096 18.1033 14.2844L13.6179 18.1151C13.4366 18.27 13.418 18.5403 13.5764 18.7176Z" fill="white"/>
<path d="M13.1269 17.0851C13.2329 17.0851 13.3356 17.0477 13.4143 16.9793L16.7874 14.0984C16.8836 14.0268 16.9448 13.9189 16.9568 13.8025C16.9688 13.685 16.9306 13.5675 16.8519 13.4788C16.7721 13.3891 16.6596 13.3367 16.5383 13.3325C16.4181 13.3271 16.3012 13.372 16.2149 13.4553L12.8398 16.3363C12.7032 16.4527 12.654 16.6418 12.7185 16.8084C12.7819 16.9751 12.9455 17.0851 13.1269 17.0851Z" fill="white"/>
<path d="M14.0293 24.0647L17.3029 30.8073L19.3527 30.9098L15.5065 22.9922L14.0293 24.0647Z" fill="white"/>
<path d="M16.0576 22.1326L16.0707 22.1582L16.0925 22.2095L20.4369 31.1611L20.4631 31.2124L21.4028 33.148H28.5969L29.5366 31.2124L29.5628 31.1611L33.9072 22.2095C33.917 22.1828 33.929 22.1571 33.9421 22.1326L34.9168 20.12L30.2841 16.2617L29.2176 17.6333C29.1357 17.7391 29.0078 17.801 28.8723 17.8H21.1275C20.992 17.801 20.8641 17.7391 20.7822 17.6333L19.7157 16.2617L15.083 20.12L16.0576 22.1326ZM21.7482 23.5084C21.7755 23.4828 21.8072 23.4593 21.84 23.4401L22.0891 23.2862L28.4046 19.385C28.9411 18.9257 29.7027 18.8156 30.3517 19.1041C31.0008 19.3925 31.4171 20.0249 31.416 20.7224C31.4182 21.0995 31.2958 21.4659 31.0663 21.7693L26.9318 28.1487L26.9187 28.17C26.0795 29.5096 24.4318 30.1398 22.8857 29.7136C21.3385 29.2874 20.2709 27.9072 20.2709 26.3369C20.2677 25.2163 20.8173 24.163 21.7482 23.5081L21.7482 23.5084ZM18.492 22.3975L19.3792 24.2049C19.4819 24.4186 19.3902 24.6739 19.1738 24.7775C19.1137 24.8042 19.0482 24.8192 18.9815 24.8202C18.8132 24.8202 18.6603 24.7252 18.5882 24.5767L17.7009 22.765C17.5971 22.5513 17.69 22.296 17.9085 22.1946C18.1271 22.0931 18.3882 22.1838 18.492 22.3975ZM17.0016 20.338C17.219 20.2375 17.4791 20.3273 17.5829 20.5388L17.8757 21.1327C17.9784 21.3464 17.8867 21.6017 17.6703 21.7053C17.6113 21.7299 17.5468 21.7438 17.4824 21.7438C17.3141 21.7448 17.1601 21.6519 17.0846 21.5045L16.7962 20.9063C16.6935 20.6937 16.7853 20.4394 17.0016 20.338Z" fill="white"/>
<path d="M27.4079 25.817L29.5582 22.5013C28.5923 22.481 27.8122 21.7236 27.7837 20.7793L24.4053 22.8687C25.9558 23.108 27.1698 24.3002 27.4079 25.817Z" fill="white"/>
<path d="M30.6465 30.9098L32.6963 30.8072L35.9699 24.0647L34.4926 22.9922L30.6465 30.9098Z" fill="white"/>
<path d="M35.8081 18.7582C35.9906 18.9067 36.2605 18.8853 36.4156 18.7101C36.5719 18.536 36.5566 18.2721 36.3828 18.1151L31.8975 14.2844C31.8112 14.2096 31.6965 14.1712 31.5807 14.1787C31.4648 14.1861 31.3556 14.2374 31.2791 14.3239C31.2026 14.4094 31.1644 14.5216 31.1731 14.6348C31.1808 14.748 31.2343 14.8538 31.3228 14.9275L35.8081 18.7582Z" fill="white"/>
<path d="M33.787 13.4546C33.7007 13.3766 33.5849 13.336 33.4669 13.3425C33.3499 13.3478 33.2396 13.4012 33.162 13.4877C33.0844 13.5743 33.0462 13.6886 33.0549 13.8028C33.0648 13.9182 33.1216 14.024 33.2123 14.0977L36.5854 16.9786C36.7679 17.126 37.0378 17.1057 37.1929 16.9306C37.3492 16.7564 37.3339 16.4926 37.1602 16.3355L33.787 13.4546Z" fill="white"/>
<path d="M21.918 35.6641H28.0805V37.0229H21.918V35.6641Z" fill="white"/>
<path d="M21.918 13.0957H28.0805V14.4545H21.918V13.0957Z" fill="white"/>
<path d="M29.5983 21.6467C29.8802 21.6456 30.1468 21.5238 30.3282 21.3134V21.3091C30.5599 21.0335 30.608 20.6511 30.4517 20.3296C30.2955 20.0069 29.9633 19.8008 29.5983 19.8008C29.3886 19.8008 29.1842 19.8691 29.0171 19.9931C29.0171 19.9973 29.0171 20.0016 29.0127 20.0016C28.9887 20.0283 28.9602 20.0507 28.9296 20.07C28.9296 20.0721 28.9275 20.0742 28.9253 20.0742C28.7526 20.2484 28.6554 20.4812 28.6543 20.7237C28.6554 21.2333 29.0771 21.6456 29.5983 21.6467Z" fill="white"/>
<path d="M23.859 28.9905C25.3581 28.9905 26.5732 27.8026 26.5732 26.3371C26.5732 24.8715 25.3581 23.6836 23.859 23.6836C23.4066 23.6825 22.962 23.7926 22.5653 24.0041L22.3249 24.1494C21.3437 24.8063 20.9143 26.0123 21.2661 27.1233C21.618 28.2342 22.6691 28.9905 23.859 28.9905ZM23.859 24.5596C24.5944 24.5596 25.2576 24.9922 25.5384 25.6566C25.8203 26.3211 25.6652 27.0859 25.1451 27.5944C24.625 28.1028 23.8426 28.2545 23.163 27.9789C22.4834 27.7044 22.0409 27.056 22.0409 26.3371C22.043 25.3564 22.856 24.5617 23.859 24.5596Z" fill="white"/>
<path d="M23.8591 27.2599C24.2404 27.2599 24.5857 27.0345 24.731 26.6906C24.8774 26.3455 24.7966 25.9482 24.5267 25.6843C24.2568 25.4204 23.8503 25.3414 23.4974 25.4845C23.1456 25.6266 22.915 25.9642 22.915 26.337C22.9161 26.8465 23.3379 27.2588 23.8591 27.2599Z" fill="white"/>
</svg>
