<svg width="41" height="41" viewBox="0 0 41 41" fill="none" xmlns="http://www.w3.org/2000/svg">
<circle cx="20.5" cy="20.5" r="20.5" fill="#27D06D" fill-opacity="0.07"/>
<path d="M21 30C15.4857 30 11 25.5143 11 20C11 14.4857 15.4857 10 21 10C26.5143 10 31 14.4857 31 20C31 25.5143 26.5143 30 21 30ZM21 11.4286C16.2714 11.4286 12.4286 15.2714 12.4286 20C12.4286 24.7286 16.2714 28.5714 21 28.5714C25.7286 28.5714 29.5714 24.7286 29.5714 20C29.5714 15.2714 25.7286 11.4286 21 11.4286Z" fill="#0AE163"/>
<path d="M24.2861 24C24.1575 24 24.0289 23.9692 23.9147 23.8923L20.3429 21.5846C20.2376 21.5156 20.1507 21.4184 20.0906 21.3025C20.0305 21.1865 19.9993 21.0558 20 20.9231V14.7692C20 14.3385 20.3143 14 20.7144 14C21.1144 14 21.4287 14.3385 21.4287 14.7692V20.4923L24.6576 22.5692C24.7906 22.657 24.8934 22.7891 24.9504 22.9454C25.0074 23.1018 25.0155 23.2739 24.9735 23.4356C24.9315 23.5974 24.8417 23.74 24.7176 23.8419C24.5936 23.9437 24.4421 23.9992 24.2861 24Z" fill="#0AE163"/>
</svg>
