<svg width="50" height="50" viewBox="0 0 50 50" fill="none" xmlns="http://www.w3.org/2000/svg">
<circle cx="25" cy="25" r="25" fill="#66B814"/>
<path fill-rule="evenodd" clip-rule="evenodd" d="M37.2383 19.5308L36.7313 19.0119L35.6408 20.1278C35.6069 20.163 35.5818 20.1993 35.5665 20.2367C35.5512 20.273 35.5447 20.3157 35.5447 20.3649V21.9635C35.5447 22.0575 35.584 22.1429 35.6474 22.2048C35.7107 22.2668 35.7982 22.3052 35.8943 22.3052H37.5694C37.6655 22.3052 37.7529 22.2668 37.8163 22.2048C37.8797 22.1429 37.919 22.0575 37.919 21.9635V20.3649C37.919 20.3157 37.9114 20.273 37.8972 20.2367C37.8819 20.1993 37.8567 20.163 37.8229 20.1278L37.2394 19.5298L37.2383 19.5308ZM37.1651 23.0686H36.2986V25.2332H37.1651V23.0686ZM36.0178 18.6413L35.4124 19.2606L32.4896 16.2075C32.376 16.089 32.3782 15.9438 32.4404 15.822C32.4721 15.7611 32.5147 15.7067 32.565 15.6608C32.6153 15.6148 32.6743 15.5764 32.7387 15.5497C32.8677 15.4963 33.0152 15.5049 33.1277 15.6234L36.0167 18.6412L36.0178 18.6413ZM29.9917 34.7258H14.0029V37.5793H29.9917V34.7258ZM28.1397 33.9622V15.5636C28.1397 15.1033 27.9725 14.689 27.7037 14.3921C27.4458 14.1069 27.0929 13.9308 26.7083 13.9308L17.2873 13.9297C16.9016 13.9297 16.5487 14.1059 16.2919 14.391C16.0231 14.6889 15.8559 15.1033 15.8559 15.5625V33.9611H28.1396L28.1397 33.9622ZM28.9199 25.4224V26.2703C29.0663 26.2426 29.216 26.2287 29.3657 26.2287C29.7372 26.2287 30.112 26.3141 30.4354 26.485C30.7719 26.6622 31.0527 26.9313 31.221 27.2912C31.327 27.5176 31.3871 27.775 31.3871 28.0622V31.4015C31.3871 32.871 32.1334 33.8054 33.0883 34.21C33.4598 34.3669 33.8663 34.446 34.2761 34.446C34.6858 34.446 35.0923 34.3669 35.4638 34.21C36.4188 33.8052 37.165 32.8708 37.165 31.4015V25.996H36.2986V31.4015C36.2986 32.3637 35.7697 32.9831 35.0933 33.2575C34.8333 33.3633 34.5547 33.4156 34.276 33.4156C33.9985 33.4156 33.7188 33.3633 33.4587 33.2575C32.7824 32.9831 32.2535 32.3637 32.2535 31.4015V28.0622C32.2535 27.8326 32.2317 27.6212 32.1891 27.4268C32.0437 26.753 31.6613 26.2479 31.1598 25.9115C30.6462 25.5666 30.007 25.3947 29.3634 25.3947C29.2137 25.3947 29.064 25.4032 28.9176 25.4224L28.9199 25.4224ZM25.973 15.9482V20.9458H18.0217V15.9482H25.973ZM17.6317 15.1847H26.3632C26.5785 15.1847 26.7533 15.3555 26.7533 15.5659V21.3271C26.7533 21.5374 26.5785 21.7083 26.3632 21.7083H17.6317C17.4165 21.7083 17.2417 21.5374 17.2417 21.3271V15.5659C17.2417 15.3555 17.4165 15.1847 17.6317 15.1847ZM22.787 26.2073L23.2962 27.398C23.3595 27.5464 23.3901 27.6938 23.3858 27.8369C23.3825 27.9811 23.3453 28.1263 23.2743 28.2694C23.1585 28.5054 22.9585 28.6794 22.7192 28.7916C22.5029 28.893 22.2516 28.9432 21.9981 28.9432C21.7435 28.9432 21.4933 28.893 21.2769 28.7916C21.0376 28.6795 20.8377 28.5054 20.7219 28.2694C20.6519 28.1263 20.6148 27.981 20.6104 27.8369C20.6071 27.6938 20.6366 27.5464 20.7 27.398L21.903 24.5852C21.9118 24.5649 21.9238 24.5489 21.9391 24.5403C21.9544 24.5307 21.9751 24.5254 21.9992 24.5254C22.0232 24.5254 22.0429 24.5307 22.0593 24.5403C22.0735 24.55 22.0866 24.566 22.0953 24.5852L22.7892 26.2073L22.787 26.2073ZM22.8121 24.2936L24.0151 27.1064C24.12 27.352 24.1692 27.603 24.1626 27.8561C24.1561 28.1081 24.0938 28.3569 23.9747 28.5993C23.7769 29.003 23.4459 29.2956 23.0536 29.4793C22.7269 29.632 22.3597 29.7089 21.997 29.7089C21.6331 29.7089 21.2671 29.632 20.9404 29.4793C20.5482 29.2956 20.2171 29.003 20.0193 28.5993C19.9013 28.358 19.839 28.1092 19.8314 27.8561C19.8248 27.603 19.874 27.352 19.9789 27.1064L21.1819 24.2936C21.2518 24.1302 21.3655 23.9978 21.5075 23.9049C21.6496 23.812 21.8178 23.7618 21.997 23.7618C22.1762 23.7618 22.3445 23.8131 22.4865 23.9049C22.6286 23.9978 22.7422 24.1302 22.8121 24.2936ZM18.9441 17.3258C18.9441 17.1154 19.119 16.9445 19.3342 16.9445C19.5495 16.9445 19.7243 17.1154 19.7243 17.3258V19.5672C19.7243 19.7776 19.5495 19.9485 19.3342 19.9485C19.119 19.9485 18.9441 19.7776 18.9441 19.5672V17.3258ZM20.2761 18.4471C20.2761 18.2367 20.4509 18.0658 20.6662 18.0658C20.8814 18.0658 21.0562 18.2367 21.0562 18.4471V19.5683C21.0562 19.7787 20.8814 19.9496 20.6662 19.9496C20.4509 19.9496 20.2761 19.7787 20.2761 19.5683V18.4471ZM21.608 17.7743C21.608 17.5639 21.7829 17.3931 21.9981 17.3931C22.2133 17.3931 22.3882 17.5639 22.3882 17.7743V19.5683C22.3882 19.7787 22.2133 19.9496 21.9981 19.9496C21.7829 19.9496 21.608 19.7787 21.608 19.5683V17.7743ZM22.9389 17.9548C22.9389 17.7444 23.1137 17.5735 23.329 17.5735C23.5442 17.5735 23.719 17.7444 23.719 17.9548V19.5683C23.719 19.7787 23.5442 19.9496 23.329 19.9496C23.1137 19.9496 22.9389 19.7787 22.9389 19.5683V17.9548ZM24.2719 17.4304C24.2719 17.2201 24.4467 17.0492 24.662 17.0492C24.8772 17.0492 25.0521 17.2201 25.0521 17.4304V19.5683C25.0521 19.7787 24.8772 19.9496 24.662 19.9496C24.4467 19.9496 24.2719 19.7787 24.2719 19.5683V17.4304Z" fill="white"/>
</svg>
