<svg width="50" height="50" viewBox="0 0 50 50" fill="none" xmlns="http://www.w3.org/2000/svg">
<circle cx="25" cy="25" r="25" fill="#CA8008"/>
<path fill-rule="evenodd" clip-rule="evenodd" d="M24.6997 12.3984C17.3756 12.3984 11.4375 18.3254 11.4375 25.6356C11.4375 32.9457 17.3756 38.8726 24.6997 38.8726C32.0237 38.8726 37.9618 32.9457 37.9618 25.6356C37.9618 18.3254 32.0237 12.3984 24.6997 12.3984ZM16.2812 24.6752C16.2449 24.9906 16.2268 25.3112 16.2268 25.6357C16.2268 26.0325 16.254 26.4216 16.3071 26.8042L21.476 26.3737C21.8192 26.3453 22.1365 26.5573 22.2401 26.8844C22.3062 27.0925 22.3969 27.2877 22.5108 27.4699C22.6663 27.7182 22.6585 28.0374 22.4914 28.2779L19.6214 32.4055C20.1835 32.8269 20.8013 33.1798 21.4605 33.4526L23.5314 29.0665C23.6713 28.7718 23.9873 28.6038 24.3085 28.6528C24.4354 28.6723 24.5663 28.6826 24.6997 28.6826C24.8331 28.6826 24.9639 28.6723 25.0908 28.6528C25.412 28.6037 25.728 28.7718 25.8679 29.0665L27.9388 33.4526C28.598 33.1798 29.2158 32.8269 29.7779 32.4055L26.9079 28.2779C26.7408 28.0374 26.733 27.7182 26.8885 27.4699C27.0024 27.2876 27.0931 27.0925 27.1592 26.8844C27.2628 26.5573 27.5801 26.3453 27.9233 26.3737L33.0922 26.8042C33.1453 26.4216 33.1725 26.0325 33.1725 25.6357C33.1725 25.3111 33.1544 24.9906 33.1182 24.6752L27.6021 25.1341C27.3224 25.1573 27.0542 25.0203 26.9092 24.7812C26.8432 24.6701 26.768 24.5653 26.6851 24.4657C26.474 24.2124 26.4585 23.8491 26.6476 23.5777L29.8737 18.9381C29.3091 18.5025 28.6874 18.1366 28.0217 17.8535L25.535 23.116C25.4082 23.3861 25.131 23.5528 24.8318 23.5374C24.7878 23.5348 24.7438 23.5335 24.6997 23.5335C24.6557 23.5335 24.6116 23.5348 24.5676 23.5374C24.2684 23.5528 23.9913 23.3861 23.8644 23.116L21.3777 17.8535C20.712 18.1367 20.0903 18.5025 19.5257 18.9381L22.7518 23.5777C22.9409 23.8491 22.9254 24.2124 22.7142 24.4657C22.6314 24.5653 22.5563 24.6701 22.4902 24.7812C22.3452 25.0203 22.0771 25.1573 21.7973 25.1341L16.2812 24.6752ZM16.5765 23.2235L20.9656 23.5893L18.4323 19.9452C17.5853 20.8721 16.943 21.989 16.5765 23.2235ZM22.7904 17.3949L24.6995 21.4371L26.6085 17.3949C25.9946 17.2527 25.3561 17.179 24.6995 17.179C24.0428 17.179 23.4043 17.2527 22.7904 17.3949ZM30.9666 19.9453L28.4333 23.5895L32.8224 23.2237C32.4559 21.9891 31.8136 20.8722 30.9666 19.9453ZM32.7591 28.2523L28.4332 27.8929L30.8837 31.4166C31.7242 30.5221 32.3705 29.4454 32.7591 28.2523ZM26.5192 33.8976L24.7513 30.1528H24.6995H24.6478L22.8799 33.8976C23.4666 34.0256 24.0753 34.0928 24.6995 34.0928C25.3238 34.0928 25.9338 34.0256 26.5192 33.8976ZM18.5152 31.4169L20.9655 27.8932L16.6397 28.2525C17.0283 29.4457 17.6746 30.5224 18.5152 31.4169ZM14.7526 25.636C14.7526 20.1525 19.2054 15.7081 24.6993 15.7081C30.1932 15.7081 34.6459 20.1525 34.6459 25.636C34.6459 31.1194 30.1932 35.5638 24.6993 35.5638C19.2054 35.5638 14.7526 31.1194 14.7526 25.636ZM24.6993 25.2688C24.2926 25.2688 23.9623 25.5971 23.9623 26.0031C23.9623 26.4103 24.2926 26.7386 24.6993 26.7386C25.106 26.7386 25.4363 26.4103 25.4363 26.0031C25.4363 25.5971 25.106 25.2688 24.6993 25.2688ZM22.4884 26.0031C22.4884 24.7853 23.478 23.7978 24.6993 23.7978C25.9206 23.7978 26.9101 24.7853 26.9101 26.0031C26.9101 27.2221 25.9206 28.2097 24.6993 28.2097C23.478 28.2097 22.4884 27.2221 22.4884 26.0031Z" fill="white"/>
</svg>
