<svg width="41" height="41" viewBox="0 0 41 41" fill="none" xmlns="http://www.w3.org/2000/svg">
<circle cx="20.5" cy="20.5" r="20.5" fill="#2768D0" fill-opacity="0.1"/>
<path d="M21 29C22.1819 29 23.3522 28.7672 24.4442 28.3149C25.5361 27.8626 26.5282 27.1997 27.364 26.364C28.1997 25.5282 28.8626 24.5361 29.3149 23.4442C29.7672 22.3522 30 21.1819 30 20C30 18.8181 29.7672 17.6478 29.3149 16.5558C28.8626 15.4639 28.1997 14.4718 27.364 13.636C26.5282 12.8003 25.5361 12.1374 24.4442 11.6851C23.3522 11.2328 22.1819 11 21 11C18.6131 11 16.3239 11.9482 14.636 13.636C12.9482 15.3239 12 17.6131 12 20C12 22.3869 12.9482 24.6761 14.636 26.364C16.3239 28.0518 18.6131 29 21 29ZM21 30.5C18.2152 30.5 15.5445 29.3938 13.5754 27.4246C11.6062 25.4555 10.5 22.7848 10.5 20C10.5 17.2152 11.6062 14.5445 13.5754 12.5754C15.5445 10.6062 18.2152 9.5 21 9.5C23.7848 9.5 26.4555 10.6062 28.4246 12.5754C30.3938 14.5445 31.5 17.2152 31.5 20C31.5 22.7848 30.3938 25.4555 28.4246 27.4246C26.4555 29.3938 23.7848 30.5 21 30.5Z" fill="#2768D0"/>
<path d="M13.5 20C13.5 18.0109 14.2902 16.1032 15.6967 14.6967C17.1032 13.2902 19.0109 12.5 21 12.5C22.9891 12.5 24.8968 13.2902 26.3033 14.6967C27.7098 16.1032 28.5 18.0109 28.5 20C28.5 20.1989 28.421 20.3897 28.2803 20.5303C28.1397 20.671 27.9489 20.75 27.75 20.75C27.5511 20.75 27.3603 20.671 27.2197 20.5303C27.079 20.3897 27 20.1989 27 20C27 18.4087 26.3679 16.8826 25.2426 15.7574C24.1174 14.6321 22.5913 14 21 14C19.4087 14 17.8826 14.6321 16.7574 15.7574C15.6321 16.8826 15 18.4087 15 20C15 20.1989 14.921 20.3897 14.7803 20.5303C14.6397 20.671 14.4489 20.75 14.25 20.75C14.0511 20.75 13.8603 20.671 13.7197 20.5303C13.579 20.3897 13.5 20.1989 13.5 20Z" fill="#2768D0"/>
<path d="M22.3697 22.7143C22.7906 23.0376 23.0836 23.4993 23.1971 24.0178C23.3105 24.5363 23.2369 25.0782 22.9895 25.5477C22.742 26.0172 22.3365 26.3841 21.8447 26.5836C21.3528 26.7831 20.8063 26.8023 20.3017 26.6378C19.7971 26.4733 19.3669 26.1357 19.0871 25.6847C18.8073 25.2337 18.6959 24.6983 18.7727 24.1731C18.8495 23.648 19.1094 23.1668 19.5066 22.8148C19.9038 22.4627 20.4126 22.2624 20.9432 22.2493L22.3727 17.8483C22.4023 17.7536 22.4504 17.6658 22.5142 17.5898C22.578 17.5139 22.6562 17.4514 22.7444 17.4059C22.8325 17.3604 22.9287 17.3328 23.0276 17.3247C23.1264 17.3167 23.2259 17.3283 23.3202 17.359C23.4146 17.3896 23.5019 17.4387 23.5771 17.5033C23.6523 17.5679 23.714 17.6468 23.7586 17.7354C23.8031 17.824 23.8296 17.9206 23.8366 18.0195C23.8436 18.1184 23.8309 18.2178 23.7992 18.3118L22.3697 22.7128V22.7143ZM20.7677 25.2133C20.8615 25.2438 20.9603 25.2556 21.0586 25.2479C21.1569 25.2402 21.2528 25.2133 21.3407 25.1685C21.4286 25.1238 21.5068 25.0622 21.5709 24.9873C21.635 24.9124 21.6837 24.8255 21.7142 24.7318C21.7447 24.638 21.7565 24.5391 21.7488 24.4408C21.7412 24.3425 21.7142 24.2467 21.6695 24.1588C21.6248 24.0709 21.5632 23.9927 21.4882 23.9286C21.4133 23.8645 21.3265 23.8158 21.2327 23.7853C21.0433 23.7236 20.8372 23.7397 20.6597 23.83C20.4822 23.9203 20.3479 24.0774 20.2862 24.2668C20.2245 24.4561 20.2406 24.6622 20.3309 24.8397C20.4212 25.0172 20.5783 25.1516 20.7677 25.2133Z" fill="#2768D0"/>
</svg>
