<svg width="50" height="50" viewBox="0 0 50 50" fill="none" xmlns="http://www.w3.org/2000/svg">
<circle cx="25" cy="25" r="25" fill="#DE18A2"/>
<path fill-rule="evenodd" clip-rule="evenodd" d="M26.5222 14.6765C25.5064 14.8712 24.5632 15.2704 23.7377 15.8297L22.5456 14.6376C22.3542 14.4462 22.0427 14.4462 21.8512 14.6376L20.5315 15.9573C20.34 16.1488 20.34 16.4603 20.5315 16.6518L21.7235 17.8438C21.1643 18.6692 20.7651 19.6124 20.5704 20.6282H18.885C18.6146 20.6282 18.394 20.8489 18.394 21.1194V21.419L19.7061 21.036L23.6675 22.1924C23.5896 19.7704 25.5292 17.7713 27.9468 17.7713C30.3115 17.7713 32.2284 19.6882 32.2284 22.0528C32.2284 24.2271 30.6079 26.0217 28.5093 26.2975C28.4768 27.9731 28.3708 30.0036 27.9002 31.6055H28.8803C29.1508 31.6055 29.3714 31.3848 29.3714 31.1144V29.4291C30.3872 29.2344 31.3304 28.8352 32.1559 28.276L33.348 29.4681C33.5395 29.6595 33.851 29.6595 34.0424 29.4681L35.3622 28.1484C35.5536 27.9569 35.5536 27.6454 35.3622 27.4539L34.1701 26.2618C34.7293 25.4365 35.1285 24.4932 35.3232 23.4774H37.0086C37.279 23.4774 37.4996 23.2567 37.4996 22.9863V21.1192C37.4996 20.8488 37.279 20.6281 37.0086 20.6281H35.3232C35.1285 19.6124 34.7293 18.6692 34.1701 17.8437L35.3622 16.6516C35.5536 16.4601 35.5536 16.1486 35.3622 15.9571L34.0424 14.6375C33.851 14.446 33.5395 14.446 33.348 14.6375L32.1559 15.8295C31.3305 15.2703 30.3872 14.8711 29.3714 14.6764V12.9911C29.3714 12.7207 29.1508 12.5 28.8803 12.5H27.0133C26.7428 12.5 26.5221 12.7207 26.5221 12.9911L26.5222 14.6765ZM19.7063 36.9623C18.4579 36.2386 17.1761 35.4739 16.0445 34.615C14.0606 33.1092 13.3542 31.8263 13.0459 29.3579C12.8718 27.9657 12.8426 26.4979 12.8371 25.0701L19.7063 23.0645L26.5765 25.0711C26.5711 26.499 26.5419 27.9669 26.3677 29.359C26.0595 31.8275 25.353 33.1104 23.3692 34.616C22.2367 35.475 20.9548 36.2397 19.7063 36.9634L19.7063 36.9623ZM21.7637 27.5816C21.8903 27.4551 22.0958 27.4551 22.2224 27.5816C22.3489 27.7082 22.3489 27.9137 22.2224 28.0402L19.1729 31.0897C19.0463 31.2163 18.8408 31.2163 18.7142 31.0897L17.189 29.5645C17.0624 29.4379 17.0624 29.2324 17.189 29.1059C17.3156 28.9793 17.521 28.9793 17.6476 29.1059L18.9425 30.4006L21.7627 27.5805L21.7637 27.5816ZM19.7063 38.4615C12.1902 34.1228 11.5381 33.0746 11.5381 24.0974L19.7063 21.7122L27.8755 24.0974C27.8755 33.0746 27.2232 34.1228 19.7063 38.4615ZM19.3807 37.5237C18.1063 36.7849 16.8267 36.0234 15.6519 35.132C13.5273 33.5192 12.7323 32.0803 12.4013 29.438C12.1979 27.8111 12.1915 26.2154 12.186 24.5833L19.7062 22.3874L27.2275 24.5833C27.2221 26.2156 27.2156 27.8111 27.0122 29.438C26.6823 32.0806 25.8861 33.5192 23.7617 35.132C22.4776 36.1066 21.0974 36.906 19.7061 37.713L19.3805 37.5248L19.3807 37.5237Z" fill="white"/>
</svg>
