<svg width="50" height="50" viewBox="0 0 50 50" fill="none" xmlns="http://www.w3.org/2000/svg">
<circle cx="25" cy="25" r="25" fill="#2795D0"/>
<path d="M25.3438 31.1073V27.0834C25.3438 26.8752 25.5128 26.7052 25.7198 26.7052H32.1028C33.5518 26.7052 34.7315 25.5193 34.7315 24.0605V20.06C35.832 19.6105 36.6093 18.5256 36.6093 17.2601C36.6093 15.594 35.2617 14.2383 33.6058 14.2383C31.9499 14.2383 30.6023 15.5941 30.6023 17.2601C30.6023 18.5256 31.3796 19.6105 32.4801 20.06V24.0605C32.4801 24.2687 32.3111 24.4387 32.1041 24.4387H25.721C25.5141 24.4387 25.3451 24.2687 25.3451 24.0605V20.06C26.4455 19.6105 27.2228 18.5256 27.2228 17.2601C27.2228 15.594 25.8752 14.2383 24.2194 14.2383C22.5635 14.2383 21.2159 15.5941 21.2159 17.2601C21.2159 18.5256 21.9932 19.6105 23.0937 20.06V24.0605C23.0937 24.2687 22.9246 24.4387 22.7177 24.4387H16.3314C16.1244 24.4387 15.9554 24.2687 15.9554 24.0605V20.06C17.0559 19.6105 17.8332 18.5256 17.8332 17.2601C17.8332 15.594 16.4855 14.2383 14.8296 14.2383C13.1738 14.2383 11.8262 15.5952 11.8262 17.2612C11.8262 18.5267 12.6035 19.6115 13.7039 20.0611V31.1072C12.6035 31.5567 11.8262 32.6415 11.8262 33.9071C11.8262 35.5732 13.1738 36.9289 14.8296 36.9289C16.4855 36.9289 17.8332 35.573 17.8332 33.9071C17.8332 32.6416 17.0559 31.5567 15.9554 31.1072V27.0834C15.9554 26.875 16.1244 26.7051 16.3314 26.7051H22.7144C22.9214 26.7051 23.0904 26.8751 23.0904 27.0834V31.1072C21.9899 31.5567 21.2126 32.6415 21.2126 33.9071C21.2126 35.5732 22.5602 36.9289 24.2161 36.9289C25.872 36.9289 27.2196 35.573 27.2196 33.9071C27.2196 32.6416 26.4423 31.5567 25.3418 31.1072L25.3438 31.1073ZM31.3521 17.2613C31.3521 16.0106 32.3618 14.9948 33.6048 14.9948C34.8479 14.9948 35.8575 16.0107 35.8575 17.2613C35.8575 18.5119 34.8479 19.5277 33.6048 19.5277C32.3618 19.5277 31.3521 18.5119 31.3521 17.2613ZM21.9642 17.2613C21.9642 16.0106 22.9739 14.9948 24.2169 14.9948C25.46 14.9948 26.4696 16.0107 26.4696 17.2613C26.4696 18.5119 25.46 19.5277 24.2169 19.5277C22.9739 19.5277 21.9642 18.5119 21.9642 17.2613ZM12.5764 17.2613C12.5764 16.0106 13.586 14.9948 14.829 14.9948C16.0721 14.9948 17.0817 16.0107 17.0817 17.2613C17.0817 18.5119 16.0721 19.5277 14.829 19.5277C13.586 19.5277 12.5764 18.5119 12.5764 17.2613ZM17.0817 33.9072C17.0817 35.1578 16.0721 36.1736 14.829 36.1736C13.586 36.1736 12.5764 35.1578 12.5764 33.9072C12.5764 32.6565 13.586 31.6407 14.829 31.6407C16.0721 31.6407 17.0817 32.6565 17.0817 33.9072ZM24.2169 36.1736C22.9739 36.1736 21.9642 35.1578 21.9642 33.9072C21.9642 32.6565 22.9739 31.6407 24.2169 31.6407C25.46 31.6407 26.4696 32.6565 26.4696 33.9072C26.4696 35.1578 25.46 36.1736 24.2169 36.1736Z" fill="white"/>
<path d="M34.7312 31.1066V28.5947C34.7312 27.971 34.2242 27.4609 33.6043 27.4609C32.9843 27.4609 32.4774 27.971 32.4774 28.5947V31.1066C31.3769 31.556 30.5996 32.641 30.5996 33.9064C30.5996 35.5725 31.9473 36.9283 33.6032 36.9283C35.259 36.9283 36.6066 35.5724 36.6066 33.9064C36.6066 32.641 35.8293 31.5561 34.7289 31.1066H34.7312ZM33.6043 36.1729C32.3612 36.1729 31.3516 35.1571 31.3516 33.9064C31.3516 32.6558 32.3612 31.64 33.6043 31.64C34.8473 31.64 35.857 32.6558 35.857 33.9064C35.857 35.1571 34.8473 36.1729 33.6043 36.1729Z" fill="white"/>
</svg>
