<svg width="31" height="33" viewBox="0 0 31 33" fill="none" xmlns="http://www.w3.org/2000/svg">
<path d="M0 3.90789C0 2.87146 0.408258 1.87747 1.13496 1.1446C1.86166 0.411723 2.84729 0 3.875 0H27.125C28.1527 0 29.1383 0.411723 29.865 1.1446C30.5917 1.87747 31 2.87146 31 3.90789V27.3553C31 27.7007 30.8639 28.0321 30.6217 28.2764C30.3794 28.5207 30.0509 28.6579 29.7083 28.6579H27.9861V14.3289C27.9861 14.1379 27.9654 13.9497 27.9241 13.7645L26.6514 7.98774C26.3963 6.83067 25.7577 5.79588 24.841 5.05416C23.9242 4.31243 22.7841 3.9081 21.6087 3.90789H9.39128C8.21571 3.90819 7.07539 4.31277 6.15858 5.05483C5.24178 5.7969 4.60332 6.83209 4.34861 7.98947L3.07417 13.7645C3.03374 13.9499 3.01353 14.1391 3.01389 14.3289V28.6579H1.29167C0.949095 28.6579 0.620555 28.5207 0.37832 28.2764C0.136086 28.0321 0 27.7007 0 27.3553V3.90789ZM9.39128 5.21053C8.50972 5.2107 7.65457 5.51401 6.96698 6.07039C6.2794 6.62677 5.80048 7.40296 5.60928 8.27084L4.33483 14.0458C4.31741 14.1392 4.30762 14.2339 4.30556 14.3289V29.9605C4.30556 31.6383 5.65578 33 7.31944 33H9.90278C10.7021 33 11.4687 32.6798 12.0339 32.1098C12.5991 31.5397 12.9167 30.7666 12.9167 29.9605V28.6579H18.0833V29.9605C18.0833 31.6383 19.4336 33 21.0972 33H23.6806C24.4799 33 25.2465 32.6798 25.8117 32.1098C26.3769 31.5397 26.6944 30.7666 26.6944 29.9605V14.3289C26.6918 14.2339 26.6814 14.1392 26.6634 14.0458L25.3907 8.27084C25.1995 7.40296 24.7206 6.62677 24.033 6.07039C23.3454 5.51401 22.4903 5.2107 21.6087 5.21053H9.39128ZM8.13061 8.83532C8.19446 8.54613 8.35415 8.28753 8.58333 8.10219C8.81252 7.91684 9.0975 7.81582 9.39128 7.81579H21.6087C21.9025 7.81582 22.1875 7.91684 22.4167 8.10219C22.6459 8.28753 22.8055 8.54613 22.8694 8.83532L23.7925 13.0263H7.2075L8.13061 8.83532ZM6.88889 29.9605V28.6579H10.3333V29.9605C10.3333 30.0757 10.288 30.1861 10.2072 30.2676C10.1265 30.349 10.017 30.3947 9.90278 30.3947H7.31944C7.20525 30.3947 7.09574 30.349 7.015 30.2676C6.93425 30.1861 6.88889 30.0757 6.88889 29.9605ZM24.1111 28.6579V29.9605C24.1111 30.0757 24.0657 30.1861 23.985 30.2676C23.9043 30.349 23.7947 30.3947 23.6806 30.3947H21.0972C20.983 30.3947 20.8735 30.349 20.7928 30.2676C20.712 30.1861 20.6667 30.0757 20.6667 29.9605V28.6579H24.1111ZM13.3472 23.4474H17.6528C17.9953 23.4474 18.3239 23.5846 18.5661 23.8289C18.8084 24.0732 18.9444 24.4045 18.9444 24.75C18.9444 25.0955 18.8084 25.4268 18.5661 25.6711C18.3239 25.9154 17.9953 26.0526 17.6528 26.0526H13.3472C13.0047 26.0526 12.6761 25.9154 12.4339 25.6711C12.1916 25.4268 12.0556 25.0955 12.0556 24.75C12.0556 24.4045 12.1916 24.0732 12.4339 23.8289C12.6761 23.5846 13.0047 23.4474 13.3472 23.4474ZM12.0642 19.1053C12.0642 19.5659 11.8827 20.0077 11.5597 20.3334C11.2368 20.6591 10.7987 20.8421 10.3419 20.8421C9.88518 20.8421 9.44713 20.6591 9.12415 20.3334C8.80117 20.0077 8.61972 19.5659 8.61972 19.1053C8.61972 18.6446 8.80117 18.2029 9.12415 17.8771C9.44713 17.5514 9.88518 17.3684 10.3419 17.3684C10.7987 17.3684 11.2368 17.5514 11.5597 17.8771C11.8827 18.2029 12.0642 18.6446 12.0642 19.1053ZM20.6667 20.8421C20.2099 20.8421 19.7719 20.6591 19.4489 20.3334C19.1259 20.0077 18.9444 19.5659 18.9444 19.1053C18.9444 18.6446 19.1259 18.2029 19.4489 17.8771C19.7719 17.5514 20.2099 17.3684 20.6667 17.3684C21.1234 17.3684 21.5615 17.5514 21.8845 17.8771C22.2074 18.2029 22.3889 18.6446 22.3889 19.1053C22.3889 19.5659 22.2074 20.0077 21.8845 20.3334C21.5615 20.6591 21.1234 20.8421 20.6667 20.8421Z" fill="#438D80"/>
</svg>
