<svg width="45" height="45" viewBox="0 0 45 45" fill="none" xmlns="http://www.w3.org/2000/svg">
<path d="M44.3854 22.1927C44.3854 34.4494 34.4494 44.3854 22.1927 44.3854C9.93602 44.3854 0 34.4494 0 22.1927C0 9.93602 9.93602 0 22.1927 0C34.4494 0 44.3854 9.93602 44.3854 22.1927ZM3.3511 22.1927C3.3511 32.5987 11.7868 41.0343 22.1927 41.0343C32.5987 41.0343 41.0343 32.5987 41.0343 22.1927C41.0343 11.7868 32.5987 3.3511 22.1927 3.3511C11.7868 3.3511 3.3511 11.7868 3.3511 22.1927Z" fill="#EAF1F8"/>
<path d="M1.90819 25.2736C0.993296 25.4126 0.357935 26.2689 0.565497 27.1707C1.46149 31.0636 3.39464 34.6535 6.17356 37.5519C9.34008 40.8545 13.45 43.0976 17.9406 43.9743C22.4312 44.8509 27.083 44.3182 31.2591 42.449C35.4352 40.5798 38.9316 37.4656 41.2695 33.5326C43.6074 29.5997 44.6725 25.0402 44.3191 20.4785C43.9657 15.9168 42.211 11.5759 39.2953 8.04991C36.3795 4.52396 32.4452 1.98538 28.031 0.781722C24.1572 -0.274601 20.0798 -0.257494 16.232 0.815454C15.3406 1.06401 14.8919 2.03134 15.207 2.90143C15.5221 3.77152 16.4816 4.21365 17.3763 3.97709C20.571 3.13233 23.9424 3.14028 27.1494 4.01478C30.8971 5.03669 34.2373 7.19194 36.7128 10.1855C39.1883 13.179 40.678 16.8645 40.978 20.7374C41.2781 24.6102 40.3738 28.4812 38.3889 31.8203C36.404 35.1594 33.4356 37.8034 29.8901 39.3903C26.3445 40.9772 22.3952 41.4295 18.5826 40.6852C14.7701 39.941 11.2808 38.0365 8.59246 35.2326C6.29185 32.8332 4.67402 29.8754 3.88962 26.6653C3.66996 25.7663 2.82307 25.1346 1.90819 25.2736Z" fill="#F07D30"/>
<path d="M31.2485 16.6988L31.2581 16.6885L27.9714 13.1441C27.6731 12.8223 27.1784 12.8223 26.8791 13.1441C26.5808 13.4669 26.5808 13.9994 26.8791 14.3221L28.5075 16.0768C27.4258 16.5209 26.6943 17.7102 26.8791 19.0876C27.0446 20.3098 28.0128 21.2987 29.1465 21.4313C29.6306 21.4868 30.0531 21.3984 30.4545 21.2093V29.2191C30.4545 29.8297 29.9906 30.3304 29.4247 30.3304C28.8578 30.3304 28.3939 29.8298 28.3939 29.2191V24.2203C28.3939 22.998 27.4671 21.9979 26.3334 21.9979H25.3027V14.2214C25.3027 13.0002 24.3759 12 23.2421 12H17.0605C15.9268 12 15 13.0002 15 14.2214V30.8853C15 31.4959 15.4639 31.9966 16.0307 31.9966H24.2728C24.8397 31.9966 25.3026 31.496 25.3026 30.8853V23.6641H26.8482V29.0641C26.8482 30.5186 27.8174 31.8406 29.1561 31.9856C30.7017 32.1521 32 30.8528 32 29.2193V18.6655C32 17.8997 31.7113 17.1997 31.2484 16.6991L31.2485 16.6988ZM23.2422 19.7764H17.0606V15.3325C17.0606 14.7219 17.5245 14.2213 18.0914 14.2213H22.2125C22.7794 14.2213 23.2423 14.7219 23.2423 15.3325L23.2422 19.7764ZM29.4248 19.7764C28.8579 19.7764 28.3941 19.2768 28.3941 18.6652C28.3941 18.0546 28.8579 17.555 29.4248 17.555C29.9907 17.555 30.4546 18.0545 30.4546 18.6652C30.4546 19.2768 29.9907 19.7764 29.4248 19.7764Z" fill="#F07D30"/>
</svg>
