<svg width="45" height="45" viewBox="0 0 45 45" fill="none" xmlns="http://www.w3.org/2000/svg">
<path d="M44.3854 22.1927C44.3854 34.4494 34.4494 44.3854 22.1927 44.3854C9.93602 44.3854 0 34.4494 0 22.1927C0 9.93602 9.93602 0 22.1927 0C34.4494 0 44.3854 9.93602 44.3854 22.1927ZM3.3511 22.1927C3.3511 32.5987 11.7868 41.0343 22.1927 41.0343C32.5987 41.0343 41.0343 32.5987 41.0343 22.1927C41.0343 11.7868 32.5987 3.3511 22.1927 3.3511C11.7868 3.3511 3.3511 11.7868 3.3511 22.1927Z" fill="#EAF1F8"/>
<path d="M8.35998 37.3456C7.73609 38.029 7.78075 39.0944 8.5093 39.665C11.8516 42.2826 15.8855 43.8943 20.1359 44.2899C24.944 44.7375 29.767 43.6045 33.873 41.063C37.979 38.5215 41.144 34.7101 42.8878 30.207C44.6317 25.7039 44.8592 20.7549 43.5358 16.1108C42.2124 11.4667 39.4104 7.38104 35.5549 4.47354C31.6993 1.56605 27.0007 -0.00455581 22.1717 9.91966e-06C17.3428 0.00457565 12.6471 1.58406 8.79706 4.49884C5.39363 7.07551 2.81523 10.5713 1.35472 14.5576C1.03636 15.4265 1.56001 16.3554 2.45044 16.6073C3.34087 16.8592 4.2599 16.338 4.58989 15.4735C5.8441 12.1876 7.99793 9.307 10.8198 7.17062C14.0885 4.69597 18.0751 3.35499 22.1749 3.35111C26.2747 3.34723 30.2638 4.68068 33.5372 7.14914C36.8106 9.6176 39.1894 13.0864 40.313 17.0292C41.4365 20.972 41.2434 25.1737 39.7629 28.9968C38.2824 32.8199 35.5953 36.0558 32.1093 38.2136C28.6233 40.3713 24.5286 41.3332 20.4464 40.9532C16.9223 40.6252 13.5736 39.3126 10.7757 37.1814C10.0396 36.6206 8.98388 36.6622 8.35998 37.3456Z" fill="#62C7A0"/>
<path d="M21.7734 33.5117C13.2287 33.6147 7.37535 24.2753 11.1877 16.6374C11.4686 16.0558 12.1683 15.8124 12.7511 16.0944C13.3327 16.3753 13.5761 17.0762 13.2941 17.6578C10.2421 23.7721 14.93 31.2557 21.7735 31.1713C34.263 30.654 34.2621 12.8563 21.7735 12.3404C20.3365 12.3404 18.958 12.6552 17.6754 13.2766C17.0938 13.5574 16.394 13.3152 16.1119 12.7336C15.8311 12.152 16.0733 11.4522 16.6549 11.1702C18.2581 10.3932 19.9808 10 21.7734 10C37.3665 10.6448 37.3653 32.8671 21.7734 33.5117Z" fill="#62C7A0"/>
<path d="M13.4741 13.4556C13.9305 12.9992 14.6724 12.9992 15.1288 13.4556L20.2308 18.5576C22.5396 17.4108 25.3481 19.1661 25.3236 21.7546C25.3236 23.7124 23.7309 25.3052 21.773 25.3052C19.1834 25.3297 17.4292 22.5224 18.576 20.2124L13.474 15.1104C13.0164 14.6529 13.0166 13.9119 13.4741 13.4556Z" fill="#62C7A0"/>
</svg>
