<svg width="45" height="45" viewBox="0 0 45 45" fill="none" xmlns="http://www.w3.org/2000/svg">
<path d="M44.3854 22.1927C44.3854 34.4494 34.4494 44.3854 22.1927 44.3854C9.93602 44.3854 0 34.4494 0 22.1927C0 9.93602 9.93602 0 22.1927 0C34.4494 0 44.3854 9.93602 44.3854 22.1927ZM3.3511 22.1927C3.3511 32.5987 11.7868 41.0343 22.1927 41.0343C32.5987 41.0343 41.0343 32.5987 41.0343 22.1927C41.0343 11.7868 32.5987 3.3511 22.1927 3.3511C11.7868 3.3511 3.3511 11.7868 3.3511 22.1927Z" fill="#EAF1F8"/>
<path d="M8.35998 37.3456C7.73609 38.029 7.78072 39.0944 8.50927 39.665C11.0298 41.639 13.9533 43.0485 17.0816 43.7889C20.7547 44.6581 24.5887 44.5762 28.2213 43.5509C31.8538 42.5256 35.1649 40.5907 37.8413 37.9292C40.5177 35.2677 42.4711 31.9676 43.5168 28.3408C44.5625 24.7141 44.6658 20.8805 43.8172 17.2027C42.9685 13.5249 41.1958 10.1242 38.6666 7.32239C36.1375 4.52053 32.9356 2.41003 29.3635 1.19043C26.3212 0.151696 23.0961 -0.211547 19.9115 0.117547C18.991 0.212669 18.3861 1.09077 18.5504 2.00145C18.7146 2.91213 19.5862 3.50933 20.5078 3.42658C23.1295 3.19119 25.778 3.50726 28.2807 4.36178C31.3134 5.39722 34.0318 7.18903 36.1791 9.56781C38.3263 11.9466 39.8313 14.8337 40.5519 17.9562C41.2724 21.0787 41.1846 24.3334 40.2969 27.4125C39.4091 30.4916 37.7507 33.2934 35.4784 35.553C33.2061 37.8126 30.395 39.4553 27.311 40.3258C24.2269 41.1963 20.9718 41.2659 17.8534 40.5278C15.2799 39.9188 12.8697 38.7763 10.7757 37.1813C10.0396 36.6206 8.98388 36.6622 8.35998 37.3456Z" fill="#356AC9"/>
<path d="M21.6944 33.5117C30.2391 33.6147 36.0924 24.2753 32.2801 16.6374C31.9992 16.0558 31.2994 15.8124 30.7167 16.0944C30.1351 16.3753 29.8917 17.0762 30.1737 17.6578C33.2257 23.7721 28.5377 31.2557 21.6943 31.1713C9.20477 30.654 9.20567 12.8563 21.6943 12.3404C23.1313 12.3404 24.5098 12.6552 25.7924 13.2766C26.374 13.5574 27.0738 13.3152 27.3558 12.7336C27.6367 12.152 27.3944 11.4522 26.8129 11.1702C25.2097 10.3932 23.487 10 21.6944 10C6.10128 10.6448 6.10248 32.8671 21.6944 33.5117Z" fill="#356AC9"/>
<path d="M29.9936 13.4556C29.5373 12.9992 28.7953 12.9992 28.339 13.4556L23.2369 18.5576C20.9281 17.4108 18.1196 19.1661 18.1442 21.7546C18.1442 23.7124 19.7369 25.3052 21.6947 25.3052C24.2844 25.3297 26.0385 22.5224 24.8918 20.2124L29.9938 15.1104C30.4513 14.6529 30.4512 13.9119 29.9936 13.4556Z" fill="#356AC9"/>
</svg>
