<svg width="40" height="40" viewBox="0 0 40 40" fill="none" xmlns="http://www.w3.org/2000/svg">
<rect width="40" height="40" rx="2" fill="white"/>
<path fill-rule="evenodd" clip-rule="evenodd" d="M13.0675 30.4147H13.0453C12.5022 30.4147 11.9626 30.4147 11.4207 30.4147C11.1736 30.4147 10.93 30.3569 10.7092 30.246V30.246C10.3126 30.0467 10.0177 29.6901 9.89642 29.2631L9.48783 27.8245C9.44136 27.6608 9.41595 27.492 9.41222 27.3219L9.3349 23.8011C9.33456 23.7858 9.3325 23.7706 9.32875 23.7558V23.7558C9.26784 23.5153 8.91177 23.5741 8.92794 23.8216C8.94733 24.1186 8.96383 24.4128 8.97603 24.705C8.98359 24.886 8.8116 25.0202 8.63722 24.9709V24.9709C8.52478 24.9392 8.44587 24.8384 8.44145 24.7216C8.41898 24.1275 8.38277 23.4853 8.33294 22.7745C8.30868 22.4286 7.95274 22.2092 7.63183 22.3406L7.09025 22.5623C7.0611 22.5743 7.02815 22.5536 7.02294 22.5225V22.5225C7.01914 22.4999 7.0317 22.4797 7.05292 22.4708L8.18139 22.0016C8.19417 21.9963 8.20149 21.9828 8.19893 21.9692V21.9692C8.1955 21.9509 8.17609 21.9404 8.1589 21.9475L7.62383 22.17C7.31536 22.2982 6.98496 22.0748 7.14835 21.7834C7.27637 21.5552 7.48444 21.3482 7.76163 21.1962C8.04721 21.0395 8.28007 20.7691 8.27843 20.4434L8.27714 20.1866C8.2763 20.0191 8.38904 19.8724 8.55108 19.83V19.83C8.75532 19.7765 8.96239 19.9061 9.00363 20.1132L9.5183 22.6974C9.58518 23.0206 9.63534 22.9558 9.85269 22.8853C10.6159 22.621 11.8641 22.4919 13.0565 22.5212C14.2545 22.4919 15.497 22.621 16.2605 22.8853C16.4776 22.9558 16.5278 23.0206 16.5947 22.6974L17.1147 20.1104C17.156 19.9048 17.3619 19.7766 17.5646 19.8301V19.8301C17.7251 19.8724 17.8367 20.018 17.8358 20.184L17.8345 20.4428C17.8328 20.7689 18.0659 21.0395 18.3517 21.1964C18.6287 21.3485 18.8367 21.5554 18.9646 21.7836C19.128 22.0749 18.7976 22.2982 18.4892 22.17L17.9541 21.9475C17.9369 21.9404 17.9175 21.9509 17.9141 21.9692V21.9692C17.9115 21.9828 17.9188 21.9963 17.9316 22.0016L19.065 22.4707C19.0866 22.4796 19.0993 22.5 19.0937 22.5227V22.5227C19.086 22.5536 19.0515 22.5742 19.0221 22.5621L18.4823 22.3411C18.1608 22.2094 17.8041 22.4293 17.7798 22.776C17.73 23.4872 17.6939 24.1297 17.6714 24.7242C17.6671 24.8395 17.5893 24.9391 17.4784 24.9707V24.9707C17.3057 25.02 17.1349 24.8872 17.1422 24.7077C17.1542 24.4147 17.1702 24.1198 17.189 23.8219C17.2047 23.5744 16.8451 23.5154 16.7842 23.7558V23.7558C16.7805 23.7706 16.7784 23.7858 16.7781 23.8011L16.7006 27.3243C16.6969 27.4928 16.6719 27.6601 16.6262 27.8223L16.2224 29.2567C16.1011 29.6876 15.8036 30.0472 15.4032 30.2473V30.2473C15.1828 30.3574 14.9397 30.4147 14.6934 30.4147C14.1511 30.4147 13.6112 30.4147 13.0675 30.4147Z" fill="black"/>
<path fill-rule="evenodd" clip-rule="evenodd" d="M13.1066 19.0465C13.1066 19.0483 13.1052 19.0497 13.1035 19.0497H13.0565H13.0095C13.0077 19.0497 13.0063 19.0483 13.0063 19.0465V19.0465C13.0063 19.0448 13.0049 19.0434 13.0032 19.0433C11.4755 19.0148 9.8994 19.2091 8.94841 19.6373C8.92315 19.6487 8.89741 19.6581 8.87066 19.6653V19.6653C8.56895 19.7462 8.26284 19.5213 8.22876 19.2108C8.18462 18.8085 8.12537 18.4082 8.12537 18.3857C8.12537 15.1617 8.49459 14.7735 8.78404 14.0438C8.85721 13.8594 8.99918 13.7069 9.18632 13.6409L9.89477 13.3911C10.0564 13.3341 10.2169 13.4792 10.1764 13.6458V13.6458C10.1586 13.7189 10.1041 13.7775 10.0325 13.8004L9.58506 13.9439C9.22949 14.0579 8.96078 14.3515 8.8787 14.7158L8.74383 15.3143L8.98482 14.6132C9.04951 14.4249 9.20826 14.2845 9.40296 14.2432V14.2432C9.75517 14.1686 10.0867 14.4372 10.0867 14.7973V18.4905C10.0867 18.5105 10.1029 18.5267 10.1229 18.5267V18.5267C10.1428 18.5267 10.159 18.5105 10.159 18.4905V14.1147C10.159 14.0336 10.1687 13.9527 10.188 13.8739V13.8739C10.2852 13.4762 10.6121 13.176 11.0166 13.1129L11.6636 13.012C11.7637 13 12.4882 13 13.0509 13H13.062C13.6249 13 14.3492 13 14.4495 13.012L15.0964 13.1129C15.5009 13.176 15.8277 13.4762 15.9249 13.8739V13.8739C15.9442 13.9527 15.954 14.0336 15.954 14.1147V18.4877C15.954 18.5092 15.9714 18.5267 15.9929 18.5267V18.5267C16.0144 18.5267 16.0319 18.5092 16.0319 18.4877V14.794C16.0319 14.4358 16.362 14.1687 16.7123 14.2434V14.2434C16.9055 14.2846 17.063 14.424 17.1273 14.6108L17.3693 15.3143L17.2344 14.7165C17.1521 14.3517 16.8832 14.0575 16.5272 13.9428L16.0839 13.7999C16.0135 13.7772 15.9596 13.7199 15.9414 13.6481V13.6481C15.8991 13.4816 16.0594 13.3352 16.2214 13.3923L16.931 13.6424C17.1155 13.7075 17.2559 13.8574 17.3285 14.0391C17.6212 14.7719 17.9877 15.1547 17.9877 18.3857C17.9877 18.4082 17.9288 18.8054 17.8861 19.2062C17.8529 19.5177 17.546 19.7459 17.2432 19.6655V19.6655C17.2158 19.6582 17.1895 19.6486 17.1637 19.6369C16.2179 19.2089 14.637 19.0148 13.1097 19.0433C13.108 19.0434 13.1066 19.0448 13.1066 19.0465V19.0465Z" fill="black"/>
<path d="M10.1478 34.5861V32.3156C10.1478 32.2972 10.1328 32.2822 10.1144 32.2822C10.096 32.2822 10.0811 32.2972 10.0811 32.3156V34.5861C10.0811 34.6045 10.096 34.6195 10.1144 34.6195C10.1328 34.6195 10.1478 34.6045 10.1478 34.5861Z" fill="black"/>
<path fill-rule="evenodd" clip-rule="evenodd" d="M13.3017 34.8018C13.3017 34.8504 13.3409 34.8899 13.3895 34.8901C15.1369 34.894 16.8924 34.6837 17.3132 34.2692C17.3347 34.248 17.3361 34.2148 17.32 34.1893V34.1893C17.2983 34.155 17.2521 34.1461 17.2188 34.1692C16.7124 34.5212 16.5819 34.5149 16.033 34.6138C15.9883 34.6219 15.956 34.5714 15.9824 34.5344V34.5344C15.9893 34.5248 15.9992 34.518 16.0106 34.515C16.2427 34.4538 16.4746 34.3927 16.7067 34.3355C16.7651 34.3211 16.8199 34.2946 16.8674 34.2576L17.1647 34.0254C17.2082 33.9914 17.2717 34.0034 17.2998 34.051V34.051C17.3369 34.1135 17.4285 34.11 17.4607 34.0448L17.8305 33.2955C17.8715 33.2125 17.8906 33.1206 17.8862 33.0281C17.7708 30.5766 17.7785 27.8892 17.6741 25.3446C17.6668 25.1652 17.4933 25.0405 17.3206 25.0899V25.0899C17.2037 25.1233 17.1219 25.2289 17.1198 25.3505C17.1058 26.1705 17.1321 26.9731 17.2361 27.7856C17.2394 27.8111 17.2389 27.8371 17.2346 27.8625L17.1301 28.4772C17.0998 28.6558 16.8423 28.6531 16.8157 28.4739V28.4739C16.7905 28.304 16.5512 28.289 16.5049 28.4543L16.1219 29.822C16.0995 29.902 16.0993 29.9868 16.1201 30.0673C16.3902 31.1156 16.3374 31.5254 16.1657 31.5536L15.0402 31.7182L13.6962 31.7622C13.4496 31.7702 13.2552 31.9749 13.2597 32.2215L13.2643 32.4695C13.2665 32.5857 13.1728 32.6811 13.0565 32.6811V32.6811C12.9403 32.6811 12.8466 32.5858 12.8488 32.4695L12.8533 32.2215C12.8578 31.9748 12.6634 31.7702 12.4168 31.7622L11.0729 31.7182L9.94739 31.5536C9.7811 31.5254 9.72842 31.116 9.99825 30.0686C10.0192 29.9873 10.0189 29.9016 9.99612 29.8209L9.60908 28.4515C9.56232 28.2861 9.32298 28.3014 9.29775 28.4715V28.4715C9.27111 28.6511 9.0131 28.6538 8.98266 28.4748L8.87851 27.8625C8.87419 27.8371 8.87371 27.8111 8.87699 27.7856C8.98103 26.9731 9.00715 26.1705 8.99328 25.3505C8.99122 25.2289 8.90941 25.1233 8.79248 25.0899V25.0899C8.61982 25.0405 8.44634 25.1652 8.43899 25.3446C8.3348 27.8885 8.34229 30.5751 8.22697 33.026C8.22256 33.1198 8.24212 33.2131 8.28406 33.2971L8.65757 34.0458C8.68999 34.1108 8.7815 34.1141 8.81851 34.0516V34.0516C8.84681 34.0038 8.91073 33.992 8.95428 34.0264L9.24742 34.2582C9.29377 34.2948 9.34736 34.3213 9.40465 34.3357L9.42777 34.3415C9.76227 34.4258 10.0868 34.1729 10.0868 33.828V32.3655C10.0868 32.3487 10.1005 32.335 10.1173 32.335V32.335C10.1342 32.335 10.1479 32.3487 10.1479 32.3655V34.5436C10.1479 34.5509 10.1501 34.5581 10.1542 34.5641V34.5641C10.1724 34.5909 10.1488 34.6263 10.117 34.6205C9.5367 34.5144 9.41179 34.5289 8.89408 34.1691C8.86087 34.146 8.81487 34.1549 8.79326 34.1891V34.1891C8.77706 34.2147 8.7786 34.248 8.8003 34.2692C9.22585 34.6836 10.9762 34.894 12.7236 34.8901C12.7722 34.8899 12.8114 34.8504 12.8114 34.8018V34.8018C12.8114 34.753 12.851 34.7134 12.8998 34.7134H13.2133C13.2621 34.7134 13.3017 34.753 13.3017 34.8018V34.8018Z" fill="black"/>
<path d="M16.032 34.586V32.3157C16.032 32.2972 16.017 32.2822 15.9985 32.2822C15.9801 32.2822 15.9651 32.2972 15.9651 32.3157V34.586C15.9651 34.6045 15.9801 34.6195 15.9985 34.6195C16.017 34.6195 16.032 34.6045 16.032 34.586Z" fill="black"/>
<path fill-rule="evenodd" clip-rule="evenodd" d="M26.8208 22.7058H26.7994C26.2784 22.7058 25.7607 22.7058 25.2409 22.7058C25.0039 22.7058 24.7702 22.6504 24.5584 22.544V22.544C24.1779 22.3527 23.895 22.0107 23.7786 21.601L23.3895 20.2309C23.343 20.0673 23.3176 19.8984 23.3139 19.7284L23.2399 16.3612C23.2396 16.3465 23.2376 16.3319 23.234 16.3177V16.3177C23.1756 16.087 22.834 16.1434 22.8495 16.3809C22.8681 16.6658 22.884 16.948 22.8957 17.2283C22.9029 17.402 22.7379 17.5306 22.5706 17.4834V17.4834C22.4628 17.453 22.3871 17.3563 22.3828 17.2443C22.3613 16.6743 22.3265 16.0582 22.2787 15.3764C22.2555 15.0445 21.914 14.834 21.6061 14.96L21.0866 15.1728C21.0586 15.1842 21.027 15.1644 21.022 15.1346V15.1346C21.0184 15.1129 21.0304 15.0935 21.0508 15.085L22.1333 14.6349C22.1456 14.6298 22.1526 14.6168 22.1502 14.6038V14.6038C22.1469 14.5862 22.1283 14.5761 22.1118 14.583L21.5985 14.7964C21.3025 14.9194 20.9856 14.7051 21.1423 14.4256C21.2651 14.2066 21.4647 14.0081 21.7307 13.8622C22.0046 13.7119 22.228 13.4525 22.2264 13.14L22.2252 12.8937C22.2244 12.733 22.3325 12.5922 22.488 12.5515V12.5515C22.6839 12.5003 22.8826 12.6246 22.9221 12.8232L23.4159 15.3024C23.48 15.6124 23.5282 15.5503 23.7367 15.4826C24.4689 15.229 25.6662 15.1053 26.8102 15.1333C27.9594 15.1053 29.1515 15.229 29.8838 15.4826C30.0922 15.5503 30.1403 15.6124 30.2045 15.3024L30.7034 12.8205C30.743 12.6234 30.9405 12.5003 31.1349 12.5516V12.5516C31.2889 12.5923 31.3959 12.7319 31.3951 12.8912L31.3938 13.1395C31.3922 13.4523 31.6158 13.7119 31.8901 13.8624C32.1558 14.0083 32.3553 14.2068 32.478 14.4257C32.6347 14.7052 32.3178 14.9194 32.0219 14.7964L31.5086 14.583C31.4921 14.5761 31.4735 14.5862 31.4702 14.6037V14.6037C31.4677 14.6168 31.4748 14.6298 31.487 14.6349L32.5743 15.0849C32.595 15.0934 32.6072 15.113 32.6018 15.1347V15.1347C32.5945 15.1644 32.5614 15.1842 32.5332 15.1726L32.0153 14.9606C31.7069 14.8342 31.3647 15.0452 31.3414 15.3777C31.2936 16.06 31.2589 16.6764 31.2374 17.2467C31.2332 17.3573 31.1587 17.4529 31.0522 17.4832V17.4832C30.8865 17.5305 30.7227 17.4031 30.7298 17.2309C30.7412 16.9498 30.7566 16.6669 30.7746 16.3812C30.7896 16.1437 30.4447 16.0871 30.3863 16.3177V16.3177C30.3827 16.3319 30.3807 16.3465 30.3804 16.3612L30.3063 19.7308C30.3026 19.8992 30.2776 20.0666 30.2319 20.2288L29.8473 21.5949C29.7309 22.0082 29.4456 22.3533 29.0614 22.5452V22.5452C28.85 22.6508 28.6168 22.7058 28.3805 22.7058C27.8603 22.7058 27.3424 22.7058 26.8208 22.7058Z" fill="black"/>
<path fill-rule="evenodd" clip-rule="evenodd" d="M26.8583 11.8006C26.8583 11.8023 26.8569 11.8036 26.8552 11.8036H26.8101H26.7651C26.7634 11.8036 26.762 11.8023 26.762 11.8006V11.8006C26.762 11.7989 26.7607 11.7976 26.759 11.7975C25.2935 11.7702 23.7815 11.9565 22.8692 12.3674C22.8449 12.3783 22.8202 12.3873 22.7946 12.3942V12.3942C22.5051 12.4718 22.2115 12.2561 22.1788 11.9582C22.1364 11.5723 22.0796 11.1883 22.0796 11.1666C22.0796 8.07376 22.4338 7.7014 22.7115 7.00138C22.7817 6.82444 22.9179 6.67811 23.0974 6.61482L23.777 6.37523C23.9321 6.32055 24.086 6.45972 24.0472 6.61953V6.61953C24.0302 6.68964 23.9779 6.74583 23.9091 6.76786L23.4799 6.90548C23.1388 7.01485 22.881 7.29654 22.8023 7.64599L22.6729 8.22014L22.9041 7.54755C22.9662 7.36699 23.1184 7.23226 23.3052 7.19267V7.19267C23.6431 7.12104 23.9612 7.37876 23.9612 7.72416V11.2672C23.9612 11.2864 23.9767 11.3019 23.9958 11.3019V11.3019C24.015 11.3019 24.0305 11.2864 24.0305 11.2672V7.06936C24.0305 6.99152 24.0398 6.91396 24.0583 6.83835V6.83835C24.1516 6.45684 24.4652 6.16886 24.8532 6.10832L25.4739 6.01147C25.57 6 26.265 6 26.8048 6H26.8154C27.3555 6 28.0503 6 28.1466 6.01147L28.7671 6.1083C29.1551 6.16886 29.4687 6.45684 29.562 6.83835V6.83835C29.5804 6.91396 29.5898 6.99152 29.5898 7.06936V11.2645C29.5898 11.2852 29.6065 11.3019 29.6272 11.3019V11.3019C29.6478 11.3019 29.6645 11.2852 29.6645 11.2645V7.72103C29.6645 7.3774 29.9812 7.12114 30.3173 7.19279V7.19279C30.5026 7.23232 30.6537 7.3661 30.7154 7.54532L30.9475 8.22014L30.8182 7.64671C30.7392 7.29672 30.4813 7.01448 30.1398 6.90445L29.7145 6.7674C29.6469 6.74562 29.5952 6.69061 29.5777 6.62178V6.62178C29.5372 6.46205 29.6909 6.32153 29.8464 6.37632L30.5271 6.61629C30.7041 6.6787 30.8388 6.82253 30.9084 6.99684C31.1892 7.6998 31.5408 8.06707 31.5408 11.1666C31.5408 11.1882 31.4843 11.5693 31.4434 11.9537C31.4115 12.2526 31.117 12.4715 30.8266 12.3944V12.3944C30.8003 12.3874 30.7751 12.3782 30.7504 12.367C29.843 11.9564 28.3264 11.7702 26.8613 11.7975C26.8596 11.7976 26.8583 11.7989 26.8583 11.8006V11.8006Z" fill="black"/>
<path d="M24.0197 26.7092V24.531C24.0197 24.5134 24.0054 24.499 23.9877 24.499C23.97 24.499 23.9557 24.5134 23.9557 24.531V26.7092C23.9557 26.7269 23.97 26.7412 23.9877 26.7412C24.0054 26.7412 24.0197 26.7269 24.0197 26.7092Z" fill="black"/>
<path fill-rule="evenodd" clip-rule="evenodd" d="M27.0456 26.9166C27.0456 26.9632 27.0832 27.0011 27.1298 27.0012C28.8062 27.005 30.4903 26.8032 30.894 26.4056C30.9146 26.3853 30.9159 26.3535 30.9005 26.329V26.329C30.8796 26.2961 30.8354 26.2875 30.8034 26.3097C30.3176 26.6473 30.1924 26.6413 29.6658 26.7362C29.6229 26.7439 29.592 26.6955 29.6173 26.66V26.66C29.6239 26.6509 29.6334 26.6442 29.6443 26.6414C29.8669 26.5827 30.0895 26.5241 30.3121 26.4692C30.3681 26.4554 30.4207 26.43 30.4662 26.3945L30.7515 26.1717C30.7932 26.1391 30.8541 26.1507 30.8811 26.1962V26.1962C30.9166 26.2563 31.0046 26.2529 31.0355 26.1904L31.3902 25.4715C31.4295 25.3919 31.4479 25.3037 31.4437 25.215C31.333 22.8632 31.3403 20.2851 31.2402 17.844C31.2331 17.6719 31.0667 17.5523 30.9011 17.5996V17.5996C30.7889 17.6317 30.7104 17.733 30.7084 17.8496C30.695 18.6363 30.7202 19.4062 30.82 20.1857C30.8231 20.2102 30.8227 20.2351 30.8185 20.2595L30.7183 20.8492C30.6892 21.0205 30.4422 21.0179 30.4167 20.846V20.846C30.3925 20.683 30.163 20.6686 30.1185 20.8273L29.7511 22.1393C29.7296 22.2161 29.7294 22.2974 29.7493 22.3746C30.0085 23.3803 29.9578 23.7734 29.7931 23.8005L28.7134 23.9583L27.424 24.0005C27.1875 24.0083 27.001 24.2046 27.0053 24.4412L27.0097 24.6791C27.0118 24.7906 26.9219 24.8821 26.8104 24.8821V24.8821C26.6989 24.8821 26.609 24.7906 26.6111 24.6791L26.6154 24.4412C26.6198 24.2046 26.4332 24.0083 26.1967 24.0005L24.9075 23.9583L23.8277 23.8005C23.6682 23.7734 23.6176 23.3806 23.8765 22.3758C23.8966 22.2979 23.8963 22.2157 23.8744 22.1382L23.5031 20.8245C23.4583 20.6658 23.2287 20.6806 23.2045 20.8437V20.8437C23.1789 21.016 22.9314 21.0186 22.9022 20.8469L22.8023 20.2595C22.7981 20.2351 22.7977 20.2102 22.8008 20.1857C22.9006 19.4062 22.9257 18.6363 22.9124 17.8496C22.9104 17.733 22.8319 17.6317 22.7198 17.5996V17.5996C22.5541 17.5523 22.3877 17.6719 22.3806 17.844C22.2807 20.2844 22.2879 22.8617 22.1773 25.213C22.173 25.303 22.1918 25.3924 22.232 25.4731L22.5903 26.1913C22.6214 26.2536 22.7092 26.2568 22.7447 26.1968V26.1968C22.7719 26.151 22.8332 26.1397 22.875 26.1727L23.1562 26.395C23.2007 26.4302 23.2521 26.4555 23.307 26.4694L23.3292 26.475C23.6501 26.5559 23.9615 26.3133 23.9615 25.9823V24.5793C23.9615 24.5632 23.9746 24.5501 23.9907 24.5501V24.5501C24.0069 24.5501 24.02 24.5632 24.02 24.5793V26.6689C24.02 26.6759 24.0221 26.6827 24.0261 26.6885V26.6885C24.0436 26.7142 24.0209 26.7482 23.9904 26.7426C23.4337 26.6409 23.3139 26.6548 22.8172 26.3096C22.7854 26.2874 22.7412 26.296 22.7205 26.3288V26.3288C22.705 26.3533 22.7064 26.3853 22.7273 26.4056C23.1355 26.8032 24.8146 27.005 26.491 27.0012C26.5376 27.0011 26.5753 26.9632 26.5753 26.9166V26.9166C26.5753 26.8698 26.6132 26.8318 26.6601 26.8318H26.9608C27.0076 26.8318 27.0456 26.8698 27.0456 26.9166V26.9166Z" fill="black"/>
<path d="M29.6645 26.7091V24.5311C29.6645 24.5134 29.6501 24.499 29.6324 24.499C29.6147 24.499 29.6003 24.5134 29.6003 24.5311V26.7091C29.6003 26.7268 29.6147 26.7412 29.6324 26.7412C29.6501 26.7412 29.6645 26.7268 29.6645 26.7091Z" fill="black"/>
</svg>
