<svg width="35" height="33" viewBox="0 0 35 33" fill="none" xmlns="http://www.w3.org/2000/svg">
<path d="M34.7652 15.6859C34.5832 14.8853 33.9281 14.7033 33.9281 14.7033L30.9438 15.0308L29.5244 11.719C28.9421 12.2285 28.2506 12.6288 27.5227 12.92L28.6874 15.6859L5.97741 15.6495L8.63419 9.49893L8.67058 9.42614C8.70697 9.35336 8.88895 8.95302 9.58043 8.84384H17.478C17.1868 8.15235 16.9684 7.38807 16.8593 6.5874H9.50765H9.39846C7.61515 6.76937 6.74169 7.93399 6.48693 8.66187L3.83016 14.9944L0.955023 14.7033C0.955023 14.7033 0.299928 14.8853 0.117958 15.6859C-0.0640129 16.4866 -0.282378 17.8696 1.53733 18.3427L2.51997 18.4519C1.31896 20.7447 0.0451695 24.8209 3.39343 28.2783C3.46622 28.3511 4.30328 29.0062 4.74001 29.1154V31.1171C4.74001 31.8813 5.35871 32.5 6.12299 32.5H7.9427C8.70697 32.5 9.32567 31.8813 9.32567 31.1171V29.2246H25.4847V31.0807C25.4847 31.8449 26.1034 32.4636 26.8677 32.4636H28.7238C29.488 32.4636 30.1067 31.8449 30.1067 31.0807V29.079C30.6162 28.9334 31.053 28.6423 31.3805 28.2419C34.8016 24.8573 33.7098 20.7811 32.5451 18.4155L33.3822 18.3427C35.1655 17.8696 34.9472 16.523 34.7652 15.6859ZM7.50597 23.5835C6.37775 23.5835 5.50429 22.6736 5.50429 21.5818C5.50429 20.4536 6.41414 19.5801 7.50597 19.5801C8.63419 19.5801 9.50765 20.49 9.50765 21.5818C9.50765 22.6736 8.59779 23.5835 7.50597 23.5835ZM26.9768 23.5835C25.8486 23.5835 24.9752 22.6736 24.9752 21.5818C24.9752 20.4536 25.885 19.5801 26.9768 19.5801C28.1051 19.5801 28.9785 20.49 28.9785 21.5818C29.0149 22.6736 28.1051 23.5835 26.9768 23.5835Z" fill="#4B5563"/>
<path d="M24.5748 0C21.3721 0 18.7882 2.58398 18.7882 5.75027C18.7882 8.91656 21.3721 11.5369 24.5748 11.5369C27.7775 11.5369 30.3615 8.95296 30.3615 5.75027C30.3615 2.54759 27.7411 0 24.5748 0ZM26.7949 6.36897H25.1935V7.97032C25.1935 8.29786 24.9024 8.58902 24.5748 8.58902C24.2473 8.58902 23.9561 8.29786 23.9561 7.97032V6.36897H22.3548C22.0272 6.36897 21.7361 6.07782 21.7361 5.75027C21.7361 5.42273 22.0272 5.13157 22.3548 5.13157H23.9561V3.53023C23.9561 3.20268 24.2473 2.91153 24.5748 2.91153C24.9024 2.91153 25.1935 3.20268 25.1935 3.53023V5.13157H26.7949C27.1224 5.13157 27.4136 5.42273 27.4136 5.75027C27.4136 6.07782 27.1224 6.36897 26.7949 6.36897Z" fill="#4B5563"/>
</svg>
