<svg width="35" height="33" viewBox="0 0 35 33" fill="none" xmlns="http://www.w3.org/2000/svg">
<path d="M30.1215 12.1145V12.1165C30.5789 12.1145 30.9474 12.4849 30.9474 12.9424C30.9474 13.3978 30.5769 13.7703 30.1215 13.7703H4.21241C3.75496 13.7703 3.38451 13.3999 3.38451 12.9424C3.38451 12.4849 3.75493 12.1145 4.21241 12.1145L30.1215 12.1145ZM6.4266 17.4419V17.4439H8.02768C8.40822 17.4439 8.71587 17.7516 8.71587 18.1321V19.4377C8.71587 19.8182 8.4082 20.1259 8.02768 20.1259L6.4266 20.1279V20.1259C6.24443 20.1259 6.07035 20.053 5.94081 19.9255C5.81126 19.796 5.73839 19.6199 5.73839 19.4377V18.1301C5.73839 17.9479 5.81126 17.7718 5.94081 17.6443C6.07035 17.5148 6.24443 17.4419 6.4266 17.4419ZM19.6786 17.4419V17.4439H21.2796C21.6582 17.4439 21.9678 17.7516 21.9678 18.1321V19.4377C21.9678 19.8182 21.6581 20.1259 21.2796 20.1259L19.6786 20.1279V20.1259C19.4964 20.1259 19.3203 20.053 19.1928 19.9255C19.0632 19.796 18.9904 19.6199 18.9904 19.4377V18.1301C18.9904 17.9479 19.0632 17.7718 19.1928 17.6443C19.3203 17.5148 19.4964 17.4419 19.6786 17.4419ZM13.0536 17.4622V17.4642H14.6527C15.0332 17.4642 15.3409 17.7719 15.3409 18.1524V19.4579C15.3409 19.8385 15.0332 20.1461 14.6527 20.1461L13.0536 20.1482V20.1461C12.8694 20.1461 12.6953 20.0753 12.5658 19.9457C12.4363 19.8162 12.3654 19.6421 12.3654 19.4579V18.1503C12.3654 17.9682 12.4363 17.7941 12.5658 17.6645C12.6953 17.535 12.8694 17.4622 13.0536 17.4622ZM26.3056 17.4642H27.9046C28.2852 17.4642 28.5928 17.7719 28.5928 18.1524V19.4579C28.5928 19.8385 28.2852 20.1461 27.9046 20.1461L26.3056 20.1482L26.3036 20.1461C26.1214 20.1461 25.9473 20.0753 25.8178 19.9457C25.6882 19.8162 25.6154 19.6421 25.6154 19.4579V18.1503C25.6154 17.9682 25.6882 17.7941 25.8178 17.6645C25.9473 17.535 26.1214 17.4621 26.3036 17.4621L26.3056 17.4642ZM6.4266 24.5405H8.02768C8.40822 24.5405 8.71587 24.8482 8.71587 25.2287V26.5343C8.71587 26.9148 8.4082 27.2225 8.02768 27.2225L6.4266 27.2245C6.24443 27.2245 6.07035 27.1516 5.94081 27.0221C5.81126 26.8925 5.73839 26.7185 5.73839 26.5363V25.2287C5.73839 25.0445 5.81126 24.8704 5.94081 24.7409C6.07035 24.6113 6.24443 24.5405 6.4266 24.5405ZM19.6786 24.5405H21.2796C21.6582 24.5405 21.9678 24.8482 21.9678 25.2287V26.5343C21.9678 26.9148 21.6581 27.2225 21.2796 27.2225L19.6786 27.2245C19.4964 27.2245 19.3203 27.1516 19.1928 27.0221C19.0632 26.8925 18.9904 26.7185 18.9904 26.5363V25.2287C18.9904 25.0445 19.0632 24.8704 19.1928 24.7409C19.3203 24.6113 19.4964 24.5405 19.6786 24.5405ZM13.0536 24.5608H14.6527C15.0332 24.5608 15.3409 24.8684 15.3409 25.249V26.5545C15.3409 26.9351 15.0332 27.2427 14.6527 27.2427L13.0536 27.2447C12.8694 27.2447 12.6953 27.1719 12.5658 27.0423C12.4363 26.9128 12.3654 26.7387 12.3654 26.5565V25.2489C12.3654 25.0647 12.4363 24.8907 12.5658 24.7611C12.6953 24.6316 12.8694 24.5608 13.0536 24.5608ZM26.3056 24.5608H27.9046C28.2852 24.5608 28.5928 24.8684 28.5928 25.249V26.5545C28.5928 26.9351 28.2852 27.2427 27.9046 27.2427L26.3056 27.2447H26.3036C26.1214 27.2447 25.9473 27.1719 25.8178 27.0423C25.6882 26.9128 25.6154 26.7387 25.6154 26.5565V25.2489C25.6154 25.0647 25.6882 24.8907 25.8178 24.7611C25.9473 24.6316 26.1214 24.5607 26.3036 24.5607L26.3056 24.5608ZM6.64527 0V0.00202415H6.64325C5.58056 1.29576e-07 4.64338 0.540466 4.08877 1.36023L4.08675 1.36225C4.00376 1.4918 3.9572 1.64361 3.9572 1.80757V1.80959C3.9572 2.26503 4.32762 2.63749 4.78308 2.63749C5.05836 2.63749 5.29721 2.50592 5.44697 2.30148L5.449 2.29946C5.70404 1.90879 6.14533 1.65173 6.64527 1.65173C7.43669 1.65173 8.07633 2.29339 8.07633 3.08279V6.09674C8.07633 6.88412 7.43871 7.52376 6.65133 7.5278H6.64324C6.18578 7.5278 5.81534 7.89822 5.81534 8.3557V8.35772C5.81534 8.81316 6.18576 9.1836 6.64324 9.1836C6.67765 9.1836 6.70598 9.1836 6.73837 9.17955L6.74242 9.17753C7.53995 9.15324 8.26255 8.82533 8.7969 8.30512H8.79893V8.34965V8.35168C8.79893 9.43255 7.9245 10.309 6.84362 10.309C5.76275 10.309 4.8863 9.43255 4.8863 8.35168V8.34965C4.8863 7.26878 5.76275 6.39435 6.84362 6.39435C6.96709 6.39435 7.08449 6.40447 7.2019 6.42673H7.20392C7.26262 6.32957 7.29501 6.21622 7.29501 6.09679V3.20027H2.47551V3.20229C1.11326 3.20431 0.0101045 4.29736 0 5.65759V30.0427C0.0101206 31.4029 1.11326 32.4939 2.47551 32.5H31.8579C33.2182 32.4939 34.3213 31.4029 34.3314 30.0427V5.65759C34.3213 4.29736 33.2182 3.20431 31.8579 3.20027H30.3763V3.08287C30.3763 1.38054 28.9958 0.000104765 27.2915 0.000104765L27.2894 0.00212891C26.2268 0.000104895 25.2896 0.540572 24.735 1.36033V1.36236C24.65 1.4919 24.6034 1.64371 24.6034 1.80767V1.8097C24.6034 2.26513 24.9738 2.6376 25.4313 2.6376C25.7046 2.6376 25.9434 2.50602 26.0932 2.30159L26.0952 2.29956C26.3502 1.9089 26.7915 1.65184 27.2915 1.65184C28.0829 1.65184 28.7225 2.2935 28.7225 3.0829V6.09685C28.7225 6.88422 28.0849 7.52387 27.2975 7.52791H27.2894C26.832 7.52791 26.4615 7.89832 26.4615 8.3558V8.35783C26.4615 8.81326 26.8319 9.18371 27.2894 9.18371C27.3238 9.18371 27.3522 9.18371 27.3846 9.17966L27.3886 9.17763C28.1882 9.15334 28.9087 8.82543 29.4431 8.30522C29.4471 8.33559 29.4471 8.34976 29.4471 8.34976V8.35178C29.4471 9.43265 28.5707 10.3091 27.4898 10.3091C26.4089 10.3091 25.5325 9.43265 25.5325 8.35178V8.34976C25.5325 7.26888 26.4089 6.39445 27.4898 6.39445C27.6133 6.39445 27.7327 6.40659 27.8501 6.42684C27.9088 6.32968 27.9412 6.21633 27.9412 6.0969V3.20037H20.0529V3.08297C20.0529 1.38064 18.6724 0.000207554 16.9681 0.000207554L16.9661 0.0022317C15.9034 0.000207684 14.9662 0.540674 14.4116 1.36044V1.36246C14.3266 1.49201 14.2801 1.64382 14.2801 1.80777V1.8098C14.2801 2.26523 14.6505 2.6377 15.108 2.6377C15.3812 2.6377 15.6201 2.50613 15.7698 2.30169L15.7719 2.29966C16.0269 1.909 16.4682 1.65194 16.9681 1.65194C17.7596 1.65194 18.3992 2.2936 18.3992 3.083V6.09695C18.3992 6.88432 17.7616 7.52397 16.9742 7.52801H16.9661C16.5086 7.52801 16.1382 7.89843 16.1382 8.35591V8.35793C16.1382 8.81337 16.5086 9.18381 16.9661 9.18381C17.0005 9.18381 17.0288 9.18381 17.0612 9.17976L17.0653 9.17774C17.8648 9.15345 18.5854 8.82553 19.1198 8.30533C19.1238 8.33569 19.1238 8.34986 19.1238 8.34986V8.35188C19.1238 9.43275 18.2474 10.3092 17.1665 10.3092C16.0856 10.3092 15.2092 9.43275 15.2092 8.35188V8.34986C15.2092 7.26898 16.0856 6.39455 17.1665 6.39455C17.29 6.39455 17.4094 6.40467 17.5268 6.42694C17.5855 6.32978 17.6179 6.21643 17.6179 6.097V3.20047H9.72753V3.08307C9.72753 1.38074 8.34906 0.000309354 6.64476 0.000309354L6.64527 0Z" fill="#458D81"/>
</svg>
