<svg xmlns="http://www.w3.org/2000/svg" version="1.1" viewBox="-5.0 -10.0 110.0 135.0">
 <path d="m49.996 9.8984c-4.7109 0.003906-8.957 2.8398-10.758 7.1914-1.8047 4.3516-0.80469 9.3594 2.5234 12.691 3.332 3.332 8.3398 4.3281 12.691 2.5234 4.3516-1.8008 7.1914-6.0469 7.1914-10.758-0.007812-6.4297-5.2188-11.641-11.648-11.648zm0 19.777c-3.2891 0-6.25-1.9805-7.5117-5.0195-1.2578-3.0352-0.5625-6.5352 1.7656-8.8594 2.3242-2.3242 5.8203-3.0195 8.8594-1.7617 3.0391 1.2578 5.0195 4.2227 5.0195 7.5117-0.003906 4.4883-3.6445 8.125-8.1328 8.1289zm0 4.3672c-4.7109 0-8.957 2.8398-10.758 7.1914-1.8047 4.3516-0.80469 9.3594 2.5234 12.691 3.332 3.332 8.3398 4.3281 12.691 2.5234 4.3516-1.8008 7.1914-6.0469 7.1914-10.758-0.007812-6.4297-5.2188-11.641-11.648-11.648zm0 19.777c-3.2891 0-6.25-1.9805-7.5117-5.0195-1.2578-3.0352-0.5625-6.5352 1.7656-8.8594 2.3242-2.3242 5.8203-3.0195 8.8594-1.7617 3.0391 1.2578 5.0195 4.2227 5.0195 7.5117-0.003906 4.4883-3.6445 8.125-8.1328 8.1289zm0 4.3672c-4.7109 0-8.957 2.8398-10.758 7.1914-1.8047 4.3516-0.80469 9.3594 2.5234 12.691 3.332 3.332 8.3398 4.3281 12.691 2.5234 4.3516-1.8008 7.1914-6.0469 7.1914-10.758-0.007812-6.4297-5.2188-11.641-11.648-11.648zm0 19.777c-3.2891 0-6.25-1.9805-7.5117-5.0195-1.2578-3.0391-0.5625-6.5352 1.7656-8.8594 2.3242-2.3242 5.8203-3.0195 8.8594-1.7617 3.0391 1.2578 5.0195 4.2227 5.0195 7.5117-0.003906 4.4883-3.6445 8.125-8.1328 8.1289zm25.781-29.348c2.2422-2.9883 3.4492-6.6289 3.4375-10.367 0-0.46484-0.18359-0.91406-0.51562-1.2422-0.32812-0.33203-0.77344-0.51562-1.2422-0.51562h-9.1641v-6.2695c2.9727-1.1953 5.5625-3.1836 7.4844-5.75 2.2422-2.9883 3.4492-6.6289 3.4375-10.367 0-0.46484-0.18359-0.91406-0.51562-1.2422-0.32812-0.33203-0.77344-0.51562-1.2422-0.51562h-9.3516c-1.0039-5.5625-5.8398-9.6094-11.492-9.6172h-13.227c-5.6523 0.007812-10.488 4.0547-11.492 9.6172h-9.3516c-0.46875 0-0.91406 0.18359-1.2422 0.51562-0.33203 0.32812-0.51562 0.77734-0.51562 1.2422-0.011718 3.4727 1.0234 6.8711 2.9727 9.7461 1.9453 2.8789 4.7188 5.0977 7.9492 6.375v6.2656h-9.1641c-0.46875 0-0.91406 0.18359-1.2422 0.51562-0.33203 0.32813-0.51562 0.77734-0.51562 1.2422-0.011718 3.4727 1.0234 6.8711 2.9727 9.7461 1.9453 2.8789 4.7188 5.0977 7.9492 6.375v6.2656h-9.1641c-0.46875 0-0.91406 0.18359-1.2422 0.51562-0.33203 0.32812-0.51562 0.77344-0.51562 1.2422-0.011718 3.4922 1.0352 6.9102 3.0039 9.7969 1.9727 2.8828 4.7695 5.1055 8.0273 6.3672 0.53906 3.8906 2.9961 7.2539 6.5391 8.9531v10.73c0 0.46484 0.1875 0.91406 0.51562 1.2422 0.33203 0.33203 0.77734 0.51562 1.2422 0.51562h19.773c0.46484 0 0.91016-0.18359 1.2422-0.51562 0.32812-0.32812 0.51562-0.77734 0.51562-1.2422v-10.73c3.543-1.6992 6-5.0625 6.5391-8.957 3.0195-1.1914 5.6484-3.1953 7.5938-5.793 2.2422-2.9883 3.4492-6.6289 3.4375-10.367 0-0.46875-0.18359-0.91406-0.51562-1.2422-0.32812-0.33203-0.77344-0.51562-1.2422-0.51562h-9.1641v-6.2695c2.9727-1.1953 5.5625-3.1836 7.4844-5.75zm-7.4844-32.754h7.2969c-0.55859 4.4883-3.2852 8.4141-7.2969 10.504zm0 24.145h7.2969c-0.55859 4.4883-3.2852 8.4141-7.2969 10.504zm-36.586 34.648c-4.0117-2.0859-6.7422-6.0156-7.2969-10.504h7.2969zm0-24.145c-4.0117-2.0859-6.7422-6.0156-7.2969-10.504h7.2969zm0-24.145c-4.0117-2.0859-6.7422-6.0156-7.2969-10.504h7.2969zm26.422 70.117h-16.258v-7.9336c0.50391 0.066407 1.0078 0.097657 1.5156 0.097657h13.227c0.50781 0 1.0117-0.03125 1.5156-0.097657zm6.6484-67.496v8.8984c-0.039063 0.17578-0.046875 0.35547-0.03125 0.53906 0.019531 0.20312 0.03125 0.42188 0.03125 0.66797v22.938c-0.039063 0.17578-0.046875 0.35547-0.03125 0.53906 0.019531 0.20313 0.03125 0.42188 0.03125 0.66797v13.734c0 2.6953-1.3359 5.2188-3.5625 6.7383-0.33594-0.38672-0.82031-0.60938-1.3281-0.60938h-19.773c-0.50781 0-0.99219 0.22266-1.3281 0.60938-2.2266-1.5195-3.5625-4.043-3.5625-6.7383v-13.738c0-0.24609 0.007813-0.46484 0.03125-0.66797v0.003906c0.015625-0.18359 0.007813-0.36328-0.03125-0.53906v-22.941c0-0.24609 0.007813-0.46484 0.03125-0.66797v0.003906c0.015625-0.18359 0.007813-0.36328-0.03125-0.53906v-22.934c0-0.25 0.007813-0.46484 0.03125-0.67578 0.011719-0.13672 0.007813-0.27734-0.011718-0.41016 0.29297-4.2852 3.8516-7.6133 8.1445-7.6211h13.227c4.293 0.007812 7.8516 3.3359 8.1445 7.6211-0.019531 0.13281-0.023437 0.27344-0.011718 0.41016 0.019531 0.21094 0.03125 0.42578 0.03125 0.67578zm10.812 35.164c-0.55859 4.4883-3.2852 8.4141-7.2969 10.504v-10.504z"/>
</svg>