<svg xmlns="http://www.w3.org/2000/svg" version="1.1" viewBox="-5.0 -10.0 110.0 135.0">
 <path d="m56.023 42.793c2.8789 2.875 3.3281 7.3828 1.0703 10.77-2.2578 3.3828-6.5938 4.7031-10.352 3.1445-3.7617-1.5547-5.8984-5.5508-5.1055-9.5391 0.79297-3.9922 4.293-6.8672 8.3633-6.8672 2.2578-0.003906 4.4258 0.89453 6.0234 2.4922zm-12.633 48.594c-0.64062 0-1.2812-0.054688-1.9102-0.16016v8.7734h17.043l-0.003907-8.7734c-0.62891 0.10547-1.2695 0.16016-1.9102 0.16016zm6.6094-26.941c-4.0625 0.003907-7.5586 2.875-8.3477 6.8594-0.78906 3.9844 1.3438 7.9727 5.0977 9.5234 3.7539 1.5547 8.082 0.23828 10.336-3.1406 2.2578-3.3789 1.8125-7.8789-1.0625-10.75-1.5977-1.5977-3.7656-2.4961-6.0234-2.4922zm0-48.289c-4.0625 0.003906-7.5586 2.875-8.3477 6.8594-0.78906 3.9844 1.3438 7.9727 5.0977 9.5273 3.7539 1.5508 8.082 0.23438 10.336-3.1445 2.2578-3.3789 1.8125-7.8789-1.0625-10.75-1.5977-1.5977-3.7656-2.4961-6.0234-2.4922zm15.137 1.1914c0.011719 0.17578 0.023437 0.30078 0.027343 0.36719v23.352c-0.027343 0.13672-0.039062 0.28125-0.027343 0.42578 0.011719 0.17578 0.023437 0.30078 0.027343 0.36719v23.352c-0.027343 0.13672-0.039062 0.28125-0.027343 0.42578 0.011719 0.17578 0.023437 0.30078 0.027343 0.36719v14.094c0 2.2656-0.90625 4.4414-2.5117 6.0391-0.46875 0.46875-0.98828 0.87891-1.5469 1.2305-0.23438-0.46094-0.70312-0.75-1.2188-0.75h-19.773c-0.51562 0-0.98438 0.28906-1.2188 0.75-0.5625-0.35156-1.082-0.76172-1.5508-1.2305-1.6094-1.5977-2.5117-3.7734-2.5117-6.0391v-13.777c0-0.16016 0.003907-0.26562 0.003907-0.32031 0.003906-0.066406 0.011718-0.1875 0.027343-0.36719v0.003907c0.011719-0.14453 0-0.28906-0.03125-0.42578v-23.035c0-0.16016 0.003907-0.26562 0.003907-0.32031 0.003906-0.066407 0.011718-0.1875 0.027343-0.36719v0.003907c0.011719-0.14453 0-0.28906-0.03125-0.42578v-23.031c0-0.16016 0.003907-0.26562 0.003907-0.32031 0.003906-0.066406 0.011718-0.1875 0.027343-0.36719 0.011719-0.11719 0.003907-0.23047-0.015625-0.34375 0.29688-4.5039 4.0312-8.0039 8.543-8.0156h13.219c4.5117 0.015625 8.2383 3.5156 8.5391 8.0156-0.019532 0.11328-0.023438 0.23047-0.011719 0.34375zm-3.8867 55.613c-0.003906-5.3672-3.7969-9.9805-9.0586-11.023-5.2617-1.043-10.531 1.7734-12.582 6.7305s-0.3125 10.676 4.1484 13.652c4.4609 2.9805 10.406 2.3945 14.199-1.3984 2.1133-2.1094 3.3008-4.9766 3.293-7.9609zm0-24.145c-0.003906-5.3672-3.7969-9.9805-9.0586-11.023-5.2617-1.043-10.531 1.7734-12.582 6.7305-2.0508 4.957-0.3125 10.676 4.1484 13.652 4.4609 2.9805 10.406 2.3945 14.199-1.3984 2.1133-2.1094 3.3008-4.9766 3.293-7.9609zm0-24.141c0-5.3633-3.793-9.9805-9.0547-11.027-5.2617-1.0469-10.531 1.7734-12.582 6.7305-2.0547 4.957-0.32031 10.672 4.1406 13.652 4.4609 2.9805 10.406 2.3945 14.203-1.3984 2.1133-2.1094 3.2969-4.9727 3.293-7.957zm12.09 0.96875c1.5195-2.0586 2.4453-4.4922 2.6875-7.0391h-8.1289v11.516c2.1602-1.0117 4.0312-2.5508 5.4414-4.4766zm-5.4414 28.617v0.003906c4.5547-2.1328 7.6445-6.5117 8.1289-11.52h-8.1289zm0 24.145c4.5586-2.1289 7.6484-6.5117 8.1289-11.52h-8.1289zm-41.246-52.762c1.4141 1.9219 3.2852 3.4609 5.4414 4.4766v-11.516h-8.1211c0.24219 2.543 1.168 4.9766 2.6797 7.0391zm0 24.145c1.4141 1.9219 3.2852 3.4609 5.4414 4.4766v-11.52h-8.1211c0.24219 2.5469 1.168 4.9805 2.6797 7.043zm0 24.145c1.4141 1.9219 3.2852 3.4609 5.4414 4.4727v-11.52h-8.1211c0.24219 2.5469 1.168 4.9844 2.6797 7.0469z"/>
</svg>