<svg width="56" height="56" viewBox="0 0 56 56" fill="none" xmlns="http://www.w3.org/2000/svg">
<g filter="url(#filter0_i_243_20)">
<circle cx="28" cy="28" r="28" fill="#04C088"/>
</g>
<path fill-rule="evenodd" clip-rule="evenodd" d="M41.0194 24.0256C41.1399 24.1399 41.214 24.2966 41.214 24.4697C41.214 24.6428 41.1399 24.7996 41.0194 24.9139C40.8988 25.0282 40.7335 25.0984 40.551 25.0984C40.3685 25.0984 40.2032 25.0282 40.0827 24.9139C39.9621 24.7996 39.8881 24.6428 39.8881 24.4697C39.8881 24.2966 39.9621 24.1399 40.0827 24.0256C40.2032 23.9113 40.3685 23.8411 40.551 23.8411C40.7335 23.8411 40.8988 23.9113 41.0194 24.0256ZM44.9815 29.8092L10.0166 29.8076C9.96669 30.6159 10.027 31.4225 10.2284 32.2292C10.4368 33.0619 10.8001 33.8963 11.3528 34.7307L15.3614 34.7242L14.8466 32.4349C14.8259 32.3418 14.8879 32.252 14.9861 32.2324C14.9981 32.2292 15.0119 32.2292 15.0239 32.2292H39.7625C39.8624 32.2292 39.9433 32.3059 39.9433 32.4006C39.9433 32.4169 39.9416 32.4316 39.9364 32.4463L39.4336 34.6834L43.7711 34.6752C44.2412 33.9372 44.5683 33.1632 44.7664 32.3582C44.9678 31.5385 45.035 30.6877 44.9833 29.806L44.9815 29.8092ZM44.978 29.4663H10.0286V21.7887C10.0286 21.5715 10.1216 21.3755 10.2731 21.2319C10.4246 21.0882 10.6313 21 10.8603 21H44.1465C44.3756 21 44.5822 21.0882 44.7337 21.2319C44.8852 21.3756 44.9782 21.5715 44.9782 21.7887L44.978 29.4663ZM15.7296 24.5221C15.7296 24.3327 15.5677 24.1808 15.368 24.1808H13.9044C13.7046 24.1808 13.5445 24.3343 13.5445 24.5221C13.5445 24.7098 13.7063 24.865 13.9044 24.865H15.368C15.5677 24.865 15.7296 24.7115 15.7296 24.5221ZM41.9351 24.4698C41.9351 24.1073 41.7802 23.7791 41.5305 23.5423C41.2808 23.3056 40.9347 23.1586 40.5524 23.1586C40.1702 23.1586 39.8241 23.3056 39.5744 23.5423C39.3247 23.7791 39.1697 24.1073 39.1697 24.4698C39.1697 24.8323 39.3247 25.1605 39.5744 25.3973C39.8241 25.6341 40.1702 25.781 40.5524 25.781C40.9347 25.781 41.2808 25.6341 41.5305 25.3973C41.7802 25.1605 41.9351 24.8323 41.9351 24.4698ZM15.2456 32.5722L15.7208 34.6835L39.0647 34.6851L39.5399 32.5722L15.2439 32.5706L15.2456 32.5722ZM19.8467 35.8298C19.6762 35.7334 19.4541 35.7873 19.3542 35.9506C18.9186 36.6479 18.4296 37.2585 17.8924 37.7892C17.3551 38.3199 16.7697 38.7738 16.1394 39.1575C15.9724 39.2588 15.9242 39.471 16.031 39.6294C16.1377 39.7878 16.3616 39.8335 16.5286 39.7323C17.2053 39.3192 17.8338 38.8326 18.4123 38.2611C18.9892 37.6912 19.5126 37.0381 19.9758 36.2968C20.0774 36.1351 20.0206 35.9245 19.8484 35.8298L19.8467 35.8298ZM24.5836 36.0437C24.4132 35.9473 24.191 36.0012 24.0912 36.1645C23.6555 36.8618 23.1665 37.4724 22.6293 38.0031C22.0921 38.5338 21.5066 38.9877 20.8764 39.3714C20.7093 39.4727 20.6611 39.6849 20.7679 39.8433C20.8746 40.0017 21.0985 40.0474 21.2655 39.9462C21.9422 39.5331 22.5707 39.0465 23.1493 38.475C23.7261 37.9051 24.2496 37.252 24.7128 36.5107C24.8143 36.349 24.7575 36.1384 24.5853 36.0437L24.5836 36.0437ZM38.6119 39.0547C37.9817 38.6693 37.3945 38.217 36.859 37.6863C36.3217 37.1557 35.8327 36.545 35.3971 35.8478C35.2955 35.6861 35.0751 35.6322 34.9046 35.7269C34.7341 35.8233 34.6773 36.0323 34.7772 36.1939C35.2421 36.9369 35.7639 37.5884 36.3407 38.1583C36.9175 38.7281 37.5478 39.2163 38.2244 39.6295C38.3915 39.7307 38.6153 39.685 38.7221 39.5266C38.8288 39.3682 38.7806 39.1559 38.6136 39.0547L38.6119 39.0547ZM33.875 39.2686C33.2448 38.8832 32.6576 38.4309 32.1221 37.9003C31.5848 37.3696 31.0958 36.7589 30.6602 36.0617C30.5586 35.9 30.3382 35.8461 30.1677 35.9408C29.9972 36.0372 29.9404 36.2462 30.0403 36.4078C30.5052 37.1508 31.0269 37.8023 31.6038 38.3722C32.1806 38.942 32.8108 39.4302 33.4875 39.8434C33.6546 39.9446 33.8784 39.8989 33.9852 39.7405C34.0919 39.5821 34.0437 39.3698 33.8767 39.2686L33.875 39.2686Z" fill="#FDFDFD"/>
<defs>
<filter id="filter0_i_243_20" x="0" y="0" width="56" height="60" filterUnits="userSpaceOnUse" color-interpolation-filters="sRGB">
<feFlood flood-opacity="0" result="BackgroundImageFix"/>
<feBlend mode="normal" in="SourceGraphic" in2="BackgroundImageFix" result="shape"/>
<feColorMatrix in="SourceAlpha" type="matrix" values="0 0 0 0 0 0 0 0 0 0 0 0 0 0 0 0 0 0 127 0" result="hardAlpha"/>
<feOffset dy="4"/>
<feGaussianBlur stdDeviation="15"/>
<feComposite in2="hardAlpha" operator="arithmetic" k2="-1" k3="1"/>
<feColorMatrix type="matrix" values="0 0 0 0 0 0 0 0 0 0 0 0 0 0 0 0 0 0 0.15 0"/>
<feBlend mode="normal" in2="shape" result="effect1_innerShadow_243_20"/>
</filter>
</defs>
</svg>
