<svg width="56" height="56" viewBox="0 0 56 56" fill="none" xmlns="http://www.w3.org/2000/svg">
<circle cx="28" cy="28" r="28" fill="#068AF1"/>
<path d="M28.949 33.6845H29.0839V11.5245C29.0839 9.57806 27.5058 8 25.5594 8C23.6123 8 22.0348 9.57806 22.0348 11.5245V33.6845H22.169C19.6974 34.9271 18 37.4845 18 40.4406C18 44.6155 21.3839 48 25.5594 48C29.7348 48 33.1187 44.6155 33.1187 40.4406C33.1187 37.4852 31.4213 34.9271 28.949 33.6845ZM23.6387 37.0458C23.3168 37.211 20.5619 38.7381 21.8052 42.2194C21.9671 42.6735 21.731 43.1742 21.2755 43.3374C21.1781 43.3716 21.0794 43.389 20.9819 43.389C20.6226 43.389 20.2858 43.1652 20.1574 42.8084C18.7219 38.7877 21.2948 36.2581 22.8568 35.4819C23.2897 35.2665 23.8142 35.4432 24.029 35.8755C24.2439 36.3065 24.069 36.8297 23.6387 37.0458ZM27.2619 17.8987H23.8561V11.8574C23.8561 10.9187 24.6194 10.1555 25.5587 10.1555C26.4974 10.1555 27.2606 10.9187 27.2606 11.8574V17.8987H27.2619Z" fill="white"/>
<path d="M38.3536 12.6464C38.1583 12.4512 37.8417 12.4512 37.6464 12.6464L34.4645 15.8284C34.2692 16.0237 34.2692 16.3403 34.4645 16.5355C34.6597 16.7308 34.9763 16.7308 35.1716 16.5355L38 13.7071L40.8284 16.5355C41.0237 16.7308 41.3403 16.7308 41.5355 16.5355C41.7308 16.3403 41.7308 16.0237 41.5355 15.8284L38.3536 12.6464ZM38.5 31L38.5 13L37.5 13L37.5 31L38.5 31Z" fill="white"/>
</svg>
