<svg width="56" height="56" viewBox="0 0 56 56" fill="none" xmlns="http://www.w3.org/2000/svg">
<circle cx="28" cy="28" r="28" fill="white"/>
<path fill-rule="evenodd" clip-rule="evenodd" d="M28 0C12.536 0 0 12.536 0 28C0 43.464 12.536 56 28 56C43.464 56 56 43.464 56 28C56 12.536 43.464 0 28 0ZM32.8618 7.97775C35.0937 7.97775 40.441 16.0492 41.4862 17.6676C43.9204 21.4235 48 28.4295 48 33.1834C48 41.5246 41.2165 48.3149 32.8685 48.3149C25.3028 48.3149 19.0182 42.7384 17.9056 35.4828C12.3695 35.0243 8 30.3783 8 24.7208C8 21.3493 10.8456 16.4606 12.5381 13.8442C14.561 10.7222 17.2852 7 18.8092 7C20.6163 7 24.116 12.2933 25.8962 15.2131C27.9595 12.2596 31.2367 7.97775 32.8618 7.97775ZM18.8024 10.0007C16.6384 12.1377 10.7 20.7047 10.6972 24.7181C10.6992 28.8296 13.7801 32.2328 17.7572 32.7519C17.9865 28.0115 21.8908 21.3088 24.2508 17.6608C22.2549 14.1477 19.8948 11.12 18.8024 10.0007ZM20.4343 33.1834C20.4343 40.0411 26.0108 45.6177 32.8685 45.6177C39.7262 45.6177 45.3028 40.0411 45.3028 33.1834C45.3028 26.6831 35.4781 13.2036 32.8685 10.884C30.2589 13.2036 20.4343 26.6831 20.4343 33.1834ZM34.2239 42.3068C34.3385 42.3068 34.4464 42.2933 34.561 42.2663H34.5543C40.9939 40.6278 42.1605 35.294 41.8773 32.7047C41.7896 31.9629 41.1288 31.4302 40.3871 31.5111C39.6453 31.592 39.1126 32.2529 39.1935 32.9946C39.2138 33.2036 39.6858 38.1733 33.8867 39.65C33.1652 39.8321 32.7337 40.5671 32.9157 41.2886C33.0708 41.9022 33.6237 42.3068 34.2239 42.3068Z" fill="#04B480"/>
</svg>
