<svg width="56" height="56" viewBox="0 0 56 56" fill="none" xmlns="http://www.w3.org/2000/svg">
<g filter="url(#filter0_i_135_37)">
<circle cx="28" cy="28" r="28" fill="#961233"/>
</g>
<path fill-rule="evenodd" clip-rule="evenodd" d="M29.6799 25.1424H31.3637C32.0849 25.1424 32.7849 25.4724 33.2937 26.0962C33.7399 26.6399 33.9999 27.3737 33.9999 28.1437V39C33.9999 39.7687 33.7399 40.5037 33.2937 41.0475C32.7849 41.6712 32.0849 42 31.3637 42H16.6362C15.915 42 15.215 41.6713 14.7062 41.0475C14.26 40.5037 14 39.7687 14 39V28.1437C14 27.3737 14.26 26.6399 14.7062 26.0962C15.215 25.4724 15.915 25.1424 16.6362 25.1424H27.6801V20.9136C27.6801 19.0799 28.4101 17.321 29.7051 16.025C31.0014 14.7275 32.7601 14 34.5951 14H34.9801C34.9988 14 35.0163 14 35.0326 14.0012C35.0513 14 35.0688 14 35.0863 14C36.9201 14 38.679 14.7275 39.9762 16.025C41.2713 17.3212 42 19.08 42 20.9136V26.1424C42 26.6937 41.5525 27.1424 41 27.1424C40.4487 27.1424 40 26.6937 40 26.1424V20.9136C40 19.6099 39.4825 18.3611 38.5612 17.4388C37.64 16.5175 36.39 16 35.0863 16H34.5951C33.2913 16 32.0413 16.5175 31.1215 17.4388C30.199 18.3612 29.6802 19.61 29.6802 20.9136L29.6799 25.1424ZM20.4997 37.9988C19.9484 37.9988 19.501 37.5513 19.501 37C19.501 36.4487 19.9484 36.0012 20.4997 36.0012H27.4997C28.051 36.0012 28.4985 36.4487 28.4985 37C28.4985 37.5513 28.051 37.9988 27.4997 37.9988H20.4997Z" fill="#FCFCFC"/>
<defs>
<filter id="filter0_i_135_37" x="0" y="0" width="56" height="60" filterUnits="userSpaceOnUse" color-interpolation-filters="sRGB">
<feFlood flood-opacity="0" result="BackgroundImageFix"/>
<feBlend mode="normal" in="SourceGraphic" in2="BackgroundImageFix" result="shape"/>
<feColorMatrix in="SourceAlpha" type="matrix" values="0 0 0 0 0 0 0 0 0 0 0 0 0 0 0 0 0 0 127 0" result="hardAlpha"/>
<feOffset dy="4"/>
<feGaussianBlur stdDeviation="15"/>
<feComposite in2="hardAlpha" operator="arithmetic" k2="-1" k3="1"/>
<feColorMatrix type="matrix" values="0 0 0 0 0 0 0 0 0 0 0 0 0 0 0 0 0 0 0.15 0"/>
<feBlend mode="normal" in2="shape" result="effect1_innerShadow_135_37"/>
</filter>
</defs>
</svg>
