<svg width="80" height="47" viewBox="0 0 80 47" fill="none" xmlns="http://www.w3.org/2000/svg">
<path d="M79 2.00318e-08H23.71C23.4448 2.00318e-08 23.1904 0.105356 23.0029 0.292892C22.8154 0.480429 22.71 0.734784 22.71 1V5.87H9.07C8.89477 5.86828 8.72216 5.91265 8.56947 5.99864C8.41678 6.08464 8.28937 6.20925 8.2 6.36L0.1 19.51C0.0577093 19.6714 0.0243252 19.835 0 20V41.07C0.0121727 41.3313 0.121437 41.5786 0.3064 41.7636C0.491364 41.9486 0.738706 42.0578 1 42.07H10.65C11.3909 43.5751 12.594 44.8037 14.0833 45.576C15.5725 46.3484 17.2698 46.624 18.9269 46.3625C20.584 46.101 22.114 45.3162 23.2931 44.1228C24.4722 42.9295 25.2385 41.3901 25.48 39.73H55.9C56.1609 41.6013 57.0896 43.3151 58.5148 44.5554C59.94 45.7957 61.7656 46.4789 63.655 46.4789C65.5443 46.4789 67.37 45.7957 68.7952 44.5554C70.2204 43.3151 71.1491 41.6013 71.41 39.73H79C79.1344 39.7423 79.2699 39.7249 79.3968 39.679C79.5237 39.6331 79.6389 39.5598 79.7344 39.4644C79.8298 39.3689 79.9031 39.2537 79.949 39.1268C79.9949 38.9999 80.0123 38.8644 80 38.73V0.98C79.9948 0.718265 79.8871 0.469018 79.7001 0.285786C79.5132 0.102553 79.2618 -5.23426e-05 79 2.00318e-08ZM2 20.29L9.61 7.81H22.73V20.59H12.29C12.1373 20.5816 11.9851 20.6132 11.8483 20.6816C11.7115 20.75 11.5949 20.8528 11.51 20.98L10.44 22.73H2V20.29ZM9.71 40.1H2V37.22H9.71V40.1ZM10.29 35.42C10.2 35.42 10.2 35.42 10.1 35.51C10.0534 35.4208 9.9829 35.3464 9.89633 35.2952C9.80975 35.2439 9.71058 35.2179 9.61 35.22H2V24.68H11C11.1729 24.6695 11.3414 24.621 11.4935 24.5381C11.6456 24.4551 11.7775 24.3397 11.88 24.2L12.95 22.54H22.8V32.22C21.406 30.9646 19.6057 30.2544 17.73 30.22C16.1005 30.2208 14.5102 30.7192 13.1717 31.6485C11.8331 32.5777 10.8103 33.8936 10.24 35.42H10.29ZM17.71 44.49C16.5074 44.4821 15.334 44.1188 14.3372 43.446C13.3405 42.7731 12.5648 41.8206 12.1078 40.7082C11.6508 39.5958 11.5328 38.3731 11.7687 37.1939C12.0045 36.0146 12.5837 34.9314 13.4333 34.0803C14.283 33.2292 15.3653 32.6483 16.5442 32.4105C17.7231 32.1728 18.946 32.2888 20.0591 32.744C21.1722 33.1992 22.126 33.9733 22.8005 34.9689C23.475 35.9646 23.8401 37.1374 23.85 38.34C23.8568 39.1529 23.701 39.9589 23.3918 40.7108C23.0826 41.4626 22.6262 42.145 22.0496 42.718C21.4729 43.2909 20.7875 43.7428 20.0337 44.0471C19.2799 44.3515 18.4728 44.502 17.66 44.49H17.71ZM55.76 37.76H25.76C25.6578 36.7824 25.4013 35.8272 25 34.93H56.39C56.0162 35.8318 55.7867 36.7868 55.71 37.76H55.76ZM63.66 44.49C62.4579 44.4801 61.2854 44.1152 60.29 43.4412C59.2945 42.7671 58.5205 41.8139 58.065 40.7014C57.6095 39.5888 57.4929 38.3665 57.7299 37.1878C57.9668 36.0092 58.5468 34.9269 59.3969 34.0769C60.2469 33.2268 61.3292 32.6468 62.5079 32.4099C63.6865 32.1729 64.9088 32.2895 66.0214 32.745C67.1339 33.2005 68.0871 33.9745 68.7612 34.97C69.4352 35.9654 69.8001 37.1379 69.81 38.34C69.8168 39.1537 69.6607 39.9606 69.3509 40.7131C69.0411 41.4656 68.5838 42.1485 68.0061 42.7216C67.4283 43.2947 66.7417 43.7464 65.9868 44.0501C65.2318 44.3538 64.4237 44.5034 63.61 44.49H63.66ZM78.1 37.76H71.61C71.5333 36.7868 71.3038 35.8318 70.93 34.93H78.05L78.1 37.76ZM78.1 32.98H69.56C68.8353 32.1212 67.9319 31.431 66.9128 30.9576C65.8938 30.4841 64.7837 30.2388 63.66 30.2388C62.5363 30.2388 61.4262 30.4841 60.4072 30.9576C59.3881 31.431 58.4847 32.1212 57.76 32.98H24.68V1.98H78.05L78.1 32.98Z" fill="black"/>
</svg>
